<svg width="127" height="22" viewBox="0 0 127 22" fill="none" xmlns="http://www.w3.org/2000/svg">
<path d="M23.7257 0.31424H20.125V17.4436H23.7257V0.31424Z" fill="#222445"/>
<path d="M8.87755 0C3.98255 0 0 3.98255 0 8.87754C0 13.7725 3.98255 17.7554 8.87755 17.7554C13.7729 17.7554 17.7554 13.7725 17.7554 8.87754C17.7554 3.98254 13.7729 0 8.87755 0ZM14.1547 8.87754C14.1547 11.7874 11.7874 14.1544 8.87755 14.1544C5.96807 14.1544 3.60072 11.7874 3.60072 8.87754C3.60072 5.96772 5.96807 3.60072 8.87755 3.60072C11.7874 3.60072 14.1547 5.96773 14.1547 8.87754Z" fill="#222445"/>
<path d="M30.0021 0.314148L23.7266 8.87933L30.0021 17.4435H34.323L28.0485 8.87933L34.324 0.314148H30.0021Z" fill="#222445"/>
<path d="M48.8857 10.059C48.515 9.43127 47.8988 8.88552 47.0548 8.4372C46.2336 8.00106 45.1138 7.59881 43.7254 7.24102C42.4538 6.92074 41.4821 6.64227 40.8366 6.4135C40.071 6.14325 39.7467 5.90527 39.6098 5.75287C39.4222 5.54484 39.331 5.29533 39.331 4.99019C39.331 4.45069 39.5851 4.03529 40.1082 3.72061C40.6592 3.38848 41.3998 3.2397 42.3073 3.27789C43.2546 3.31607 44.0311 3.55043 44.6154 3.9744C45.0331 4.27788 45.3284 4.66761 45.4933 5.1324L45.5506 5.29401H49.3843L49.3501 5.0208C49.223 4.00797 48.8373 3.11132 48.203 2.3559C47.5739 1.60573 46.7411 1.01883 45.728 0.611325C44.7227 0.207444 43.5647 0.00238037 42.2866 0.00238037C40.9772 0.00238037 39.8155 0.21304 38.834 0.628121C37.8412 1.04846 37.0595 1.6528 36.5101 2.42404C35.9574 3.19987 35.677 4.11956 35.677 5.15708C35.677 5.9981 35.8653 6.7272 36.2365 7.3243C36.6072 7.92173 37.2313 8.44608 38.0911 8.88321C38.9255 9.30817 40.0664 9.70975 41.4811 10.0764C42.752 10.4171 43.7089 10.7051 44.3248 10.9332C45.0469 11.2018 45.3363 11.4379 45.4518 11.5883C45.6151 11.8019 45.6977 12.0916 45.6977 12.449C45.6977 13.0794 45.4554 13.5603 44.9564 13.9194C44.4406 14.2914 43.7056 14.4803 42.7721 14.4803C41.7346 14.4803 40.8593 14.2466 40.1707 13.7861C39.625 13.4207 39.2477 12.9639 39.017 12.3891L38.9558 12.2367H35.0996L35.15 12.5218C35.4426 14.1762 36.2514 15.4787 37.5539 16.3928C38.8425 17.297 40.5269 17.7552 42.5598 17.7552C44.6773 17.7552 46.3672 17.2739 47.5832 16.3243C48.8169 15.3605 49.4423 14.0159 49.4423 12.3276C49.4423 11.4474 49.255 10.6844 48.8857 10.059Z" fill="#222445"/>
<path d="M72.2335 8.41102L64.9942 8.43143L65.0011 11.0654L69.487 11.0575C69.2651 11.7925 68.8919 12.4722 68.3672 13.096C67.173 14.4565 65.6341 15.1385 63.7503 15.1434C61.9462 15.1484 60.4761 14.5776 59.3395 13.4311C58.2026 12.2846 57.6322 10.7859 57.6272 8.93374C57.6223 7.08186 58.1848 5.57956 59.3158 4.42715C60.4465 3.27476 61.9133 2.69608 63.7174 2.69148C65.5054 2.68654 66.9837 3.26554 68.1526 4.42782C68.6644 4.93769 69.065 5.51142 69.354 6.14868L72.1081 6.14144C71.7697 4.99299 71.2404 3.98081 70.5196 3.10425C68.8859 1.06541 66.616 0.0492789 63.7105 0.0571746C61.1723 0.0637644 59.0433 0.907407 57.3231 2.58844C55.6035 4.26949 54.747 6.387 54.7539 8.94164C54.7605 11.4959 55.6282 13.6085 57.3567 15.2803C59.0857 16.9522 61.2194 17.7846 63.7572 17.7777C66.5989 17.7705 68.8787 16.6474 70.5976 14.4074C70.6048 14.3975 70.6121 14.388 70.6193 14.3781C71.701 12.9239 72.2408 11.1368 72.2358 9.32446L72.2335 8.41102Z" fill="#222445"/>
<path d="M76.087 17.2664L76.0547 5.05341L78.5692 5.04683L78.5738 6.84308L78.6936 6.84274C78.8684 6.50667 79.1228 6.18705 79.4576 5.88291C80.1896 5.24235 81.0507 4.92043 82.0409 4.9178L83.4777 4.91385L83.4839 7.30885L81.928 7.31312C80.9536 7.31576 80.1524 7.62517 79.5237 8.24136C78.8941 8.85789 78.5813 9.66829 78.584 10.6742L78.6014 17.2598L76.087 17.2664Z" fill="#222445"/>
<path d="M86.6562 15.6459C85.4317 14.428 84.8171 12.925 84.8125 11.1367C84.8079 9.34933 85.4142 7.84275 86.6321 6.61793C87.8507 5.39344 89.3534 4.77889 91.1414 4.77429C92.9291 4.76968 94.4356 5.37599 95.6605 6.5939C96.8846 7.81246 97.4992 9.31576 97.5038 11.1031C97.5087 12.8915 96.9021 14.3977 95.6842 15.6222C94.4659 16.8464 92.9626 17.4616 91.1749 17.4662C89.3869 17.4711 87.881 16.8638 86.6562 15.6459ZM88.4686 8.1696C87.7836 8.91352 87.4429 9.90035 87.4462 11.1298C87.4495 12.3592 87.7954 13.3441 88.484 14.0847C89.1723 14.825 90.0673 15.194 91.169 15.191C92.2707 15.188 93.1634 14.8144 93.8481 14.0705C94.5324 13.3263 94.8734 12.3395 94.8701 11.1104C94.8668 9.88093 94.5206 8.89575 93.8323 8.15545C93.144 7.41516 92.2493 7.04617 91.1476 7.04913C90.0456 7.05176 89.1529 7.4257 88.4686 8.1696Z" fill="#222445"/>
<path d="M99.7811 12.2948L99.7617 4.99066L102.276 4.98407L102.295 12.0483C102.298 13.1184 102.536 13.9041 103.008 14.4054C103.48 14.907 104.203 15.1565 105.176 15.1539C106.15 15.1513 106.952 14.8178 107.581 14.1539C108.21 13.49 108.523 12.623 108.52 11.5532L108.503 4.96762L111.017 4.96103L111.049 17.174L108.535 17.1806L108.531 15.5041L108.41 15.5045C108.22 15.8248 107.925 16.1447 107.527 16.4647C106.667 17.1055 105.686 17.4278 104.584 17.4307C103.067 17.435 101.889 16.9989 101.049 16.1227C100.208 15.2471 99.7854 13.9706 99.7811 12.2948Z" fill="#222445"/>
<path d="M114.056 21.7159L114.012 4.95325L116.526 4.94634L116.53 6.50295L116.65 6.50262C116.937 6.1672 117.263 5.87062 117.63 5.61388C118.49 5.00525 119.439 4.69946 120.477 4.69683C122.121 4.69255 123.492 5.2755 124.588 6.44601C125.685 7.61651 126.236 9.14416 126.241 11.0273C126.246 12.9111 125.703 14.4411 124.612 15.6175C123.522 16.7939 122.154 17.3844 120.51 17.3887C119.457 17.3917 118.506 17.0984 117.659 16.5102C117.275 16.2396 116.947 15.9374 116.674 15.6027L116.554 15.603L116.57 21.7093L114.056 21.7159ZM117.48 8.04541C116.851 8.7574 116.539 9.75969 116.542 11.053C116.546 12.3463 116.863 13.3473 117.496 14.0563C118.129 14.765 118.972 15.1175 120.025 15.1149C121.143 15.1119 122.02 14.7587 122.657 14.0543C123.293 13.3505 123.61 12.3436 123.607 11.0342C123.603 9.72579 123.281 8.72053 122.641 8.01941C122 7.31895 121.121 6.96971 120.004 6.97267C118.95 6.97562 118.109 7.33343 117.48 8.04541Z" fill="#222445"/>
</svg>
