<svg width="780" height="23" viewBox="0 0 780 23" fill="none" xmlns="http://www.w3.org/2000/svg">
<path d="M187 11H207" stroke="#C8D6DF" stroke-width="4" stroke-linecap="round"/>
<path d="M382 11H571" stroke="#C8D6DF" stroke-width="2" stroke-linecap="round"/>
<path d="M6.98242 5.67578L2.73438 18H0.166016L5.51758 3.78125H7.1582L6.98242 5.67578ZM10.5371 18L6.2793 5.67578L6.09375 3.78125H7.74414L13.1152 18H10.5371ZM10.332 12.7266V14.6699H2.59766V12.7266H10.332ZM21.748 7.43359V9.30859H16.5918V7.43359H21.748ZM23.5938 7.43359V18H21.2402V7.43359H23.5938ZM16.0156 7.43359H18.3398L18.0566 12.6582C18.0176 13.4329 17.9395 14.1165 17.8223 14.709C17.7116 15.2949 17.5618 15.7995 17.373 16.2227C17.1842 16.6393 16.9531 16.9779 16.6797 17.2383C16.4062 17.4987 16.0872 17.6908 15.7227 17.8145C15.3581 17.9382 14.9479 18 14.4922 18H13.7598L13.75 16.0664L14.1211 16.0371C14.362 16.0176 14.5703 15.9557 14.7461 15.8516C14.9219 15.7409 15.0716 15.5846 15.1953 15.3828C15.3255 15.181 15.4297 14.9206 15.5078 14.6016C15.5924 14.2826 15.6576 13.9049 15.7031 13.4688C15.7552 13.0326 15.7943 12.5247 15.8203 11.9453L16.0156 7.43359ZM27.8418 10.793H30.957C31.8685 10.793 32.6432 10.946 33.2812 11.252C33.9193 11.5579 34.4043 11.9844 34.7363 12.5312C35.0749 13.0716 35.2441 13.6901 35.2441 14.3867C35.2441 14.901 35.1497 15.3796 34.9609 15.8223C34.7721 16.2585 34.4922 16.6393 34.1211 16.9648C33.7565 17.2904 33.3073 17.5443 32.7734 17.7266C32.2461 17.9089 31.6406 18 30.957 18H26.2793V7.43359H28.6426V16.1348H30.957C31.4258 16.1348 31.8001 16.0534 32.0801 15.8906C32.36 15.7279 32.5618 15.5163 32.6855 15.2559C32.8158 14.9954 32.8809 14.7188 32.8809 14.4258C32.8809 14.1263 32.8158 13.8431 32.6855 13.5762C32.5618 13.3092 32.36 13.0911 32.0801 12.9219C31.8001 12.7526 31.4258 12.668 30.957 12.668H27.8418V10.793ZM41.8652 10.9883V12.8633H36.6992V10.9883H41.8652ZM49.3164 5.11914H52.1094C52.9492 5.11914 53.7207 5.25911 54.4238 5.53906C55.1335 5.81901 55.752 6.21615 56.2793 6.73047C56.8066 7.23828 57.2168 7.85026 57.5098 8.56641C57.8027 9.27604 57.9492 10.0671 57.9492 10.9395C57.9492 11.7988 57.8027 12.5833 57.5098 13.293C57.2168 14.0026 56.8066 14.6146 56.2793 15.1289C55.752 15.6367 55.1335 16.0273 54.4238 16.3008C53.7207 16.5742 52.9492 16.7109 52.1094 16.7109H49.3164C48.4831 16.7109 47.7116 16.5742 47.002 16.3008C46.2923 16.0273 45.6706 15.6367 45.1367 15.1289C44.6094 14.6211 44.1992 14.0156 43.9062 13.3125C43.6198 12.6029 43.4766 11.8184 43.4766 10.959C43.4766 10.0866 43.6198 9.29557 43.9062 8.58594C44.1992 7.86979 44.6094 7.25456 45.1367 6.74023C45.6706 6.2194 46.2923 5.81901 47.002 5.53906C47.7116 5.25911 48.4831 5.11914 49.3164 5.11914ZM49.3164 7.07227C48.5872 7.07227 47.959 7.22852 47.4316 7.54102C46.9043 7.84701 46.4974 8.28971 46.2109 8.86914C45.931 9.44857 45.791 10.1452 45.791 10.959C45.791 11.5579 45.8724 12.0918 46.0352 12.5605C46.1979 13.0293 46.4323 13.4264 46.7383 13.752C47.0443 14.0775 47.4154 14.3281 47.8516 14.5039C48.2878 14.6797 48.776 14.7676 49.3164 14.7676H52.1289C52.8516 14.7676 53.4733 14.6146 53.9941 14.3086C54.515 13.9961 54.9154 13.5534 55.1953 12.9805C55.4818 12.4076 55.625 11.7272 55.625 10.9395C55.625 10.334 55.5436 9.79362 55.3809 9.31836C55.2246 8.83659 54.9935 8.42969 54.6875 8.09766C54.388 7.76562 54.0234 7.51172 53.5938 7.33594C53.1641 7.16016 52.6758 7.07227 52.1289 7.07227H49.3164ZM51.8945 3.19531V18.5859H49.541V3.19531H51.8945ZM65.8203 15.8809V10.8418C65.8203 10.4642 65.752 10.1387 65.6152 9.86523C65.4785 9.5918 65.2702 9.38021 64.9902 9.23047C64.7168 9.08073 64.3717 9.00586 63.9551 9.00586C63.571 9.00586 63.2389 9.07096 62.959 9.20117C62.679 9.33138 62.4609 9.50716 62.3047 9.72852C62.1484 9.94987 62.0703 10.2005 62.0703 10.4805H59.7266C59.7266 10.0638 59.8275 9.66016 60.0293 9.26953C60.2311 8.87891 60.5241 8.5306 60.9082 8.22461C61.2923 7.91862 61.7513 7.67773 62.2852 7.50195C62.819 7.32617 63.418 7.23828 64.082 7.23828C64.8763 7.23828 65.5794 7.37174 66.1914 7.63867C66.8099 7.9056 67.2949 8.30924 67.6465 8.84961C68.0046 9.38346 68.1836 10.054 68.1836 10.8613V15.5586C68.1836 16.0404 68.2161 16.4733 68.2812 16.8574C68.3529 17.235 68.4538 17.5638 68.584 17.8438V18H66.1719C66.0612 17.7461 65.9733 17.4238 65.9082 17.0332C65.8496 16.6361 65.8203 16.252 65.8203 15.8809ZM66.1621 11.5742L66.1816 13.0293H64.4922C64.056 13.0293 63.6719 13.0716 63.3398 13.1562C63.0078 13.2344 62.7311 13.3516 62.5098 13.5078C62.2884 13.6641 62.1224 13.8529 62.0117 14.0742C61.901 14.2956 61.8457 14.5462 61.8457 14.8262C61.8457 15.1061 61.9108 15.3633 62.041 15.5977C62.1712 15.8255 62.36 16.0046 62.6074 16.1348C62.8613 16.265 63.1673 16.3301 63.5254 16.3301C64.0072 16.3301 64.4271 16.2324 64.7852 16.0371C65.1497 15.8353 65.4362 15.5911 65.6445 15.3047C65.8529 15.0117 65.9635 14.735 65.9766 14.4746L66.7383 15.5195C66.6602 15.7865 66.5267 16.0729 66.3379 16.3789C66.1491 16.6849 65.9017 16.9779 65.5957 17.2578C65.2962 17.5312 64.9349 17.7559 64.5117 17.9316C64.0951 18.1074 63.6133 18.1953 63.0664 18.1953C62.3763 18.1953 61.7611 18.0586 61.2207 17.7852C60.6803 17.5052 60.2572 17.1309 59.9512 16.6621C59.6452 16.1868 59.4922 15.6497 59.4922 15.0508C59.4922 14.4909 59.5964 13.9961 59.8047 13.5664C60.0195 13.1302 60.332 12.7656 60.7422 12.4727C61.1589 12.1797 61.6667 11.9583 62.2656 11.8086C62.8646 11.6523 63.5482 11.5742 64.3164 11.5742H66.1621ZM73.0078 9.46484V22.0625H70.6543V7.43359H72.8223L73.0078 9.46484ZM79.8926 12.6191V12.8242C79.8926 13.5924 79.8014 14.3053 79.6191 14.9629C79.4434 15.6139 79.1797 16.1836 78.8281 16.6719C78.4831 17.1536 78.0566 17.528 77.5488 17.7949C77.041 18.0618 76.4551 18.1953 75.791 18.1953C75.1335 18.1953 74.5573 18.0749 74.0625 17.834C73.5742 17.5866 73.1608 17.2383 72.8223 16.7891C72.4837 16.3398 72.2103 15.8125 72.002 15.207C71.8001 14.5951 71.6569 13.9245 71.5723 13.1953V12.4043C71.6569 11.6296 71.8001 10.9264 72.002 10.2949C72.2103 9.66341 72.4837 9.11979 72.8223 8.66406C73.1608 8.20833 73.5742 7.85677 74.0625 7.60938C74.5508 7.36198 75.1204 7.23828 75.7715 7.23828C76.4355 7.23828 77.0247 7.36849 77.5391 7.62891C78.0534 7.88281 78.4863 8.2474 78.8379 8.72266C79.1895 9.19141 79.4531 9.75781 79.6289 10.4219C79.8047 11.0794 79.8926 11.8118 79.8926 12.6191ZM77.5391 12.8242V12.6191C77.5391 12.1309 77.4935 11.6784 77.4023 11.2617C77.3112 10.8385 77.168 10.4674 76.9727 10.1484C76.7773 9.82943 76.5267 9.58203 76.2207 9.40625C75.9212 9.22396 75.5599 9.13281 75.1367 9.13281C74.7201 9.13281 74.362 9.20443 74.0625 9.34766C73.763 9.48438 73.5124 9.67643 73.3105 9.92383C73.1087 10.1712 72.9525 10.4609 72.8418 10.793C72.7311 11.1185 72.653 11.4733 72.6074 11.8574V13.752C72.6855 14.2207 72.819 14.6504 73.0078 15.041C73.1966 15.4316 73.4635 15.7441 73.8086 15.9785C74.1602 16.2064 74.6094 16.3203 75.1562 16.3203C75.5794 16.3203 75.9408 16.2292 76.2402 16.0469C76.5397 15.8646 76.7839 15.6139 76.9727 15.2949C77.168 14.9694 77.3112 14.5951 77.4023 14.1719C77.4935 13.7487 77.5391 13.2995 77.5391 12.8242ZM87.8516 15.8809V10.8418C87.8516 10.4642 87.7832 10.1387 87.6465 9.86523C87.5098 9.5918 87.3014 9.38021 87.0215 9.23047C86.748 9.08073 86.403 9.00586 85.9863 9.00586C85.6022 9.00586 85.2702 9.07096 84.9902 9.20117C84.7103 9.33138 84.4922 9.50716 84.3359 9.72852C84.1797 9.94987 84.1016 10.2005 84.1016 10.4805H81.7578C81.7578 10.0638 81.8587 9.66016 82.0605 9.26953C82.2624 8.87891 82.5553 8.5306 82.9395 8.22461C83.3236 7.91862 83.7826 7.67773 84.3164 7.50195C84.8503 7.32617 85.4492 7.23828 86.1133 7.23828C86.9076 7.23828 87.6107 7.37174 88.2227 7.63867C88.8411 7.9056 89.3262 8.30924 89.6777 8.84961C90.0358 9.38346 90.2148 10.054 90.2148 10.8613V15.5586C90.2148 16.0404 90.2474 16.4733 90.3125 16.8574C90.3841 17.235 90.485 17.5638 90.6152 17.8438V18H88.2031C88.0924 17.7461 88.0046 17.4238 87.9395 17.0332C87.8809 16.6361 87.8516 16.252 87.8516 15.8809ZM88.1934 11.5742L88.2129 13.0293H86.5234C86.0872 13.0293 85.7031 13.0716 85.3711 13.1562C85.0391 13.2344 84.7624 13.3516 84.541 13.5078C84.3197 13.6641 84.1536 13.8529 84.043 14.0742C83.9323 14.2956 83.877 14.5462 83.877 14.8262C83.877 15.1061 83.9421 15.3633 84.0723 15.5977C84.2025 15.8255 84.3913 16.0046 84.6387 16.1348C84.8926 16.265 85.1986 16.3301 85.5566 16.3301C86.0384 16.3301 86.4583 16.2324 86.8164 16.0371C87.181 15.8353 87.4674 15.5911 87.6758 15.3047C87.8841 15.0117 87.9948 14.735 88.0078 14.4746L88.7695 15.5195C88.6914 15.7865 88.5579 16.0729 88.3691 16.3789C88.1803 16.6849 87.9329 16.9779 87.627 17.2578C87.3275 17.5312 86.9661 17.7559 86.543 17.9316C86.1263 18.1074 85.6445 18.1953 85.0977 18.1953C84.4076 18.1953 83.7923 18.0586 83.252 17.7852C82.7116 17.5052 82.2884 17.1309 81.9824 16.6621C81.6764 16.1868 81.5234 15.6497 81.5234 15.0508C81.5234 14.4909 81.6276 13.9961 81.8359 13.5664C82.0508 13.1302 82.3633 12.7656 82.7734 12.4727C83.1901 12.1797 83.6979 11.9583 84.2969 11.8086C84.8958 11.6523 85.5794 11.5742 86.3477 11.5742H88.1934ZM99.3066 2.80469H101.211C101.211 3.38411 101.13 3.86263 100.967 4.24023C100.811 4.61133 100.576 4.91732 100.264 5.1582C99.9577 5.39258 99.5768 5.58138 99.1211 5.72461C98.6719 5.86784 98.151 5.99805 97.5586 6.11523C97.0117 6.23242 96.5169 6.41797 96.0742 6.67188C95.638 6.91927 95.2702 7.26758 94.9707 7.7168C94.6777 8.15951 94.4661 8.72917 94.3359 9.42578C94.2057 10.1224 94.1667 10.972 94.2188 11.9746V12.6387L92.3535 12.8047V12.1406C92.3535 10.8971 92.4674 9.81315 92.6953 8.88867C92.9232 7.96419 93.2454 7.1862 93.6621 6.55469C94.0853 5.91667 94.5866 5.40885 95.166 5.03125C95.752 4.65365 96.403 4.39323 97.1191 4.25C97.6074 4.14583 98.0143 4.04167 98.3398 3.9375C98.6654 3.82682 98.9062 3.68685 99.0625 3.51758C99.2253 3.3418 99.3066 3.10417 99.3066 2.80469ZM97.6562 8.0293C98.3594 8.0293 98.9844 8.15299 99.5312 8.40039C100.078 8.64128 100.54 8.97982 100.918 9.41602C101.296 9.85221 101.582 10.3665 101.777 10.959C101.979 11.5514 102.08 12.196 102.08 12.8926V13.1074C102.08 13.8366 101.973 14.5104 101.758 15.1289C101.543 15.7474 101.227 16.2878 100.811 16.75C100.394 17.2057 99.8828 17.5638 99.2773 17.8242C98.6784 18.0781 97.9915 18.2051 97.2168 18.2051C96.4486 18.2051 95.7617 18.0716 95.1562 17.8047C94.5508 17.5378 94.0397 17.1667 93.623 16.6914C93.2064 16.2096 92.8906 15.6465 92.6758 15.002C92.4609 14.3574 92.3535 13.6543 92.3535 12.8926V12.6777C92.347 12.541 92.3828 12.4076 92.4609 12.2773C92.5456 12.1471 92.6465 12.0072 92.7637 11.8574C92.8809 11.7077 92.985 11.5352 93.0762 11.3398C93.4017 10.6823 93.7858 10.1061 94.2285 9.61133C94.6712 9.11654 95.1758 8.72917 95.7422 8.44922C96.3151 8.16927 96.9531 8.0293 97.6562 8.0293ZM97.1973 9.89453C96.6113 9.89453 96.1328 10.0345 95.7617 10.3145C95.3971 10.5879 95.127 10.9525 94.9512 11.4082C94.7819 11.8639 94.6973 12.3587 94.6973 12.8926V13.1074C94.6973 13.5436 94.7461 13.957 94.8438 14.3477C94.9414 14.7383 95.0879 15.0833 95.2832 15.3828C95.485 15.6758 95.7454 15.9069 96.0645 16.0762C96.39 16.2454 96.7741 16.3301 97.2168 16.3301C97.666 16.3301 98.0469 16.2454 98.3594 16.0762C98.6784 15.9069 98.9355 15.6758 99.1309 15.3828C99.3327 15.0833 99.4792 14.7383 99.5703 14.3477C99.668 13.957 99.7168 13.5436 99.7168 13.1074V12.8926C99.7168 12.4889 99.668 12.1081 99.5703 11.75C99.4792 11.3919 99.3327 11.0762 99.1309 10.8027C98.929 10.5228 98.6686 10.3014 98.3496 10.1387C98.0306 9.97591 97.6465 9.89453 97.1973 9.89453ZM106.182 14.5625L110.332 7.43359H112.686V18H110.332V10.8613L106.182 18H103.828V7.43359H106.182V14.5625ZM126.445 3.73242V18H124.092V6.52539L120.605 7.70703V5.76367L126.162 3.73242H126.445ZM141.182 12.9316V14.8066H130.928L130.85 13.3906L136.982 3.78125H138.867L136.826 7.27734L133.301 12.9316H141.182ZM139.404 3.78125V18H137.051V3.78125H139.404ZM152.285 16.125V18H142.754V16.3887L147.383 11.3398C147.891 10.7669 148.291 10.2721 148.584 9.85547C148.877 9.4388 149.082 9.06445 149.199 8.73242C149.323 8.39388 149.385 8.0651 149.385 7.74609C149.385 7.29688 149.3 6.90299 149.131 6.56445C148.968 6.2194 148.727 5.94922 148.408 5.75391C148.089 5.55208 147.702 5.45117 147.246 5.45117C146.719 5.45117 146.276 5.5651 145.918 5.79297C145.56 6.02083 145.29 6.33659 145.107 6.74023C144.925 7.13737 144.834 7.5931 144.834 8.10742H142.48C142.48 7.2806 142.669 6.52539 143.047 5.8418C143.424 5.15169 143.971 4.60482 144.688 4.20117C145.404 3.79102 146.266 3.58594 147.275 3.58594C148.226 3.58594 149.033 3.74544 149.697 4.06445C150.361 4.38346 150.866 4.83594 151.211 5.42188C151.562 6.00781 151.738 6.70117 151.738 7.50195C151.738 7.94466 151.667 8.38411 151.523 8.82031C151.38 9.25651 151.175 9.69271 150.908 10.1289C150.648 10.5586 150.339 10.9915 149.98 11.4277C149.622 11.8574 149.229 12.2936 148.799 12.7363L145.723 16.125H152.285ZM160.029 5.67578L155.781 18H153.213L158.564 3.78125H160.205L160.029 5.67578ZM163.584 18L159.326 5.67578L159.141 3.78125H160.791L166.162 18H163.584ZM163.379 12.7266V14.6699H155.645V12.7266H163.379Z" fill="#9BA2A7"/>
<path d="M239.783 10.5V11.2812C239.783 12.3555 239.643 13.319 239.363 14.1719C239.083 15.0247 238.683 15.7507 238.162 16.3496C237.648 16.9486 237.029 17.4076 236.307 17.7266C235.584 18.0391 234.783 18.1953 233.904 18.1953C233.032 18.1953 232.234 18.0391 231.512 17.7266C230.796 17.4076 230.174 16.9486 229.646 16.3496C229.119 15.7507 228.709 15.0247 228.416 14.1719C228.13 13.319 227.986 12.3555 227.986 11.2812V10.5C227.986 9.42578 228.13 8.46549 228.416 7.61914C228.702 6.76628 229.106 6.04036 229.627 5.44141C230.154 4.83594 230.776 4.37695 231.492 4.06445C232.215 3.74544 233.012 3.58594 233.885 3.58594C234.764 3.58594 235.564 3.74544 236.287 4.06445C237.01 4.37695 237.632 4.83594 238.152 5.44141C238.673 6.04036 239.074 6.76628 239.354 7.61914C239.64 8.46549 239.783 9.42578 239.783 10.5ZM237.332 11.2812V10.4805C237.332 9.6862 237.254 8.98633 237.098 8.38086C236.948 7.76888 236.723 7.25781 236.424 6.84766C236.131 6.43099 235.77 6.11849 235.34 5.91016C234.91 5.69531 234.425 5.58789 233.885 5.58789C233.344 5.58789 232.863 5.69531 232.439 5.91016C232.016 6.11849 231.655 6.43099 231.355 6.84766C231.062 7.25781 230.838 7.76888 230.682 8.38086C230.525 8.98633 230.447 9.6862 230.447 10.4805V11.2812C230.447 12.0755 230.525 12.7786 230.682 13.3906C230.838 14.0026 231.066 14.5202 231.365 14.9434C231.671 15.36 232.036 15.6758 232.459 15.8906C232.882 16.099 233.364 16.2031 233.904 16.2031C234.451 16.2031 234.936 16.099 235.359 15.8906C235.783 15.6758 236.141 15.36 236.434 14.9434C236.727 14.5202 236.948 14.0026 237.098 13.3906C237.254 12.7786 237.332 12.0755 237.332 11.2812ZM246.902 7.43359V18H244.539V7.43359H246.902ZM250.369 7.43359V9.28906H241.131V7.43359H250.369ZM266.58 12.9316V14.8066H256.326L256.248 13.3906L262.381 3.78125H264.266L262.225 7.27734L258.699 12.9316H266.58ZM264.803 3.78125V18H262.449V3.78125H264.803ZM270.623 11.3887L268.748 10.9297L269.52 3.78125H277.186V5.77344H271.473L271.082 9.25977C271.303 9.12956 271.609 9.0026 272 8.87891C272.391 8.7487 272.837 8.68359 273.338 8.68359C274.008 8.68359 274.607 8.79427 275.135 9.01562C275.669 9.23047 276.121 9.54622 276.492 9.96289C276.863 10.373 277.146 10.8743 277.342 11.4668C277.537 12.0527 277.635 12.7135 277.635 13.4492C277.635 14.1068 277.537 14.722 277.342 15.2949C277.153 15.8678 276.867 16.3724 276.482 16.8086C276.098 17.2448 275.613 17.5866 275.027 17.834C274.448 18.0749 273.761 18.1953 272.967 18.1953C272.374 18.1953 271.805 18.1107 271.258 17.9414C270.717 17.7656 270.232 17.5085 269.803 17.1699C269.373 16.8249 269.028 16.4017 268.768 15.9004C268.507 15.3926 268.357 14.8099 268.318 14.1523H270.623C270.682 14.6146 270.809 15.0085 271.004 15.334C271.206 15.653 271.473 15.8971 271.805 16.0664C272.137 16.2357 272.521 16.3203 272.957 16.3203C273.354 16.3203 273.696 16.252 273.982 16.1152C274.269 15.972 274.507 15.7702 274.695 15.5098C274.891 15.2428 275.034 14.9303 275.125 14.5723C275.223 14.2142 275.271 13.8171 275.271 13.3809C275.271 12.9642 275.216 12.5833 275.105 12.2383C275.001 11.8932 274.842 11.5938 274.627 11.3398C274.419 11.0859 274.155 10.8906 273.836 10.7539C273.517 10.6107 273.149 10.5391 272.732 10.5391C272.173 10.5391 271.743 10.6204 271.443 10.7832C271.15 10.946 270.877 11.1478 270.623 11.3887ZM290.916 15.1484L294.061 7.43359H296.102L291.717 18H290.115L285.74 7.43359H287.781L290.916 15.1484ZM287.176 7.43359V18H284.822V7.43359H287.176ZM294.656 18V7.43359H297.02V18H294.656ZM306.756 7.43359V9.30859H301.6V7.43359H306.756ZM308.602 7.43359V18H306.248V7.43359H308.602ZM301.023 7.43359H303.348L303.064 12.6582C303.025 13.4329 302.947 14.1165 302.83 14.709C302.719 15.2949 302.57 15.7995 302.381 16.2227C302.192 16.6393 301.961 16.9779 301.688 17.2383C301.414 17.4987 301.095 17.6908 300.73 17.8145C300.366 17.9382 299.956 18 299.5 18H298.768L298.758 16.0664L299.129 16.0371C299.37 16.0176 299.578 15.9557 299.754 15.8516C299.93 15.7409 300.079 15.5846 300.203 15.3828C300.333 15.181 300.438 14.9206 300.516 14.6016C300.6 14.2826 300.665 13.9049 300.711 13.4688C300.763 13.0326 300.802 12.5247 300.828 11.9453L301.023 7.43359ZM318.318 11.8477V13.7031H312.85V11.8477H318.318ZM313.533 7.43359V18H311.18V7.43359H313.533ZM320.018 7.43359V18H317.664V7.43359H320.018ZM322.625 16.8281C322.625 16.4635 322.749 16.1576 322.996 15.9102C323.243 15.6562 323.579 15.5293 324.002 15.5293C324.432 15.5293 324.767 15.6562 325.008 15.9102C325.255 16.1576 325.379 16.4635 325.379 16.8281C325.379 17.1927 325.255 17.4987 325.008 17.7461C324.767 17.9935 324.432 18.1172 324.002 18.1172C323.579 18.1172 323.243 17.9935 322.996 17.7461C322.749 17.4987 322.625 17.1927 322.625 16.8281ZM337.977 7.43359V18H335.613V7.43359H337.977ZM341.443 7.43359V9.28906H332.205V7.43359H341.443ZM350.232 11.8477V13.7031H344.764V11.8477H350.232ZM345.447 7.43359V18H343.094V7.43359H345.447ZM351.932 7.43359V18H349.578V7.43359H351.932ZM361.473 7.43359V9.30859H356.863V18H354.51V7.43359H361.473Z" fill="#9BA2A7"/>
<path d="M596.695 5.5625V17H595.25V7.36719L592.336 8.42969V7.125L596.469 5.5625H596.695ZM607.023 10.6016H608.055C608.56 10.6016 608.977 10.5182 609.305 10.3516C609.638 10.1797 609.885 9.94792 610.047 9.65625C610.214 9.35938 610.297 9.02604 610.297 8.65625C610.297 8.21875 610.224 7.85156 610.078 7.55469C609.932 7.25781 609.714 7.03385 609.422 6.88281C609.13 6.73177 608.76 6.65625 608.312 6.65625C607.906 6.65625 607.547 6.73698 607.234 6.89844C606.927 7.05469 606.685 7.27865 606.508 7.57031C606.336 7.86198 606.25 8.20573 606.25 8.60156H604.805C604.805 8.02344 604.951 7.4974 605.242 7.02344C605.534 6.54948 605.943 6.17188 606.469 5.89062C607 5.60938 607.615 5.46875 608.312 5.46875C609 5.46875 609.602 5.59115 610.117 5.83594C610.633 6.07552 611.034 6.4349 611.32 6.91406C611.607 7.38802 611.75 7.97917 611.75 8.6875C611.75 8.97396 611.682 9.28125 611.547 9.60938C611.417 9.93229 611.211 10.2344 610.93 10.5156C610.654 10.7969 610.294 11.0286 609.852 11.2109C609.409 11.388 608.878 11.4766 608.258 11.4766H607.023V10.6016ZM607.023 11.7891V10.9219H608.258C608.982 10.9219 609.581 11.0078 610.055 11.1797C610.529 11.3516 610.901 11.5807 611.172 11.8672C611.448 12.1536 611.641 12.4688 611.75 12.8125C611.865 13.151 611.922 13.4896 611.922 13.8281C611.922 14.3594 611.831 14.8307 611.648 15.2422C611.471 15.6536 611.219 16.0026 610.891 16.2891C610.568 16.5755 610.188 16.7917 609.75 16.9375C609.312 17.0833 608.836 17.1562 608.32 17.1562C607.826 17.1562 607.359 17.0859 606.922 16.9453C606.49 16.8047 606.107 16.6016 605.773 16.3359C605.44 16.0651 605.18 15.7344 604.992 15.3438C604.805 14.9479 604.711 14.4974 604.711 13.9922H606.156C606.156 14.388 606.242 14.7344 606.414 15.0312C606.591 15.3281 606.841 15.5599 607.164 15.7266C607.492 15.888 607.878 15.9688 608.32 15.9688C608.763 15.9688 609.143 15.8932 609.461 15.7422C609.784 15.5859 610.031 15.3516 610.203 15.0391C610.38 14.7266 610.469 14.3333 610.469 13.8594C610.469 13.3854 610.37 12.9974 610.172 12.6953C609.974 12.388 609.693 12.1615 609.328 12.0156C608.969 11.8646 608.544 11.7891 608.055 11.7891H607.023ZM621.055 10.4062V12.1406C621.055 13.0729 620.971 13.8594 620.805 14.5C620.638 15.1406 620.398 15.6562 620.086 16.0469C619.773 16.4375 619.396 16.7214 618.953 16.8984C618.516 17.0703 618.021 17.1562 617.469 17.1562C617.031 17.1562 616.628 17.1016 616.258 16.9922C615.888 16.8828 615.555 16.7083 615.258 16.4688C614.966 16.224 614.716 15.9062 614.508 15.5156C614.299 15.125 614.141 14.651 614.031 14.0938C613.922 13.5365 613.867 12.8854 613.867 12.1406V10.4062C613.867 9.47396 613.951 8.69271 614.117 8.0625C614.289 7.43229 614.531 6.92708 614.844 6.54688C615.156 6.16146 615.531 5.88542 615.969 5.71875C616.411 5.55208 616.906 5.46875 617.453 5.46875C617.896 5.46875 618.302 5.52344 618.672 5.63281C619.047 5.73698 619.38 5.90625 619.672 6.14062C619.964 6.36979 620.211 6.67708 620.414 7.0625C620.622 7.44271 620.781 7.90885 620.891 8.46094C621 9.01302 621.055 9.66146 621.055 10.4062ZM619.602 12.375V10.1641C619.602 9.65365 619.57 9.20573 619.508 8.82031C619.451 8.42969 619.365 8.09635 619.25 7.82031C619.135 7.54427 618.99 7.32031 618.812 7.14844C618.641 6.97656 618.44 6.85156 618.211 6.77344C617.987 6.6901 617.734 6.64844 617.453 6.64844C617.109 6.64844 616.805 6.71354 616.539 6.84375C616.273 6.96875 616.049 7.16927 615.867 7.44531C615.69 7.72135 615.555 8.08333 615.461 8.53125C615.367 8.97917 615.32 9.52344 615.32 10.1641V12.375C615.32 12.8854 615.349 13.3359 615.406 13.7266C615.469 14.1172 615.56 14.4557 615.68 14.7422C615.799 15.0234 615.945 15.2552 616.117 15.4375C616.289 15.6198 616.487 15.7552 616.711 15.8438C616.94 15.9271 617.193 15.9688 617.469 15.9688C617.823 15.9688 618.133 15.901 618.398 15.7656C618.664 15.6302 618.885 15.4193 619.062 15.1328C619.245 14.8411 619.38 14.4688 619.469 14.0156C619.557 13.5573 619.602 13.0104 619.602 12.375ZM630.602 13.1719V14.3594H622.383V13.5078L627.477 5.625H628.656L627.391 7.90625L624.023 13.1719H630.602ZM629.016 5.625V17H627.57V5.625H629.016ZM637.609 8.54688V17H636.164V8.54688H637.609ZM643.156 8.54688L639.148 13.3906H637.125L636.906 12.125H638.562L641.398 8.54688H643.156ZM641.602 17L638.492 13.1719L639.422 12.125L643.438 17H641.602ZM648.664 13.2812H645.891L645.875 12.125H648.141C648.589 12.125 648.961 12.0807 649.258 11.9922C649.56 11.9036 649.786 11.7708 649.938 11.5938C650.089 11.4167 650.164 11.1979 650.164 10.9375C650.164 10.7344 650.12 10.5573 650.031 10.4062C649.948 10.25 649.82 10.1224 649.648 10.0234C649.477 9.91927 649.263 9.84375 649.008 9.79688C648.758 9.74479 648.464 9.71875 648.125 9.71875H646.273V17H644.828V8.54688H648.125C648.661 8.54688 649.143 8.59375 649.57 8.6875C650.003 8.78125 650.37 8.92448 650.672 9.11719C650.979 9.30469 651.214 9.54427 651.375 9.83594C651.536 10.1276 651.617 10.4714 651.617 10.8672C651.617 11.1224 651.565 11.3646 651.461 11.5938C651.357 11.8229 651.203 12.026 651 12.2031C650.797 12.3802 650.547 12.526 650.25 12.6406C649.953 12.75 649.612 12.8203 649.227 12.8516L648.664 13.2812ZM648.664 17H645.367L646.086 15.8281H648.664C649.065 15.8281 649.398 15.7786 649.664 15.6797C649.93 15.5755 650.128 15.4297 650.258 15.2422C650.393 15.0495 650.461 14.8203 650.461 14.5547C650.461 14.2891 650.393 14.0625 650.258 13.875C650.128 13.6823 649.93 13.5365 649.664 13.4375C649.398 13.3333 649.065 13.2812 648.664 13.2812H646.469L646.484 12.125H649.227L649.75 12.5625C650.214 12.599 650.607 12.7135 650.93 12.9062C651.253 13.099 651.497 13.3438 651.664 13.6406C651.831 13.9323 651.914 14.25 651.914 14.5938C651.914 14.9896 651.839 15.3385 651.688 15.6406C651.542 15.9427 651.328 16.1953 651.047 16.3984C650.766 16.5964 650.424 16.7474 650.023 16.8516C649.622 16.9505 649.169 17 648.664 17ZM658.836 15.5547V11.2031C658.836 10.8698 658.768 10.5807 658.633 10.3359C658.503 10.0859 658.305 9.89323 658.039 9.75781C657.773 9.6224 657.445 9.55469 657.055 9.55469C656.69 9.55469 656.37 9.61719 656.094 9.74219C655.823 9.86719 655.609 10.0312 655.453 10.2344C655.302 10.4375 655.227 10.6562 655.227 10.8906H653.781C653.781 10.5885 653.859 10.2891 654.016 9.99219C654.172 9.69531 654.396 9.42708 654.688 9.1875C654.984 8.94271 655.339 8.75 655.75 8.60938C656.167 8.46354 656.63 8.39062 657.141 8.39062C657.755 8.39062 658.297 8.49479 658.766 8.70312C659.24 8.91146 659.609 9.22656 659.875 9.64844C660.146 10.0651 660.281 10.5885 660.281 11.2188V15.1562C660.281 15.4375 660.305 15.737 660.352 16.0547C660.404 16.3724 660.479 16.6458 660.578 16.875V17H659.07C658.997 16.8333 658.94 16.612 658.898 16.3359C658.857 16.0547 658.836 15.7943 658.836 15.5547ZM659.086 11.875L659.102 12.8906H657.641C657.229 12.8906 656.862 12.9245 656.539 12.9922C656.216 13.0547 655.945 13.151 655.727 13.2812C655.508 13.4115 655.341 13.5755 655.227 13.7734C655.112 13.9661 655.055 14.1927 655.055 14.4531C655.055 14.7188 655.115 14.9609 655.234 15.1797C655.354 15.3984 655.534 15.5729 655.773 15.7031C656.018 15.8281 656.318 15.8906 656.672 15.8906C657.115 15.8906 657.505 15.7969 657.844 15.6094C658.182 15.4219 658.451 15.1927 658.648 14.9219C658.852 14.651 658.961 14.388 658.977 14.1328L659.594 14.8281C659.557 15.0469 659.458 15.2891 659.297 15.5547C659.135 15.8203 658.919 16.0755 658.648 16.3203C658.383 16.5599 658.065 16.7604 657.695 16.9219C657.331 17.0781 656.919 17.1562 656.461 17.1562C655.888 17.1562 655.385 17.0443 654.953 16.8203C654.526 16.5964 654.193 16.2969 653.953 15.9219C653.719 15.5417 653.602 15.1172 653.602 14.6484C653.602 14.1953 653.69 13.7969 653.867 13.4531C654.044 13.1042 654.299 12.8151 654.633 12.5859C654.966 12.3516 655.367 12.1745 655.836 12.0547C656.305 11.9349 656.828 11.875 657.406 11.875H659.086ZM664 10.1719V20.25H662.547V8.54688H663.875L664 10.1719ZM669.695 12.7031V12.8672C669.695 13.4818 669.622 14.0521 669.477 14.5781C669.331 15.099 669.117 15.5521 668.836 15.9375C668.56 16.3229 668.219 16.6224 667.812 16.8359C667.406 17.0495 666.94 17.1562 666.414 17.1562C665.878 17.1562 665.404 17.0677 664.992 16.8906C664.581 16.7135 664.232 16.4557 663.945 16.1172C663.659 15.7786 663.43 15.3724 663.258 14.8984C663.091 14.4245 662.977 13.8906 662.914 13.2969V12.4219C662.977 11.7969 663.094 11.237 663.266 10.7422C663.438 10.2474 663.664 9.82552 663.945 9.47656C664.232 9.1224 664.578 8.85417 664.984 8.67188C665.391 8.48438 665.859 8.39062 666.391 8.39062C666.922 8.39062 667.393 8.49479 667.805 8.70312C668.216 8.90625 668.562 9.19792 668.844 9.57812C669.125 9.95833 669.336 10.4141 669.477 10.9453C669.622 11.4714 669.695 12.0573 669.695 12.7031ZM668.242 12.8672V12.7031C668.242 12.2812 668.198 11.8854 668.109 11.5156C668.021 11.1406 667.883 10.8125 667.695 10.5312C667.513 10.2448 667.279 10.0208 666.992 9.85938C666.706 9.69271 666.365 9.60938 665.969 9.60938C665.604 9.60938 665.286 9.67188 665.016 9.79688C664.75 9.92188 664.523 10.0911 664.336 10.3047C664.148 10.513 663.995 10.7526 663.875 11.0234C663.76 11.2891 663.674 11.5651 663.617 11.8516V13.875C663.721 14.2396 663.867 14.5833 664.055 14.9062C664.242 15.224 664.492 15.4818 664.805 15.6797C665.117 15.8724 665.51 15.9688 665.984 15.9688C666.375 15.9688 666.711 15.888 666.992 15.7266C667.279 15.5599 667.513 15.3333 667.695 15.0469C667.883 14.7604 668.021 14.4323 668.109 14.0625C668.198 13.6875 668.242 13.2891 668.242 12.8672ZM674.359 8.54688V17H672.906V8.54688H674.359ZM677.195 8.54688V9.71875H670.125V8.54688H677.195ZM680.18 14.7109L684.078 8.54688H685.531V17H684.078V10.8359L680.18 17H678.742V8.54688H680.18V14.7109ZM689.297 10.1719V20.25H687.844V8.54688H689.172L689.297 10.1719ZM694.992 12.7031V12.8672C694.992 13.4818 694.919 14.0521 694.773 14.5781C694.628 15.099 694.414 15.5521 694.133 15.9375C693.857 16.3229 693.516 16.6224 693.109 16.8359C692.703 17.0495 692.237 17.1562 691.711 17.1562C691.174 17.1562 690.701 17.0677 690.289 16.8906C689.878 16.7135 689.529 16.4557 689.242 16.1172C688.956 15.7786 688.727 15.3724 688.555 14.8984C688.388 14.4245 688.273 13.8906 688.211 13.2969V12.4219C688.273 11.7969 688.391 11.237 688.562 10.7422C688.734 10.2474 688.961 9.82552 689.242 9.47656C689.529 9.1224 689.875 8.85417 690.281 8.67188C690.688 8.48438 691.156 8.39062 691.688 8.39062C692.219 8.39062 692.69 8.49479 693.102 8.70312C693.513 8.90625 693.859 9.19792 694.141 9.57812C694.422 9.95833 694.633 10.4141 694.773 10.9453C694.919 11.4714 694.992 12.0573 694.992 12.7031ZM693.539 12.8672V12.7031C693.539 12.2812 693.495 11.8854 693.406 11.5156C693.318 11.1406 693.18 10.8125 692.992 10.5312C692.81 10.2448 692.576 10.0208 692.289 9.85938C692.003 9.69271 691.661 9.60938 691.266 9.60938C690.901 9.60938 690.583 9.67188 690.312 9.79688C690.047 9.92188 689.82 10.0911 689.633 10.3047C689.445 10.513 689.292 10.7526 689.172 11.0234C689.057 11.2891 688.971 11.5651 688.914 11.8516V13.875C689.018 14.2396 689.164 14.5833 689.352 14.9062C689.539 15.224 689.789 15.4818 690.102 15.6797C690.414 15.8724 690.807 15.9688 691.281 15.9688C691.672 15.9688 692.008 15.888 692.289 15.7266C692.576 15.5599 692.81 15.3333 692.992 15.0469C693.18 14.7604 693.318 14.4323 693.406 14.0625C693.495 13.6875 693.539 13.2891 693.539 12.8672Z" fill="#222445"/>
<path d="M704.781 13.3828H702.078L702.062 12.0547H704.281C704.646 12.0547 704.945 12.0182 705.18 11.9453C705.419 11.8724 705.596 11.763 705.711 11.6172C705.826 11.4661 705.883 11.2839 705.883 11.0703C705.883 10.8932 705.849 10.7396 705.781 10.6094C705.714 10.474 705.609 10.3646 705.469 10.2812C705.333 10.1927 705.161 10.1302 704.953 10.0938C704.75 10.0521 704.513 10.0312 704.242 10.0312H702.703V17H700.82V8.54688H704.242C704.784 8.54688 705.271 8.59375 705.703 8.6875C706.141 8.78125 706.513 8.92448 706.82 9.11719C707.128 9.3099 707.362 9.55469 707.523 9.85156C707.69 10.1432 707.773 10.487 707.773 10.8828C707.773 11.1432 707.716 11.388 707.602 11.6172C707.492 11.8464 707.328 12.0495 707.109 12.2266C706.891 12.4036 706.622 12.5495 706.305 12.6641C705.987 12.7734 705.622 12.8411 705.211 12.8672L704.781 13.3828ZM704.781 17H701.531L702.281 15.5156H704.781C705.115 15.5156 705.391 15.474 705.609 15.3906C705.828 15.3073 705.99 15.1875 706.094 15.0312C706.203 14.8698 706.258 14.6797 706.258 14.4609C706.258 14.237 706.206 14.0443 706.102 13.8828C705.997 13.7214 705.836 13.599 705.617 13.5156C705.404 13.4271 705.125 13.3828 704.781 13.3828H702.633L702.648 12.0547H705.203L705.742 12.5703C706.279 12.6068 706.724 12.7214 707.078 12.9141C707.432 13.1068 707.698 13.349 707.875 13.6406C708.052 13.9323 708.141 14.25 708.141 14.5938C708.141 14.9896 708.065 15.3385 707.914 15.6406C707.768 15.9427 707.549 16.1953 707.258 16.3984C706.971 16.5964 706.62 16.7474 706.203 16.8516C705.786 16.9505 705.312 17 704.781 17ZM719.422 8.54688V10.0469H715.25V8.54688H719.422ZM715.695 8.54688V17H713.812V8.54688H715.695ZM720.898 8.54688V17H719.008V8.54688H720.898ZM724.781 10.1719V20.25H722.898V8.54688H724.633L724.781 10.1719ZM730.289 12.6953V12.8594C730.289 13.474 730.216 14.0443 730.07 14.5703C729.93 15.0911 729.719 15.5469 729.438 15.9375C729.161 16.3229 728.82 16.6224 728.414 16.8359C728.008 17.0495 727.539 17.1562 727.008 17.1562C726.482 17.1562 726.021 17.0599 725.625 16.8672C725.234 16.6693 724.904 16.3906 724.633 16.0312C724.362 15.6719 724.143 15.25 723.977 14.7656C723.815 14.276 723.701 13.7396 723.633 13.1562V12.5234C723.701 11.9036 723.815 11.3411 723.977 10.8359C724.143 10.3307 724.362 9.89583 724.633 9.53125C724.904 9.16667 725.234 8.88542 725.625 8.6875C726.016 8.48958 726.471 8.39062 726.992 8.39062C727.523 8.39062 727.995 8.49479 728.406 8.70312C728.818 8.90625 729.164 9.19792 729.445 9.57812C729.727 9.95312 729.938 10.4062 730.078 10.9375C730.219 11.4635 730.289 12.0495 730.289 12.6953ZM728.406 12.8594V12.6953C728.406 12.3047 728.37 11.9427 728.297 11.6094C728.224 11.2708 728.109 10.974 727.953 10.7188C727.797 10.4635 727.596 10.2656 727.352 10.125C727.112 9.97917 726.823 9.90625 726.484 9.90625C726.151 9.90625 725.865 9.96354 725.625 10.0781C725.385 10.1875 725.185 10.3411 725.023 10.5391C724.862 10.737 724.737 10.9688 724.648 11.2344C724.56 11.4948 724.497 11.7786 724.461 12.0859V13.6016C724.523 13.9766 724.63 14.3203 724.781 14.6328C724.932 14.9453 725.146 15.1953 725.422 15.3828C725.703 15.5651 726.062 15.6562 726.5 15.6562C726.839 15.6562 727.128 15.5833 727.367 15.4375C727.607 15.2917 727.802 15.0911 727.953 14.8359C728.109 14.5755 728.224 14.276 728.297 13.9375C728.37 13.599 728.406 13.2396 728.406 12.8594ZM731.531 12.8672V12.6875C731.531 12.0781 731.62 11.513 731.797 10.9922C731.974 10.4661 732.229 10.0104 732.562 9.625C732.901 9.23438 733.312 8.93229 733.797 8.71875C734.286 8.5 734.839 8.39062 735.453 8.39062C736.073 8.39062 736.625 8.5 737.109 8.71875C737.599 8.93229 738.013 9.23438 738.352 9.625C738.69 10.0104 738.948 10.4661 739.125 10.9922C739.302 11.513 739.391 12.0781 739.391 12.6875V12.8672C739.391 13.4766 739.302 14.0417 739.125 14.5625C738.948 15.0833 738.69 15.5391 738.352 15.9297C738.013 16.3151 737.602 16.6172 737.117 16.8359C736.633 17.0495 736.083 17.1562 735.469 17.1562C734.849 17.1562 734.294 17.0495 733.805 16.8359C733.32 16.6172 732.909 16.3151 732.57 15.9297C732.232 15.5391 731.974 15.0833 731.797 14.5625C731.62 14.0417 731.531 13.4766 731.531 12.8672ZM733.414 12.6875V12.8672C733.414 13.2474 733.453 13.6068 733.531 13.9453C733.609 14.2839 733.732 14.5807 733.898 14.8359C734.065 15.0911 734.279 15.2917 734.539 15.4375C734.799 15.5833 735.109 15.6562 735.469 15.6562C735.818 15.6562 736.12 15.5833 736.375 15.4375C736.635 15.2917 736.849 15.0911 737.016 14.8359C737.182 14.5807 737.305 14.2839 737.383 13.9453C737.466 13.6068 737.508 13.2474 737.508 12.8672V12.6875C737.508 12.3125 737.466 11.9583 737.383 11.625C737.305 11.2865 737.18 10.987 737.008 10.7266C736.841 10.4661 736.628 10.263 736.367 10.1172C736.112 9.96615 735.807 9.89062 735.453 9.89062C735.099 9.89062 734.792 9.96615 734.531 10.1172C734.276 10.263 734.065 10.4661 733.898 10.7266C733.732 10.987 733.609 11.2865 733.531 11.625C733.453 11.9583 733.414 12.3125 733.414 12.6875ZM741.938 8.54688H743.82L743.727 11.5234C743.701 12.388 743.602 13.1302 743.43 13.75C743.258 14.3698 743.034 14.8932 742.758 15.3203C742.482 15.7422 742.169 16.0885 741.82 16.3594C741.477 16.6302 741.115 16.8438 740.734 17H740.18V15.5156L740.445 15.5C740.669 15.2604 740.862 15.0208 741.023 14.7812C741.19 14.5365 741.331 14.2682 741.445 13.9766C741.56 13.6797 741.648 13.3333 741.711 12.9375C741.779 12.5417 741.823 12.0703 741.844 11.5234L741.938 8.54688ZM742.438 8.54688H747.797V17H745.922V10.1406H742.438V8.54688ZM739.75 15.5H748.953V19.5156H747.07V17H741.656V19.5156H739.742L739.75 15.5ZM755.062 15.3047V11.2734C755.062 10.9714 755.008 10.7109 754.898 10.4922C754.789 10.2734 754.622 10.1042 754.398 9.98438C754.18 9.86458 753.904 9.80469 753.57 9.80469C753.263 9.80469 752.997 9.85677 752.773 9.96094C752.549 10.0651 752.375 10.2057 752.25 10.3828C752.125 10.5599 752.062 10.7604 752.062 10.9844H750.188C750.188 10.651 750.268 10.3281 750.43 10.0156C750.591 9.70312 750.826 9.42448 751.133 9.17969C751.44 8.9349 751.807 8.74219 752.234 8.60156C752.661 8.46094 753.141 8.39062 753.672 8.39062C754.307 8.39062 754.87 8.4974 755.359 8.71094C755.854 8.92448 756.242 9.2474 756.523 9.67969C756.81 10.1068 756.953 10.6432 756.953 11.2891V15.0469C756.953 15.4323 756.979 15.7786 757.031 16.0859C757.089 16.388 757.169 16.651 757.273 16.875V17H755.344C755.255 16.7969 755.185 16.5391 755.133 16.2266C755.086 15.9089 755.062 15.6016 755.062 15.3047ZM755.336 11.8594L755.352 13.0234H754C753.651 13.0234 753.344 13.0573 753.078 13.125C752.812 13.1875 752.591 13.2812 752.414 13.4062C752.237 13.5312 752.104 13.6823 752.016 13.8594C751.927 14.0365 751.883 14.237 751.883 14.4609C751.883 14.6849 751.935 14.8906 752.039 15.0781C752.143 15.2604 752.294 15.4036 752.492 15.5078C752.695 15.612 752.94 15.6641 753.227 15.6641C753.612 15.6641 753.948 15.5859 754.234 15.4297C754.526 15.2682 754.755 15.0729 754.922 14.8438C755.089 14.6094 755.177 14.388 755.188 14.1797L755.797 15.0156C755.734 15.2292 755.628 15.4583 755.477 15.7031C755.326 15.9479 755.128 16.1823 754.883 16.4062C754.643 16.625 754.354 16.8047 754.016 16.9453C753.682 17.0859 753.297 17.1562 752.859 17.1562C752.307 17.1562 751.815 17.0469 751.383 16.8281C750.951 16.6042 750.612 16.3047 750.367 15.9297C750.122 15.5495 750 15.1198 750 14.6406C750 14.1927 750.083 13.7969 750.25 13.4531C750.422 13.1042 750.672 12.8125 751 12.5781C751.333 12.3438 751.74 12.1667 752.219 12.0469C752.698 11.9219 753.245 11.8594 753.859 11.8594H755.336ZM761.727 13.5859L758.352 8.54688H760.664L762.633 11.875H764.281L764.039 13.5859H761.727ZM762.68 13.3125L760.516 17H758.203L761.266 12.2422L762.68 13.3125ZM765.414 8.54688V17H763.539V8.54688H765.414ZM770.625 8.54688L767.25 13.5859H764.93L764.68 11.875H766.336L768.305 8.54688H770.625ZM768.453 17L766.281 13.3125L767.742 12.2422L770.789 17H768.453ZM775.555 17.1562C774.93 17.1562 774.365 17.0547 773.859 16.8516C773.359 16.6432 772.932 16.3542 772.578 15.9844C772.229 15.6146 771.961 15.1797 771.773 14.6797C771.586 14.1797 771.492 13.6406 771.492 13.0625V12.75C771.492 12.0885 771.589 11.4896 771.781 10.9531C771.974 10.4167 772.242 9.95833 772.586 9.57812C772.93 9.19271 773.336 8.89844 773.805 8.69531C774.273 8.49219 774.781 8.39062 775.328 8.39062C775.932 8.39062 776.461 8.49219 776.914 8.69531C777.367 8.89844 777.742 9.1849 778.039 9.55469C778.341 9.91927 778.565 10.3542 778.711 10.8594C778.862 11.3646 778.938 11.9219 778.938 12.5312V13.3359H772.406V11.9844H777.078V11.8359C777.068 11.4974 777 11.1797 776.875 10.8828C776.755 10.5859 776.57 10.3464 776.32 10.1641C776.07 9.98177 775.737 9.89062 775.32 9.89062C775.008 9.89062 774.729 9.95833 774.484 10.0938C774.245 10.224 774.044 10.4141 773.883 10.6641C773.721 10.9141 773.596 11.2161 773.508 11.5703C773.424 11.9193 773.383 12.3125 773.383 12.75V13.0625C773.383 13.4323 773.432 13.776 773.531 14.0938C773.635 14.4062 773.786 14.6797 773.984 14.9141C774.182 15.1484 774.422 15.3333 774.703 15.4688C774.984 15.599 775.305 15.6641 775.664 15.6641C776.117 15.6641 776.521 15.5729 776.875 15.3906C777.229 15.2083 777.536 14.9505 777.797 14.6172L778.789 15.5781C778.607 15.8438 778.37 16.099 778.078 16.3438C777.786 16.5833 777.43 16.7786 777.008 16.9297C776.591 17.0807 776.107 17.1562 775.555 17.1562Z" fill="#9BA2A7"/>
</svg>
