<svg width="779" height="23" viewBox="0 0 779 23" fill="none" xmlns="http://www.w3.org/2000/svg">
<path d="M6.00586 11.1738H4.31641V9.97266H5.9375C6.65365 9.97266 7.23307 9.87174 7.67578 9.66992C8.11849 9.4681 8.44076 9.18815 8.64258 8.83008C8.8444 8.47201 8.94531 8.05859 8.94531 7.58984C8.94531 7.14062 8.83464 6.73047 8.61328 6.35938C8.39193 5.98177 8.05013 5.68229 7.58789 5.46094C7.12565 5.23307 6.52995 5.11914 5.80078 5.11914C5.25391 5.11914 4.75911 5.22331 4.31641 5.43164C3.8737 5.63346 3.52214 5.91667 3.26172 6.28125C3.0013 6.63932 2.87109 7.05273 2.87109 7.52148H0.986328C0.986328 6.91602 1.11328 6.3724 1.36719 5.89062C1.62109 5.40234 1.9694 4.98893 2.41211 4.65039C2.85482 4.30534 3.36589 4.04167 3.94531 3.85938C4.53125 3.67708 5.14974 3.58594 5.80078 3.58594C6.5625 3.58594 7.2526 3.67383 7.87109 3.84961C8.48958 4.01888 9.02018 4.27279 9.46289 4.61133C9.9056 4.94987 10.2441 5.36979 10.4785 5.87109C10.7129 6.3724 10.8301 6.95508 10.8301 7.61914C10.8301 8.10742 10.7161 8.56641 10.4883 8.99609C10.2604 9.42578 9.9349 9.80339 9.51172 10.1289C9.08854 10.4544 8.58073 10.7116 7.98828 10.9004C7.39583 11.0827 6.73503 11.1738 6.00586 11.1738ZM4.31641 10.3438H6.00586C6.80664 10.3438 7.51953 10.4251 8.14453 10.5879C8.76953 10.7507 9.29688 10.9883 9.72656 11.3008C10.1562 11.6133 10.4818 12.0007 10.7031 12.4629C10.931 12.9186 11.0449 13.4427 11.0449 14.0352C11.0449 14.6992 10.9147 15.2884 10.6543 15.8027C10.4004 16.3171 10.0391 16.7533 9.57031 17.1113C9.10156 17.4694 8.54492 17.7396 7.90039 17.9219C7.26237 18.1042 6.5625 18.1953 5.80078 18.1953C5.1888 18.1953 4.58333 18.1172 3.98438 17.9609C3.39193 17.7982 2.85482 17.5508 2.37305 17.2188C1.89128 16.8802 1.50391 16.4505 1.21094 15.9297C0.924479 15.4089 0.78125 14.7839 0.78125 14.0547H2.66602C2.66602 14.5299 2.79622 14.9661 3.05664 15.3633C3.32357 15.7604 3.69141 16.0794 4.16016 16.3203C4.62891 16.5547 5.17578 16.6719 5.80078 16.6719C6.51693 16.6719 7.1224 16.5612 7.61719 16.3398C8.11849 16.112 8.49935 15.8027 8.75977 15.4121C9.02669 15.015 9.16016 14.569 9.16016 14.0742C9.16016 13.638 9.08854 13.2604 8.94531 12.9414C8.80859 12.6159 8.60352 12.349 8.33008 12.1406C8.06315 11.9323 7.72786 11.7793 7.32422 11.6816C6.92708 11.5775 6.46484 11.5254 5.9375 11.5254H4.31641V10.3438ZM19.4824 16.1934V10.7539C19.4824 10.3372 19.3978 9.97591 19.2285 9.66992C19.0658 9.35742 18.8184 9.11654 18.4863 8.94727C18.1543 8.77799 17.7441 8.69336 17.2559 8.69336C16.8001 8.69336 16.3997 8.77148 16.0547 8.92773C15.7161 9.08398 15.4492 9.28906 15.2539 9.54297C15.0651 9.79688 14.9707 10.0703 14.9707 10.3633H13.1641C13.1641 9.98568 13.2617 9.61133 13.457 9.24023C13.6523 8.86914 13.9323 8.53385 14.2969 8.23438C14.668 7.92839 15.1107 7.6875 15.625 7.51172C16.1458 7.32943 16.7253 7.23828 17.3633 7.23828C18.1315 7.23828 18.8086 7.36849 19.3945 7.62891C19.987 7.88932 20.4492 8.2832 20.7812 8.81055C21.1198 9.33138 21.2891 9.98568 21.2891 10.7734V15.6953C21.2891 16.0469 21.3184 16.4212 21.377 16.8184C21.4421 17.2155 21.5365 17.5573 21.6602 17.8438V18H19.7754C19.6842 17.7917 19.6126 17.515 19.5605 17.1699C19.5085 16.8184 19.4824 16.4928 19.4824 16.1934ZM19.7949 11.5938L19.8145 12.8633H17.9883C17.474 12.8633 17.015 12.9056 16.6113 12.9902C16.2077 13.0684 15.8691 13.1888 15.5957 13.3516C15.3223 13.5143 15.1139 13.7194 14.9707 13.9668C14.8275 14.2077 14.7559 14.4909 14.7559 14.8164C14.7559 15.1484 14.8307 15.4512 14.9805 15.7246C15.1302 15.998 15.3548 16.2161 15.6543 16.3789C15.9603 16.5352 16.3346 16.6133 16.7773 16.6133C17.3307 16.6133 17.819 16.4961 18.2422 16.2617C18.6654 16.0273 19.0007 15.7409 19.248 15.4023C19.502 15.0638 19.6387 14.735 19.6582 14.416L20.4297 15.2852C20.3841 15.5586 20.2604 15.8613 20.0586 16.1934C19.8568 16.5254 19.5866 16.8444 19.248 17.1504C18.916 17.4499 18.5189 17.7005 18.0566 17.9023C17.6009 18.0977 17.0866 18.1953 16.5137 18.1953C15.7975 18.1953 15.1693 18.0553 14.6289 17.7754C14.0951 17.4954 13.6784 17.1211 13.3789 16.6523C13.0859 16.1771 12.9395 15.6465 12.9395 15.0605C12.9395 14.4941 13.0501 13.9961 13.2715 13.5664C13.4928 13.1302 13.8118 12.7689 14.2285 12.4824C14.6452 12.1895 15.1465 11.9681 15.7324 11.8184C16.3184 11.6686 16.9727 11.5938 17.6953 11.5938H19.7949ZM28.3594 16.7109C28.7891 16.7109 29.1862 16.623 29.5508 16.4473C29.9154 16.2715 30.2148 16.0306 30.4492 15.7246C30.6836 15.4121 30.8171 15.0573 30.8496 14.6602H32.5684C32.5358 15.2852 32.3242 15.8678 31.9336 16.4082C31.5495 16.9421 31.0449 17.375 30.4199 17.707C29.7949 18.0326 29.1081 18.1953 28.3594 18.1953C27.5651 18.1953 26.8717 18.0553 26.2793 17.7754C25.6934 17.4954 25.2051 17.1113 24.8145 16.623C24.4303 16.1348 24.1406 15.5749 23.9453 14.9434C23.7565 14.3053 23.6621 13.6315 23.6621 12.9219V12.5117C23.6621 11.8021 23.7565 11.1315 23.9453 10.5C24.1406 9.86198 24.4303 9.29883 24.8145 8.81055C25.2051 8.32227 25.6934 7.93815 26.2793 7.6582C26.8717 7.37826 27.5651 7.23828 28.3594 7.23828C29.1862 7.23828 29.9089 7.40755 30.5273 7.74609C31.1458 8.07812 31.6309 8.53385 31.9824 9.11328C32.3405 9.6862 32.5358 10.3372 32.5684 11.0664H30.8496C30.8171 10.6302 30.6934 10.2363 30.4785 9.88477C30.2702 9.5332 29.9837 9.25326 29.6191 9.04492C29.2611 8.83008 28.8411 8.72266 28.3594 8.72266C27.806 8.72266 27.3405 8.83333 26.9629 9.05469C26.5918 9.26953 26.2956 9.5625 26.0742 9.93359C25.8594 10.2982 25.7031 10.7051 25.6055 11.1543C25.5143 11.597 25.4688 12.0495 25.4688 12.5117V12.9219C25.4688 13.3841 25.5143 13.8398 25.6055 14.2891C25.6966 14.7383 25.8496 15.1452 26.0645 15.5098C26.2858 15.8743 26.582 16.1673 26.9531 16.3887C27.3307 16.6035 27.7995 16.7109 28.3594 16.7109ZM38.9844 18.1953C38.2487 18.1953 37.5814 18.0716 36.9824 17.8242C36.39 17.5703 35.8789 17.2155 35.4492 16.7598C35.026 16.304 34.7005 15.7637 34.4727 15.1387C34.2448 14.5137 34.1309 13.8301 34.1309 13.0879V12.6777C34.1309 11.8184 34.2578 11.0534 34.5117 10.3828C34.7656 9.70573 35.1107 9.13281 35.5469 8.66406C35.9831 8.19531 36.4779 7.84049 37.0312 7.59961C37.5846 7.35872 38.1576 7.23828 38.75 7.23828C39.5052 7.23828 40.1562 7.36849 40.7031 7.62891C41.2565 7.88932 41.709 8.25391 42.0605 8.72266C42.4121 9.1849 42.6725 9.73177 42.8418 10.3633C43.0111 10.9883 43.0957 11.6719 43.0957 12.4141V13.2246H35.2051V11.75H41.2891V11.6133C41.263 11.1445 41.1654 10.6888 40.9961 10.2461C40.8333 9.80339 40.5729 9.4388 40.2148 9.15234C39.8568 8.86589 39.3685 8.72266 38.75 8.72266C38.3398 8.72266 37.9622 8.81055 37.6172 8.98633C37.2721 9.1556 36.9759 9.40951 36.7285 9.74805C36.4811 10.0866 36.2891 10.5 36.1523 10.9883C36.0156 11.4766 35.9473 12.0397 35.9473 12.6777V13.0879C35.9473 13.5892 36.0156 14.0612 36.1523 14.5039C36.2956 14.9401 36.5007 15.3242 36.7676 15.6562C37.041 15.9883 37.3698 16.2487 37.7539 16.4375C38.1445 16.6263 38.5872 16.7207 39.082 16.7207C39.7201 16.7207 40.2604 16.5905 40.7031 16.3301C41.1458 16.0697 41.5332 15.7214 41.8652 15.2852L42.959 16.1543C42.7311 16.4993 42.4414 16.8281 42.0898 17.1406C41.7383 17.4531 41.3053 17.707 40.791 17.9023C40.2832 18.0977 39.681 18.1953 38.9844 18.1953ZM52.2656 7.43359V8.92773H47.1582V7.43359H52.2656ZM53.8574 7.43359V18H52.0508V7.43359H53.8574ZM46.7188 7.43359H48.5352L48.2617 12.5312C48.2161 13.319 48.1413 14.0156 48.0371 14.6211C47.9395 15.2201 47.8027 15.7344 47.627 16.1641C47.4577 16.5938 47.2428 16.9453 46.9824 17.2188C46.7285 17.4857 46.4225 17.6842 46.0645 17.8145C45.7064 17.9382 45.293 18 44.8242 18H44.2578V16.4082L44.6484 16.3789C44.9284 16.3594 45.166 16.2943 45.3613 16.1836C45.5632 16.0729 45.7324 15.9102 45.8691 15.6953C46.0059 15.474 46.1165 15.1908 46.2012 14.8457C46.2923 14.5007 46.3607 14.0905 46.4062 13.6152C46.4583 13.14 46.4974 12.5866 46.5234 11.9551L46.7188 7.43359ZM61.1523 18.1953C60.4167 18.1953 59.7493 18.0716 59.1504 17.8242C58.5579 17.5703 58.0469 17.2155 57.6172 16.7598C57.194 16.304 56.8685 15.7637 56.6406 15.1387C56.4128 14.5137 56.2988 13.8301 56.2988 13.0879V12.6777C56.2988 11.8184 56.4258 11.0534 56.6797 10.3828C56.9336 9.70573 57.2786 9.13281 57.7148 8.66406C58.151 8.19531 58.6458 7.84049 59.1992 7.59961C59.7526 7.35872 60.3255 7.23828 60.918 7.23828C61.6732 7.23828 62.3242 7.36849 62.8711 7.62891C63.4245 7.88932 63.877 8.25391 64.2285 8.72266C64.5801 9.1849 64.8405 9.73177 65.0098 10.3633C65.179 10.9883 65.2637 11.6719 65.2637 12.4141V13.2246H57.373V11.75H63.457V11.6133C63.431 11.1445 63.3333 10.6888 63.1641 10.2461C63.0013 9.80339 62.7409 9.4388 62.3828 9.15234C62.0247 8.86589 61.5365 8.72266 60.918 8.72266C60.5078 8.72266 60.1302 8.81055 59.7852 8.98633C59.4401 9.1556 59.1439 9.40951 58.8965 9.74805C58.6491 10.0866 58.457 10.5 58.3203 10.9883C58.1836 11.4766 58.1152 12.0397 58.1152 12.6777V13.0879C58.1152 13.5892 58.1836 14.0612 58.3203 14.5039C58.4635 14.9401 58.6686 15.3242 58.9355 15.6562C59.209 15.9883 59.5378 16.2487 59.9219 16.4375C60.3125 16.6263 60.7552 16.7207 61.25 16.7207C61.888 16.7207 62.4284 16.5905 62.8711 16.3301C63.3138 16.0697 63.7012 15.7214 64.0332 15.2852L65.127 16.1543C64.8991 16.4993 64.6094 16.8281 64.2578 17.1406C63.9062 17.4531 63.4733 17.707 62.959 17.9023C62.4512 18.0977 61.849 18.1953 61.1523 18.1953ZM74.541 12.0137V13.4785H68.9551V12.0137H74.541ZM69.3359 7.43359V18H67.5293V7.43359H69.3359ZM76.0059 7.43359V18H74.1895V7.43359H76.0059ZM80.8691 15.1387L85.7422 7.43359H87.5586V18H85.7422V10.2949L80.8691 18H79.0723V7.43359H80.8691V15.1387ZM94.8438 18.1953C94.1081 18.1953 93.4408 18.0716 92.8418 17.8242C92.2493 17.5703 91.7383 17.2155 91.3086 16.7598C90.8854 16.304 90.5599 15.7637 90.332 15.1387C90.1042 14.5137 89.9902 13.8301 89.9902 13.0879V12.6777C89.9902 11.8184 90.1172 11.0534 90.3711 10.3828C90.625 9.70573 90.9701 9.13281 91.4062 8.66406C91.8424 8.19531 92.3372 7.84049 92.8906 7.59961C93.444 7.35872 94.0169 7.23828 94.6094 7.23828C95.3646 7.23828 96.0156 7.36849 96.5625 7.62891C97.1159 7.88932 97.5684 8.25391 97.9199 8.72266C98.2715 9.1849 98.5319 9.73177 98.7012 10.3633C98.8704 10.9883 98.9551 11.6719 98.9551 12.4141V13.2246H91.0645V11.75H97.1484V11.6133C97.1224 11.1445 97.0247 10.6888 96.8555 10.2461C96.6927 9.80339 96.4323 9.4388 96.0742 9.15234C95.7161 8.86589 95.2279 8.72266 94.6094 8.72266C94.1992 8.72266 93.8216 8.81055 93.4766 8.98633C93.1315 9.1556 92.8353 9.40951 92.5879 9.74805C92.3405 10.0866 92.1484 10.5 92.0117 10.9883C91.875 11.4766 91.8066 12.0397 91.8066 12.6777V13.0879C91.8066 13.5892 91.875 14.0612 92.0117 14.5039C92.1549 14.9401 92.36 15.3242 92.627 15.6562C92.9004 15.9883 93.2292 16.2487 93.6133 16.4375C94.0039 16.6263 94.4466 16.7207 94.9414 16.7207C95.5794 16.7207 96.1198 16.5905 96.5625 16.3301C97.0052 16.0697 97.3926 15.7214 97.7246 15.2852L98.8184 16.1543C98.5905 16.4993 98.3008 16.8281 97.9492 17.1406C97.5977 17.4531 97.1647 17.707 96.6504 17.9023C96.1426 18.0977 95.5404 18.1953 94.8438 18.1953ZM115.146 16.5156V18H105.84V16.7012L110.498 11.5156C111.071 10.8776 111.514 10.3372 111.826 9.89453C112.145 9.44531 112.367 9.04492 112.49 8.69336C112.62 8.33529 112.686 7.9707 112.686 7.59961C112.686 7.13086 112.588 6.70768 112.393 6.33008C112.204 5.94596 111.924 5.63997 111.553 5.41211C111.182 5.18424 110.732 5.07031 110.205 5.07031C109.574 5.07031 109.046 5.19401 108.623 5.44141C108.206 5.68229 107.894 6.02083 107.686 6.45703C107.477 6.89323 107.373 7.39453 107.373 7.96094H105.566C105.566 7.16016 105.742 6.42773 106.094 5.76367C106.445 5.09961 106.966 4.57227 107.656 4.18164C108.346 3.78451 109.196 3.58594 110.205 3.58594C111.104 3.58594 111.872 3.74544 112.51 4.06445C113.148 4.37695 113.636 4.81966 113.975 5.39258C114.32 5.95898 114.492 6.62305 114.492 7.38477C114.492 7.80143 114.421 8.22461 114.277 8.6543C114.141 9.07747 113.949 9.50065 113.701 9.92383C113.46 10.347 113.177 10.7637 112.852 11.1738C112.533 11.584 112.191 11.9876 111.826 12.3848L108.018 16.5156H115.146ZM126.006 9.75781V11.9258C126.006 13.0911 125.902 14.0742 125.693 14.875C125.485 15.6758 125.186 16.3203 124.795 16.8086C124.404 17.2969 123.932 17.6517 123.379 17.873C122.832 18.0879 122.214 18.1953 121.523 18.1953C120.977 18.1953 120.472 18.127 120.01 17.9902C119.548 17.8535 119.131 17.6354 118.76 17.3359C118.395 17.0299 118.083 16.6328 117.822 16.1445C117.562 15.6562 117.363 15.0638 117.227 14.3672C117.09 13.6706 117.021 12.8568 117.021 11.9258V9.75781C117.021 8.59245 117.126 7.61589 117.334 6.82812C117.549 6.04036 117.852 5.40885 118.242 4.93359C118.633 4.45182 119.102 4.10677 119.648 3.89844C120.202 3.6901 120.82 3.58594 121.504 3.58594C122.057 3.58594 122.565 3.6543 123.027 3.79102C123.496 3.92122 123.913 4.13281 124.277 4.42578C124.642 4.71224 124.951 5.09635 125.205 5.57812C125.465 6.05339 125.664 6.63607 125.801 7.32617C125.938 8.01628 126.006 8.82682 126.006 9.75781ZM124.189 12.2188V9.45508C124.189 8.81706 124.15 8.25716 124.072 7.77539C124.001 7.28711 123.893 6.87044 123.75 6.52539C123.607 6.18034 123.424 5.90039 123.203 5.68555C122.988 5.4707 122.738 5.31445 122.451 5.2168C122.171 5.11263 121.855 5.06055 121.504 5.06055C121.074 5.06055 120.693 5.14193 120.361 5.30469C120.029 5.46094 119.749 5.71159 119.521 6.05664C119.3 6.40169 119.131 6.85417 119.014 7.41406C118.896 7.97396 118.838 8.6543 118.838 9.45508V12.2188C118.838 12.8568 118.874 13.4199 118.945 13.9082C119.023 14.3965 119.137 14.8197 119.287 15.1777C119.437 15.5293 119.619 15.819 119.834 16.0469C120.049 16.2747 120.296 16.444 120.576 16.5547C120.863 16.6589 121.178 16.7109 121.523 16.7109C121.966 16.7109 122.354 16.6263 122.686 16.457C123.018 16.2878 123.294 16.0241 123.516 15.666C123.743 15.3014 123.913 14.8359 124.023 14.2695C124.134 13.6966 124.189 13.013 124.189 12.2188ZM128.555 17.043C128.555 16.737 128.649 16.4798 128.838 16.2715C129.033 16.0566 129.313 15.9492 129.678 15.9492C130.042 15.9492 130.319 16.0566 130.508 16.2715C130.703 16.4798 130.801 16.737 130.801 17.043C130.801 17.3424 130.703 17.5964 130.508 17.8047C130.319 18.013 130.042 18.1172 129.678 18.1172C129.313 18.1172 129.033 18.013 128.838 17.8047C128.649 17.5964 128.555 17.3424 128.555 17.043ZM142.529 9.75781V11.9258C142.529 13.0911 142.425 14.0742 142.217 14.875C142.008 15.6758 141.709 16.3203 141.318 16.8086C140.928 17.2969 140.456 17.6517 139.902 17.873C139.355 18.0879 138.737 18.1953 138.047 18.1953C137.5 18.1953 136.995 18.127 136.533 17.9902C136.071 17.8535 135.654 17.6354 135.283 17.3359C134.919 17.0299 134.606 16.6328 134.346 16.1445C134.085 15.6562 133.887 15.0638 133.75 14.3672C133.613 13.6706 133.545 12.8568 133.545 11.9258V9.75781C133.545 8.59245 133.649 7.61589 133.857 6.82812C134.072 6.04036 134.375 5.40885 134.766 4.93359C135.156 4.45182 135.625 4.10677 136.172 3.89844C136.725 3.6901 137.344 3.58594 138.027 3.58594C138.581 3.58594 139.089 3.6543 139.551 3.79102C140.02 3.92122 140.436 4.13281 140.801 4.42578C141.165 4.71224 141.475 5.09635 141.729 5.57812C141.989 6.05339 142.188 6.63607 142.324 7.32617C142.461 8.01628 142.529 8.82682 142.529 9.75781ZM140.713 12.2188V9.45508C140.713 8.81706 140.674 8.25716 140.596 7.77539C140.524 7.28711 140.417 6.87044 140.273 6.52539C140.13 6.18034 139.948 5.90039 139.727 5.68555C139.512 5.4707 139.261 5.31445 138.975 5.2168C138.695 5.11263 138.379 5.06055 138.027 5.06055C137.598 5.06055 137.217 5.14193 136.885 5.30469C136.553 5.46094 136.273 5.71159 136.045 6.05664C135.824 6.40169 135.654 6.85417 135.537 7.41406C135.42 7.97396 135.361 8.6543 135.361 9.45508V12.2188C135.361 12.8568 135.397 13.4199 135.469 13.9082C135.547 14.3965 135.661 14.8197 135.811 15.1777C135.96 15.5293 136.143 15.819 136.357 16.0469C136.572 16.2747 136.82 16.444 137.1 16.5547C137.386 16.6589 137.702 16.7109 138.047 16.7109C138.49 16.7109 138.877 16.6263 139.209 16.457C139.541 16.2878 139.818 16.0241 140.039 15.666C140.267 15.3014 140.436 14.8359 140.547 14.2695C140.658 13.6966 140.713 13.013 140.713 12.2188ZM154.463 13.2148V14.6992H144.189V13.6348L150.557 3.78125H152.031L150.449 6.63281L146.24 13.2148H154.463ZM152.48 3.78125V18H150.674V3.78125H152.48ZM156.328 17.043C156.328 16.737 156.423 16.4798 156.611 16.2715C156.807 16.0566 157.087 15.9492 157.451 15.9492C157.816 15.9492 158.092 16.0566 158.281 16.2715C158.477 16.4798 158.574 16.737 158.574 17.043C158.574 17.3424 158.477 17.5964 158.281 17.8047C158.092 18.013 157.816 18.1172 157.451 18.1172C157.087 18.1172 156.807 18.013 156.611 17.8047C156.423 17.5964 156.328 17.3424 156.328 17.043ZM170.693 16.5156V18H161.387V16.7012L166.045 11.5156C166.618 10.8776 167.061 10.3372 167.373 9.89453C167.692 9.44531 167.913 9.04492 168.037 8.69336C168.167 8.33529 168.232 7.9707 168.232 7.59961C168.232 7.13086 168.135 6.70768 167.939 6.33008C167.751 5.94596 167.471 5.63997 167.1 5.41211C166.729 5.18424 166.279 5.07031 165.752 5.07031C165.12 5.07031 164.593 5.19401 164.17 5.44141C163.753 5.68229 163.441 6.02083 163.232 6.45703C163.024 6.89323 162.92 7.39453 162.92 7.96094H161.113C161.113 7.16016 161.289 6.42773 161.641 5.76367C161.992 5.09961 162.513 4.57227 163.203 4.18164C163.893 3.78451 164.743 3.58594 165.752 3.58594C166.65 3.58594 167.419 3.74544 168.057 4.06445C168.695 4.37695 169.183 4.81966 169.521 5.39258C169.867 5.95898 170.039 6.62305 170.039 7.38477C170.039 7.80143 169.967 8.22461 169.824 8.6543C169.688 9.07747 169.495 9.50065 169.248 9.92383C169.007 10.347 168.724 10.7637 168.398 11.1738C168.079 11.584 167.738 11.9876 167.373 12.3848L163.564 16.5156H170.693ZM181.553 9.75781V11.9258C181.553 13.0911 181.449 14.0742 181.24 14.875C181.032 15.6758 180.732 16.3203 180.342 16.8086C179.951 17.2969 179.479 17.6517 178.926 17.873C178.379 18.0879 177.76 18.1953 177.07 18.1953C176.523 18.1953 176.019 18.127 175.557 17.9902C175.094 17.8535 174.678 17.6354 174.307 17.3359C173.942 17.0299 173.63 16.6328 173.369 16.1445C173.109 15.6562 172.91 15.0638 172.773 14.3672C172.637 13.6706 172.568 12.8568 172.568 11.9258V9.75781C172.568 8.59245 172.673 7.61589 172.881 6.82812C173.096 6.04036 173.398 5.40885 173.789 4.93359C174.18 4.45182 174.648 4.10677 175.195 3.89844C175.749 3.6901 176.367 3.58594 177.051 3.58594C177.604 3.58594 178.112 3.6543 178.574 3.79102C179.043 3.92122 179.46 4.13281 179.824 4.42578C180.189 4.71224 180.498 5.09635 180.752 5.57812C181.012 6.05339 181.211 6.63607 181.348 7.32617C181.484 8.01628 181.553 8.82682 181.553 9.75781ZM179.736 12.2188V9.45508C179.736 8.81706 179.697 8.25716 179.619 7.77539C179.548 7.28711 179.44 6.87044 179.297 6.52539C179.154 6.18034 178.971 5.90039 178.75 5.68555C178.535 5.4707 178.285 5.31445 177.998 5.2168C177.718 5.11263 177.402 5.06055 177.051 5.06055C176.621 5.06055 176.24 5.14193 175.908 5.30469C175.576 5.46094 175.296 5.71159 175.068 6.05664C174.847 6.40169 174.678 6.85417 174.561 7.41406C174.443 7.97396 174.385 8.6543 174.385 9.45508V12.2188C174.385 12.8568 174.421 13.4199 174.492 13.9082C174.57 14.3965 174.684 14.8197 174.834 15.1777C174.984 15.5293 175.166 15.819 175.381 16.0469C175.596 16.2747 175.843 16.444 176.123 16.5547C176.41 16.6589 176.725 16.7109 177.07 16.7109C177.513 16.7109 177.9 16.6263 178.232 16.457C178.564 16.2878 178.841 16.0241 179.062 15.666C179.29 15.3014 179.46 14.8359 179.57 14.2695C179.681 13.6966 179.736 13.013 179.736 12.2188ZM193.193 16.5156V18H183.887V16.7012L188.545 11.5156C189.118 10.8776 189.561 10.3372 189.873 9.89453C190.192 9.44531 190.413 9.04492 190.537 8.69336C190.667 8.33529 190.732 7.9707 190.732 7.59961C190.732 7.13086 190.635 6.70768 190.439 6.33008C190.251 5.94596 189.971 5.63997 189.6 5.41211C189.229 5.18424 188.779 5.07031 188.252 5.07031C187.62 5.07031 187.093 5.19401 186.67 5.44141C186.253 5.68229 185.941 6.02083 185.732 6.45703C185.524 6.89323 185.42 7.39453 185.42 7.96094H183.613C183.613 7.16016 183.789 6.42773 184.141 5.76367C184.492 5.09961 185.013 4.57227 185.703 4.18164C186.393 3.78451 187.243 3.58594 188.252 3.58594C189.15 3.58594 189.919 3.74544 190.557 4.06445C191.195 4.37695 191.683 4.81966 192.021 5.39258C192.367 5.95898 192.539 6.62305 192.539 7.38477C192.539 7.80143 192.467 8.22461 192.324 8.6543C192.188 9.07747 191.995 9.50065 191.748 9.92383C191.507 10.347 191.224 10.7637 190.898 11.1738C190.579 11.584 190.238 11.9876 189.873 12.3848L186.064 16.5156H193.193ZM197.764 10.002H199.053C199.684 10.002 200.205 9.89779 200.615 9.68945C201.032 9.47461 201.341 9.1849 201.543 8.82031C201.751 8.44922 201.855 8.03255 201.855 7.57031C201.855 7.02344 201.764 6.56445 201.582 6.19336C201.4 5.82227 201.126 5.54232 200.762 5.35352C200.397 5.16471 199.935 5.07031 199.375 5.07031C198.867 5.07031 198.418 5.17122 198.027 5.37305C197.643 5.56836 197.34 5.84831 197.119 6.21289C196.904 6.57747 196.797 7.00716 196.797 7.50195H194.99C194.99 6.7793 195.173 6.12174 195.537 5.5293C195.902 4.93685 196.413 4.46484 197.07 4.11328C197.734 3.76172 198.503 3.58594 199.375 3.58594C200.234 3.58594 200.986 3.73893 201.631 4.04492C202.275 4.3444 202.777 4.79362 203.135 5.39258C203.493 5.98503 203.672 6.72396 203.672 7.60938C203.672 7.96745 203.587 8.35156 203.418 8.76172C203.255 9.16536 202.998 9.54297 202.646 9.89453C202.301 10.2461 201.852 10.5358 201.299 10.7637C200.745 10.985 200.081 11.0957 199.307 11.0957H197.764V10.002ZM197.764 11.4863V10.4023H199.307C200.212 10.4023 200.96 10.5098 201.553 10.7246C202.145 10.9395 202.611 11.2259 202.949 11.584C203.294 11.9421 203.535 12.3359 203.672 12.7656C203.815 13.1888 203.887 13.612 203.887 14.0352C203.887 14.6992 203.773 15.2884 203.545 15.8027C203.324 16.3171 203.008 16.7533 202.598 17.1113C202.194 17.4694 201.719 17.7396 201.172 17.9219C200.625 18.1042 200.029 18.1953 199.385 18.1953C198.766 18.1953 198.184 18.1074 197.637 17.9316C197.096 17.7559 196.618 17.502 196.201 17.1699C195.785 16.8314 195.459 16.418 195.225 15.9297C194.99 15.4349 194.873 14.8717 194.873 14.2402H196.68C196.68 14.735 196.787 15.168 197.002 15.5391C197.223 15.9102 197.536 16.1999 197.939 16.4082C198.35 16.61 198.831 16.7109 199.385 16.7109C199.938 16.7109 200.413 16.6165 200.811 16.4277C201.214 16.2324 201.523 15.9395 201.738 15.5488C201.96 15.1582 202.07 14.6667 202.07 14.0742C202.07 13.4818 201.947 12.9967 201.699 12.6191C201.452 12.235 201.1 11.9518 200.645 11.7695C200.195 11.5807 199.665 11.4863 199.053 11.4863H197.764Z" fill="#C8D6DF"/>
<path d="M683.473 13.4785H685.348C685.25 14.377 684.993 15.181 684.576 15.8906C684.16 16.6003 683.57 17.1634 682.809 17.5801C682.047 17.9902 681.096 18.1953 679.957 18.1953C679.124 18.1953 678.365 18.0391 677.682 17.7266C677.005 17.4141 676.422 16.9714 675.934 16.3984C675.445 15.819 675.068 15.1257 674.801 14.3184C674.54 13.5046 674.41 12.5996 674.41 11.6035V10.1875C674.41 9.19141 674.54 8.28971 674.801 7.48242C675.068 6.66862 675.449 5.97201 675.943 5.39258C676.445 4.81315 677.047 4.36719 677.75 4.05469C678.453 3.74219 679.244 3.58594 680.123 3.58594C681.197 3.58594 682.105 3.78776 682.848 4.19141C683.59 4.59505 684.166 5.15495 684.576 5.87109C684.993 6.58073 685.25 7.4043 685.348 8.3418H683.473C683.382 7.67773 683.212 7.10807 682.965 6.63281C682.717 6.15104 682.366 5.77995 681.91 5.51953C681.454 5.25911 680.859 5.12891 680.123 5.12891C679.492 5.12891 678.935 5.24935 678.453 5.49023C677.978 5.73112 677.577 6.07292 677.252 6.51562C676.933 6.95833 676.692 7.48893 676.529 8.10742C676.367 8.72591 676.285 9.41276 676.285 10.168V11.6035C676.285 12.3001 676.357 12.9544 676.5 13.5664C676.65 14.1784 676.874 14.7155 677.174 15.1777C677.473 15.64 677.854 16.0046 678.316 16.2715C678.779 16.5319 679.326 16.6621 679.957 16.6621C680.758 16.6621 681.396 16.5352 681.871 16.2812C682.346 16.0273 682.704 15.6628 682.945 15.1875C683.193 14.7122 683.368 14.1426 683.473 13.4785ZM692.125 12.834V12.6094C692.125 11.8477 692.236 11.1413 692.457 10.4902C692.678 9.83268 692.997 9.26302 693.414 8.78125C693.831 8.29297 694.335 7.91536 694.928 7.64844C695.52 7.375 696.184 7.23828 696.92 7.23828C697.662 7.23828 698.329 7.375 698.922 7.64844C699.521 7.91536 700.029 8.29297 700.445 8.78125C700.868 9.26302 701.191 9.83268 701.412 10.4902C701.633 11.1413 701.744 11.8477 701.744 12.6094V12.834C701.744 13.5957 701.633 14.3021 701.412 14.9531C701.191 15.6042 700.868 16.1738 700.445 16.6621C700.029 17.1439 699.524 17.5215 698.932 17.7949C698.346 18.0618 697.682 18.1953 696.939 18.1953C696.197 18.1953 695.53 18.0618 694.938 17.7949C694.345 17.5215 693.837 17.1439 693.414 16.6621C692.997 16.1738 692.678 15.6042 692.457 14.9531C692.236 14.3021 692.125 13.5957 692.125 12.834ZM693.932 12.6094V12.834C693.932 13.3613 693.993 13.8594 694.117 14.3281C694.241 14.7904 694.426 15.2005 694.674 15.5586C694.928 15.9167 695.243 16.1999 695.621 16.4082C695.999 16.61 696.438 16.7109 696.939 16.7109C697.434 16.7109 697.867 16.61 698.238 16.4082C698.616 16.1999 698.928 15.9167 699.176 15.5586C699.423 15.2005 699.609 14.7904 699.732 14.3281C699.863 13.8594 699.928 13.3613 699.928 12.834V12.6094C699.928 12.0885 699.863 11.597 699.732 11.1348C699.609 10.666 699.42 10.2526 699.166 9.89453C698.919 9.52995 698.606 9.24349 698.229 9.03516C697.857 8.82682 697.421 8.72266 696.92 8.72266C696.425 8.72266 695.989 8.82682 695.611 9.03516C695.24 9.24349 694.928 9.52995 694.674 9.89453C694.426 10.2526 694.241 10.666 694.117 11.1348C693.993 11.597 693.932 12.0885 693.932 12.6094ZM708.102 7.43359V18H706.285V7.43359H708.102ZM711.646 7.43359V8.89844H702.809V7.43359H711.646ZM714.488 7.43359H716.295L716.139 11.3887C716.1 12.3913 715.986 13.2572 715.797 13.9863C715.608 14.7155 715.367 15.3372 715.074 15.8516C714.781 16.3594 714.452 16.7858 714.088 17.1309C713.73 17.4759 713.359 17.7656 712.975 18H712.076L712.125 16.5254L712.496 16.5156C712.711 16.2617 712.919 16.0013 713.121 15.7344C713.323 15.4609 713.508 15.1387 713.678 14.7676C713.847 14.39 713.987 13.931 714.098 13.3906C714.215 12.8438 714.29 12.1764 714.322 11.3887L714.488 7.43359ZM714.938 7.43359H721.295V18H719.488V9.10352H714.938V7.43359ZM711.666 16.5156H722.652V21.1152H720.846V18H713.473V21.1152H711.656L711.666 16.5156ZM729.039 18.1953C728.303 18.1953 727.636 18.0716 727.037 17.8242C726.445 17.5703 725.934 17.2155 725.504 16.7598C725.081 16.304 724.755 15.7637 724.527 15.1387C724.299 14.5137 724.186 13.8301 724.186 13.0879V12.6777C724.186 11.8184 724.312 11.0534 724.566 10.3828C724.82 9.70573 725.165 9.13281 725.602 8.66406C726.038 8.19531 726.533 7.84049 727.086 7.59961C727.639 7.35872 728.212 7.23828 728.805 7.23828C729.56 7.23828 730.211 7.36849 730.758 7.62891C731.311 7.88932 731.764 8.25391 732.115 8.72266C732.467 9.1849 732.727 9.73177 732.896 10.3633C733.066 10.9883 733.15 11.6719 733.15 12.4141V13.2246H725.26V11.75H731.344V11.6133C731.318 11.1445 731.22 10.6888 731.051 10.2461C730.888 9.80339 730.628 9.4388 730.27 9.15234C729.911 8.86589 729.423 8.72266 728.805 8.72266C728.395 8.72266 728.017 8.81055 727.672 8.98633C727.327 9.1556 727.031 9.40951 726.783 9.74805C726.536 10.0866 726.344 10.5 726.207 10.9883C726.07 11.4766 726.002 12.0397 726.002 12.6777V13.0879C726.002 13.5892 726.07 14.0612 726.207 14.5039C726.35 14.9401 726.555 15.3242 726.822 15.6562C727.096 15.9883 727.424 16.2487 727.809 16.4375C728.199 16.6263 728.642 16.7207 729.137 16.7207C729.775 16.7207 730.315 16.5905 730.758 16.3301C731.201 16.0697 731.588 15.7214 731.92 15.2852L733.014 16.1543C732.786 16.4993 732.496 16.8281 732.145 17.1406C731.793 17.4531 731.36 17.707 730.846 17.9023C730.338 18.0977 729.736 18.1953 729.039 18.1953ZM742.32 7.43359V8.92773H737.213V7.43359H742.32ZM743.912 7.43359V18H742.105V7.43359H743.912ZM736.773 7.43359H738.59L738.316 12.5312C738.271 13.319 738.196 14.0156 738.092 14.6211C737.994 15.2201 737.857 15.7344 737.682 16.1641C737.512 16.5938 737.298 16.9453 737.037 17.2188C736.783 17.4857 736.477 17.6842 736.119 17.8145C735.761 17.9382 735.348 18 734.879 18H734.312V16.4082L734.703 16.3789C734.983 16.3594 735.221 16.2943 735.416 16.1836C735.618 16.0729 735.787 15.9102 735.924 15.6953C736.061 15.474 736.171 15.1908 736.256 14.8457C736.347 14.5007 736.415 14.0905 736.461 13.6152C736.513 13.14 736.552 12.5866 736.578 11.9551L736.773 7.43359ZM748.785 7.43359V18H746.979V7.43359H748.785ZM755.719 7.43359L750.709 13.4883H748.18L747.906 11.9062H749.977L753.521 7.43359H755.719ZM753.775 18L749.889 13.2148L751.051 11.9062L756.07 18H753.775ZM756.949 12.834V12.6094C756.949 11.8477 757.06 11.1413 757.281 10.4902C757.503 9.83268 757.822 9.26302 758.238 8.78125C758.655 8.29297 759.16 7.91536 759.752 7.64844C760.344 7.375 761.008 7.23828 761.744 7.23828C762.486 7.23828 763.154 7.375 763.746 7.64844C764.345 7.91536 764.853 8.29297 765.27 8.78125C765.693 9.26302 766.015 9.83268 766.236 10.4902C766.458 11.1413 766.568 11.8477 766.568 12.6094V12.834C766.568 13.5957 766.458 14.3021 766.236 14.9531C766.015 15.6042 765.693 16.1738 765.27 16.6621C764.853 17.1439 764.348 17.5215 763.756 17.7949C763.17 18.0618 762.506 18.1953 761.764 18.1953C761.021 18.1953 760.354 18.0618 759.762 17.7949C759.169 17.5215 758.661 17.1439 758.238 16.6621C757.822 16.1738 757.503 15.6042 757.281 14.9531C757.06 14.3021 756.949 13.5957 756.949 12.834ZM758.756 12.6094V12.834C758.756 13.3613 758.818 13.8594 758.941 14.3281C759.065 14.7904 759.251 15.2005 759.498 15.5586C759.752 15.9167 760.068 16.1999 760.445 16.4082C760.823 16.61 761.262 16.7109 761.764 16.7109C762.258 16.7109 762.691 16.61 763.062 16.4082C763.44 16.1999 763.753 15.9167 764 15.5586C764.247 15.2005 764.433 14.7904 764.557 14.3281C764.687 13.8594 764.752 13.3613 764.752 12.834V12.6094C764.752 12.0885 764.687 11.597 764.557 11.1348C764.433 10.666 764.244 10.2526 763.99 9.89453C763.743 9.52995 763.43 9.24349 763.053 9.03516C762.682 8.82682 762.245 8.72266 761.744 8.72266C761.249 8.72266 760.813 8.82682 760.436 9.03516C760.064 9.24349 759.752 9.52995 759.498 9.89453C759.251 10.2526 759.065 10.666 758.941 11.1348C758.818 11.597 758.756 12.0885 758.756 12.6094ZM770.787 15.1387L775.66 7.43359H777.477V18H775.66V10.2949L770.787 18H768.99V7.43359H770.787V15.1387ZM774.674 3.60547H776.139C776.139 4.11328 776.021 4.56576 775.787 4.96289C775.553 5.35352 775.217 5.65951 774.781 5.88086C774.345 6.10221 773.827 6.21289 773.229 6.21289C772.324 6.21289 771.607 5.97201 771.08 5.49023C770.559 5.00195 770.299 4.3737 770.299 3.60547H771.764C771.764 3.98958 771.874 4.32812 772.096 4.62109C772.317 4.91406 772.695 5.06055 773.229 5.06055C773.749 5.06055 774.12 4.91406 774.342 4.62109C774.563 4.32812 774.674 3.98958 774.674 3.60547Z" fill="#C8D6DF"/>
<path d="M226 11L653 11" stroke="#C8D6DF" stroke-width="2" stroke-linecap="round"/>
</svg>
