<svg width="21" height="30" viewBox="0 0 21 30" fill="none" xmlns="http://www.w3.org/2000/svg">
<path fill-rule="evenodd" clip-rule="evenodd" d="M10.5 0C15.465 0 19.5 4.035 19.5 9C19.5 15.75 10.5 25.5 10.5 25.5C10.5 25.5 1.5 15.75 1.5 9C1.5 4.035 5.535 0 10.5 0ZM21 30V27H0V30H21ZM4.5 9C4.5 5.685 7.185 3 10.5 3C13.815 3 16.5 5.685 16.5 9C16.5 12.195 13.38 17.19 10.5 20.865C7.62 17.205 4.5 12.195 4.5 9ZM7.5 9C7.5 7.35 8.85 6 10.5 6C12.15 6 13.5 7.35 13.5 9C13.5 10.65 12.165 12 10.5 12C8.85 12 7.5 10.65 7.5 9Z" fill="#F3CC3F"/>
</svg>
