<svg width="1719" height="100" viewBox="0 0 1719 100" fill="none" xmlns="http://www.w3.org/2000/svg">
<g filter="url(#filter0_bd_556_2881)">
<rect x="13" y="10" width="348" height="70" rx="35" fill="white" fill-opacity="0.8" shape-rendering="crispEdges"/>
</g>
<g clip-path="url(#clip0_556_2881)">
<path d="M83.0999 20C80.896 20 78.9223 21.0023 77.6089 22.5745C76.2956 21.0023 74.3219 20 72.1179 20C69.914 20 67.9403 21.0023 66.6269 22.5745C65.3136 21.0023 63.3399 20 61.136 20C58.932 20 56.9583 21.0023 55.645 22.5745C54.3316 21.0023 52.3579 20 50.154 20C46.2093 20 43 23.2093 43 27.1539V68.337C43 69.2555 43.7445 70 44.663 70C45.5814 70 46.3259 69.2555 46.3259 68.337V61.4571C47.4338 62.1618 48.7465 62.5721 50.154 62.5721C52.3579 62.5721 54.3316 61.5697 55.645 59.9976C56.9583 61.5697 58.932 62.5721 61.136 62.5721C63.3399 62.5721 65.3136 61.5697 66.6269 59.9976C67.9403 61.5697 69.914 62.5721 72.1179 62.5721C74.3219 62.5721 76.2956 61.5697 77.6089 59.9976C78.9223 61.5697 80.896 62.5721 83.0999 62.5721C84.5074 62.5721 85.8201 62.1618 86.9279 61.4571V68.337C86.9279 69.2555 87.6724 70 88.5909 70C89.5093 70 90.2539 69.2555 90.2539 68.337V27.1539C90.2539 23.2093 87.0446 20 83.0999 20ZM50.154 59.2461C48.0432 59.2461 46.3259 57.5289 46.3259 55.4181V27.1539C46.3259 25.0432 48.0432 23.3259 50.154 23.3259C52.2647 23.3259 53.982 25.0432 53.982 27.1539V55.4181C53.982 57.5289 52.2647 59.2461 50.154 59.2461ZM61.136 59.2461C59.0252 59.2461 57.3079 57.5289 57.3079 55.4181V27.1539C57.3079 25.0432 59.0252 23.3259 61.136 23.3259C63.2467 23.3259 64.964 25.0432 64.964 27.1539V55.4181C64.964 57.5289 63.2467 59.2461 61.136 59.2461ZM72.1179 59.2461C70.0072 59.2461 68.2899 57.5289 68.2899 55.4181V27.1539C68.2899 25.0432 70.0072 23.3259 72.1179 23.3259C74.2287 23.3259 75.9459 25.0432 75.9459 27.1539V55.4181C75.9459 57.5289 74.2287 59.2461 72.1179 59.2461ZM83.0999 59.2461C80.9891 59.2461 79.2719 57.5289 79.2719 55.4181V27.1539C79.2719 25.0432 80.9891 23.3259 83.0999 23.3259C85.2107 23.3259 86.9279 25.0432 86.9279 27.1539V55.4181C86.9279 57.5289 85.2107 59.2461 83.0999 59.2461Z" fill="#222445"/>
</g>
<path d="M117.236 39.6758L112.988 52H110.42L115.771 37.7812H117.412L117.236 39.6758ZM120.791 52L116.533 39.6758L116.348 37.7812H117.998L123.369 52H120.791ZM120.586 46.7266V48.6699H112.852V46.7266H120.586ZM129.863 47.4785H126.484L126.465 45.8184H129.238C129.694 45.8184 130.068 45.7728 130.361 45.6816C130.661 45.5905 130.882 45.4538 131.025 45.2715C131.169 45.0827 131.24 44.8548 131.24 44.5879C131.24 44.3665 131.198 44.1745 131.113 44.0117C131.029 43.8424 130.898 43.7057 130.723 43.6016C130.553 43.4909 130.339 43.4128 130.078 43.3672C129.824 43.3151 129.528 43.2891 129.189 43.2891H127.266V52H124.912V41.4336H129.189C129.867 41.4336 130.475 41.4922 131.016 41.6094C131.562 41.7266 132.028 41.9056 132.412 42.1465C132.796 42.3874 133.089 42.6934 133.291 43.0645C133.499 43.429 133.604 43.8587 133.604 44.3535C133.604 44.679 133.532 44.985 133.389 45.2715C133.252 45.5579 133.047 45.8118 132.773 46.0332C132.5 46.2546 132.165 46.4368 131.768 46.5801C131.37 46.7168 130.915 46.8014 130.4 46.834L129.863 47.4785ZM129.863 52H125.801L126.738 50.1445H129.863C130.28 50.1445 130.625 50.0924 130.898 49.9883C131.172 49.8841 131.374 49.7344 131.504 49.5391C131.641 49.3372 131.709 49.0996 131.709 48.8262C131.709 48.5462 131.644 48.3053 131.514 48.1035C131.383 47.9017 131.182 47.7487 130.908 47.6445C130.641 47.5339 130.293 47.4785 129.863 47.4785H127.178L127.197 45.8184H130.391L131.064 46.4629C131.735 46.5085 132.292 46.6517 132.734 46.8926C133.177 47.1335 133.509 47.4362 133.73 47.8008C133.952 48.1654 134.062 48.5625 134.062 48.9922C134.062 49.487 133.968 49.9232 133.779 50.3008C133.597 50.6784 133.324 50.9941 132.959 51.248C132.601 51.4954 132.161 51.6842 131.641 51.8145C131.12 51.9382 130.527 52 129.863 52ZM140.879 41.4336V52H138.516V41.4336H140.879ZM144.346 41.4336V43.2891H135.107V41.4336H144.346ZM145.098 46.834V46.6094C145.098 45.8477 145.208 45.1413 145.43 44.4902C145.651 43.8327 145.97 43.263 146.387 42.7812C146.81 42.293 147.324 41.9154 147.93 41.6484C148.542 41.375 149.232 41.2383 150 41.2383C150.775 41.2383 151.465 41.375 152.07 41.6484C152.682 41.9154 153.2 42.293 153.623 42.7812C154.046 43.263 154.368 43.8327 154.59 44.4902C154.811 45.1413 154.922 45.8477 154.922 46.6094V46.834C154.922 47.5957 154.811 48.3021 154.59 48.9531C154.368 49.6042 154.046 50.1738 153.623 50.6621C153.2 51.1439 152.686 51.5215 152.08 51.7949C151.475 52.0618 150.788 52.1953 150.02 52.1953C149.245 52.1953 148.551 52.0618 147.939 51.7949C147.334 51.5215 146.82 51.1439 146.396 50.6621C145.973 50.1738 145.651 49.6042 145.43 48.9531C145.208 48.3021 145.098 47.5957 145.098 46.834ZM147.451 46.6094V46.834C147.451 47.3092 147.5 47.7585 147.598 48.1816C147.695 48.6048 147.848 48.9759 148.057 49.2949C148.265 49.6139 148.532 49.8646 148.857 50.0469C149.183 50.2292 149.57 50.3203 150.02 50.3203C150.456 50.3203 150.833 50.2292 151.152 50.0469C151.478 49.8646 151.745 49.6139 151.953 49.2949C152.161 48.9759 152.314 48.6048 152.412 48.1816C152.516 47.7585 152.568 47.3092 152.568 46.834V46.6094C152.568 46.1406 152.516 45.6979 152.412 45.2812C152.314 44.8581 152.158 44.4837 151.943 44.1582C151.735 43.8327 151.468 43.5788 151.143 43.3965C150.824 43.2077 150.443 43.1133 150 43.1133C149.557 43.1133 149.173 43.2077 148.848 43.3965C148.529 43.5788 148.265 43.8327 148.057 44.1582C147.848 44.4837 147.695 44.8581 147.598 45.2812C147.5 45.6979 147.451 46.1406 147.451 46.6094ZM164.111 45.8477V47.7031H158.643V45.8477H164.111ZM159.326 41.4336V52H156.973V41.4336H159.326ZM165.811 41.4336V52H163.457V41.4336H165.811ZM167.871 46.834V46.6094C167.871 45.8477 167.982 45.1413 168.203 44.4902C168.424 43.8327 168.743 43.263 169.16 42.7812C169.583 42.293 170.098 41.9154 170.703 41.6484C171.315 41.375 172.005 41.2383 172.773 41.2383C173.548 41.2383 174.238 41.375 174.844 41.6484C175.456 41.9154 175.973 42.293 176.396 42.7812C176.82 43.263 177.142 43.8327 177.363 44.4902C177.585 45.1413 177.695 45.8477 177.695 46.6094V46.834C177.695 47.5957 177.585 48.3021 177.363 48.9531C177.142 49.6042 176.82 50.1738 176.396 50.6621C175.973 51.1439 175.459 51.5215 174.854 51.7949C174.248 52.0618 173.561 52.1953 172.793 52.1953C172.018 52.1953 171.325 52.0618 170.713 51.7949C170.107 51.5215 169.593 51.1439 169.17 50.6621C168.747 50.1738 168.424 49.6042 168.203 48.9531C167.982 48.3021 167.871 47.5957 167.871 46.834ZM170.225 46.6094V46.834C170.225 47.3092 170.273 47.7585 170.371 48.1816C170.469 48.6048 170.622 48.9759 170.83 49.2949C171.038 49.6139 171.305 49.8646 171.631 50.0469C171.956 50.2292 172.344 50.3203 172.793 50.3203C173.229 50.3203 173.607 50.2292 173.926 50.0469C174.251 49.8646 174.518 49.6139 174.727 49.2949C174.935 48.9759 175.088 48.6048 175.186 48.1816C175.29 47.7585 175.342 47.3092 175.342 46.834V46.6094C175.342 46.1406 175.29 45.6979 175.186 45.2812C175.088 44.8581 174.932 44.4837 174.717 44.1582C174.508 43.8327 174.242 43.5788 173.916 43.3965C173.597 43.2077 173.216 43.1133 172.773 43.1133C172.331 43.1133 171.947 43.2077 171.621 43.3965C171.302 43.5788 171.038 43.8327 170.83 44.1582C170.622 44.4837 170.469 44.8581 170.371 45.2812C170.273 45.6979 170.225 46.1406 170.225 46.6094ZM185.947 49.1484L189.092 41.4336H191.133L186.748 52H185.146L180.771 41.4336H182.812L185.947 49.1484ZM182.207 41.4336V52H179.854V41.4336H182.207ZM189.688 52V41.4336H192.051V52H189.688ZM201.904 45.8477V47.7031H196.436V45.8477H201.904ZM197.119 41.4336V52H194.766V41.4336H197.119ZM203.604 41.4336V52H201.25V41.4336H203.604ZM205.664 46.834V46.6094C205.664 45.8477 205.775 45.1413 205.996 44.4902C206.217 43.8327 206.536 43.263 206.953 42.7812C207.376 42.293 207.891 41.9154 208.496 41.6484C209.108 41.375 209.798 41.2383 210.566 41.2383C211.341 41.2383 212.031 41.375 212.637 41.6484C213.249 41.9154 213.766 42.293 214.189 42.7812C214.613 43.263 214.935 43.8327 215.156 44.4902C215.378 45.1413 215.488 45.8477 215.488 46.6094V46.834C215.488 47.5957 215.378 48.3021 215.156 48.9531C214.935 49.6042 214.613 50.1738 214.189 50.6621C213.766 51.1439 213.252 51.5215 212.646 51.7949C212.041 52.0618 211.354 52.1953 210.586 52.1953C209.811 52.1953 209.118 52.0618 208.506 51.7949C207.9 51.5215 207.386 51.1439 206.963 50.6621C206.54 50.1738 206.217 49.6042 205.996 48.9531C205.775 48.3021 205.664 47.5957 205.664 46.834ZM208.018 46.6094V46.834C208.018 47.3092 208.066 47.7585 208.164 48.1816C208.262 48.6048 208.415 48.9759 208.623 49.2949C208.831 49.6139 209.098 49.8646 209.424 50.0469C209.749 50.2292 210.137 50.3203 210.586 50.3203C211.022 50.3203 211.4 50.2292 211.719 50.0469C212.044 49.8646 212.311 49.6139 212.52 49.2949C212.728 48.9759 212.881 48.6048 212.979 48.1816C213.083 47.7585 213.135 47.3092 213.135 46.834V46.6094C213.135 46.1406 213.083 45.6979 212.979 45.2812C212.881 44.8581 212.725 44.4837 212.51 44.1582C212.301 43.8327 212.035 43.5788 211.709 43.3965C211.39 43.2077 211.009 43.1133 210.566 43.1133C210.124 43.1133 209.74 43.2077 209.414 43.3965C209.095 43.5788 208.831 43.8327 208.623 44.1582C208.415 44.4837 208.262 44.8581 208.164 45.2812C208.066 45.6979 208.018 46.1406 208.018 46.6094ZM222.119 52.1953C221.338 52.1953 220.632 52.0684 220 51.8145C219.375 51.554 218.841 51.1927 218.398 50.7305C217.962 50.2682 217.627 49.7246 217.393 49.0996C217.158 48.4746 217.041 47.8008 217.041 47.0781V46.6875C217.041 45.8607 217.161 45.112 217.402 44.4414C217.643 43.7708 217.979 43.1979 218.408 42.7227C218.838 42.2409 219.346 41.873 219.932 41.6191C220.518 41.3652 221.152 41.2383 221.836 41.2383C222.591 41.2383 223.252 41.3652 223.818 41.6191C224.385 41.873 224.854 42.2311 225.225 42.6934C225.602 43.1491 225.882 43.6927 226.064 44.3242C226.253 44.9557 226.348 45.6523 226.348 46.4141V47.4199H218.184V45.7305H224.023V45.5449C224.01 45.1217 223.926 44.7246 223.77 44.3535C223.62 43.9824 223.389 43.6829 223.076 43.4551C222.764 43.2272 222.347 43.1133 221.826 43.1133C221.436 43.1133 221.087 43.1979 220.781 43.3672C220.482 43.5299 220.231 43.7676 220.029 44.0801C219.827 44.3926 219.671 44.7702 219.561 45.2129C219.456 45.6491 219.404 46.1406 219.404 46.6875V47.0781C219.404 47.5404 219.466 47.9701 219.59 48.3672C219.72 48.7578 219.909 49.0996 220.156 49.3926C220.404 49.6855 220.703 49.9167 221.055 50.0859C221.406 50.2487 221.807 50.3301 222.256 50.3301C222.822 50.3301 223.327 50.2161 223.77 49.9883C224.212 49.7604 224.596 49.4382 224.922 49.0215L226.162 50.2227C225.934 50.5547 225.638 50.8737 225.273 51.1797C224.909 51.4792 224.463 51.7233 223.936 51.9121C223.415 52.1009 222.809 52.1953 222.119 52.1953ZM232.715 46.834V46.6094C232.715 45.8477 232.826 45.1413 233.047 44.4902C233.268 43.8327 233.587 43.263 234.004 42.7812C234.427 42.293 234.941 41.9154 235.547 41.6484C236.159 41.375 236.849 41.2383 237.617 41.2383C238.392 41.2383 239.082 41.375 239.688 41.6484C240.299 41.9154 240.817 42.293 241.24 42.7812C241.663 43.263 241.986 43.8327 242.207 44.4902C242.428 45.1413 242.539 45.8477 242.539 46.6094V46.834C242.539 47.5957 242.428 48.3021 242.207 48.9531C241.986 49.6042 241.663 50.1738 241.24 50.6621C240.817 51.1439 240.303 51.5215 239.697 51.7949C239.092 52.0618 238.405 52.1953 237.637 52.1953C236.862 52.1953 236.169 52.0618 235.557 51.7949C234.951 51.5215 234.437 51.1439 234.014 50.6621C233.59 50.1738 233.268 49.6042 233.047 48.9531C232.826 48.3021 232.715 47.5957 232.715 46.834ZM235.068 46.6094V46.834C235.068 47.3092 235.117 47.7585 235.215 48.1816C235.312 48.6048 235.465 48.9759 235.674 49.2949C235.882 49.6139 236.149 49.8646 236.475 50.0469C236.8 50.2292 237.188 50.3203 237.637 50.3203C238.073 50.3203 238.451 50.2292 238.77 50.0469C239.095 49.8646 239.362 49.6139 239.57 49.2949C239.779 48.9759 239.932 48.6048 240.029 48.1816C240.133 47.7585 240.186 47.3092 240.186 46.834V46.6094C240.186 46.1406 240.133 45.6979 240.029 45.2812C239.932 44.8581 239.775 44.4837 239.561 44.1582C239.352 43.8327 239.085 43.5788 238.76 43.3965C238.441 43.2077 238.06 43.1133 237.617 43.1133C237.174 43.1133 236.79 43.2077 236.465 43.3965C236.146 43.5788 235.882 43.8327 235.674 44.1582C235.465 44.4837 235.312 44.8581 235.215 45.2812C235.117 45.6979 235.068 46.1406 235.068 46.6094ZM249.18 41.4336V52H246.816V41.4336H249.18ZM252.646 41.4336V43.2891H243.408V41.4336H252.646ZM253.398 46.834V46.6094C253.398 45.8477 253.509 45.1413 253.73 44.4902C253.952 43.8327 254.271 43.263 254.688 42.7812C255.111 42.293 255.625 41.9154 256.23 41.6484C256.842 41.375 257.533 41.2383 258.301 41.2383C259.076 41.2383 259.766 41.375 260.371 41.6484C260.983 41.9154 261.501 42.293 261.924 42.7812C262.347 43.263 262.669 43.8327 262.891 44.4902C263.112 45.1413 263.223 45.8477 263.223 46.6094V46.834C263.223 47.5957 263.112 48.3021 262.891 48.9531C262.669 49.6042 262.347 50.1738 261.924 50.6621C261.501 51.1439 260.986 51.5215 260.381 51.7949C259.775 52.0618 259.089 52.1953 258.32 52.1953C257.546 52.1953 256.852 52.0618 256.24 51.7949C255.635 51.5215 255.12 51.1439 254.697 50.6621C254.274 50.1738 253.952 49.6042 253.73 48.9531C253.509 48.3021 253.398 47.5957 253.398 46.834ZM255.752 46.6094V46.834C255.752 47.3092 255.801 47.7585 255.898 48.1816C255.996 48.6048 256.149 48.9759 256.357 49.2949C256.566 49.6139 256.833 49.8646 257.158 50.0469C257.484 50.2292 257.871 50.3203 258.32 50.3203C258.757 50.3203 259.134 50.2292 259.453 50.0469C259.779 49.8646 260.046 49.6139 260.254 49.2949C260.462 48.9759 260.615 48.6048 260.713 48.1816C260.817 47.7585 260.869 47.3092 260.869 46.834V46.6094C260.869 46.1406 260.817 45.6979 260.713 45.2812C260.615 44.8581 260.459 44.4837 260.244 44.1582C260.036 43.8327 259.769 43.5788 259.443 43.3965C259.124 43.2077 258.743 43.1133 258.301 43.1133C257.858 43.1133 257.474 43.2077 257.148 43.3965C256.829 43.5788 256.566 43.8327 256.357 44.1582C256.149 44.4837 255.996 44.8581 255.898 45.2812C255.801 45.6979 255.752 46.1406 255.752 46.6094ZM272.285 41.4336V43.3086H267.07V41.4336H272.285ZM267.627 41.4336V52H265.273V41.4336H267.627ZM274.131 41.4336V52H271.768V41.4336H274.131ZM283.721 41.4336V43.3086H278.564V41.4336H283.721ZM285.566 41.4336V52H283.213V41.4336H285.566ZM277.988 41.4336H280.312L280.029 46.6582C279.99 47.4329 279.912 48.1165 279.795 48.709C279.684 49.2949 279.535 49.7995 279.346 50.2227C279.157 50.6393 278.926 50.9779 278.652 51.2383C278.379 51.4987 278.06 51.6908 277.695 51.8145C277.331 51.9382 276.921 52 276.465 52H275.732L275.723 50.0664L276.094 50.0371C276.335 50.0176 276.543 49.9557 276.719 49.8516C276.895 49.7409 277.044 49.5846 277.168 49.3828C277.298 49.181 277.402 48.9206 277.48 48.6016C277.565 48.2826 277.63 47.9049 277.676 47.4688C277.728 47.0326 277.767 46.5247 277.793 45.9453L277.988 41.4336ZM292.725 52.1953C291.943 52.1953 291.237 52.0684 290.605 51.8145C289.98 51.554 289.447 51.1927 289.004 50.7305C288.568 50.2682 288.232 49.7246 287.998 49.0996C287.764 48.4746 287.646 47.8008 287.646 47.0781V46.6875C287.646 45.8607 287.767 45.112 288.008 44.4414C288.249 43.7708 288.584 43.1979 289.014 42.7227C289.443 42.2409 289.951 41.873 290.537 41.6191C291.123 41.3652 291.758 41.2383 292.441 41.2383C293.197 41.2383 293.857 41.3652 294.424 41.6191C294.99 41.873 295.459 42.2311 295.83 42.6934C296.208 43.1491 296.488 43.6927 296.67 44.3242C296.859 44.9557 296.953 45.6523 296.953 46.4141V47.4199H288.789V45.7305H294.629V45.5449C294.616 45.1217 294.531 44.7246 294.375 44.3535C294.225 43.9824 293.994 43.6829 293.682 43.4551C293.369 43.2272 292.952 43.1133 292.432 43.1133C292.041 43.1133 291.693 43.1979 291.387 43.3672C291.087 43.5299 290.837 43.7676 290.635 44.0801C290.433 44.3926 290.277 44.7702 290.166 45.2129C290.062 45.6491 290.01 46.1406 290.01 46.6875V47.0781C290.01 47.5404 290.072 47.9701 290.195 48.3672C290.326 48.7578 290.514 49.0996 290.762 49.3926C291.009 49.6855 291.309 49.9167 291.66 50.0859C292.012 50.2487 292.412 50.3301 292.861 50.3301C293.428 50.3301 293.932 50.2161 294.375 49.9883C294.818 49.7604 295.202 49.4382 295.527 49.0215L296.768 50.2227C296.54 50.5547 296.243 50.8737 295.879 51.1797C295.514 51.4792 295.068 51.7233 294.541 51.9121C294.02 52.1009 293.415 52.1953 292.725 52.1953ZM306.006 45.8477V47.7031H300.537V45.8477H306.006ZM301.221 41.4336V52H298.867V41.4336H301.221ZM307.705 41.4336V52H305.352V41.4336H307.705ZM312.646 48.5625L316.797 41.4336H319.15V52H316.797V44.8613L312.646 52H310.293V41.4336H312.646V48.5625ZM326.299 52.1953C325.518 52.1953 324.811 52.0684 324.18 51.8145C323.555 51.554 323.021 51.1927 322.578 50.7305C322.142 50.2682 321.807 49.7246 321.572 49.0996C321.338 48.4746 321.221 47.8008 321.221 47.0781V46.6875C321.221 45.8607 321.341 45.112 321.582 44.4414C321.823 43.7708 322.158 43.1979 322.588 42.7227C323.018 42.2409 323.525 41.873 324.111 41.6191C324.697 41.3652 325.332 41.2383 326.016 41.2383C326.771 41.2383 327.432 41.3652 327.998 41.6191C328.564 41.873 329.033 42.2311 329.404 42.6934C329.782 43.1491 330.062 43.6927 330.244 44.3242C330.433 44.9557 330.527 45.6523 330.527 46.4141V47.4199H322.363V45.7305H328.203V45.5449C328.19 45.1217 328.105 44.7246 327.949 44.3535C327.799 43.9824 327.568 43.6829 327.256 43.4551C326.943 43.2272 326.527 43.1133 326.006 43.1133C325.615 43.1133 325.267 43.1979 324.961 43.3672C324.661 43.5299 324.411 43.7676 324.209 44.0801C324.007 44.3926 323.851 44.7702 323.74 45.2129C323.636 45.6491 323.584 46.1406 323.584 46.6875V47.0781C323.584 47.5404 323.646 47.9701 323.77 48.3672C323.9 48.7578 324.089 49.0996 324.336 49.3926C324.583 49.6855 324.883 49.9167 325.234 50.0859C325.586 50.2487 325.986 50.3301 326.436 50.3301C327.002 50.3301 327.507 50.2161 327.949 49.9883C328.392 49.7604 328.776 49.4382 329.102 49.0215L330.342 50.2227C330.114 50.5547 329.818 50.8737 329.453 51.1797C329.089 51.4792 328.643 51.7233 328.115 51.9121C327.594 52.1009 326.989 52.1953 326.299 52.1953Z" fill="#222445"/>
<g filter="url(#filter1_bd_556_2881)">
<rect x="401" y="10" width="279" height="70" rx="35" fill="white" fill-opacity="0.8" shape-rendering="crispEdges"/>
</g>
<path d="M502.159 37.7812V52H499.718V37.7812H502.159ZM510.714 37.7812L504.932 45.8867H501.466L501.134 43.7578H503.575L507.716 37.7812H510.714ZM508.214 52L503.614 45.5156L505.196 43.6309L511.153 52H508.214ZM514.6 48.5625L518.751 41.4336H521.104V52H518.751V44.8613L514.6 52H512.247V41.4336H514.6V48.5625ZM525.958 43.4648V56.0625H523.604V41.4336H525.772L525.958 43.4648ZM532.843 46.6191V46.8242C532.843 47.5924 532.751 48.3053 532.569 48.9629C532.393 49.6139 532.13 50.1836 531.778 50.6719C531.433 51.1536 531.007 51.528 530.499 51.7949C529.991 52.0618 529.405 52.1953 528.741 52.1953C528.083 52.1953 527.507 52.0749 527.012 51.834C526.524 51.5866 526.111 51.2383 525.772 50.7891C525.434 50.3398 525.16 49.8125 524.952 49.207C524.75 48.5951 524.607 47.9245 524.522 47.1953V46.4043C524.607 45.6296 524.75 44.9264 524.952 44.2949C525.16 43.6634 525.434 43.1198 525.772 42.6641C526.111 42.2083 526.524 41.8568 527.012 41.6094C527.501 41.362 528.07 41.2383 528.721 41.2383C529.385 41.2383 529.975 41.3685 530.489 41.6289C531.003 41.8828 531.436 42.2474 531.788 42.7227C532.139 43.1914 532.403 43.7578 532.579 44.4219C532.755 45.0794 532.843 45.8118 532.843 46.6191ZM530.489 46.8242V46.6191C530.489 46.1309 530.443 45.6784 530.352 45.2617C530.261 44.8385 530.118 44.4674 529.923 44.1484C529.727 43.8294 529.477 43.582 529.171 43.4062C528.871 43.224 528.51 43.1328 528.087 43.1328C527.67 43.1328 527.312 43.2044 527.012 43.3477C526.713 43.4844 526.462 43.6764 526.26 43.9238C526.059 44.1712 525.902 44.4609 525.792 44.793C525.681 45.1185 525.603 45.4733 525.557 45.8574V47.752C525.635 48.2207 525.769 48.6504 525.958 49.041C526.147 49.4316 526.413 49.7441 526.759 49.9785C527.11 50.2064 527.559 50.3203 528.106 50.3203C528.529 50.3203 528.891 50.2292 529.19 50.0469C529.49 49.8646 529.734 49.6139 529.923 49.2949C530.118 48.9694 530.261 48.5951 530.352 48.1719C530.443 47.7487 530.489 47.2995 530.489 46.8242ZM541.934 41.4336V43.3086H536.719V41.4336H541.934ZM537.276 41.4336V52H534.923V41.4336H537.276ZM543.78 41.4336V52H541.417V41.4336H543.78ZM548.702 48.5625L552.852 41.4336H555.206V52H552.852V44.8613L548.702 52H546.348V41.4336H548.702V48.5625ZM566.182 41.4336V52H563.829V41.4336H566.182ZM565.186 46.1113V47.9766C564.9 48.1003 564.578 48.2142 564.219 48.3184C563.868 48.416 563.497 48.4974 563.106 48.5625C562.716 48.6211 562.322 48.6504 561.925 48.6504C560.994 48.6504 560.19 48.5072 559.512 48.2207C558.842 47.9342 558.324 47.4948 557.96 46.9023C557.602 46.3034 557.423 45.5449 557.423 44.627V41.4238H559.766V44.627C559.766 45.1543 559.844 45.5742 560.001 45.8867C560.163 46.1992 560.404 46.4238 560.723 46.5605C561.042 46.6973 561.443 46.7656 561.925 46.7656C562.328 46.7656 562.709 46.7396 563.067 46.6875C563.425 46.6289 563.78 46.5508 564.132 46.4531C564.483 46.3555 564.835 46.2415 565.186 46.1113ZM575.909 45.8477V47.7031H570.44V45.8477H575.909ZM571.124 41.4336V52H568.77V41.4336H571.124ZM577.608 41.4336V52H575.255V41.4336H577.608ZM581.866 44.793H584.981C585.893 44.793 586.667 44.946 587.305 45.252C587.943 45.5579 588.428 45.9844 588.76 46.5312C589.099 47.0716 589.268 47.6901 589.268 48.3867C589.268 48.901 589.174 49.3796 588.985 49.8223C588.796 50.2585 588.516 50.6393 588.145 50.9648C587.781 51.2904 587.331 51.5443 586.798 51.7266C586.27 51.9089 585.665 52 584.981 52H580.303V41.4336H582.667V50.1348H584.981C585.45 50.1348 585.824 50.0534 586.104 49.8906C586.384 49.7279 586.586 49.5163 586.71 49.2559C586.84 48.9954 586.905 48.7188 586.905 48.4258C586.905 48.1263 586.84 47.8431 586.71 47.5762C586.586 47.3092 586.384 47.0911 586.104 46.9219C585.824 46.7526 585.45 46.668 584.981 46.668H581.866V44.793ZM593.428 41.4336V52H591.075V41.4336H593.428ZM598.643 48.5625L602.794 41.4336H605.147V52H602.794V44.8613L598.643 52H596.29V41.4336H598.643V48.5625ZM602.169 37.3711H603.917C603.917 37.9115 603.787 38.39 603.526 38.8066C603.272 39.2168 602.908 39.5391 602.432 39.7734C601.964 40.0078 601.404 40.125 600.753 40.125C599.77 40.125 598.992 39.8711 598.419 39.3633C597.852 38.849 597.569 38.1849 597.569 37.3711H599.317C599.317 37.7357 599.425 38.0579 599.639 38.3379C599.861 38.6113 600.232 38.748 600.753 38.748C601.267 38.748 601.632 38.6113 601.846 38.3379C602.061 38.0579 602.169 37.7357 602.169 37.3711ZM614.532 41.4336H616.885L616.768 45.1543C616.736 46.235 616.612 47.1628 616.397 47.9375C616.182 48.7122 615.902 49.3665 615.557 49.9004C615.212 50.4277 614.822 50.8607 614.385 51.1992C613.956 51.5378 613.503 51.8047 613.028 52H612.335V50.1445L612.667 50.125C612.947 49.8255 613.188 49.526 613.389 49.2266C613.598 48.9206 613.774 48.5853 613.917 48.2207C614.06 47.8496 614.171 47.4167 614.249 46.9219C614.333 46.4271 614.389 45.8379 614.415 45.1543L614.532 41.4336ZM615.157 41.4336H621.856V52H619.512V43.4258H615.157V41.4336ZM611.798 50.125H623.302V55.1445H620.948V52H614.18V55.1445H611.788L611.798 50.125ZM624.532 46.834V46.6094C624.532 45.8477 624.643 45.1413 624.864 44.4902C625.085 43.8327 625.404 43.263 625.821 42.7812C626.244 42.293 626.759 41.9154 627.364 41.6484C627.976 41.375 628.666 41.2383 629.434 41.2383C630.209 41.2383 630.899 41.375 631.505 41.6484C632.117 41.9154 632.634 42.293 633.057 42.7812C633.481 43.263 633.803 43.8327 634.024 44.4902C634.246 45.1413 634.356 45.8477 634.356 46.6094V46.834C634.356 47.5957 634.246 48.3021 634.024 48.9531C633.803 49.6042 633.481 50.1738 633.057 50.6621C632.634 51.1439 632.12 51.5215 631.514 51.7949C630.909 52.0618 630.222 52.1953 629.454 52.1953C628.679 52.1953 627.986 52.0618 627.374 51.7949C626.768 51.5215 626.254 51.1439 625.831 50.6621C625.408 50.1738 625.085 49.6042 624.864 48.9531C624.643 48.3021 624.532 47.5957 624.532 46.834ZM626.885 46.6094V46.834C626.885 47.3092 626.934 47.7585 627.032 48.1816C627.13 48.6048 627.283 48.9759 627.491 49.2949C627.699 49.6139 627.966 49.8646 628.292 50.0469C628.617 50.2292 629.005 50.3203 629.454 50.3203C629.89 50.3203 630.268 50.2292 630.587 50.0469C630.912 49.8646 631.179 49.6139 631.387 49.2949C631.596 48.9759 631.749 48.6048 631.846 48.1816C631.951 47.7585 632.003 47.3092 632.003 46.834V46.6094C632.003 46.1406 631.951 45.6979 631.846 45.2812C631.749 44.8581 631.593 44.4837 631.378 44.1582C631.169 43.8327 630.902 43.5788 630.577 43.3965C630.258 43.2077 629.877 43.1133 629.434 43.1133C628.992 43.1133 628.608 43.2077 628.282 43.3965C627.963 43.5788 627.699 43.8327 627.491 44.1582C627.283 44.4837 627.13 44.8581 627.032 45.2812C626.934 45.6979 626.885 46.1406 626.885 46.6094ZM642.608 49.1484L645.753 41.4336H647.794L643.409 52H641.807L637.432 41.4336H639.473L642.608 49.1484ZM638.868 41.4336V52H636.514V41.4336H638.868ZM646.348 52V41.4336H648.712V52H646.348Z" fill="#222445"/>
<g clip-path="url(#clip1_556_2881)">
<path d="M478.223 23.327C478.223 21.4925 476.731 20 474.896 20H456.275C455.669 20 455.101 20.1636 454.612 20.4476C454.122 20.1636 453.554 20 452.948 20H434.327C432.493 20 431 21.4925 431 23.327V29.3346C431 29.9404 431.164 30.5083 431.448 30.9981C431.164 31.4879 431 32.0558 431 32.6616V38.6691C431 39.2749 431.164 39.8429 431.448 40.3327C431.164 40.8224 431 41.3904 431 41.9962V48.0038C431 48.6096 431.164 49.1775 431.448 49.6673C431.164 50.157 431 50.725 431 51.3308V57.3383C431 57.9441 431.164 58.5121 431.448 59.0019C431.164 59.4916 431 60.0596 431 60.6654V66.673C431 68.5075 432.493 70 434.327 70H452.948C453.554 70 454.122 69.8365 454.612 69.5524C455.101 69.8365 455.669 70 456.275 70H474.896C476.731 70 478.223 68.5075 478.223 66.673V60.6654C478.223 60.0596 478.06 59.4916 477.776 59.0019C478.06 58.5121 478.223 57.9441 478.223 57.3383V51.3308C478.223 50.725 478.06 50.157 477.776 49.6673C478.06 49.1775 478.223 48.6096 478.223 48.0038V41.9962C478.223 41.3904 478.06 40.8224 477.776 40.3327C478.06 39.8429 478.223 39.2749 478.223 38.6691V32.6616C478.223 32.0558 478.06 31.4879 477.776 30.9981C478.06 30.5083 478.223 29.9404 478.223 29.3346V23.327ZM474.896 23.327L474.898 29.3345C474.898 29.3345 474.898 29.3346 474.896 29.3346H456.275V23.327H474.896ZM474.898 38.6691C474.898 38.6691 474.898 38.6691 474.896 38.6691H467.249V32.6616H474.896L474.898 38.6691ZM474.898 48.0037C474.898 48.0037 474.898 48.0038 474.896 48.0038H456.275V41.9962H474.896L474.898 48.0037ZM474.898 57.3383C474.898 57.3383 474.898 57.3383 474.896 57.3383H467.249V51.3308H474.896L474.898 57.3383ZM452.948 57.3383H445.301V51.3308H463.922V57.3383H452.948ZM434.327 51.3308H441.974V57.3383H434.327V51.3308ZM434.327 41.9962H452.948V48.0038H434.327V41.9962ZM434.327 32.6616H441.974V38.6691H434.327V32.6616ZM456.275 32.6616H463.922V38.6691H445.301V32.6616H456.275ZM434.327 23.327H452.948V29.3346H434.327V23.327ZM434.327 66.673V60.6654H452.948V66.673H434.327ZM474.896 66.673H456.275V60.6654H474.896L474.898 66.6729C474.898 66.6729 474.898 66.673 474.896 66.673Z" fill="#222445"/>
</g>
<g filter="url(#filter2_bd_556_2881)">
<rect x="720" y="10" width="261" height="70" rx="35" fill="white" fill-opacity="0.8" shape-rendering="crispEdges"/>
</g>
<path d="M830.185 37.7812V52H827.743V39.7344H821.425V52H818.983V37.7812H830.185ZM832.45 46.834V46.6094C832.45 45.8477 832.561 45.1413 832.782 44.4902C833.004 43.8327 833.323 43.263 833.739 42.7812C834.162 42.293 834.677 41.9154 835.282 41.6484C835.894 41.375 836.584 41.2383 837.353 41.2383C838.127 41.2383 838.817 41.375 839.423 41.6484C840.035 41.9154 840.552 42.293 840.976 42.7812C841.399 43.263 841.721 43.8327 841.942 44.4902C842.164 45.1413 842.274 45.8477 842.274 46.6094V46.834C842.274 47.5957 842.164 48.3021 841.942 48.9531C841.721 49.6042 841.399 50.1738 840.976 50.6621C840.552 51.1439 840.038 51.5215 839.433 51.7949C838.827 52.0618 838.14 52.1953 837.372 52.1953C836.597 52.1953 835.904 52.0618 835.292 51.7949C834.687 51.5215 834.172 51.1439 833.749 50.6621C833.326 50.1738 833.004 49.6042 832.782 48.9531C832.561 48.3021 832.45 47.5957 832.45 46.834ZM834.804 46.6094V46.834C834.804 47.3092 834.853 47.7585 834.95 48.1816C835.048 48.6048 835.201 48.9759 835.409 49.2949C835.618 49.6139 835.884 49.8646 836.21 50.0469C836.535 50.2292 836.923 50.3203 837.372 50.3203C837.808 50.3203 838.186 50.2292 838.505 50.0469C838.83 49.8646 839.097 49.6139 839.306 49.2949C839.514 48.9759 839.667 48.6048 839.765 48.1816C839.869 47.7585 839.921 47.3092 839.921 46.834V46.6094C839.921 46.1406 839.869 45.6979 839.765 45.2812C839.667 44.8581 839.511 44.4837 839.296 44.1582C839.088 43.8327 838.821 43.5788 838.495 43.3965C838.176 43.2077 837.795 43.1133 837.353 43.1133C836.91 43.1133 836.526 43.2077 836.2 43.3965C835.881 43.5788 835.618 43.8327 835.409 44.1582C835.201 44.4837 835.048 44.8581 834.95 45.2812C834.853 45.6979 834.804 46.1406 834.804 46.6094ZM848.915 41.4336V52H846.552V41.4336H848.915ZM852.382 41.4336V43.2891H843.144V41.4336H852.382ZM853.134 46.834V46.6094C853.134 45.8477 853.244 45.1413 853.466 44.4902C853.687 43.8327 854.006 43.263 854.423 42.7812C854.846 42.293 855.36 41.9154 855.966 41.6484C856.578 41.375 857.268 41.2383 858.036 41.2383C858.811 41.2383 859.501 41.375 860.106 41.6484C860.718 41.9154 861.236 42.293 861.659 42.7812C862.082 43.263 862.405 43.8327 862.626 44.4902C862.847 45.1413 862.958 45.8477 862.958 46.6094V46.834C862.958 47.5957 862.847 48.3021 862.626 48.9531C862.405 49.6042 862.082 50.1738 861.659 50.6621C861.236 51.1439 860.722 51.5215 860.116 51.7949C859.511 52.0618 858.824 52.1953 858.056 52.1953C857.281 52.1953 856.588 52.0618 855.976 51.7949C855.37 51.5215 854.856 51.1439 854.433 50.6621C854.009 50.1738 853.687 49.6042 853.466 48.9531C853.244 48.3021 853.134 47.5957 853.134 46.834ZM855.487 46.6094V46.834C855.487 47.3092 855.536 47.7585 855.634 48.1816C855.731 48.6048 855.884 48.9759 856.093 49.2949C856.301 49.6139 856.568 49.8646 856.894 50.0469C857.219 50.2292 857.606 50.3203 858.056 50.3203C858.492 50.3203 858.869 50.2292 859.188 50.0469C859.514 49.8646 859.781 49.6139 859.989 49.2949C860.198 48.9759 860.351 48.6048 860.448 48.1816C860.552 47.7585 860.604 47.3092 860.604 46.834V46.6094C860.604 46.1406 860.552 45.6979 860.448 45.2812C860.351 44.8581 860.194 44.4837 859.979 44.1582C859.771 43.8327 859.504 43.5788 859.179 43.3965C858.86 43.2077 858.479 43.1133 858.036 43.1133C857.593 43.1133 857.209 43.2077 856.884 43.3965C856.565 43.5788 856.301 43.8327 856.093 44.1582C855.884 44.4837 855.731 44.8581 855.634 45.2812C855.536 45.6979 855.487 46.1406 855.487 46.6094ZM871.874 41.4336V43.3086H866.718V41.4336H871.874ZM873.72 41.4336V52H871.366V41.4336H873.72ZM866.142 41.4336H868.466L868.183 46.6582C868.144 47.4329 868.065 48.1165 867.948 48.709C867.838 49.2949 867.688 49.7995 867.499 50.2227C867.31 50.6393 867.079 50.9779 866.806 51.2383C866.532 51.4987 866.213 51.6908 865.849 51.8145C865.484 51.9382 865.074 52 864.618 52H863.886L863.876 50.0664L864.247 50.0371C864.488 50.0176 864.696 49.9557 864.872 49.8516C865.048 49.7409 865.198 49.5846 865.321 49.3828C865.451 49.181 865.556 48.9206 865.634 48.6016C865.718 48.2826 865.784 47.9049 865.829 47.4688C865.881 47.0326 865.92 46.5247 865.946 45.9453L866.142 41.4336ZM878.759 41.4336V52H876.405V41.4336H878.759ZM885.653 41.4336L880.897 47.791H878.212L877.899 45.6621H879.862L882.714 41.4336H885.653ZM882.899 52L879.716 47.3906L881.571 46.0527L885.995 52H882.899ZM889.706 48.5625L893.856 41.4336H896.21V52H893.856V44.8613L889.706 52H887.353V41.4336H889.706V48.5625ZM913.075 50.125V52H903.544V50.3887L908.173 45.3398C908.681 44.7669 909.081 44.2721 909.374 43.8555C909.667 43.4388 909.872 43.0645 909.989 42.7324C910.113 42.3939 910.175 42.0651 910.175 41.7461C910.175 41.2969 910.09 40.903 909.921 40.5645C909.758 40.2194 909.517 39.9492 909.198 39.7539C908.879 39.5521 908.492 39.4512 908.036 39.4512C907.509 39.4512 907.066 39.5651 906.708 39.793C906.35 40.0208 906.08 40.3366 905.897 40.7402C905.715 41.1374 905.624 41.5931 905.624 42.1074H903.271C903.271 41.2806 903.459 40.5254 903.837 39.8418C904.215 39.1517 904.761 38.6048 905.478 38.2012C906.194 37.791 907.056 37.5859 908.065 37.5859C909.016 37.5859 909.823 37.7454 910.487 38.0645C911.151 38.3835 911.656 38.8359 912.001 39.4219C912.353 40.0078 912.528 40.7012 912.528 41.502C912.528 41.9447 912.457 42.3841 912.313 42.8203C912.17 43.2565 911.965 43.6927 911.698 44.1289C911.438 44.5586 911.129 44.9915 910.771 45.4277C910.412 45.8574 910.019 46.2936 909.589 46.7363L906.513 50.125H913.075ZM915.146 50.8281C915.146 50.4635 915.269 50.1576 915.517 49.9102C915.764 49.6562 916.099 49.5293 916.522 49.5293C916.952 49.5293 917.287 49.6562 917.528 49.9102C917.776 50.1576 917.899 50.4635 917.899 50.8281C917.899 51.1927 917.776 51.4987 917.528 51.7461C917.287 51.9935 916.952 52.1172 916.522 52.1172C916.099 52.1172 915.764 51.9935 915.517 51.7461C915.269 51.4987 915.146 51.1927 915.146 50.8281ZM929.774 48.123C929.774 49.0085 929.569 49.7539 929.159 50.3594C928.749 50.9648 928.189 51.4238 927.479 51.7363C926.776 52.0423 925.982 52.1953 925.097 52.1953C924.211 52.1953 923.414 52.0423 922.704 51.7363C921.994 51.4238 921.435 50.9648 921.024 50.3594C920.614 49.7539 920.409 49.0085 920.409 48.123C920.409 47.5371 920.523 47.0065 920.751 46.5312C920.979 46.0495 921.301 45.6361 921.718 45.291C922.141 44.9395 922.636 44.6693 923.202 44.4805C923.775 44.2917 924.4 44.1973 925.077 44.1973C925.976 44.1973 926.78 44.3633 927.489 44.6953C928.199 45.0273 928.756 45.4863 929.159 46.0723C929.569 46.6582 929.774 47.3418 929.774 48.123ZM927.411 48.0059C927.411 47.5306 927.313 47.1139 927.118 46.7559C926.923 46.3978 926.649 46.1211 926.298 45.9258C925.946 45.7305 925.539 45.6328 925.077 45.6328C924.608 45.6328 924.201 45.7305 923.856 45.9258C923.511 46.1211 923.241 46.3978 923.046 46.7559C922.857 47.1139 922.763 47.5306 922.763 48.0059C922.763 48.4876 922.857 48.9043 923.046 49.2559C923.235 49.6009 923.505 49.8646 923.856 50.0469C924.208 50.2292 924.621 50.3203 925.097 50.3203C925.572 50.3203 925.982 50.2292 926.327 50.0469C926.672 49.8646 926.939 49.6009 927.128 49.2559C927.317 48.9043 927.411 48.4876 927.411 48.0059ZM929.452 41.5215C929.452 42.2311 929.263 42.8626 928.886 43.416C928.515 43.9694 928 44.4056 927.343 44.7246C926.685 45.0371 925.937 45.1934 925.097 45.1934C924.25 45.1934 923.495 45.0371 922.831 44.7246C922.174 44.4056 921.656 43.9694 921.278 43.416C920.907 42.8626 920.722 42.2311 920.722 41.5215C920.722 40.6751 920.907 39.9622 921.278 39.3828C921.656 38.7969 922.174 38.3509 922.831 38.0449C923.489 37.7389 924.241 37.5859 925.087 37.5859C925.933 37.5859 926.685 37.7389 927.343 38.0449C928 38.3509 928.515 38.7969 928.886 39.3828C929.263 39.9622 929.452 40.6751 929.452 41.5215ZM927.099 41.5996C927.099 41.1764 927.014 40.8053 926.845 40.4863C926.682 40.1608 926.451 39.9069 926.151 39.7246C925.852 39.5423 925.497 39.4512 925.087 39.4512C924.677 39.4512 924.322 39.5391 924.022 39.7148C923.723 39.8906 923.492 40.138 923.329 40.457C923.166 40.776 923.085 41.1569 923.085 41.5996C923.085 42.0358 923.166 42.4167 923.329 42.7422C923.492 43.0612 923.723 43.3118 924.022 43.4941C924.328 43.6764 924.687 43.7676 925.097 43.7676C925.507 43.7676 925.862 43.6764 926.161 43.4941C926.461 43.3118 926.692 43.0612 926.854 42.7422C927.017 42.4167 927.099 42.0358 927.099 41.5996ZM943.241 49.1484L946.386 41.4336H948.427L944.042 52H942.44L938.065 41.4336H940.106L943.241 49.1484ZM939.501 41.4336V52H937.147V41.4336H939.501ZM946.981 52V41.4336H949.345V52H946.981Z" fill="#222445"/>
<path fill-rule="evenodd" clip-rule="evenodd" d="M777.778 35.7609C777.778 33.6685 776.039 31.9565 773.913 31.9565C771.787 31.9565 770.048 33.6685 770.048 35.7609C770.048 37.8533 771.787 39.5652 773.913 39.5652C776.039 39.5652 777.778 37.8533 777.778 35.7609ZM779.71 45.2718H791.304V41.4674H756.522V45.2718H768.116V70H771.981V58.587H775.845V70H779.71V45.2718Z" fill="#222445"/>
<rect x="750" y="20" width="47.4891" height="3.26087" fill="#222445"/>
<g filter="url(#filter3_bd_556_2881)">
<rect x="1021" y="10" width="300" height="70" rx="35" fill="white" fill-opacity="0.8" shape-rendering="crispEdges"/>
</g>
<path fill-rule="evenodd" clip-rule="evenodd" d="M1084.79 47.2381L1077.07 43.381C1080.14 41 1082.12 37.2857 1082.12 33.0952C1082.12 25.881 1076.24 20 1069.02 20C1061.81 20 1055.93 25.881 1055.93 33.0952C1055.93 38.1667 1058.83 42.5714 1063.07 44.7381V52.5L1058.69 51.5714L1058.45 51.5238C1058.21 51.4762 1057.98 51.4524 1057.69 51.4524C1056.43 51.4524 1055.24 51.9524 1054.33 52.8571L1051 56.2381L1063.12 68.3571C1064.14 69.4048 1065.57 70 1067.05 70H1082.05C1084.38 70 1086.36 68.3333 1086.74 66.0238L1088.64 54.8095C1089.17 51.7143 1087.62 48.6667 1084.79 47.2381ZM1083.95 54.0239L1082.05 65.2382H1067.05C1066.83 65.2382 1066.64 65.1429 1066.48 65.0001L1057.71 56.2382L1067.83 58.3572V33.0953C1067.83 32.4286 1068.36 31.9048 1069.02 31.9048C1069.69 31.9048 1070.21 32.4286 1070.21 33.0953V47.381H1074.4L1082.64 51.5001C1083.6 51.9763 1084.12 53.0001 1083.95 54.0239ZM1069.02 24.7619C1064.43 24.7619 1060.69 28.5 1060.69 33.0952C1060.69 35.3571 1061.59 37.4047 1063.07 38.9047V33.0952C1063.07 29.8095 1065.74 27.1428 1069.02 27.1428C1072.31 27.1428 1074.98 29.8095 1074.98 33.0952V38.9047C1076.45 37.4047 1077.36 35.3571 1077.36 33.0952C1077.36 28.5 1073.62 24.7619 1069.02 24.7619Z" fill="#222445"/>
<path d="M1119.2 36.7812V38.7344H1112.59V51H1110.15V36.7812H1119.2ZM1111.85 42.2402H1115.42C1116.5 42.2402 1117.43 42.4225 1118.2 42.7871C1118.97 43.1452 1119.55 43.6497 1119.95 44.3008C1120.36 44.9518 1120.56 45.7103 1120.56 46.5762C1120.56 47.2272 1120.45 47.8229 1120.22 48.3633C1119.99 48.9036 1119.66 49.3724 1119.21 49.7695C1118.77 50.1602 1118.23 50.4629 1117.59 50.6777C1116.96 50.8926 1116.24 51 1115.42 51H1110.15V36.7812H1112.61V49.0566H1115.42C1116.04 49.0566 1116.55 48.9427 1116.95 48.7148C1117.34 48.4805 1117.64 48.1745 1117.83 47.7969C1118.02 47.4193 1118.12 47.0059 1118.12 46.5566C1118.12 46.1204 1118.02 45.7233 1117.83 45.3652C1117.64 45.0072 1117.34 44.7207 1116.95 44.5059C1116.55 44.291 1116.04 44.1836 1115.42 44.1836H1111.85V42.2402ZM1127.19 51.1953C1126.41 51.1953 1125.7 51.0684 1125.07 50.8145C1124.45 50.554 1123.91 50.1927 1123.47 49.7305C1123.03 49.2682 1122.7 48.7246 1122.46 48.0996C1122.23 47.4746 1122.11 46.8008 1122.11 46.0781V45.6875C1122.11 44.8607 1122.23 44.112 1122.47 43.4414C1122.72 42.7708 1123.05 42.1979 1123.48 41.7227C1123.91 41.2409 1124.42 40.873 1125 40.6191C1125.59 40.3652 1126.22 40.2383 1126.91 40.2383C1127.66 40.2383 1128.32 40.3652 1128.89 40.6191C1129.46 40.873 1129.93 41.2311 1130.3 41.6934C1130.67 42.1491 1130.95 42.6927 1131.14 43.3242C1131.33 43.9557 1131.42 44.6523 1131.42 45.4141V46.4199H1123.26V44.7305H1129.1V44.5449C1129.08 44.1217 1129 43.7246 1128.84 43.3535C1128.69 42.9824 1128.46 42.6829 1128.15 42.4551C1127.84 42.2272 1127.42 42.1133 1126.9 42.1133C1126.51 42.1133 1126.16 42.1979 1125.85 42.3672C1125.55 42.5299 1125.3 42.7676 1125.1 43.0801C1124.9 43.3926 1124.74 43.7702 1124.63 44.2129C1124.53 44.6491 1124.48 45.1406 1124.48 45.6875V46.0781C1124.48 46.5404 1124.54 46.9701 1124.66 47.3672C1124.79 47.7578 1124.98 48.0996 1125.23 48.3926C1125.48 48.6855 1125.77 48.9167 1126.13 49.0859C1126.48 49.2487 1126.88 49.3301 1127.33 49.3301C1127.89 49.3301 1128.4 49.2161 1128.84 48.9883C1129.28 48.7604 1129.67 48.4382 1129.99 48.0215L1131.23 49.2227C1131.01 49.5547 1130.71 49.8737 1130.35 50.1797C1129.98 50.4792 1129.53 50.7233 1129.01 50.9121C1128.49 51.1009 1127.88 51.1953 1127.19 51.1953ZM1137.57 49.3203C1137.96 49.3203 1138.3 49.2454 1138.61 49.0957C1138.92 48.9395 1139.17 48.7246 1139.36 48.4512C1139.55 48.1777 1139.66 47.862 1139.68 47.5039H1141.9C1141.88 48.1875 1141.68 48.8092 1141.29 49.3691C1140.9 49.929 1140.38 50.375 1139.74 50.707C1139.1 51.0326 1138.38 51.1953 1137.6 51.1953C1136.79 51.1953 1136.09 51.0586 1135.49 50.7852C1134.89 50.5052 1134.39 50.1211 1134 49.6328C1133.6 49.1445 1133.3 48.5814 1133.1 47.9434C1132.9 47.3053 1132.81 46.6217 1132.81 45.8926V45.5508C1132.81 44.8216 1132.9 44.138 1133.1 43.5C1133.3 42.8555 1133.6 42.2891 1134 41.8008C1134.39 41.3125 1134.89 40.9316 1135.49 40.6582C1136.09 40.3783 1136.79 40.2383 1137.59 40.2383C1138.44 40.2383 1139.18 40.4076 1139.82 40.7461C1140.46 41.0781 1140.96 41.5436 1141.32 42.1426C1141.69 42.735 1141.88 43.4251 1141.9 44.2129H1139.68C1139.66 43.8223 1139.56 43.4707 1139.39 43.1582C1139.22 42.8392 1138.98 42.5853 1138.67 42.3965C1138.36 42.2077 1137.99 42.1133 1137.56 42.1133C1137.09 42.1133 1136.69 42.2109 1136.38 42.4062C1136.07 42.5951 1135.82 42.8555 1135.65 43.1875C1135.47 43.513 1135.35 43.8809 1135.27 44.291C1135.2 44.6947 1135.16 45.1146 1135.16 45.5508V45.8926C1135.16 46.3288 1135.2 46.752 1135.27 47.1621C1135.34 47.5723 1135.46 47.9401 1135.64 48.2656C1135.82 48.5846 1136.07 48.8418 1136.38 49.0371C1136.69 49.2259 1137.09 49.3203 1137.57 49.3203ZM1143.78 40.4336H1146.14V49.125H1149.49V40.4336H1151.86V49.125H1155.2V40.4336H1157.55V51H1143.78V40.4336ZM1163.16 49.8477L1166.03 40.4336H1168.55L1164.31 52.6113C1164.21 52.8717 1164.09 53.1549 1163.93 53.4609C1163.77 53.7669 1163.57 54.0566 1163.31 54.3301C1163.07 54.61 1162.76 54.8346 1162.39 55.0039C1162.02 55.1797 1161.57 55.2676 1161.04 55.2676C1160.83 55.2676 1160.63 55.248 1160.43 55.209C1160.24 55.1764 1160.07 55.1406 1159.9 55.1016L1159.89 53.3047C1159.95 53.3112 1160.03 53.3177 1160.12 53.3242C1160.22 53.3307 1160.3 53.334 1160.35 53.334C1160.75 53.334 1161.07 53.2852 1161.33 53.1875C1161.59 53.0964 1161.8 52.9466 1161.97 52.7383C1162.14 52.5299 1162.28 52.25 1162.4 51.8984L1163.16 49.8477ZM1161.54 40.4336L1164.05 48.3438L1164.47 50.8242L1162.84 51.2441L1159 40.4336H1161.54ZM1176.18 48.1484L1179.32 40.4336H1181.36L1176.98 51H1175.37L1171 40.4336H1173.04L1176.18 48.1484ZM1172.44 40.4336V51H1170.08V40.4336H1172.44ZM1179.92 51V40.4336H1182.28V51H1179.92ZM1192.13 44.8477V46.7031H1186.66V44.8477H1192.13ZM1187.35 40.4336V51H1184.99V40.4336H1187.35ZM1193.83 40.4336V51H1191.48V40.4336H1193.83ZM1198.09 43.793H1201.2C1202.12 43.793 1202.89 43.946 1203.53 44.252C1204.17 44.5579 1204.65 44.9844 1204.98 45.5312C1205.32 46.0716 1205.49 46.6901 1205.49 47.3867C1205.49 47.901 1205.4 48.3796 1205.21 48.8223C1205.02 49.2585 1204.74 49.6393 1204.37 49.9648C1204 50.2904 1203.55 50.5443 1203.02 50.7266C1202.49 50.9089 1201.89 51 1201.2 51H1196.53V40.4336H1198.89V49.1348H1201.2C1201.67 49.1348 1202.05 49.0534 1202.33 48.8906C1202.61 48.7279 1202.81 48.5163 1202.93 48.2559C1203.06 47.9954 1203.13 47.7188 1203.13 47.4258C1203.13 47.1263 1203.06 46.8431 1202.93 46.5762C1202.81 46.3092 1202.61 46.0911 1202.33 45.9219C1202.05 45.7526 1201.67 45.668 1201.2 45.668H1198.09V43.793ZM1209.65 40.4336V51H1207.3V40.4336H1209.65ZM1217.09 51.1953C1216.31 51.1953 1215.61 51.0684 1214.97 50.8145C1214.35 50.554 1213.82 50.1927 1213.37 49.7305C1212.94 49.2682 1212.6 48.7246 1212.37 48.0996C1212.13 47.4746 1212.02 46.8008 1212.02 46.0781V45.6875C1212.02 44.8607 1212.14 44.112 1212.38 43.4414C1212.62 42.7708 1212.95 42.1979 1213.38 41.7227C1213.81 41.2409 1214.32 40.873 1214.91 40.6191C1215.49 40.3652 1216.13 40.2383 1216.81 40.2383C1217.57 40.2383 1218.23 40.3652 1218.79 40.6191C1219.36 40.873 1219.83 41.2311 1220.2 41.6934C1220.58 42.1491 1220.86 42.6927 1221.04 43.3242C1221.23 43.9557 1221.32 44.6523 1221.32 45.4141V46.4199H1213.16V44.7305H1219V44.5449C1218.98 44.1217 1218.9 43.7246 1218.74 43.3535C1218.59 42.9824 1218.36 42.6829 1218.05 42.4551C1217.74 42.2272 1217.32 42.1133 1216.8 42.1133C1216.41 42.1133 1216.06 42.1979 1215.76 42.3672C1215.46 42.5299 1215.21 42.7676 1215 43.0801C1214.8 43.3926 1214.65 43.7702 1214.53 44.2129C1214.43 44.6491 1214.38 45.1406 1214.38 45.6875V46.0781C1214.38 46.5404 1214.44 46.9701 1214.56 47.3672C1214.69 47.7578 1214.88 48.0996 1215.13 48.3926C1215.38 48.6855 1215.68 48.9167 1216.03 49.0859C1216.38 49.2487 1216.78 49.3301 1217.23 49.3301C1217.8 49.3301 1218.3 49.2161 1218.74 48.9883C1219.19 48.7604 1219.57 48.4382 1219.9 48.0215L1221.14 49.2227C1220.91 49.5547 1220.61 49.8737 1220.25 50.1797C1219.88 50.4792 1219.44 50.7233 1218.91 50.9121C1218.39 51.1009 1217.78 51.1953 1217.09 51.1953ZM1235.24 40.4336V42.3086H1230.08V40.4336H1235.24ZM1237.08 40.4336V51H1234.73V40.4336H1237.08ZM1229.51 40.4336H1231.83L1231.55 45.6582C1231.51 46.4329 1231.43 47.1165 1231.31 47.709C1231.2 48.2949 1231.05 48.7995 1230.86 49.2227C1230.67 49.6393 1230.44 49.9779 1230.17 50.2383C1229.9 50.4987 1229.58 50.6908 1229.21 50.8145C1228.85 50.9382 1228.44 51 1227.98 51H1227.25L1227.24 49.0664L1227.61 49.0371C1227.85 49.0176 1228.06 48.9557 1228.24 48.8516C1228.41 48.7409 1228.56 48.5846 1228.69 48.3828C1228.82 48.181 1228.92 47.9206 1229 47.6016C1229.08 47.2826 1229.15 46.9049 1229.19 46.4688C1229.24 46.0326 1229.28 45.5247 1229.31 44.9453L1229.51 40.4336ZM1242.02 47.5625L1246.17 40.4336H1248.52V51H1246.17V43.8613L1242.02 51H1239.66V40.4336H1242.02V47.5625ZM1263.56 45.8438V46.0488C1263.56 46.7975 1263.47 47.4876 1263.3 48.1191C1263.14 48.7441 1262.9 49.2878 1262.57 49.75C1262.25 50.2122 1261.84 50.5703 1261.36 50.8242C1260.89 51.0781 1260.33 51.2051 1259.7 51.2051C1259.15 51.2051 1258.67 51.1107 1258.26 50.9219C1257.85 50.7331 1257.5 50.4694 1257.22 50.1309C1256.94 49.7858 1256.72 49.3822 1256.55 48.9199C1256.38 48.4512 1256.25 47.9368 1256.18 47.377V44.3203C1256.25 43.7214 1256.37 43.1745 1256.54 42.6797C1256.71 42.1784 1256.93 41.7454 1257.21 41.3809C1257.5 41.0163 1257.84 40.7363 1258.25 40.541C1258.65 40.3392 1259.13 40.2383 1259.68 40.2383C1260.19 40.2383 1260.65 40.3294 1261.06 40.5117C1261.47 40.6875 1261.83 40.9414 1262.14 41.2734C1262.45 41.599 1262.72 41.9928 1262.92 42.4551C1263.13 42.9108 1263.29 43.4251 1263.39 43.998C1263.5 44.571 1263.56 45.1862 1263.56 45.8438ZM1261.2 46.0488V45.8438C1261.2 45.4336 1261.18 45.043 1261.13 44.6719C1261.07 44.3008 1260.99 43.9622 1260.88 43.6562C1260.78 43.3438 1260.64 43.0736 1260.47 42.8457C1260.3 42.6113 1260.1 42.4323 1259.86 42.3086C1259.62 42.1784 1259.35 42.1133 1259.04 42.1133C1258.61 42.1133 1258.26 42.1849 1257.98 42.3281C1257.71 42.4648 1257.5 42.6602 1257.36 42.9141C1257.22 43.1615 1257.13 43.4479 1257.09 43.7734V47.9336C1257.14 48.207 1257.23 48.4479 1257.38 48.6562C1257.53 48.8646 1257.74 49.0306 1258.01 49.1543C1258.28 49.2715 1258.63 49.3301 1259.06 49.3301C1259.45 49.3301 1259.78 49.2487 1260.04 49.0859C1260.32 48.9167 1260.54 48.6823 1260.71 48.3828C1260.88 48.0833 1261.01 47.735 1261.09 47.3379C1261.17 46.9408 1261.2 46.5111 1261.2 46.0488ZM1250.61 46.0488V45.8438C1250.61 45.1862 1250.66 44.571 1250.77 43.998C1250.87 43.4251 1251.03 42.9108 1251.23 42.4551C1251.45 41.9928 1251.71 41.599 1252.02 41.2734C1252.34 40.9414 1252.7 40.6875 1253.11 40.5117C1253.52 40.3294 1253.98 40.2383 1254.49 40.2383C1255.03 40.2383 1255.5 40.3392 1255.9 40.541C1256.3 40.7363 1256.63 41.0163 1256.91 41.3809C1257.19 41.7454 1257.41 42.1784 1257.57 42.6797C1257.74 43.1745 1257.86 43.7214 1257.94 44.3203V47.2598C1257.87 47.8327 1257.75 48.36 1257.58 48.8418C1257.41 49.3236 1257.19 49.7402 1256.92 50.0918C1256.64 50.4434 1256.31 50.7168 1255.9 50.9121C1255.5 51.1074 1255.02 51.2051 1254.47 51.2051C1253.84 51.2051 1253.29 51.0781 1252.81 50.8242C1252.32 50.5703 1251.92 50.2122 1251.6 49.75C1251.27 49.2878 1251.02 48.7441 1250.85 48.1191C1250.69 47.4876 1250.61 46.7975 1250.61 46.0488ZM1252.96 45.8438V46.0488C1252.96 46.5111 1253 46.9408 1253.07 47.3379C1253.15 47.735 1253.27 48.0833 1253.43 48.3828C1253.59 48.6758 1253.81 48.9069 1254.08 49.0762C1254.34 49.2454 1254.67 49.3301 1255.06 49.3301C1255.49 49.3301 1255.84 49.265 1256.12 49.1348C1256.39 49.0046 1256.6 48.8255 1256.74 48.5977C1256.89 48.3698 1256.99 48.1094 1257.03 47.8164V43.7734C1257 43.4479 1256.9 43.1615 1256.76 42.9141C1256.62 42.6602 1256.41 42.4648 1256.14 42.3281C1255.86 42.1849 1255.51 42.1133 1255.08 42.1133C1254.69 42.1133 1254.36 42.2109 1254.09 42.4062C1253.82 42.6016 1253.6 42.8717 1253.43 43.2168C1253.27 43.5553 1253.15 43.9525 1253.07 44.4082C1253 44.8574 1252.96 45.3359 1252.96 45.8438ZM1255.85 55.0625V36H1258.22V55.0625H1255.85ZM1269.84 40.4336V51H1267.47V40.4336H1269.84ZM1273.3 40.4336V42.2891H1264.07V40.4336H1273.3ZM1276.62 43.793H1279.74C1280.65 43.793 1281.43 43.946 1282.06 44.252C1282.7 44.5579 1283.19 44.9844 1283.52 45.5312C1283.86 46.0716 1284.03 46.6901 1284.03 47.3867C1284.03 47.901 1283.93 48.3796 1283.74 48.8223C1283.55 49.2585 1283.27 49.6393 1282.9 49.9648C1282.54 50.2904 1282.09 50.5443 1281.56 50.7266C1281.03 50.9089 1280.42 51 1279.74 51H1275.06V40.4336H1277.43V49.1348H1279.74C1280.21 49.1348 1280.58 49.0534 1280.86 48.8906C1281.14 48.7279 1281.34 48.5163 1281.47 48.2559C1281.6 47.9954 1281.66 47.7188 1281.66 47.4258C1281.66 47.1263 1281.6 46.8431 1281.47 46.5762C1281.34 46.3092 1281.14 46.0911 1280.86 45.9219C1280.58 45.7526 1280.21 45.668 1279.74 45.668H1276.62V43.793ZM1288.19 40.4336V51H1285.83V40.4336H1288.19Z" fill="#222445"/>
<g filter="url(#filter4_bd_556_2881)">
<rect x="1361" y="10" width="341" height="70" rx="35" fill="white" fill-opacity="0.8" shape-rendering="crispEdges"/>
</g>
<path d="M1468.34 33.3711H1470.79C1470.71 34.3021 1470.45 35.1322 1470 35.8613C1469.56 36.584 1468.94 37.1536 1468.14 37.5703C1467.34 37.987 1466.37 38.1953 1465.22 38.1953C1464.34 38.1953 1463.55 38.0391 1462.85 37.7266C1462.14 37.4076 1461.54 36.9583 1461.04 36.3789C1460.54 35.793 1460.15 35.0866 1459.89 34.2598C1459.63 33.4329 1459.5 32.5085 1459.5 31.4863V30.3047C1459.5 29.2826 1459.63 28.3581 1459.9 27.5312C1460.17 26.7044 1460.56 25.998 1461.07 25.4121C1461.58 24.8197 1462.19 24.3672 1462.9 24.0547C1463.61 23.7422 1464.42 23.5859 1465.31 23.5859C1466.44 23.5859 1467.4 23.7943 1468.18 24.2109C1468.96 24.6276 1469.56 25.2038 1469.99 25.9395C1470.43 26.6751 1470.7 27.5182 1470.8 28.4688H1468.35C1468.29 27.8568 1468.15 27.3327 1467.92 26.8965C1467.71 26.4603 1467.39 26.1283 1466.97 25.9004C1466.54 25.666 1465.99 25.5488 1465.31 25.5488C1464.75 25.5488 1464.26 25.653 1463.84 25.8613C1463.43 26.0697 1463.08 26.3757 1462.8 26.7793C1462.52 27.1829 1462.31 27.681 1462.16 28.2734C1462.03 28.8594 1461.96 29.5299 1461.96 30.2852V31.4863C1461.96 32.2025 1462.02 32.8535 1462.14 33.4395C1462.27 34.0189 1462.47 34.5169 1462.73 34.9336C1463 35.3503 1463.33 35.6725 1463.74 35.9004C1464.15 36.1283 1464.65 36.2422 1465.22 36.2422C1465.92 36.2422 1466.48 36.1315 1466.91 35.9102C1467.34 35.6888 1467.67 35.3665 1467.9 34.9434C1468.12 34.5137 1468.27 33.9896 1468.34 33.3711ZM1472.33 32.834V32.6094C1472.33 31.8477 1472.44 31.1413 1472.66 30.4902C1472.88 29.8327 1473.2 29.263 1473.62 28.7812C1474.04 28.293 1474.56 27.9154 1475.16 27.6484C1475.77 27.375 1476.46 27.2383 1477.23 27.2383C1478.01 27.2383 1478.7 27.375 1479.3 27.6484C1479.91 27.9154 1480.43 28.293 1480.85 28.7812C1481.28 29.263 1481.6 29.8327 1481.82 30.4902C1482.04 31.1413 1482.15 31.8477 1482.15 32.6094V32.834C1482.15 33.5957 1482.04 34.3021 1481.82 34.9531C1481.6 35.6042 1481.28 36.1738 1480.85 36.6621C1480.43 37.1439 1479.92 37.5215 1479.31 37.7949C1478.71 38.0618 1478.02 38.1953 1477.25 38.1953C1476.48 38.1953 1475.78 38.0618 1475.17 37.7949C1474.56 37.5215 1474.05 37.1439 1473.63 36.6621C1473.2 36.1738 1472.88 35.6042 1472.66 34.9531C1472.44 34.3021 1472.33 33.5957 1472.33 32.834ZM1474.68 32.6094V32.834C1474.68 33.3092 1474.73 33.7585 1474.83 34.1816C1474.93 34.6048 1475.08 34.9759 1475.29 35.2949C1475.5 35.6139 1475.76 35.8646 1476.09 36.0469C1476.41 36.2292 1476.8 36.3203 1477.25 36.3203C1477.69 36.3203 1478.06 36.2292 1478.38 36.0469C1478.71 35.8646 1478.98 35.6139 1479.18 35.2949C1479.39 34.9759 1479.55 34.6048 1479.64 34.1816C1479.75 33.7585 1479.8 33.3092 1479.8 32.834V32.6094C1479.8 32.1406 1479.75 31.6979 1479.64 31.2812C1479.55 30.8581 1479.39 30.4837 1479.17 30.1582C1478.97 29.8327 1478.7 29.5788 1478.37 29.3965C1478.05 29.2077 1477.67 29.1133 1477.23 29.1133C1476.79 29.1133 1476.4 29.2077 1476.08 29.3965C1475.76 29.5788 1475.5 29.8327 1475.29 30.1582C1475.08 30.4837 1474.93 30.8581 1474.83 31.2812C1474.73 31.6979 1474.68 32.1406 1474.68 32.6094ZM1489.26 33.4785H1485.88L1485.86 31.8184H1488.64C1489.09 31.8184 1489.47 31.7728 1489.76 31.6816C1490.06 31.5905 1490.28 31.4538 1490.42 31.2715C1490.57 31.0827 1490.64 30.8548 1490.64 30.5879C1490.64 30.3665 1490.6 30.1745 1490.51 30.0117C1490.43 29.8424 1490.3 29.7057 1490.12 29.6016C1489.95 29.4909 1489.74 29.4128 1489.48 29.3672C1489.22 29.3151 1488.93 29.2891 1488.59 29.2891H1486.66V38H1484.31V27.4336H1488.59C1489.27 27.4336 1489.87 27.4922 1490.41 27.6094C1490.96 27.7266 1491.43 27.9056 1491.81 28.1465C1492.2 28.3874 1492.49 28.6934 1492.69 29.0645C1492.9 29.429 1493 29.8587 1493 30.3535C1493 30.679 1492.93 30.985 1492.79 31.2715C1492.65 31.5579 1492.45 31.8118 1492.17 32.0332C1491.9 32.2546 1491.56 32.4368 1491.17 32.5801C1490.77 32.7168 1490.31 32.8014 1489.8 32.834L1489.26 33.4785ZM1489.26 38H1485.2L1486.14 36.1445H1489.26C1489.68 36.1445 1490.02 36.0924 1490.3 35.9883C1490.57 35.8841 1490.77 35.7344 1490.9 35.5391C1491.04 35.3372 1491.11 35.0996 1491.11 34.8262C1491.11 34.5462 1491.04 34.3053 1490.91 34.1035C1490.78 33.9017 1490.58 33.7487 1490.31 33.6445C1490.04 33.5339 1489.69 33.4785 1489.26 33.4785H1486.58L1486.6 31.8184H1489.79L1490.46 32.4629C1491.13 32.5085 1491.69 32.6517 1492.13 32.8926C1492.58 33.1335 1492.91 33.4362 1493.13 33.8008C1493.35 34.1654 1493.46 34.5625 1493.46 34.9922C1493.46 35.487 1493.37 35.9232 1493.18 36.3008C1493 36.6784 1492.72 36.9941 1492.36 37.248C1492 37.4954 1491.56 37.6842 1491.04 37.8145C1490.52 37.9382 1489.93 38 1489.26 38ZM1497.86 29.4648V42.0625H1495.5V27.4336H1497.67L1497.86 29.4648ZM1504.74 32.6191V32.8242C1504.74 33.5924 1504.65 34.3053 1504.47 34.9629C1504.29 35.6139 1504.03 36.1836 1503.68 36.6719C1503.33 37.1536 1502.9 37.528 1502.4 37.7949C1501.89 38.0618 1501.3 38.1953 1500.64 38.1953C1499.98 38.1953 1499.41 38.0749 1498.91 37.834C1498.42 37.5866 1498.01 37.2383 1497.67 36.7891C1497.33 36.3398 1497.06 35.8125 1496.85 35.207C1496.65 34.5951 1496.51 33.9245 1496.42 33.1953V32.4043C1496.51 31.6296 1496.65 30.9264 1496.85 30.2949C1497.06 29.6634 1497.33 29.1198 1497.67 28.6641C1498.01 28.2083 1498.42 27.8568 1498.91 27.6094C1499.4 27.362 1499.97 27.2383 1500.62 27.2383C1501.28 27.2383 1501.87 27.3685 1502.39 27.6289C1502.9 27.8828 1503.33 28.2474 1503.69 28.7227C1504.04 29.1914 1504.3 29.7578 1504.48 30.4219C1504.65 31.0794 1504.74 31.8118 1504.74 32.6191ZM1502.39 32.8242V32.6191C1502.39 32.1309 1502.34 31.6784 1502.25 31.2617C1502.16 30.8385 1502.02 30.4674 1501.82 30.1484C1501.63 29.8294 1501.37 29.582 1501.07 29.4062C1500.77 29.224 1500.41 29.1328 1499.98 29.1328C1499.57 29.1328 1499.21 29.2044 1498.91 29.3477C1498.61 29.4844 1498.36 29.6764 1498.16 29.9238C1497.96 30.1712 1497.8 30.4609 1497.69 30.793C1497.58 31.1185 1497.5 31.4733 1497.46 31.8574V33.752C1497.53 34.2207 1497.67 34.6504 1497.86 35.041C1498.04 35.4316 1498.31 35.7441 1498.66 35.9785C1499.01 36.2064 1499.46 36.3203 1500 36.3203C1500.43 36.3203 1500.79 36.2292 1501.09 36.0469C1501.39 35.8646 1501.63 35.6139 1501.82 35.2949C1502.02 34.9694 1502.16 34.5951 1502.25 34.1719C1502.34 33.7487 1502.39 33.2995 1502.39 32.8242ZM1511.4 38.1953C1510.62 38.1953 1509.91 38.0684 1509.28 37.8145C1508.66 37.554 1508.12 37.1927 1507.68 36.7305C1507.24 36.2682 1506.91 35.7246 1506.67 35.0996C1506.44 34.4746 1506.32 33.8008 1506.32 33.0781V32.6875C1506.32 31.8607 1506.44 31.112 1506.68 30.4414C1506.92 29.7708 1507.26 29.1979 1507.69 28.7227C1508.12 28.2409 1508.63 27.873 1509.21 27.6191C1509.8 27.3652 1510.43 27.2383 1511.12 27.2383C1511.87 27.2383 1512.53 27.3652 1513.1 27.6191C1513.67 27.873 1514.14 28.2311 1514.51 28.6934C1514.88 29.1491 1515.16 29.6927 1515.35 30.3242C1515.53 30.9557 1515.63 31.6523 1515.63 32.4141V33.4199H1507.47V31.7305H1513.31V31.5449C1513.29 31.1217 1513.21 30.7246 1513.05 30.3535C1512.9 29.9824 1512.67 29.6829 1512.36 29.4551C1512.05 29.2272 1511.63 29.1133 1511.11 29.1133C1510.72 29.1133 1510.37 29.1979 1510.06 29.3672C1509.76 29.5299 1509.51 29.7676 1509.31 30.0801C1509.11 30.3926 1508.95 30.7702 1508.84 31.2129C1508.74 31.6491 1508.69 32.1406 1508.69 32.6875V33.0781C1508.69 33.5404 1508.75 33.9701 1508.87 34.3672C1509 34.7578 1509.19 35.0996 1509.44 35.3926C1509.69 35.6855 1509.98 35.9167 1510.34 36.0859C1510.69 36.2487 1511.09 36.3301 1511.54 36.3301C1512.1 36.3301 1512.61 36.2161 1513.05 35.9883C1513.49 35.7604 1513.88 35.4382 1514.2 35.0215L1515.44 36.2227C1515.22 36.5547 1514.92 36.8737 1514.56 37.1797C1514.19 37.4792 1513.74 37.7233 1513.22 37.9121C1512.7 38.1009 1512.09 38.1953 1511.4 38.1953ZM1523.74 35.1484L1526.89 27.4336H1528.93L1524.55 38H1522.94L1518.57 27.4336H1520.61L1523.74 35.1484ZM1520 27.4336V38H1517.65V27.4336H1520ZM1527.48 38V27.4336H1529.85V38H1527.48ZM1537.14 38.1953C1536.36 38.1953 1535.66 38.0684 1535.02 37.8145C1534.4 37.554 1533.87 37.1927 1533.42 36.7305C1532.99 36.2682 1532.65 35.7246 1532.42 35.0996C1532.18 34.4746 1532.06 33.8008 1532.06 33.0781V32.6875C1532.06 31.8607 1532.19 31.112 1532.43 30.4414C1532.67 29.7708 1533 29.1979 1533.43 28.7227C1533.86 28.2409 1534.37 27.873 1534.96 27.6191C1535.54 27.3652 1536.18 27.2383 1536.86 27.2383C1537.62 27.2383 1538.28 27.3652 1538.84 27.6191C1539.41 27.873 1539.88 28.2311 1540.25 28.6934C1540.63 29.1491 1540.91 29.6927 1541.09 30.3242C1541.28 30.9557 1541.37 31.6523 1541.37 32.4141V33.4199H1533.21V31.7305H1539.05V31.5449C1539.03 31.1217 1538.95 30.7246 1538.79 30.3535C1538.64 29.9824 1538.41 29.6829 1538.1 29.4551C1537.79 29.2272 1537.37 29.1133 1536.85 29.1133C1536.46 29.1133 1536.11 29.1979 1535.81 29.3672C1535.51 29.5299 1535.26 29.7676 1535.05 30.0801C1534.85 30.3926 1534.7 30.7702 1534.58 31.2129C1534.48 31.6491 1534.43 32.1406 1534.43 32.6875V33.0781C1534.43 33.5404 1534.49 33.9701 1534.61 34.3672C1534.74 34.7578 1534.93 35.0996 1535.18 35.3926C1535.43 35.6855 1535.73 35.9167 1536.08 36.0859C1536.43 36.2487 1536.83 36.3301 1537.28 36.3301C1537.85 36.3301 1538.35 36.2161 1538.79 35.9883C1539.24 35.7604 1539.62 35.4382 1539.95 35.0215L1541.19 36.2227C1540.96 36.5547 1540.66 36.8737 1540.3 37.1797C1539.93 37.4792 1539.49 37.7233 1538.96 37.9121C1538.44 38.1009 1537.83 38.1953 1537.14 38.1953ZM1550.42 31.8477V33.7031H1544.96V31.8477H1550.42ZM1545.64 27.4336V38H1543.29V27.4336H1545.64ZM1552.12 27.4336V38H1549.77V27.4336H1552.12ZM1561.85 31.8477V33.7031H1556.38V31.8477H1561.85ZM1557.06 27.4336V38H1554.71V27.4336H1557.06ZM1563.55 27.4336V38H1561.2V27.4336H1563.55ZM1572.02 35.8809V30.8418C1572.02 30.4642 1571.95 30.1387 1571.81 29.8652C1571.67 29.5918 1571.47 29.3802 1571.19 29.2305C1570.91 29.0807 1570.57 29.0059 1570.15 29.0059C1569.77 29.0059 1569.43 29.071 1569.15 29.2012C1568.87 29.3314 1568.66 29.5072 1568.5 29.7285C1568.34 29.9499 1568.27 30.2005 1568.27 30.4805H1565.92C1565.92 30.0638 1566.02 29.6602 1566.23 29.2695C1566.43 28.8789 1566.72 28.5306 1567.1 28.2246C1567.49 27.9186 1567.95 27.6777 1568.48 27.502C1569.01 27.3262 1569.61 27.2383 1570.28 27.2383C1571.07 27.2383 1571.78 27.3717 1572.39 27.6387C1573.01 27.9056 1573.49 28.3092 1573.84 28.8496C1574.2 29.3835 1574.38 30.054 1574.38 30.8613V35.5586C1574.38 36.0404 1574.41 36.4733 1574.48 36.8574C1574.55 37.235 1574.65 37.5638 1574.78 37.8438V38H1572.37C1572.26 37.7461 1572.17 37.4238 1572.1 37.0332C1572.05 36.6361 1572.02 36.252 1572.02 35.8809ZM1572.36 31.5742L1572.38 33.0293H1570.69C1570.25 33.0293 1569.87 33.0716 1569.54 33.1562C1569.2 33.2344 1568.93 33.3516 1568.71 33.5078C1568.48 33.6641 1568.32 33.8529 1568.21 34.0742C1568.1 34.2956 1568.04 34.5462 1568.04 34.8262C1568.04 35.1061 1568.11 35.3633 1568.24 35.5977C1568.37 35.8255 1568.56 36.0046 1568.8 36.1348C1569.06 36.265 1569.36 36.3301 1569.72 36.3301C1570.2 36.3301 1570.62 36.2324 1570.98 36.0371C1571.35 35.8353 1571.63 35.5911 1571.84 35.3047C1572.05 35.0117 1572.16 34.735 1572.17 34.4746L1572.93 35.5195C1572.86 35.7865 1572.72 36.0729 1572.53 36.3789C1572.34 36.6849 1572.1 36.9779 1571.79 37.2578C1571.49 37.5312 1571.13 37.7559 1570.71 37.9316C1570.29 38.1074 1569.81 38.1953 1569.26 38.1953C1568.57 38.1953 1567.96 38.0586 1567.42 37.7852C1566.88 37.5052 1566.45 37.1309 1566.15 36.6621C1565.84 36.1868 1565.69 35.6497 1565.69 35.0508C1565.69 34.4909 1565.79 33.9961 1566 33.5664C1566.22 33.1302 1566.53 32.7656 1566.94 32.4727C1567.35 32.1797 1567.86 31.9583 1568.46 31.8086C1569.06 31.6523 1569.74 31.5742 1570.51 31.5742H1572.36ZM1579.07 32.834H1581.51L1578.51 38H1576.08L1579.07 32.834ZM1580.79 27.4336H1585.32V38H1582.97V29.2891H1580.79C1580.34 29.2891 1579.98 29.3672 1579.69 29.5234C1579.41 29.6732 1579.19 29.8717 1579.06 30.1191C1578.92 30.36 1578.85 30.6074 1578.85 30.8613C1578.85 31.1152 1578.91 31.3594 1579.04 31.5938C1579.17 31.8281 1579.37 32.0202 1579.63 32.1699C1579.91 32.3197 1580.25 32.3945 1580.66 32.3945H1583.76V34.1133H1580.66C1580.01 34.1133 1579.42 34.0319 1578.91 33.8691C1578.4 33.6999 1577.96 33.4688 1577.6 33.1758C1577.24 32.8763 1576.97 32.528 1576.78 32.1309C1576.59 31.7272 1576.5 31.2878 1576.5 30.8125C1576.5 30.3242 1576.6 29.875 1576.79 29.4648C1576.99 29.0547 1577.27 28.6966 1577.63 28.3906C1578 28.0846 1578.45 27.8503 1578.98 27.6875C1579.51 27.5182 1580.12 27.4336 1580.79 27.4336ZM1594.83 27.4336H1597.18L1597.06 31.1543C1597.03 32.235 1596.91 33.1628 1596.69 33.9375C1596.48 34.7122 1596.2 35.3665 1595.85 35.9004C1595.51 36.4277 1595.12 36.8607 1594.68 37.1992C1594.25 37.5378 1593.8 37.8047 1593.32 38H1592.63V36.1445L1592.96 36.125C1593.24 35.8255 1593.48 35.526 1593.69 35.2266C1593.89 34.9206 1594.07 34.5853 1594.21 34.2207C1594.36 33.8496 1594.47 33.4167 1594.55 32.9219C1594.63 32.4271 1594.69 31.8379 1594.71 31.1543L1594.83 27.4336ZM1595.45 27.4336H1602.15V38H1599.81V29.4258H1595.45V27.4336ZM1592.09 36.125H1603.6V41.1445H1601.24V38H1594.48V41.1445H1592.08L1592.09 36.125ZM1609.94 38.1953C1609.15 38.1953 1608.45 38.0684 1607.82 37.8145C1607.19 37.554 1606.66 37.1927 1606.22 36.7305C1605.78 36.2682 1605.44 35.7246 1605.21 35.0996C1604.98 34.4746 1604.86 33.8008 1604.86 33.0781V32.6875C1604.86 31.8607 1604.98 31.112 1605.22 30.4414C1605.46 29.7708 1605.8 29.1979 1606.23 28.7227C1606.65 28.2409 1607.16 27.873 1607.75 27.6191C1608.33 27.3652 1608.97 27.2383 1609.65 27.2383C1610.41 27.2383 1611.07 27.3652 1611.64 27.6191C1612.2 27.873 1612.67 28.2311 1613.04 28.6934C1613.42 29.1491 1613.7 29.6927 1613.88 30.3242C1614.07 30.9557 1614.16 31.6523 1614.16 32.4141V33.4199H1606V31.7305H1611.84V31.5449C1611.83 31.1217 1611.74 30.7246 1611.59 30.3535C1611.44 29.9824 1611.21 29.6829 1610.89 29.4551C1610.58 29.2272 1610.16 29.1133 1609.64 29.1133C1609.25 29.1133 1608.9 29.1979 1608.6 29.3672C1608.3 29.5299 1608.05 29.7676 1607.85 30.0801C1607.64 30.3926 1607.49 30.7702 1607.38 31.2129C1607.27 31.6491 1607.22 32.1406 1607.22 32.6875V33.0781C1607.22 33.5404 1607.28 33.9701 1607.41 34.3672C1607.54 34.7578 1607.73 35.0996 1607.97 35.3926C1608.22 35.6855 1608.52 35.9167 1608.87 36.0859C1609.22 36.2487 1609.62 36.3301 1610.07 36.3301C1610.64 36.3301 1611.14 36.2161 1611.59 35.9883C1612.03 35.7604 1612.41 35.4382 1612.74 35.0215L1613.98 36.2227C1613.75 36.5547 1613.45 36.8737 1613.09 37.1797C1612.73 37.4792 1612.28 37.7233 1611.75 37.9121C1611.23 38.1009 1610.63 38.1953 1609.94 38.1953ZM1620.79 27.4336V38H1618.42V27.4336H1620.79ZM1624.25 27.4336V29.2891H1615.01V27.4336H1624.25ZM1629.42 36.3203C1629.8 36.3203 1630.15 36.2454 1630.45 36.0957C1630.77 35.9395 1631.02 35.7246 1631.21 35.4512C1631.4 35.1777 1631.51 34.862 1631.53 34.5039H1633.74C1633.73 35.1875 1633.53 35.8092 1633.14 36.3691C1632.75 36.929 1632.23 37.375 1631.59 37.707C1630.94 38.0326 1630.23 38.1953 1629.45 38.1953C1628.64 38.1953 1627.94 38.0586 1627.34 37.7852C1626.74 37.5052 1626.24 37.1211 1625.84 36.6328C1625.45 36.1445 1625.15 35.5814 1624.95 34.9434C1624.75 34.3053 1624.65 33.6217 1624.65 32.8926V32.5508C1624.65 31.8216 1624.75 31.138 1624.95 30.5C1625.15 29.8555 1625.45 29.2891 1625.84 28.8008C1626.24 28.3125 1626.74 27.9316 1627.34 27.6582C1627.94 27.3783 1628.64 27.2383 1629.44 27.2383C1630.28 27.2383 1631.03 27.4076 1631.66 27.7461C1632.3 28.0781 1632.8 28.5436 1633.17 29.1426C1633.54 29.735 1633.73 30.4251 1633.74 31.2129H1631.53C1631.51 30.8223 1631.41 30.4707 1631.23 30.1582C1631.07 29.8392 1630.82 29.5853 1630.51 29.3965C1630.21 29.2077 1629.84 29.1133 1629.41 29.1133C1628.93 29.1133 1628.54 29.2109 1628.23 29.4062C1627.91 29.5951 1627.67 29.8555 1627.49 30.1875C1627.32 30.513 1627.19 30.8809 1627.11 31.291C1627.04 31.6947 1627.01 32.1146 1627.01 32.5508V32.8926C1627.01 33.3288 1627.04 33.752 1627.11 34.1621C1627.19 34.5723 1627.31 34.9401 1627.48 35.2656C1627.67 35.5846 1627.91 35.8418 1628.23 36.0371C1628.54 36.2259 1628.94 36.3203 1629.42 36.3203ZM1638.09 27.4336V38H1635.74V27.4336H1638.09ZM1644.98 27.4336L1640.23 33.791H1637.54L1637.23 31.6621H1639.19L1642.05 27.4336H1644.98ZM1642.23 38L1639.05 33.3906L1640.9 32.0527L1645.33 38H1642.23ZM1652.56 35.8809V30.8418C1652.56 30.4642 1652.49 30.1387 1652.36 29.8652C1652.22 29.5918 1652.01 29.3802 1651.73 29.2305C1651.46 29.0807 1651.11 29.0059 1650.7 29.0059C1650.31 29.0059 1649.98 29.071 1649.7 29.2012C1649.42 29.3314 1649.2 29.5072 1649.05 29.7285C1648.89 29.9499 1648.81 30.2005 1648.81 30.4805H1646.47C1646.47 30.0638 1646.57 29.6602 1646.77 29.2695C1646.97 28.8789 1647.27 28.5306 1647.65 28.2246C1648.03 27.9186 1648.49 27.6777 1649.03 27.502C1649.56 27.3262 1650.16 27.2383 1650.82 27.2383C1651.62 27.2383 1652.32 27.3717 1652.93 27.6387C1653.55 27.9056 1654.04 28.3092 1654.39 28.8496C1654.75 29.3835 1654.93 30.054 1654.93 30.8613V35.5586C1654.93 36.0404 1654.96 36.4733 1655.02 36.8574C1655.1 37.235 1655.2 37.5638 1655.33 37.8438V38H1652.91C1652.8 37.7461 1652.72 37.4238 1652.65 37.0332C1652.59 36.6361 1652.56 36.252 1652.56 35.8809ZM1652.9 31.5742L1652.92 33.0293H1651.23C1650.8 33.0293 1650.41 33.0716 1650.08 33.1562C1649.75 33.2344 1649.47 33.3516 1649.25 33.5078C1649.03 33.6641 1648.87 33.8529 1648.75 34.0742C1648.64 34.2956 1648.59 34.5462 1648.59 34.8262C1648.59 35.1061 1648.65 35.3633 1648.78 35.5977C1648.91 35.8255 1649.1 36.0046 1649.35 36.1348C1649.6 36.265 1649.91 36.3301 1650.27 36.3301C1650.75 36.3301 1651.17 36.2324 1651.53 36.0371C1651.89 35.8353 1652.18 35.5911 1652.39 35.3047C1652.6 35.0117 1652.71 34.735 1652.72 34.4746L1653.48 35.5195C1653.4 35.7865 1653.27 36.0729 1653.08 36.3789C1652.89 36.6849 1652.64 36.9779 1652.34 37.2578C1652.04 37.5312 1651.68 37.7559 1651.25 37.9316C1650.84 38.1074 1650.36 38.1953 1649.81 38.1953C1649.12 38.1953 1648.5 38.0586 1647.96 37.7852C1647.42 37.5052 1647 37.1309 1646.69 36.6621C1646.39 36.1868 1646.23 35.6497 1646.23 35.0508C1646.23 34.4909 1646.34 33.9961 1646.55 33.5664C1646.76 33.1302 1647.07 32.7656 1647.48 32.4727C1647.9 32.1797 1648.41 31.9583 1649.01 31.8086C1649.61 31.6523 1650.29 31.5742 1651.06 31.5742H1652.9ZM1659.61 32.834H1662.06L1659.06 38H1656.63L1659.61 32.834ZM1661.33 27.4336H1665.86V38H1663.52V29.2891H1661.33C1660.89 29.2891 1660.53 29.3672 1660.24 29.5234C1659.95 29.6732 1659.74 29.8717 1659.6 30.1191C1659.47 30.36 1659.4 30.6074 1659.4 30.8613C1659.4 31.1152 1659.46 31.3594 1659.58 31.5938C1659.71 31.8281 1659.91 32.0202 1660.18 32.1699C1660.45 32.3197 1660.8 32.3945 1661.21 32.3945H1664.31V34.1133H1661.21C1660.55 34.1133 1659.97 34.0319 1659.46 33.8691C1658.94 33.6999 1658.51 33.4688 1658.15 33.1758C1657.79 32.8763 1657.52 32.528 1657.33 32.1309C1657.14 31.7272 1657.05 31.2878 1657.05 30.8125C1657.05 30.3242 1657.14 29.875 1657.34 29.4648C1657.53 29.0547 1657.81 28.6966 1658.18 28.3906C1658.55 28.0846 1659 27.8503 1659.53 27.6875C1660.06 27.5182 1660.66 27.4336 1661.33 27.4336ZM1462.14 57.5625L1466.29 50.4336H1468.65V61H1466.29V53.8613L1462.14 61H1459.79V50.4336H1462.14V57.5625ZM1480.43 59.3203C1480.82 59.3203 1481.16 59.2454 1481.47 59.0957C1481.78 58.9395 1482.03 58.7246 1482.22 58.4512C1482.42 58.1777 1482.52 57.862 1482.54 57.5039H1484.76C1484.75 58.1875 1484.55 58.8092 1484.15 59.3691C1483.76 59.929 1483.25 60.375 1482.6 60.707C1481.96 61.0326 1481.24 61.1953 1480.46 61.1953C1479.66 61.1953 1478.95 61.0586 1478.35 60.7852C1477.76 60.5052 1477.26 60.1211 1476.86 59.6328C1476.46 59.1445 1476.16 58.5814 1475.96 57.9434C1475.77 57.3053 1475.67 56.6217 1475.67 55.8926V55.5508C1475.67 54.8216 1475.77 54.138 1475.96 53.5C1476.16 52.8555 1476.46 52.2891 1476.86 51.8008C1477.26 51.3125 1477.76 50.9316 1478.35 50.6582C1478.95 50.3783 1479.65 50.2383 1480.45 50.2383C1481.3 50.2383 1482.04 50.4076 1482.68 50.7461C1483.32 51.0781 1483.82 51.5436 1484.18 52.1426C1484.56 52.735 1484.75 53.4251 1484.76 54.2129H1482.54C1482.52 53.8223 1482.43 53.4707 1482.25 53.1582C1482.08 52.8392 1481.84 52.5853 1481.53 52.3965C1481.22 52.2077 1480.85 52.1133 1480.42 52.1133C1479.95 52.1133 1479.56 52.2109 1479.24 52.4062C1478.93 52.5951 1478.69 52.8555 1478.51 53.1875C1478.33 53.513 1478.21 53.8809 1478.13 54.291C1478.06 54.6947 1478.02 55.1146 1478.02 55.5508V55.8926C1478.02 56.3288 1478.06 56.752 1478.13 57.1621C1478.2 57.5723 1478.32 57.9401 1478.5 58.2656C1478.68 58.5846 1478.93 58.8418 1479.24 59.0371C1479.56 59.2259 1479.95 59.3203 1480.43 59.3203ZM1493.66 50.4336V52.3086H1488.44V50.4336H1493.66ZM1489 50.4336V61H1486.65V50.4336H1489ZM1495.5 50.4336V61H1493.14V50.4336H1495.5ZM1497.54 55.834V55.6094C1497.54 54.8477 1497.65 54.1413 1497.88 53.4902C1498.1 52.8327 1498.42 52.263 1498.83 51.7812C1499.26 51.293 1499.77 50.9154 1500.38 50.6484C1500.99 50.375 1501.68 50.2383 1502.45 50.2383C1503.22 50.2383 1503.91 50.375 1504.52 50.6484C1505.13 50.9154 1505.65 51.293 1506.07 51.7812C1506.49 52.263 1506.81 52.8327 1507.04 53.4902C1507.26 54.1413 1507.37 54.8477 1507.37 55.6094V55.834C1507.37 56.5957 1507.26 57.3021 1507.04 57.9531C1506.81 58.6042 1506.49 59.1738 1506.07 59.6621C1505.65 60.1439 1505.13 60.5215 1504.53 60.7949C1503.92 61.0618 1503.23 61.1953 1502.47 61.1953C1501.69 61.1953 1501 61.0618 1500.39 60.7949C1499.78 60.5215 1499.27 60.1439 1498.84 59.6621C1498.42 59.1738 1498.1 58.6042 1497.88 57.9531C1497.65 57.3021 1497.54 56.5957 1497.54 55.834ZM1499.9 55.6094V55.834C1499.9 56.3092 1499.95 56.7585 1500.04 57.1816C1500.14 57.6048 1500.29 57.9759 1500.5 58.2949C1500.71 58.6139 1500.98 58.8646 1501.3 59.0469C1501.63 59.2292 1502.02 59.3203 1502.47 59.3203C1502.9 59.3203 1503.28 59.2292 1503.6 59.0469C1503.92 58.8646 1504.19 58.6139 1504.4 58.2949C1504.61 57.9759 1504.76 57.6048 1504.86 57.1816C1504.96 56.7585 1505.01 56.3092 1505.01 55.834V55.6094C1505.01 55.1406 1504.96 54.6979 1504.86 54.2812C1504.76 53.8581 1504.6 53.4837 1504.39 53.1582C1504.18 52.8327 1503.91 52.5788 1503.59 52.3965C1503.27 52.2077 1502.89 52.1133 1502.45 52.1133C1502 52.1133 1501.62 52.2077 1501.29 52.3965C1500.97 52.5788 1500.71 52.8327 1500.5 53.1582C1500.29 53.4837 1500.14 53.8581 1500.04 54.2812C1499.95 54.6979 1499.9 55.1406 1499.9 55.6094ZM1511.7 52.4648V65.0625H1509.35V50.4336H1511.52L1511.7 52.4648ZM1518.59 55.6191V55.8242C1518.59 56.5924 1518.5 57.3053 1518.31 57.9629C1518.14 58.6139 1517.88 59.1836 1517.52 59.6719C1517.18 60.1536 1516.75 60.528 1516.24 60.7949C1515.74 61.0618 1515.15 61.1953 1514.49 61.1953C1513.83 61.1953 1513.25 61.0749 1512.76 60.834C1512.27 60.5866 1511.86 60.2383 1511.52 59.7891C1511.18 59.3398 1510.91 58.8125 1510.7 58.207C1510.5 57.5951 1510.35 56.9245 1510.27 56.1953V55.4043C1510.35 54.6296 1510.5 53.9264 1510.7 53.2949C1510.91 52.6634 1511.18 52.1198 1511.52 51.6641C1511.86 51.2083 1512.27 50.8568 1512.76 50.6094C1513.25 50.362 1513.82 50.2383 1514.47 50.2383C1515.13 50.2383 1515.72 50.3685 1516.23 50.6289C1516.75 50.8828 1517.18 51.2474 1517.53 51.7227C1517.89 52.1914 1518.15 52.7578 1518.32 53.4219C1518.5 54.0794 1518.59 54.8118 1518.59 55.6191ZM1516.23 55.8242V55.6191C1516.23 55.1309 1516.19 54.6784 1516.1 54.2617C1516.01 53.8385 1515.86 53.4674 1515.67 53.1484C1515.47 52.8294 1515.22 52.582 1514.92 52.4062C1514.62 52.224 1514.26 52.1328 1513.83 52.1328C1513.42 52.1328 1513.06 52.2044 1512.76 52.3477C1512.46 52.4844 1512.21 52.6764 1512.01 52.9238C1511.8 53.1712 1511.65 53.4609 1511.54 53.793C1511.43 54.1185 1511.35 54.4733 1511.3 54.8574V56.752C1511.38 57.2207 1511.51 57.6504 1511.7 58.041C1511.89 58.4316 1512.16 58.7441 1512.5 58.9785C1512.86 59.2064 1513.31 59.3203 1513.85 59.3203C1514.28 59.3203 1514.64 59.2292 1514.94 59.0469C1515.24 58.8646 1515.48 58.6139 1515.67 58.2949C1515.86 57.9694 1516.01 57.5951 1516.1 57.1719C1516.19 56.7487 1516.23 56.2995 1516.23 55.8242ZM1524.85 50.4336V61H1522.48V50.4336H1524.85ZM1528.31 50.4336V52.2891H1519.08V50.4336H1528.31ZM1541.96 50.4336V52.3086H1536.74V50.4336H1541.96ZM1537.3 50.4336V61H1534.95V50.4336H1537.3ZM1543.8 50.4336V61H1541.44V50.4336H1543.8ZM1553.39 50.4336V52.3086H1548.24V50.4336H1553.39ZM1555.24 50.4336V61H1552.89V50.4336H1555.24ZM1547.66 50.4336H1549.98L1549.7 55.6582C1549.66 56.4329 1549.58 57.1165 1549.47 57.709C1549.36 58.2949 1549.21 58.7995 1549.02 59.2227C1548.83 59.6393 1548.6 59.9779 1548.32 60.2383C1548.05 60.4987 1547.73 60.6908 1547.37 60.8145C1547 60.9382 1546.59 61 1546.14 61H1545.4L1545.4 59.0664L1545.77 59.0371C1546.01 59.0176 1546.22 58.9557 1546.39 58.8516C1546.57 58.7409 1546.72 58.5846 1546.84 58.3828C1546.97 58.181 1547.07 57.9206 1547.15 57.6016C1547.24 57.2826 1547.3 56.9049 1547.35 56.4688C1547.4 56.0326 1547.44 55.5247 1547.47 54.9453L1547.66 50.4336ZM1557.29 55.834V55.6094C1557.29 54.8477 1557.4 54.1413 1557.62 53.4902C1557.84 52.8327 1558.16 52.263 1558.58 51.7812C1559 51.293 1559.52 50.9154 1560.12 50.6484C1560.73 50.375 1561.42 50.2383 1562.19 50.2383C1562.97 50.2383 1563.66 50.375 1564.26 50.6484C1564.87 50.9154 1565.39 51.293 1565.81 51.7812C1566.24 52.263 1566.56 52.8327 1566.78 53.4902C1567 54.1413 1567.11 54.8477 1567.11 55.6094V55.834C1567.11 56.5957 1567 57.3021 1566.78 57.9531C1566.56 58.6042 1566.24 59.1738 1565.81 59.6621C1565.39 60.1439 1564.88 60.5215 1564.27 60.7949C1563.67 61.0618 1562.98 61.1953 1562.21 61.1953C1561.44 61.1953 1560.74 61.0618 1560.13 60.7949C1559.53 60.5215 1559.01 60.1439 1558.59 59.6621C1558.17 59.1738 1557.84 58.6042 1557.62 57.9531C1557.4 57.3021 1557.29 56.5957 1557.29 55.834ZM1559.64 55.6094V55.834C1559.64 56.3092 1559.69 56.7585 1559.79 57.1816C1559.89 57.6048 1560.04 57.9759 1560.25 58.2949C1560.46 58.6139 1560.72 58.8646 1561.05 59.0469C1561.37 59.2292 1561.76 59.3203 1562.21 59.3203C1562.65 59.3203 1563.03 59.2292 1563.34 59.0469C1563.67 58.8646 1563.94 58.6139 1564.15 58.2949C1564.35 57.9759 1564.51 57.6048 1564.6 57.1816C1564.71 56.7585 1564.76 56.3092 1564.76 55.834V55.6094C1564.76 55.1406 1564.71 54.6979 1564.6 54.2812C1564.51 53.8581 1564.35 53.4837 1564.14 53.1582C1563.93 52.8327 1563.66 52.5788 1563.33 52.3965C1563.02 52.2077 1562.63 52.1133 1562.19 52.1133C1561.75 52.1133 1561.37 52.2077 1561.04 52.3965C1560.72 52.5788 1560.46 52.8327 1560.25 53.1582C1560.04 53.4837 1559.89 53.8581 1559.79 54.2812C1559.69 54.6979 1559.64 55.1406 1559.64 55.6094ZM1584.7 59.1348L1584.52 64.1348H1582.36V61H1581.09V59.1348H1584.7ZM1569.1 50.4336H1571.45V59.125H1574.81V50.4336H1577.17V59.125H1580.52V50.4336H1582.88V61H1569.1V50.4336ZM1592.41 58.8809V53.8418C1592.41 53.4642 1592.34 53.1387 1592.2 52.8652C1592.06 52.5918 1591.86 52.3802 1591.58 52.2305C1591.3 52.0807 1590.96 52.0059 1590.54 52.0059C1590.16 52.0059 1589.83 52.071 1589.55 52.2012C1589.27 52.3314 1589.05 52.5072 1588.89 52.7285C1588.73 52.9499 1588.66 53.2005 1588.66 53.4805H1586.31C1586.31 53.0638 1586.41 52.6602 1586.62 52.2695C1586.82 51.8789 1587.11 51.5306 1587.49 51.2246C1587.88 50.9186 1588.34 50.6777 1588.87 50.502C1589.41 50.3262 1590 50.2383 1590.67 50.2383C1591.46 50.2383 1592.17 50.3717 1592.78 50.6387C1593.4 50.9056 1593.88 51.3092 1594.23 51.8496C1594.59 52.3835 1594.77 53.054 1594.77 53.8613V58.5586C1594.77 59.0404 1594.8 59.4733 1594.87 59.8574C1594.94 60.235 1595.04 60.5638 1595.17 60.8438V61H1592.76C1592.65 60.7461 1592.56 60.4238 1592.49 60.0332C1592.44 59.6361 1592.41 59.252 1592.41 58.8809ZM1592.75 54.5742L1592.77 56.0293H1591.08C1590.64 56.0293 1590.26 56.0716 1589.93 56.1562C1589.59 56.2344 1589.32 56.3516 1589.1 56.5078C1588.87 56.6641 1588.71 56.8529 1588.6 57.0742C1588.49 57.2956 1588.43 57.5462 1588.43 57.8262C1588.43 58.1061 1588.5 58.3633 1588.63 58.5977C1588.76 58.8255 1588.95 59.0046 1589.19 59.1348C1589.45 59.265 1589.75 59.3301 1590.11 59.3301C1590.59 59.3301 1591.01 59.2324 1591.37 59.0371C1591.74 58.8353 1592.02 58.5911 1592.23 58.3047C1592.44 58.0117 1592.55 57.735 1592.56 57.4746L1593.32 58.5195C1593.25 58.7865 1593.11 59.0729 1592.92 59.3789C1592.74 59.6849 1592.49 59.9779 1592.18 60.2578C1591.88 60.5312 1591.52 60.7559 1591.1 60.9316C1590.68 61.1074 1590.2 61.1953 1589.65 61.1953C1588.96 61.1953 1588.35 61.0586 1587.81 60.7852C1587.27 60.5052 1586.84 60.1309 1586.54 59.6621C1586.23 59.1868 1586.08 58.6497 1586.08 58.0508C1586.08 57.4909 1586.18 56.9961 1586.39 56.5664C1586.61 56.1302 1586.92 55.7656 1587.33 55.4727C1587.75 55.1797 1588.25 54.9583 1588.85 54.8086C1589.45 54.6523 1590.13 54.5742 1590.9 54.5742H1592.75ZM1599.15 50.4336H1601.5L1601.38 54.1543C1601.35 55.235 1601.23 56.1628 1601.01 56.9375C1600.8 57.7122 1600.52 58.3665 1600.17 58.9004C1599.83 59.4277 1599.43 59.8607 1599 60.1992C1598.57 60.5378 1598.12 60.8047 1597.64 61H1596.95V59.1445L1597.28 59.125C1597.56 58.8255 1597.8 58.526 1598 58.2266C1598.21 57.9206 1598.39 57.5853 1598.53 57.2207C1598.67 56.8496 1598.78 56.4167 1598.86 55.9219C1598.95 55.4271 1599 54.8379 1599.03 54.1543L1599.15 50.4336ZM1599.77 50.4336H1606.47V61H1604.13V52.4258H1599.77V50.4336ZM1596.41 59.125H1607.91V64.1445H1605.56V61H1598.79V64.1445H1596.4L1596.41 59.125ZM1612.07 50.4336V61H1609.72V50.4336H1612.07ZM1618.97 50.4336L1614.21 56.791H1611.53L1611.22 54.6621H1613.18L1616.03 50.4336H1618.97ZM1616.22 61L1613.03 56.3906L1614.89 55.0527L1619.31 61H1616.22ZM1626.55 58.8809V53.8418C1626.55 53.4642 1626.48 53.1387 1626.34 52.8652C1626.21 52.5918 1626 52.3802 1625.72 52.2305C1625.44 52.0807 1625.1 52.0059 1624.68 52.0059C1624.3 52.0059 1623.97 52.071 1623.69 52.2012C1623.41 52.3314 1623.19 52.5072 1623.03 52.7285C1622.88 52.9499 1622.8 53.2005 1622.8 53.4805H1620.45C1620.45 53.0638 1620.55 52.6602 1620.76 52.2695C1620.96 51.8789 1621.25 51.5306 1621.64 51.2246C1622.02 50.9186 1622.48 50.6777 1623.01 50.502C1623.55 50.3262 1624.15 50.2383 1624.81 50.2383C1625.6 50.2383 1626.31 50.3717 1626.92 50.6387C1627.54 50.9056 1628.02 51.3092 1628.37 51.8496C1628.73 52.3835 1628.91 53.054 1628.91 53.8613V58.5586C1628.91 59.0404 1628.94 59.4733 1629.01 59.8574C1629.08 60.235 1629.18 60.5638 1629.31 60.8438V61H1626.9C1626.79 60.7461 1626.7 60.4238 1626.64 60.0332C1626.58 59.6361 1626.55 59.252 1626.55 58.8809ZM1626.89 54.5742L1626.91 56.0293H1625.22C1624.78 56.0293 1624.4 56.0716 1624.07 56.1562C1623.73 56.2344 1623.46 56.3516 1623.24 56.5078C1623.02 56.6641 1622.85 56.8529 1622.74 57.0742C1622.63 57.2956 1622.57 57.5462 1622.57 57.8262C1622.57 58.1061 1622.64 58.3633 1622.77 58.5977C1622.9 58.8255 1623.09 59.0046 1623.33 59.1348C1623.59 59.265 1623.89 59.3301 1624.25 59.3301C1624.73 59.3301 1625.15 59.2324 1625.51 59.0371C1625.88 58.8353 1626.16 58.5911 1626.37 58.3047C1626.58 58.0117 1626.69 57.735 1626.7 57.4746L1627.47 58.5195C1627.39 58.7865 1627.25 59.0729 1627.06 59.3789C1626.88 59.6849 1626.63 59.9779 1626.32 60.2578C1626.02 60.5312 1625.66 60.7559 1625.24 60.9316C1624.82 61.1074 1624.34 61.1953 1623.79 61.1953C1623.1 61.1953 1622.49 61.0586 1621.95 60.7852C1621.41 60.5052 1620.98 60.1309 1620.68 59.6621C1620.37 59.1868 1620.22 58.6497 1620.22 58.0508C1620.22 57.4909 1620.32 56.9961 1620.53 56.5664C1620.75 56.1302 1621.06 55.7656 1621.47 55.4727C1621.89 55.1797 1622.39 54.9583 1622.99 54.8086C1623.59 54.6523 1624.28 54.5742 1625.04 54.5742H1626.89Z" fill="#222445"/>
<path fill-rule="evenodd" clip-rule="evenodd" d="M1418.5 40V20C1429.55 20 1438.5 28.95 1438.5 40H1418.5ZM1423.5 25.8499V34.9999H1432.65C1431.12 30.7249 1427.75 27.3499 1423.5 25.8499ZM1402.1 42.4999L1399.73 37.4999H1391V42.4999H1396.55C1396.55 42.4999 1401.28 52.6749 1401.85 53.5499C1399.1 55.0249 1397.25 57.9249 1397.25 61.2499C1397.25 66.0749 1401.18 69.9999 1406 69.9999C1410.4 69.9999 1414.05 66.7499 1414.65 62.4999H1419.85C1420.45 66.7499 1424.1 69.9999 1428.5 69.9999C1433.33 69.9999 1437.25 66.0749 1437.25 61.2499C1437.25 58.6499 1436.1 56.3249 1434.3 54.7249C1436.92 51.3499 1438.5 47.0999 1438.5 42.4999H1402.1ZM1402.25 61.25C1402.25 63.325 1403.93 65 1406 65C1408.08 65 1409.75 63.325 1409.75 61.25C1409.75 59.175 1408.08 57.5 1406 57.5C1403.93 57.5 1402.25 59.175 1402.25 61.25ZM1428.5 65C1426.42 65 1424.75 63.325 1424.75 61.25C1424.75 59.175 1426.42 57.5 1428.5 57.5C1430.57 57.5 1432.25 59.175 1432.25 61.25C1432.25 63.325 1430.57 65 1428.5 65ZM1429.62 52.575L1430.35 51.65C1431.35 50.375 1432.12 48.975 1432.65 47.5H1404.42C1404.74 48.1342 1405.02 48.7146 1405.26 49.2142C1405.65 50.034 1405.94 50.6359 1406.1 50.9L1407.2 52.575C1410.15 53 1412.65 54.9 1413.9 57.5H1420.6C1422 54.55 1425.02 52.5 1428.5 52.5C1428.87 52.5 1429.27 52.525 1429.62 52.575Z" fill="#222445"/>
<defs>
<filter id="filter0_bd_556_2881" x="0" y="0" width="378" height="100" filterUnits="userSpaceOnUse" color-interpolation-filters="sRGB">
<feFlood flood-opacity="0" result="BackgroundImageFix"/>
<feGaussianBlur in="BackgroundImageFix" stdDeviation="5"/>
<feComposite in2="SourceAlpha" operator="in" result="effect1_backgroundBlur_556_2881"/>
<feColorMatrix in="SourceAlpha" type="matrix" values="0 0 0 0 0 0 0 0 0 0 0 0 0 0 0 0 0 0 127 0" result="hardAlpha"/>
<feOffset dx="2" dy="5"/>
<feGaussianBlur stdDeviation="7.5"/>
<feComposite in2="hardAlpha" operator="out"/>
<feColorMatrix type="matrix" values="0 0 0 0 0.298611 0 0 0 0 0.320834 0 0 0 0 0.333333 0 0 0 0.1 0"/>
<feBlend mode="normal" in2="effect1_backgroundBlur_556_2881" result="effect2_dropShadow_556_2881"/>
<feBlend mode="normal" in="SourceGraphic" in2="effect2_dropShadow_556_2881" result="shape"/>
</filter>
<filter id="filter1_bd_556_2881" x="388" y="0" width="309" height="100" filterUnits="userSpaceOnUse" color-interpolation-filters="sRGB">
<feFlood flood-opacity="0" result="BackgroundImageFix"/>
<feGaussianBlur in="BackgroundImageFix" stdDeviation="5"/>
<feComposite in2="SourceAlpha" operator="in" result="effect1_backgroundBlur_556_2881"/>
<feColorMatrix in="SourceAlpha" type="matrix" values="0 0 0 0 0 0 0 0 0 0 0 0 0 0 0 0 0 0 127 0" result="hardAlpha"/>
<feOffset dx="2" dy="5"/>
<feGaussianBlur stdDeviation="7.5"/>
<feComposite in2="hardAlpha" operator="out"/>
<feColorMatrix type="matrix" values="0 0 0 0 0.298611 0 0 0 0 0.320834 0 0 0 0 0.333333 0 0 0 0.1 0"/>
<feBlend mode="normal" in2="effect1_backgroundBlur_556_2881" result="effect2_dropShadow_556_2881"/>
<feBlend mode="normal" in="SourceGraphic" in2="effect2_dropShadow_556_2881" result="shape"/>
</filter>
<filter id="filter2_bd_556_2881" x="707" y="0" width="291" height="100" filterUnits="userSpaceOnUse" color-interpolation-filters="sRGB">
<feFlood flood-opacity="0" result="BackgroundImageFix"/>
<feGaussianBlur in="BackgroundImageFix" stdDeviation="5"/>
<feComposite in2="SourceAlpha" operator="in" result="effect1_backgroundBlur_556_2881"/>
<feColorMatrix in="SourceAlpha" type="matrix" values="0 0 0 0 0 0 0 0 0 0 0 0 0 0 0 0 0 0 127 0" result="hardAlpha"/>
<feOffset dx="2" dy="5"/>
<feGaussianBlur stdDeviation="7.5"/>
<feComposite in2="hardAlpha" operator="out"/>
<feColorMatrix type="matrix" values="0 0 0 0 0.298611 0 0 0 0 0.320834 0 0 0 0 0.333333 0 0 0 0.1 0"/>
<feBlend mode="normal" in2="effect1_backgroundBlur_556_2881" result="effect2_dropShadow_556_2881"/>
<feBlend mode="normal" in="SourceGraphic" in2="effect2_dropShadow_556_2881" result="shape"/>
</filter>
<filter id="filter3_bd_556_2881" x="1008" y="0" width="330" height="100" filterUnits="userSpaceOnUse" color-interpolation-filters="sRGB">
<feFlood flood-opacity="0" result="BackgroundImageFix"/>
<feGaussianBlur in="BackgroundImageFix" stdDeviation="5"/>
<feComposite in2="SourceAlpha" operator="in" result="effect1_backgroundBlur_556_2881"/>
<feColorMatrix in="SourceAlpha" type="matrix" values="0 0 0 0 0 0 0 0 0 0 0 0 0 0 0 0 0 0 127 0" result="hardAlpha"/>
<feOffset dx="2" dy="5"/>
<feGaussianBlur stdDeviation="7.5"/>
<feComposite in2="hardAlpha" operator="out"/>
<feColorMatrix type="matrix" values="0 0 0 0 0.298611 0 0 0 0 0.320834 0 0 0 0 0.333333 0 0 0 0.1 0"/>
<feBlend mode="normal" in2="effect1_backgroundBlur_556_2881" result="effect2_dropShadow_556_2881"/>
<feBlend mode="normal" in="SourceGraphic" in2="effect2_dropShadow_556_2881" result="shape"/>
</filter>
<filter id="filter4_bd_556_2881" x="1348" y="0" width="371" height="100" filterUnits="userSpaceOnUse" color-interpolation-filters="sRGB">
<feFlood flood-opacity="0" result="BackgroundImageFix"/>
<feGaussianBlur in="BackgroundImageFix" stdDeviation="5"/>
<feComposite in2="SourceAlpha" operator="in" result="effect1_backgroundBlur_556_2881"/>
<feColorMatrix in="SourceAlpha" type="matrix" values="0 0 0 0 0 0 0 0 0 0 0 0 0 0 0 0 0 0 127 0" result="hardAlpha"/>
<feOffset dx="2" dy="5"/>
<feGaussianBlur stdDeviation="7.5"/>
<feComposite in2="hardAlpha" operator="out"/>
<feColorMatrix type="matrix" values="0 0 0 0 0.298611 0 0 0 0 0.320834 0 0 0 0 0.333333 0 0 0 0.1 0"/>
<feBlend mode="normal" in2="effect1_backgroundBlur_556_2881" result="effect2_dropShadow_556_2881"/>
<feBlend mode="normal" in="SourceGraphic" in2="effect2_dropShadow_556_2881" result="shape"/>
</filter>
<clipPath id="clip0_556_2881">
<rect width="47.2539" height="50" fill="white" transform="translate(43 20)"/>
</clipPath>
<clipPath id="clip1_556_2881">
<rect width="47.2234" height="50" fill="white" transform="translate(431 20)"/>
</clipPath>
</defs>
</svg>
