<svg width="300" height="52" viewBox="0 0 300 52" fill="none" xmlns="http://www.w3.org/2000/svg">
<path d="M56.382 0.746826H47.8252V41.4532H56.382V0.746826Z" fill="#C8D6DF"/>
<path d="M21.0967 0C9.46418 0 0 9.46418 0 21.0967C0 32.7292 9.46418 42.1942 21.0967 42.1942C32.73 42.1942 42.1942 32.7292 42.1942 21.0967C42.1942 9.46416 32.73 0 21.0967 0ZM33.6374 21.0967C33.6374 28.0116 28.0116 33.6366 21.0967 33.6366C14.1826 33.6366 8.55679 28.0116 8.55679 21.0967C8.55679 14.1818 14.1826 8.55679 21.0967 8.55679C28.0116 8.55679 33.6374 14.1818 33.6374 21.0967Z" fill="#C8D6DF"/>
<path d="M71.2972 0.746826L56.384 21.1012L71.2972 41.4532H81.5655L66.6547 21.1012L81.5678 0.746826H71.2972Z" fill="#C8D6DF"/>
<path d="M116.172 23.9046C115.292 22.4129 113.827 21.116 111.822 20.0506C109.87 19.0141 107.209 18.0582 103.909 17.208C100.888 16.4468 98.5785 15.7851 97.0446 15.2414C95.2251 14.5992 94.4546 14.0337 94.1292 13.6715C93.6834 13.1771 93.4667 12.5842 93.4667 11.8591C93.4667 10.577 94.0706 9.58983 95.3135 8.84202C96.623 8.05275 98.383 7.69919 100.54 7.78992C102.791 7.88066 104.636 8.43761 106.025 9.44512C107.017 10.1663 107.719 11.0925 108.111 12.197L108.247 12.5811H117.357L117.276 11.9318C116.974 9.5249 116.057 7.39411 114.55 5.59891C113.055 3.81619 111.076 2.42149 108.668 1.45308C106.28 0.493298 103.528 0.00598145 100.49 0.00598145C97.3786 0.00598145 94.6181 0.506595 92.2855 1.493C89.9263 2.49189 88.0685 3.92806 86.763 5.76083C85.4496 7.60454 84.7832 9.79009 84.7832 12.2557C84.7832 14.2543 85.2306 15.9869 86.113 17.4059C86.9938 18.8256 88.4769 20.0717 90.52 21.1105C92.503 22.1204 95.2142 23.0747 98.5762 23.9461C101.596 24.7557 103.87 25.4401 105.334 25.9822C107.05 26.6205 107.738 27.1814 108.012 27.5388C108.4 28.0465 108.597 28.7349 108.597 29.5844C108.597 31.0823 108.021 32.2252 106.835 33.0786C105.609 33.9625 103.862 34.4115 101.644 34.4115C99.1785 34.4115 97.0986 33.8561 95.4621 32.7618C94.1652 31.8935 93.2688 30.8078 92.7204 29.442L92.5749 29.0798H83.4111L83.5308 29.7572C84.2262 33.6887 86.1481 36.784 89.2434 38.9562C92.3059 41.105 96.3085 42.1939 101.14 42.1939C106.172 42.1939 110.188 41.0503 113.077 38.7935C116.009 36.5032 117.495 33.3078 117.495 29.2957C117.495 27.204 117.05 25.3908 116.172 23.9046Z" fill="#C8D6DF"/>
<path d="M171.656 19.988L154.453 20.0365L154.469 26.2959L165.13 26.2771C164.602 28.0239 163.715 29.6392 162.468 31.1215C159.63 34.3544 155.974 35.9752 151.497 35.9869C147.209 35.9987 143.716 34.6423 141.015 31.9178C138.313 29.1933 136.958 25.6318 136.946 21.2302C136.934 16.8294 138.271 13.2593 140.959 10.5207C143.646 7.78215 147.131 6.40697 151.419 6.39604C155.668 6.38429 159.181 7.76023 161.958 10.5223C163.175 11.734 164.127 13.0974 164.814 14.6118L171.358 14.5946C170.554 11.8654 169.296 9.46002 167.583 7.37695C163.701 2.53183 158.307 0.117087 151.402 0.135851C145.37 0.151511 140.311 2.15635 136.223 6.15119C132.137 10.146 130.101 15.1781 130.118 21.249C130.133 27.3191 132.195 32.3394 136.303 36.3123C140.412 40.2853 145.482 42.2635 151.513 42.2471C158.266 42.2299 163.684 39.5609 167.769 34.2379C167.786 34.2144 167.803 34.1917 167.82 34.1683C170.391 30.7124 171.674 26.4657 171.662 22.1587L171.656 19.988Z" fill="#C8D6DF"/>
<path d="M180.814 41.0319L180.737 12.0089L186.713 11.9933L186.723 16.2619L187.008 16.2611C187.424 15.4624 188.028 14.7029 188.824 13.9801C190.563 12.4579 192.61 11.6929 194.963 11.6866L198.377 11.6772L198.392 17.3687L194.694 17.3789C192.379 17.3852 190.475 18.1205 188.981 19.5848C187.485 21.0499 186.741 22.9757 186.748 25.3662L186.789 41.0163L180.814 41.0319Z" fill="#C8D6DF"/>
<path d="M205.93 37.1809C203.021 34.2867 201.56 30.7151 201.549 26.4652C201.538 22.2177 202.979 18.6374 205.873 15.7268C208.769 12.8169 212.34 11.3565 216.589 11.3455C220.837 11.3346 224.418 12.7754 227.328 15.6697C230.237 18.5655 231.698 22.1379 231.709 26.3854C231.72 30.6352 230.279 34.2147 227.385 37.1246C224.49 40.0337 220.917 41.4957 216.669 41.5067C212.42 41.5184 208.841 40.0752 205.93 37.1809ZM210.237 19.4142C208.61 21.182 207.8 23.5272 207.808 26.4488C207.816 29.3704 208.638 31.7108 210.274 33.4708C211.91 35.2301 214.037 36.107 216.655 36.0999C219.273 36.0929 221.394 35.205 223.021 33.4372C224.648 31.6686 225.458 29.3235 225.45 26.4026C225.442 23.481 224.619 21.1398 222.984 19.3805C221.348 17.6213 219.222 16.7444 216.604 16.7515C213.985 16.7577 211.864 17.6464 210.237 19.4142Z" fill="#C8D6DF"/>
<path d="M237.121 29.217L237.075 11.8594L243.05 11.8437L243.095 28.6311C243.101 31.1741 243.667 33.0413 244.788 34.2326C245.91 35.4248 247.629 36.0177 249.942 36.0114C252.256 36.0052 254.162 35.2128 255.657 33.635C257.151 32.0573 257.894 29.9969 257.888 27.4546L257.847 11.8046L263.822 11.7889L263.899 40.812L257.923 40.8276L257.913 36.8437L257.628 36.8445C257.175 37.6056 256.475 38.3659 255.528 39.1263C253.483 40.6493 251.152 41.4151 248.535 41.4221C244.93 41.4323 242.13 40.3958 240.133 38.3135C238.135 36.2328 237.131 33.1993 237.121 29.217Z" fill="#C8D6DF"/>
<path d="M271.044 51.6059L270.938 11.7709L276.914 11.7545L276.923 15.4536L277.209 15.4529C277.889 14.6558 278.664 13.951 279.537 13.3408C281.581 11.8945 283.836 11.1678 286.302 11.1616C290.209 11.1514 293.467 12.5367 296.072 15.3183C298.679 18.0999 299.988 21.7302 300 26.2054C300.012 30.682 298.722 34.3179 296.13 37.1135C293.539 39.9092 290.288 41.3125 286.381 41.3227C283.878 41.3297 281.619 40.6328 279.605 39.2349C278.693 38.5919 277.913 37.8739 277.266 37.0783L276.98 37.0791L277.019 51.5902L271.044 51.6059ZM279.182 19.1191C277.686 20.8111 276.944 23.193 276.952 26.2664C276.96 29.3397 277.715 31.7185 279.219 33.4034C280.722 35.0875 282.725 35.9253 285.229 35.9191C287.885 35.912 289.969 35.0727 291.483 33.3987C292.995 31.7263 293.748 29.3335 293.74 26.2218C293.732 23.1124 292.966 20.7235 291.445 19.0574C289.922 17.3928 287.834 16.5628 285.178 16.5699C282.674 16.5769 280.676 17.4272 279.182 19.1191Z" fill="#C8D6DF"/>
</svg>
