<svg width="100" height="100" viewBox="0 0 100 100" fill="none" xmlns="http://www.w3.org/2000/svg">
<path fill-rule="evenodd" clip-rule="evenodd" d="M91.6663 50C91.6663 73 72.9997 91.6667 49.9997 91.6667C26.9997 91.6667 8.33301 73 8.33301 50C8.33301 27 26.9997 8.33337 49.9997 8.33337C72.9997 8.33337 91.6663 27 91.6663 50ZM37.4997 59.375C40.3747 59.375 42.708 57.0417 42.708 54.1667C42.708 51.2917 40.3747 48.9584 37.4997 48.9584C34.6247 48.9584 32.2913 51.2917 32.2913 54.1667C32.2913 57.0417 34.6247 59.375 37.4997 59.375ZM57.2913 54.1667C57.2913 51.2917 59.6247 48.9584 62.4997 48.9584C65.3747 48.9584 67.708 51.2917 67.708 54.1667C67.708 57.0417 65.3747 59.375 62.4997 59.375C59.6247 59.375 57.2913 57.0417 57.2913 54.1667ZM72.917 33.3334C60.8337 33.3334 50.2503 26.8334 44.417 17.1667C46.2087 16.875 48.0837 16.6667 50.0003 16.6667C62.0837 16.6667 72.667 23.1667 78.5003 32.8334C76.7087 33.125 74.8337 33.3334 72.917 33.3334ZM18.416 39.4571C25.541 35.4154 31.041 28.8321 33.666 20.9571C26.541 24.9987 21.041 31.5821 18.416 39.4571ZM81.958 40.6674C82.833 43.6257 83.333 46.7507 83.333 50.0007C83.333 68.3757 68.3747 83.334 49.9997 83.334C31.6247 83.334 16.6663 68.3757 16.6663 50.0007C16.6663 49.9296 16.6712 49.8586 16.6759 49.7892C16.6851 49.6551 16.6938 49.5272 16.6663 49.4174C27.4997 45.334 36.208 36.959 40.583 26.2924C48.2497 35.6674 59.8747 41.6674 72.9163 41.6674C76.0413 41.6674 79.0413 41.2924 81.958 40.6674Z" fill="#F3CC3F"/>
</svg>
