<svg width="100" height="100" viewBox="0 0 100 100" fill="none" xmlns="http://www.w3.org/2000/svg">
<path fill-rule="evenodd" clip-rule="evenodd" d="M87.5003 37.5H61.2087L65.167 18.4584L65.292 17.125C65.292 15.4167 64.5837 13.8334 63.4587 12.7084L59.042 8.33337L31.6253 35.7917C30.0837 37.2917 29.167 39.375 29.167 41.6667V83.3334C29.167 87.9167 32.917 91.6667 37.5003 91.6667H75.0003C78.4587 91.6667 81.417 89.5834 82.667 86.5834L95.2503 57.2084C95.6253 56.25 95.8337 55.25 95.8337 54.1667V45.8334C95.8337 41.25 92.0837 37.5 87.5003 37.5ZM87.5003 54.1674L75.0003 83.334H37.5003V41.6674L55.5837 23.584L50.9587 45.834H87.5003V54.1674ZM20.8337 41.6667H4.16699V91.6667H20.8337V41.6667Z" fill="#F3CC3F"/>
</svg>
