<svg width="1699" height="60" viewBox="0 0 1699 60" fill="none" xmlns="http://www.w3.org/2000/svg">
<rect width="298" height="60" rx="30" fill="white"/>
<rect x="1" y="1" width="296" height="58" rx="29" stroke="#C8D6DF" stroke-opacity="0.5" stroke-width="2"/>
<path d="M129.51 22.7812V37H127.635V24.3242H120.623V37H118.738V22.7812H129.51ZM132.176 31.834V31.6094C132.176 30.8477 132.286 30.1413 132.508 29.4902C132.729 28.8327 133.048 28.263 133.465 27.7812C133.882 27.293 134.386 26.9154 134.979 26.6484C135.571 26.375 136.235 26.2383 136.971 26.2383C137.713 26.2383 138.38 26.375 138.973 26.6484C139.572 26.9154 140.079 27.293 140.496 27.7812C140.919 28.263 141.242 28.8327 141.463 29.4902C141.684 30.1413 141.795 30.8477 141.795 31.6094V31.834C141.795 32.5957 141.684 33.3021 141.463 33.9531C141.242 34.6042 140.919 35.1738 140.496 35.6621C140.079 36.1439 139.575 36.5215 138.982 36.7949C138.396 37.0618 137.732 37.1953 136.99 37.1953C136.248 37.1953 135.581 37.0618 134.988 36.7949C134.396 36.5215 133.888 36.1439 133.465 35.6621C133.048 35.1738 132.729 34.6042 132.508 33.9531C132.286 33.3021 132.176 32.5957 132.176 31.834ZM133.982 31.6094V31.834C133.982 32.3613 134.044 32.8594 134.168 33.3281C134.292 33.7904 134.477 34.2005 134.725 34.5586C134.979 34.9167 135.294 35.1999 135.672 35.4082C136.049 35.61 136.489 35.7109 136.99 35.7109C137.485 35.7109 137.918 35.61 138.289 35.4082C138.667 35.1999 138.979 34.9167 139.227 34.5586C139.474 34.2005 139.66 33.7904 139.783 33.3281C139.913 32.8594 139.979 32.3613 139.979 31.834V31.6094C139.979 31.0885 139.913 30.597 139.783 30.1348C139.66 29.666 139.471 29.2526 139.217 28.8945C138.969 28.5299 138.657 28.2435 138.279 28.0352C137.908 27.8268 137.472 27.7227 136.971 27.7227C136.476 27.7227 136.04 27.8268 135.662 28.0352C135.291 28.2435 134.979 28.5299 134.725 28.8945C134.477 29.2526 134.292 29.666 134.168 30.1348C134.044 30.597 133.982 31.0885 133.982 31.6094ZM148.289 35.7109C148.719 35.7109 149.116 35.623 149.48 35.4473C149.845 35.2715 150.145 35.0306 150.379 34.7246C150.613 34.4121 150.747 34.0573 150.779 33.6602H152.498C152.465 34.2852 152.254 34.8678 151.863 35.4082C151.479 35.9421 150.975 36.375 150.35 36.707C149.725 37.0326 149.038 37.1953 148.289 37.1953C147.495 37.1953 146.801 37.0553 146.209 36.7754C145.623 36.4954 145.135 36.1113 144.744 35.623C144.36 35.1348 144.07 34.5749 143.875 33.9434C143.686 33.3053 143.592 32.6315 143.592 31.9219V31.5117C143.592 30.8021 143.686 30.1315 143.875 29.5C144.07 28.862 144.36 28.2988 144.744 27.8105C145.135 27.3223 145.623 26.9382 146.209 26.6582C146.801 26.3783 147.495 26.2383 148.289 26.2383C149.116 26.2383 149.839 26.4076 150.457 26.7461C151.076 27.0781 151.561 27.5339 151.912 28.1133C152.27 28.6862 152.465 29.3372 152.498 30.0664H150.779C150.747 29.6302 150.623 29.2363 150.408 28.8848C150.2 28.5332 149.913 28.2533 149.549 28.0449C149.191 27.8301 148.771 27.7227 148.289 27.7227C147.736 27.7227 147.27 27.8333 146.893 28.0547C146.521 28.2695 146.225 28.5625 146.004 28.9336C145.789 29.2982 145.633 29.7051 145.535 30.1543C145.444 30.597 145.398 31.0495 145.398 31.5117V31.9219C145.398 32.3841 145.444 32.8398 145.535 33.2891C145.626 33.7383 145.779 34.1452 145.994 34.5098C146.215 34.8743 146.512 35.1673 146.883 35.3887C147.26 35.6035 147.729 35.7109 148.289 35.7109ZM158.836 26.4336V37H157.02V26.4336H158.836ZM162.381 26.4336V27.8984H153.543V26.4336H162.381ZM165.965 28.4648V41.0625H164.148V26.4336H165.809L165.965 28.4648ZM173.084 31.6289V31.834C173.084 32.6022 172.993 33.3151 172.811 33.9727C172.628 34.6237 172.361 35.1901 172.01 35.6719C171.665 36.1536 171.238 36.528 170.73 36.7949C170.223 37.0618 169.64 37.1953 168.982 37.1953C168.312 37.1953 167.719 37.0846 167.205 36.8633C166.691 36.6419 166.255 36.3197 165.896 35.8965C165.538 35.4733 165.252 34.9655 165.037 34.373C164.829 33.7806 164.686 33.1133 164.607 32.3711V31.2773C164.686 30.4961 164.832 29.7962 165.047 29.1777C165.262 28.5592 165.545 28.0319 165.896 27.5957C166.255 27.153 166.688 26.8177 167.195 26.5898C167.703 26.3555 168.289 26.2383 168.953 26.2383C169.617 26.2383 170.206 26.3685 170.721 26.6289C171.235 26.8828 171.668 27.2474 172.02 27.7227C172.371 28.1979 172.635 28.7676 172.811 29.4316C172.993 30.0892 173.084 30.8216 173.084 31.6289ZM171.268 31.834V31.6289C171.268 31.1016 171.212 30.6068 171.102 30.1445C170.991 29.6758 170.818 29.2656 170.584 28.9141C170.356 28.556 170.063 28.276 169.705 28.0742C169.347 27.8659 168.921 27.7617 168.426 27.7617C167.97 27.7617 167.573 27.8398 167.234 27.9961C166.902 28.1523 166.619 28.3639 166.385 28.6309C166.15 28.8913 165.958 29.1908 165.809 29.5293C165.665 29.8613 165.558 30.2064 165.486 30.5645V33.0938C165.617 33.5495 165.799 33.9792 166.033 34.3828C166.268 34.7799 166.58 35.1022 166.971 35.3496C167.361 35.5905 167.853 35.7109 168.445 35.7109C168.934 35.7109 169.354 35.61 169.705 35.4082C170.063 35.1999 170.356 34.9167 170.584 34.5586C170.818 34.2005 170.991 33.7904 171.102 33.3281C171.212 32.8594 171.268 32.3613 171.268 31.834ZM174.91 31.834V31.6094C174.91 30.8477 175.021 30.1413 175.242 29.4902C175.464 28.8327 175.783 28.263 176.199 27.7812C176.616 27.293 177.12 26.9154 177.713 26.6484C178.305 26.375 178.969 26.2383 179.705 26.2383C180.447 26.2383 181.115 26.375 181.707 26.6484C182.306 26.9154 182.814 27.293 183.23 27.7812C183.654 28.263 183.976 28.8327 184.197 29.4902C184.419 30.1413 184.529 30.8477 184.529 31.6094V31.834C184.529 32.5957 184.419 33.3021 184.197 33.9531C183.976 34.6042 183.654 35.1738 183.23 35.6621C182.814 36.1439 182.309 36.5215 181.717 36.7949C181.131 37.0618 180.467 37.1953 179.725 37.1953C178.982 37.1953 178.315 37.0618 177.723 36.7949C177.13 36.5215 176.622 36.1439 176.199 35.6621C175.783 35.1738 175.464 34.6042 175.242 33.9531C175.021 33.3021 174.91 32.5957 174.91 31.834ZM176.717 31.6094V31.834C176.717 32.3613 176.779 32.8594 176.902 33.3281C177.026 33.7904 177.212 34.2005 177.459 34.5586C177.713 34.9167 178.029 35.1999 178.406 35.4082C178.784 35.61 179.223 35.7109 179.725 35.7109C180.219 35.7109 180.652 35.61 181.023 35.4082C181.401 35.1999 181.714 34.9167 181.961 34.5586C182.208 34.2005 182.394 33.7904 182.518 33.3281C182.648 32.8594 182.713 32.3613 182.713 31.834V31.6094C182.713 31.0885 182.648 30.597 182.518 30.1348C182.394 29.666 182.205 29.2526 181.951 28.8945C181.704 28.5299 181.391 28.2435 181.014 28.0352C180.643 27.8268 180.206 27.7227 179.705 27.7227C179.21 27.7227 178.774 27.8268 178.396 28.0352C178.025 28.2435 177.713 28.5299 177.459 28.8945C177.212 29.2526 177.026 29.666 176.902 30.1348C176.779 30.597 176.717 31.0885 176.717 31.6094ZM188.748 34.1387L193.621 26.4336H195.438V37H193.621V29.2949L188.748 37H186.951V26.4336H188.748V34.1387ZM205.398 26.4336V27.9277H200.291V26.4336H205.398ZM206.99 26.4336V37H205.184V26.4336H206.99ZM199.852 26.4336H201.668L201.395 31.5312C201.349 32.319 201.274 33.0156 201.17 33.6211C201.072 34.2201 200.936 34.7344 200.76 35.1641C200.59 35.5938 200.376 35.9453 200.115 36.2188C199.861 36.4857 199.555 36.6842 199.197 36.8145C198.839 36.9382 198.426 37 197.957 37H197.391V35.4082L197.781 35.3789C198.061 35.3594 198.299 35.2943 198.494 35.1836C198.696 35.0729 198.865 34.9102 199.002 34.6953C199.139 34.474 199.249 34.1908 199.334 33.8457C199.425 33.5007 199.493 33.0905 199.539 32.6152C199.591 32.14 199.63 31.5866 199.656 30.9551L199.852 26.4336ZM211.854 34.1387L216.727 26.4336H218.543V37H216.727V29.2949L211.854 37H210.057V26.4336H211.854V34.1387ZM230.633 35.7109C231.062 35.7109 231.46 35.623 231.824 35.4473C232.189 35.2715 232.488 35.0306 232.723 34.7246C232.957 34.4121 233.09 34.0573 233.123 33.6602H234.842C234.809 34.2852 234.598 34.8678 234.207 35.4082C233.823 35.9421 233.318 36.375 232.693 36.707C232.068 37.0326 231.382 37.1953 230.633 37.1953C229.839 37.1953 229.145 37.0553 228.553 36.7754C227.967 36.4954 227.479 36.1113 227.088 35.623C226.704 35.1348 226.414 34.5749 226.219 33.9434C226.03 33.3053 225.936 32.6315 225.936 31.9219V31.5117C225.936 30.8021 226.03 30.1315 226.219 29.5C226.414 28.862 226.704 28.2988 227.088 27.8105C227.479 27.3223 227.967 26.9382 228.553 26.6582C229.145 26.3783 229.839 26.2383 230.633 26.2383C231.46 26.2383 232.182 26.4076 232.801 26.7461C233.419 27.0781 233.904 27.5339 234.256 28.1133C234.614 28.6862 234.809 29.3372 234.842 30.0664H233.123C233.09 29.6302 232.967 29.2363 232.752 28.8848C232.544 28.5332 232.257 28.2533 231.893 28.0449C231.535 27.8301 231.115 27.7227 230.633 27.7227C230.079 27.7227 229.614 27.8333 229.236 28.0547C228.865 28.2695 228.569 28.5625 228.348 28.9336C228.133 29.2982 227.977 29.7051 227.879 30.1543C227.788 30.597 227.742 31.0495 227.742 31.5117V31.9219C227.742 32.3841 227.788 32.8398 227.879 33.2891C227.97 33.7383 228.123 34.1452 228.338 34.5098C228.559 34.8743 228.855 35.1673 229.227 35.3887C229.604 35.6035 230.073 35.7109 230.633 35.7109ZM243.104 35.1934V29.7539C243.104 29.3372 243.019 28.9759 242.85 28.6699C242.687 28.3574 242.439 28.1165 242.107 27.9473C241.775 27.778 241.365 27.6934 240.877 27.6934C240.421 27.6934 240.021 27.7715 239.676 27.9277C239.337 28.084 239.07 28.2891 238.875 28.543C238.686 28.7969 238.592 29.0703 238.592 29.3633H236.785C236.785 28.9857 236.883 28.6113 237.078 28.2402C237.273 27.8691 237.553 27.5339 237.918 27.2344C238.289 26.9284 238.732 26.6875 239.246 26.5117C239.767 26.3294 240.346 26.2383 240.984 26.2383C241.753 26.2383 242.43 26.3685 243.016 26.6289C243.608 26.8893 244.07 27.2832 244.402 27.8105C244.741 28.3314 244.91 28.9857 244.91 29.7734V34.6953C244.91 35.0469 244.939 35.4212 244.998 35.8184C245.063 36.2155 245.158 36.5573 245.281 36.8438V37H243.396C243.305 36.7917 243.234 36.515 243.182 36.1699C243.13 35.8184 243.104 35.4928 243.104 35.1934ZM243.416 30.5938L243.436 31.8633H241.609C241.095 31.8633 240.636 31.9056 240.232 31.9902C239.829 32.0684 239.49 32.1888 239.217 32.3516C238.943 32.5143 238.735 32.7194 238.592 32.9668C238.449 33.2077 238.377 33.4909 238.377 33.8164C238.377 34.1484 238.452 34.4512 238.602 34.7246C238.751 34.998 238.976 35.2161 239.275 35.3789C239.581 35.5352 239.956 35.6133 240.398 35.6133C240.952 35.6133 241.44 35.4961 241.863 35.2617C242.286 35.0273 242.622 34.7409 242.869 34.4023C243.123 34.0638 243.26 33.735 243.279 33.416L244.051 34.2852C244.005 34.5586 243.882 34.8613 243.68 35.1934C243.478 35.5254 243.208 35.8444 242.869 36.1504C242.537 36.4499 242.14 36.7005 241.678 36.9023C241.222 37.0977 240.708 37.1953 240.135 37.1953C239.419 37.1953 238.79 37.0553 238.25 36.7754C237.716 36.4954 237.299 36.1211 237 35.6523C236.707 35.1771 236.561 34.6465 236.561 34.0605C236.561 33.4941 236.671 32.9961 236.893 32.5664C237.114 32.1302 237.433 31.7689 237.85 31.4824C238.266 31.1895 238.768 30.9681 239.354 30.8184C239.939 30.6686 240.594 30.5938 241.316 30.5938H243.416ZM249.705 34.1387L254.578 26.4336H256.395V37H254.578V29.2949L249.705 37H247.908V26.4336H249.705V34.1387ZM253.592 22.6055H255.057C255.057 23.1133 254.939 23.5658 254.705 23.9629C254.471 24.3535 254.135 24.6595 253.699 24.8809C253.263 25.1022 252.745 25.2129 252.146 25.2129C251.242 25.2129 250.525 24.972 249.998 24.4902C249.477 24.002 249.217 23.3737 249.217 22.6055H250.682C250.682 22.9896 250.792 23.3281 251.014 23.6211C251.235 23.9141 251.613 24.0605 252.146 24.0605C252.667 24.0605 253.038 23.9141 253.26 23.6211C253.481 23.3281 253.592 22.9896 253.592 22.6055ZM263.602 26.4336V37H261.785V26.4336H263.602ZM267.146 26.4336V27.8984H258.309V26.4336H267.146Z" fill="#C8D6DF"/>
<path d="M95.6992 24.802C96.2985 24.802 96.8668 24.8555 97.4014 24.9624C96.8668 24.8527 96.2985 24.7992 95.6963 24.7992H91.4675V24.802H95.6992Z" fill="#C8D6DF"/>
<path d="M95.6963 37.2012C96.2985 37.2012 96.8668 37.1477 97.4014 37.038C96.8668 37.1449 96.2985 37.1984 95.6992 37.1984H91.4675V37.2012H95.6963Z" fill="#C8D6DF"/>
<path d="M97.5137 24.9848C97.7134 25.027 97.9047 25.0748 98.0933 25.1311C97.9047 25.0748 97.7106 25.0242 97.5137 24.9848Z" fill="#C8D6DF"/>
<path d="M98.0933 36.8691C97.9047 36.9254 97.7134 36.9732 97.5137 37.0154C97.7106 36.976 97.9047 36.9254 98.0933 36.8691Z" fill="#C8D6DF"/>
<path d="M72.304 40.9998C70.2415 39.7859 68.5915 37.9591 67.6016 35.7611C66.6116 37.9591 64.9616 39.7859 62.905 40.9998H72.304Z" fill="#C8D6DF"/>
<path d="M72.304 20.9999H62.905C64.9616 22.2138 66.6116 24.0464 67.6016 26.2385C68.5915 24.0464 70.2415 22.2138 72.304 20.9999Z" fill="#C8D6DF"/>
<path d="M51.1196 20.9998H43.7183V29.2025H34.6317V20.9998H30V40.9998H34.6317V33.1153H43.7183V40.9998H51.1196C47.7018 38.9785 45.3977 35.2661 45.3977 30.9998C45.3977 26.7393 47.7018 23.021 51.1196 20.9998Z" fill="#C8D6DF"/>
<path d="M95.5646 40.999H83.7222C87.1435 38.9789 89.4478 35.2649 89.4478 30.9995C89.4478 26.7398 87.1435 23.0202 83.7222 21H95.5646C102.106 21 106.591 24.9419 106.591 30.9995C106.591 37.0572 102.106 40.999 95.5646 40.999ZM101.439 28.4138C101.324 28.1297 101.189 27.8596 101.034 27.6063C100.984 27.5191 100.93 27.4375 100.874 27.3559C100.764 27.1927 100.646 27.038 100.516 26.8889C100.452 26.8129 100.387 26.7398 100.317 26.6694C99.7765 26.1039 99.1069 25.6565 98.3332 25.3414C98.139 25.2626 97.9392 25.1923 97.731 25.1304C97.5425 25.0741 97.3512 25.0263 97.1514 24.9841C97.1149 24.9756 97.0783 24.9672 97.0389 24.9616C96.5043 24.8546 95.936 24.8012 95.3367 24.8012H91.105V37.1979H95.3367C95.936 37.1979 96.5043 37.1444 97.0389 37.0375C97.0783 37.0319 97.1149 37.0234 97.1514 37.015C97.3512 36.9728 97.5425 36.925 97.731 36.8687C97.9392 36.8068 98.139 36.7364 98.3332 36.6577C99.1069 36.3425 99.7765 35.8952 100.317 35.3296C100.387 35.2593 100.452 35.1861 100.516 35.1102C100.646 34.9611 100.764 34.8063 100.874 34.6431C100.93 34.5615 100.984 34.4799 101.034 34.3927C101.189 34.1395 101.324 33.8694 101.439 33.5852C101.743 32.8227 101.906 31.959 101.906 30.9995C101.906 30.0401 101.743 29.1763 101.439 28.4138V28.4138Z" fill="#C8D6DF"/>
<path d="M298 30L1699 30.0001" stroke="#C8D6DF" stroke-opacity="0.5" stroke-width="2" stroke-linecap="square"/>
</svg>
