<svg width="39" height="35" viewBox="0 0 39 35" fill="none" xmlns="http://www.w3.org/2000/svg">
<path fill-rule="evenodd" clip-rule="evenodd" d="M19.0736 3.98638C21.1526 1.54496 24.3379 0 27.6567 0C33.5313 0 38.1471 4.6158 38.1471 10.4905C38.1471 17.6944 31.6728 23.5653 21.8634 32.4604L21.8392 32.4823L19.0736 35L16.3079 32.5014L16.2326 32.4329C6.45189 23.5449 0 17.6818 0 10.4905C0 4.6158 4.6158 0 10.4905 0C13.8093 0 16.9946 1.54496 19.0736 3.98638ZM19.0736 29.8502L19.2643 29.6594C28.3433 21.4387 34.3324 16.0028 34.3324 10.4905C34.3324 6.67577 31.4714 3.81474 27.6567 3.81474C24.7194 3.81474 21.8583 5.70302 20.8665 8.3161H17.2998C16.2889 5.70302 13.4278 3.81474 10.4905 3.81474C6.67577 3.81474 3.81474 6.67577 3.81474 10.4905C3.81474 16.0028 9.80384 21.4387 18.8829 29.6594L19.0736 29.8502Z" fill="#222445"/>
</svg>
