<svg width="30" height="30" viewBox="0 0 30 30" fill="none" xmlns="http://www.w3.org/2000/svg">
<path d="M29.9898 9.07873C29.9898 8.73118 29.9631 8.38711 29.9178 8.04071C29.3087 3.41205 25.2507 -0.0437524 20.6697 0.000418679C16.8582 0.0376154 13.0444 0.00855545 9.23293 0.00855545C8.8133 0.00855545 8.39716 0.0318034 7.97754 0.086436C3.51858 0.665309 0.0116346 4.62559 0.0034978 9.12058C-0.00347658 12.9762 0.0023354 16.8319 0.00117301 20.6887C0.00117301 21.1525 0.0267457 21.6117 0.0848656 22.0743C0.624217 26.3996 4.63797 29.9786 8.99347 29.9961C10.9788 30.0042 12.9654 29.9972 14.9519 29.9972C16.8652 29.9972 18.7785 29.9972 20.6918 29.9972C21.1405 29.9972 21.5857 29.974 22.0344 29.917C26.4306 29.3579 29.9782 25.3744 29.9887 20.9515C29.998 16.9935 29.991 13.0367 29.991 9.07873H29.9898ZM26.5468 20.755C26.5364 23.99 23.9768 26.5368 20.7372 26.5542C18.8239 26.5647 16.9094 26.5565 14.9961 26.5565C13.0828 26.5565 11.1683 26.5647 9.25501 26.5542C6.01774 26.5368 3.45582 23.9853 3.44652 20.7538C3.43489 16.9121 3.43373 13.0692 3.44652 9.22752C3.45698 6.02396 6.02355 3.4632 9.23409 3.45274C13.0758 3.43995 16.9187 3.43995 20.7604 3.45274C23.9721 3.4632 26.5352 6.02163 26.5457 9.22985C26.5596 13.0716 26.5584 16.9144 26.5457 20.7562L26.5468 20.755Z" fill="#F3CC3F"/>
<path d="M15.0378 7.30714C10.8346 7.25832 7.2393 10.8094 7.31137 14.9941C7.31137 19.2449 10.7184 22.645 14.9332 22.6984C19.1701 22.7519 22.7154 19.195 22.6887 15.0336C22.662 10.7548 19.2817 7.35596 15.0378 7.30714ZM14.996 19.589C12.4654 19.589 10.4092 17.5269 10.4103 14.9917C10.4126 12.4647 12.4782 10.4142 15.0181 10.4177C17.5242 10.4212 19.5805 12.4821 19.5816 14.9929C19.5828 17.5281 17.5253 19.5902 14.9948 19.5902L14.996 19.589Z" fill="#F3CC3F"/>
<path d="M23.0107 5.57862C22.2772 5.57862 21.6844 6.16446 21.674 6.8991C21.6635 7.65117 22.2598 8.24515 23.0247 8.24399C23.7849 8.24283 24.3649 7.65 24.3544 6.88282C24.3452 6.14935 23.7558 5.57745 23.0107 5.57862Z" fill="#F3CC3F"/>
</svg>
