<svg width="90" height="90" viewBox="0 0 90 90" fill="none" xmlns="http://www.w3.org/2000/svg">
<g filter="url(#filter0_d_558_4074)">
<circle cx="43" cy="40" r="30" fill="#FAFBFB"/>
<circle cx="43" cy="40" r="29" stroke="#C8D6DF" stroke-width="2"/>
</g>
<path fill-rule="evenodd" clip-rule="evenodd" d="M43.5 25C37.695 25 33 29.695 33 35.5C33 43.375 43.5 55 43.5 55C43.5 55 54 43.375 54 35.5C54 29.695 49.305 25 43.5 25ZM36 35.5C36 31.36 39.36 28 43.5 28C47.64 28 51 31.36 51 35.5C51 39.82 46.68 46.285 43.5 50.32C40.38 46.315 36 39.775 36 35.5ZM39.75 35.5C39.75 33.4289 41.4289 31.75 43.5 31.75C44.8397 31.75 46.0777 32.4647 46.7476 33.625C47.4175 34.7853 47.4175 36.2147 46.7476 37.375C46.0777 38.5353 44.8397 39.25 43.5 39.25C41.4289 39.25 39.75 37.5711 39.75 35.5Z" fill="#222445"/>
<defs>
<filter id="filter0_d_558_4074" x="0" y="0" width="90" height="90" filterUnits="userSpaceOnUse" color-interpolation-filters="sRGB">
<feFlood flood-opacity="0" result="BackgroundImageFix"/>
<feColorMatrix in="SourceAlpha" type="matrix" values="0 0 0 0 0 0 0 0 0 0 0 0 0 0 0 0 0 0 127 0" result="hardAlpha"/>
<feOffset dx="2" dy="5"/>
<feGaussianBlur stdDeviation="7.5"/>
<feComposite in2="hardAlpha" operator="out"/>
<feColorMatrix type="matrix" values="0 0 0 0 0.298611 0 0 0 0 0.320834 0 0 0 0 0.333333 0 0 0 0.1 0"/>
<feBlend mode="normal" in2="BackgroundImageFix" result="effect1_dropShadow_558_4074"/>
<feBlend mode="normal" in="SourceGraphic" in2="effect1_dropShadow_558_4074" result="shape"/>
</filter>
</defs>
</svg>
