<svg width="100" height="100" viewBox="0 0 100 100" fill="none" xmlns="http://www.w3.org/2000/svg">
<path fill-rule="evenodd" clip-rule="evenodd" d="M49.9997 8.33337C27.083 8.33337 8.33301 27.0834 8.33301 50C8.33301 72.9167 27.083 91.6667 49.9997 91.6667C72.9163 91.6667 91.6663 72.9167 91.6663 50C91.6663 27.0834 72.9163 8.33337 49.9997 8.33337ZM49.9997 83.3334C31.6247 83.3334 16.6663 68.375 16.6663 50C16.6663 31.625 31.6247 16.6667 49.9997 16.6667C68.3747 16.6667 83.333 31.625 83.333 50C83.333 68.375 68.3747 83.3334 49.9997 83.3334ZM45.833 29.1667H52.083V50.8334L70.833 62.0834L67.4997 67.5L45.833 54.1667V29.1667Z" fill="#F3CC3F"/>
</svg>
