<svg width="781" height="23" viewBox="0 0 781 23" fill="none" xmlns="http://www.w3.org/2000/svg">
<path d="M187 11H207" stroke="#C8D6DF" stroke-width="4" stroke-linecap="round"/>
<path d="M382 11H780" stroke="#C8D6DF" stroke-width="2" stroke-linecap="round"/>
<path d="M6.98242 5.67578L2.73438 18H0.166016L5.51758 3.78125H7.1582L6.98242 5.67578ZM10.5371 18L6.2793 5.67578L6.09375 3.78125H7.74414L13.1152 18H10.5371ZM10.332 12.7266V14.6699H2.59766V12.7266H10.332ZM21.748 7.43359V9.30859H16.5918V7.43359H21.748ZM23.5938 7.43359V18H21.2402V7.43359H23.5938ZM16.0156 7.43359H18.3398L18.0566 12.6582C18.0176 13.4329 17.9395 14.1165 17.8223 14.709C17.7116 15.2949 17.5618 15.7995 17.373 16.2227C17.1842 16.6393 16.9531 16.9779 16.6797 17.2383C16.4062 17.4987 16.0872 17.6908 15.7227 17.8145C15.3581 17.9382 14.9479 18 14.4922 18H13.7598L13.75 16.0664L14.1211 16.0371C14.362 16.0176 14.5703 15.9557 14.7461 15.8516C14.9219 15.7409 15.0716 15.5846 15.1953 15.3828C15.3255 15.181 15.4297 14.9206 15.5078 14.6016C15.5924 14.2826 15.6576 13.9049 15.7031 13.4688C15.7552 13.0326 15.7943 12.5247 15.8203 11.9453L16.0156 7.43359ZM27.8418 10.793H30.957C31.8685 10.793 32.6432 10.946 33.2812 11.252C33.9193 11.5579 34.4043 11.9844 34.7363 12.5312C35.0749 13.0716 35.2441 13.6901 35.2441 14.3867C35.2441 14.901 35.1497 15.3796 34.9609 15.8223C34.7721 16.2585 34.4922 16.6393 34.1211 16.9648C33.7565 17.2904 33.3073 17.5443 32.7734 17.7266C32.2461 17.9089 31.6406 18 30.957 18H26.2793V7.43359H28.6426V16.1348H30.957C31.4258 16.1348 31.8001 16.0534 32.0801 15.8906C32.36 15.7279 32.5618 15.5163 32.6855 15.2559C32.8158 14.9954 32.8809 14.7188 32.8809 14.4258C32.8809 14.1263 32.8158 13.8431 32.6855 13.5762C32.5618 13.3092 32.36 13.0911 32.0801 12.9219C31.8001 12.7526 31.4258 12.668 30.957 12.668H27.8418V10.793ZM41.8652 10.9883V12.8633H36.6992V10.9883H41.8652ZM49.3164 5.11914H52.1094C52.9492 5.11914 53.7207 5.25911 54.4238 5.53906C55.1335 5.81901 55.752 6.21615 56.2793 6.73047C56.8066 7.23828 57.2168 7.85026 57.5098 8.56641C57.8027 9.27604 57.9492 10.0671 57.9492 10.9395C57.9492 11.7988 57.8027 12.5833 57.5098 13.293C57.2168 14.0026 56.8066 14.6146 56.2793 15.1289C55.752 15.6367 55.1335 16.0273 54.4238 16.3008C53.7207 16.5742 52.9492 16.7109 52.1094 16.7109H49.3164C48.4831 16.7109 47.7116 16.5742 47.002 16.3008C46.2923 16.0273 45.6706 15.6367 45.1367 15.1289C44.6094 14.6211 44.1992 14.0156 43.9062 13.3125C43.6198 12.6029 43.4766 11.8184 43.4766 10.959C43.4766 10.0866 43.6198 9.29557 43.9062 8.58594C44.1992 7.86979 44.6094 7.25456 45.1367 6.74023C45.6706 6.2194 46.2923 5.81901 47.002 5.53906C47.7116 5.25911 48.4831 5.11914 49.3164 5.11914ZM49.3164 7.07227C48.5872 7.07227 47.959 7.22852 47.4316 7.54102C46.9043 7.84701 46.4974 8.28971 46.2109 8.86914C45.931 9.44857 45.791 10.1452 45.791 10.959C45.791 11.5579 45.8724 12.0918 46.0352 12.5605C46.1979 13.0293 46.4323 13.4264 46.7383 13.752C47.0443 14.0775 47.4154 14.3281 47.8516 14.5039C48.2878 14.6797 48.776 14.7676 49.3164 14.7676H52.1289C52.8516 14.7676 53.4733 14.6146 53.9941 14.3086C54.515 13.9961 54.9154 13.5534 55.1953 12.9805C55.4818 12.4076 55.625 11.7272 55.625 10.9395C55.625 10.334 55.5436 9.79362 55.3809 9.31836C55.2246 8.83659 54.9935 8.42969 54.6875 8.09766C54.388 7.76562 54.0234 7.51172 53.5938 7.33594C53.1641 7.16016 52.6758 7.07227 52.1289 7.07227H49.3164ZM51.8945 3.19531V18.5859H49.541V3.19531H51.8945ZM65.8203 15.8809V10.8418C65.8203 10.4642 65.752 10.1387 65.6152 9.86523C65.4785 9.5918 65.2702 9.38021 64.9902 9.23047C64.7168 9.08073 64.3717 9.00586 63.9551 9.00586C63.571 9.00586 63.2389 9.07096 62.959 9.20117C62.679 9.33138 62.4609 9.50716 62.3047 9.72852C62.1484 9.94987 62.0703 10.2005 62.0703 10.4805H59.7266C59.7266 10.0638 59.8275 9.66016 60.0293 9.26953C60.2311 8.87891 60.5241 8.5306 60.9082 8.22461C61.2923 7.91862 61.7513 7.67773 62.2852 7.50195C62.819 7.32617 63.418 7.23828 64.082 7.23828C64.8763 7.23828 65.5794 7.37174 66.1914 7.63867C66.8099 7.9056 67.2949 8.30924 67.6465 8.84961C68.0046 9.38346 68.1836 10.054 68.1836 10.8613V15.5586C68.1836 16.0404 68.2161 16.4733 68.2812 16.8574C68.3529 17.235 68.4538 17.5638 68.584 17.8438V18H66.1719C66.0612 17.7461 65.9733 17.4238 65.9082 17.0332C65.8496 16.6361 65.8203 16.252 65.8203 15.8809ZM66.1621 11.5742L66.1816 13.0293H64.4922C64.056 13.0293 63.6719 13.0716 63.3398 13.1562C63.0078 13.2344 62.7311 13.3516 62.5098 13.5078C62.2884 13.6641 62.1224 13.8529 62.0117 14.0742C61.901 14.2956 61.8457 14.5462 61.8457 14.8262C61.8457 15.1061 61.9108 15.3633 62.041 15.5977C62.1712 15.8255 62.36 16.0046 62.6074 16.1348C62.8613 16.265 63.1673 16.3301 63.5254 16.3301C64.0072 16.3301 64.4271 16.2324 64.7852 16.0371C65.1497 15.8353 65.4362 15.5911 65.6445 15.3047C65.8529 15.0117 65.9635 14.735 65.9766 14.4746L66.7383 15.5195C66.6602 15.7865 66.5267 16.0729 66.3379 16.3789C66.1491 16.6849 65.9017 16.9779 65.5957 17.2578C65.2962 17.5312 64.9349 17.7559 64.5117 17.9316C64.0951 18.1074 63.6133 18.1953 63.0664 18.1953C62.3763 18.1953 61.7611 18.0586 61.2207 17.7852C60.6803 17.5052 60.2572 17.1309 59.9512 16.6621C59.6452 16.1868 59.4922 15.6497 59.4922 15.0508C59.4922 14.4909 59.5964 13.9961 59.8047 13.5664C60.0195 13.1302 60.332 12.7656 60.7422 12.4727C61.1589 12.1797 61.6667 11.9583 62.2656 11.8086C62.8646 11.6523 63.5482 11.5742 64.3164 11.5742H66.1621ZM73.0078 9.46484V22.0625H70.6543V7.43359H72.8223L73.0078 9.46484ZM79.8926 12.6191V12.8242C79.8926 13.5924 79.8014 14.3053 79.6191 14.9629C79.4434 15.6139 79.1797 16.1836 78.8281 16.6719C78.4831 17.1536 78.0566 17.528 77.5488 17.7949C77.041 18.0618 76.4551 18.1953 75.791 18.1953C75.1335 18.1953 74.5573 18.0749 74.0625 17.834C73.5742 17.5866 73.1608 17.2383 72.8223 16.7891C72.4837 16.3398 72.2103 15.8125 72.002 15.207C71.8001 14.5951 71.6569 13.9245 71.5723 13.1953V12.4043C71.6569 11.6296 71.8001 10.9264 72.002 10.2949C72.2103 9.66341 72.4837 9.11979 72.8223 8.66406C73.1608 8.20833 73.5742 7.85677 74.0625 7.60938C74.5508 7.36198 75.1204 7.23828 75.7715 7.23828C76.4355 7.23828 77.0247 7.36849 77.5391 7.62891C78.0534 7.88281 78.4863 8.2474 78.8379 8.72266C79.1895 9.19141 79.4531 9.75781 79.6289 10.4219C79.8047 11.0794 79.8926 11.8118 79.8926 12.6191ZM77.5391 12.8242V12.6191C77.5391 12.1309 77.4935 11.6784 77.4023 11.2617C77.3112 10.8385 77.168 10.4674 76.9727 10.1484C76.7773 9.82943 76.5267 9.58203 76.2207 9.40625C75.9212 9.22396 75.5599 9.13281 75.1367 9.13281C74.7201 9.13281 74.362 9.20443 74.0625 9.34766C73.763 9.48438 73.5124 9.67643 73.3105 9.92383C73.1087 10.1712 72.9525 10.4609 72.8418 10.793C72.7311 11.1185 72.653 11.4733 72.6074 11.8574V13.752C72.6855 14.2207 72.819 14.6504 73.0078 15.041C73.1966 15.4316 73.4635 15.7441 73.8086 15.9785C74.1602 16.2064 74.6094 16.3203 75.1562 16.3203C75.5794 16.3203 75.9408 16.2292 76.2402 16.0469C76.5397 15.8646 76.7839 15.6139 76.9727 15.2949C77.168 14.9694 77.3112 14.5951 77.4023 14.1719C77.4935 13.7487 77.5391 13.2995 77.5391 12.8242ZM87.8516 15.8809V10.8418C87.8516 10.4642 87.7832 10.1387 87.6465 9.86523C87.5098 9.5918 87.3014 9.38021 87.0215 9.23047C86.748 9.08073 86.403 9.00586 85.9863 9.00586C85.6022 9.00586 85.2702 9.07096 84.9902 9.20117C84.7103 9.33138 84.4922 9.50716 84.3359 9.72852C84.1797 9.94987 84.1016 10.2005 84.1016 10.4805H81.7578C81.7578 10.0638 81.8587 9.66016 82.0605 9.26953C82.2624 8.87891 82.5553 8.5306 82.9395 8.22461C83.3236 7.91862 83.7826 7.67773 84.3164 7.50195C84.8503 7.32617 85.4492 7.23828 86.1133 7.23828C86.9076 7.23828 87.6107 7.37174 88.2227 7.63867C88.8411 7.9056 89.3262 8.30924 89.6777 8.84961C90.0358 9.38346 90.2148 10.054 90.2148 10.8613V15.5586C90.2148 16.0404 90.2474 16.4733 90.3125 16.8574C90.3841 17.235 90.485 17.5638 90.6152 17.8438V18H88.2031C88.0924 17.7461 88.0046 17.4238 87.9395 17.0332C87.8809 16.6361 87.8516 16.252 87.8516 15.8809ZM88.1934 11.5742L88.2129 13.0293H86.5234C86.0872 13.0293 85.7031 13.0716 85.3711 13.1562C85.0391 13.2344 84.7624 13.3516 84.541 13.5078C84.3197 13.6641 84.1536 13.8529 84.043 14.0742C83.9323 14.2956 83.877 14.5462 83.877 14.8262C83.877 15.1061 83.9421 15.3633 84.0723 15.5977C84.2025 15.8255 84.3913 16.0046 84.6387 16.1348C84.8926 16.265 85.1986 16.3301 85.5566 16.3301C86.0384 16.3301 86.4583 16.2324 86.8164 16.0371C87.181 15.8353 87.4674 15.5911 87.6758 15.3047C87.8841 15.0117 87.9948 14.735 88.0078 14.4746L88.7695 15.5195C88.6914 15.7865 88.5579 16.0729 88.3691 16.3789C88.1803 16.6849 87.9329 16.9779 87.627 17.2578C87.3275 17.5312 86.9661 17.7559 86.543 17.9316C86.1263 18.1074 85.6445 18.1953 85.0977 18.1953C84.4076 18.1953 83.7923 18.0586 83.252 17.7852C82.7116 17.5052 82.2884 17.1309 81.9824 16.6621C81.6764 16.1868 81.5234 15.6497 81.5234 15.0508C81.5234 14.4909 81.6276 13.9961 81.8359 13.5664C82.0508 13.1302 82.3633 12.7656 82.7734 12.4727C83.1901 12.1797 83.6979 11.9583 84.2969 11.8086C84.8958 11.6523 85.5794 11.5742 86.3477 11.5742H88.1934ZM99.3066 2.80469H101.211C101.211 3.38411 101.13 3.86263 100.967 4.24023C100.811 4.61133 100.576 4.91732 100.264 5.1582C99.9577 5.39258 99.5768 5.58138 99.1211 5.72461C98.6719 5.86784 98.151 5.99805 97.5586 6.11523C97.0117 6.23242 96.5169 6.41797 96.0742 6.67188C95.638 6.91927 95.2702 7.26758 94.9707 7.7168C94.6777 8.15951 94.4661 8.72917 94.3359 9.42578C94.2057 10.1224 94.1667 10.972 94.2188 11.9746V12.6387L92.3535 12.8047V12.1406C92.3535 10.8971 92.4674 9.81315 92.6953 8.88867C92.9232 7.96419 93.2454 7.1862 93.6621 6.55469C94.0853 5.91667 94.5866 5.40885 95.166 5.03125C95.752 4.65365 96.403 4.39323 97.1191 4.25C97.6074 4.14583 98.0143 4.04167 98.3398 3.9375C98.6654 3.82682 98.9062 3.68685 99.0625 3.51758C99.2253 3.3418 99.3066 3.10417 99.3066 2.80469ZM97.6562 8.0293C98.3594 8.0293 98.9844 8.15299 99.5312 8.40039C100.078 8.64128 100.54 8.97982 100.918 9.41602C101.296 9.85221 101.582 10.3665 101.777 10.959C101.979 11.5514 102.08 12.196 102.08 12.8926V13.1074C102.08 13.8366 101.973 14.5104 101.758 15.1289C101.543 15.7474 101.227 16.2878 100.811 16.75C100.394 17.2057 99.8828 17.5638 99.2773 17.8242C98.6784 18.0781 97.9915 18.2051 97.2168 18.2051C96.4486 18.2051 95.7617 18.0716 95.1562 17.8047C94.5508 17.5378 94.0397 17.1667 93.623 16.6914C93.2064 16.2096 92.8906 15.6465 92.6758 15.002C92.4609 14.3574 92.3535 13.6543 92.3535 12.8926V12.6777C92.347 12.541 92.3828 12.4076 92.4609 12.2773C92.5456 12.1471 92.6465 12.0072 92.7637 11.8574C92.8809 11.7077 92.985 11.5352 93.0762 11.3398C93.4017 10.6823 93.7858 10.1061 94.2285 9.61133C94.6712 9.11654 95.1758 8.72917 95.7422 8.44922C96.3151 8.16927 96.9531 8.0293 97.6562 8.0293ZM97.1973 9.89453C96.6113 9.89453 96.1328 10.0345 95.7617 10.3145C95.3971 10.5879 95.127 10.9525 94.9512 11.4082C94.7819 11.8639 94.6973 12.3587 94.6973 12.8926V13.1074C94.6973 13.5436 94.7461 13.957 94.8438 14.3477C94.9414 14.7383 95.0879 15.0833 95.2832 15.3828C95.485 15.6758 95.7454 15.9069 96.0645 16.0762C96.39 16.2454 96.7741 16.3301 97.2168 16.3301C97.666 16.3301 98.0469 16.2454 98.3594 16.0762C98.6784 15.9069 98.9355 15.6758 99.1309 15.3828C99.3327 15.0833 99.4792 14.7383 99.5703 14.3477C99.668 13.957 99.7168 13.5436 99.7168 13.1074V12.8926C99.7168 12.4889 99.668 12.1081 99.5703 11.75C99.4792 11.3919 99.3327 11.0762 99.1309 10.8027C98.929 10.5228 98.6686 10.3014 98.3496 10.1387C98.0306 9.97591 97.6465 9.89453 97.1973 9.89453ZM106.182 14.5625L110.332 7.43359H112.686V18H110.332V10.8613L106.182 18H103.828V7.43359H106.182V14.5625ZM126.445 3.73242V18H124.092V6.52539L120.605 7.70703V5.76367L126.162 3.73242H126.445ZM141.182 12.9316V14.8066H130.928L130.85 13.3906L136.982 3.78125H138.867L136.826 7.27734L133.301 12.9316H141.182ZM139.404 3.78125V18H137.051V3.78125H139.404ZM152.285 16.125V18H142.754V16.3887L147.383 11.3398C147.891 10.7669 148.291 10.2721 148.584 9.85547C148.877 9.4388 149.082 9.06445 149.199 8.73242C149.323 8.39388 149.385 8.0651 149.385 7.74609C149.385 7.29688 149.3 6.90299 149.131 6.56445C148.968 6.2194 148.727 5.94922 148.408 5.75391C148.089 5.55208 147.702 5.45117 147.246 5.45117C146.719 5.45117 146.276 5.5651 145.918 5.79297C145.56 6.02083 145.29 6.33659 145.107 6.74023C144.925 7.13737 144.834 7.5931 144.834 8.10742H142.48C142.48 7.2806 142.669 6.52539 143.047 5.8418C143.424 5.15169 143.971 4.60482 144.688 4.20117C145.404 3.79102 146.266 3.58594 147.275 3.58594C148.226 3.58594 149.033 3.74544 149.697 4.06445C150.361 4.38346 150.866 4.83594 151.211 5.42188C151.562 6.00781 151.738 6.70117 151.738 7.50195C151.738 7.94466 151.667 8.38411 151.523 8.82031C151.38 9.25651 151.175 9.69271 150.908 10.1289C150.648 10.5586 150.339 10.9915 149.98 11.4277C149.622 11.8574 149.229 12.2936 148.799 12.7363L145.723 16.125H152.285ZM160.029 5.67578L155.781 18H153.213L158.564 3.78125H160.205L160.029 5.67578ZM163.584 18L159.326 5.67578L159.141 3.78125H160.791L166.162 18H163.584ZM163.379 12.7266V14.6699H155.645V12.7266H163.379Z" fill="#9BA2A7"/>
<path d="M239.783 10.5V11.2812C239.783 12.3555 239.643 13.319 239.363 14.1719C239.083 15.0247 238.683 15.7507 238.162 16.3496C237.648 16.9486 237.029 17.4076 236.307 17.7266C235.584 18.0391 234.783 18.1953 233.904 18.1953C233.032 18.1953 232.234 18.0391 231.512 17.7266C230.796 17.4076 230.174 16.9486 229.646 16.3496C229.119 15.7507 228.709 15.0247 228.416 14.1719C228.13 13.319 227.986 12.3555 227.986 11.2812V10.5C227.986 9.42578 228.13 8.46549 228.416 7.61914C228.702 6.76628 229.106 6.04036 229.627 5.44141C230.154 4.83594 230.776 4.37695 231.492 4.06445C232.215 3.74544 233.012 3.58594 233.885 3.58594C234.764 3.58594 235.564 3.74544 236.287 4.06445C237.01 4.37695 237.632 4.83594 238.152 5.44141C238.673 6.04036 239.074 6.76628 239.354 7.61914C239.64 8.46549 239.783 9.42578 239.783 10.5ZM237.332 11.2812V10.4805C237.332 9.6862 237.254 8.98633 237.098 8.38086C236.948 7.76888 236.723 7.25781 236.424 6.84766C236.131 6.43099 235.77 6.11849 235.34 5.91016C234.91 5.69531 234.425 5.58789 233.885 5.58789C233.344 5.58789 232.863 5.69531 232.439 5.91016C232.016 6.11849 231.655 6.43099 231.355 6.84766C231.062 7.25781 230.838 7.76888 230.682 8.38086C230.525 8.98633 230.447 9.6862 230.447 10.4805V11.2812C230.447 12.0755 230.525 12.7786 230.682 13.3906C230.838 14.0026 231.066 14.5202 231.365 14.9434C231.671 15.36 232.036 15.6758 232.459 15.8906C232.882 16.099 233.364 16.2031 233.904 16.2031C234.451 16.2031 234.936 16.099 235.359 15.8906C235.783 15.6758 236.141 15.36 236.434 14.9434C236.727 14.5202 236.948 14.0026 237.098 13.3906C237.254 12.7786 237.332 12.0755 237.332 11.2812ZM246.902 7.43359V18H244.539V7.43359H246.902ZM250.369 7.43359V9.28906H241.131V7.43359H250.369ZM266.58 12.9316V14.8066H256.326L256.248 13.3906L262.381 3.78125H264.266L262.225 7.27734L258.699 12.9316H266.58ZM264.803 3.78125V18H262.449V3.78125H264.803ZM270.623 11.3887L268.748 10.9297L269.52 3.78125H277.186V5.77344H271.473L271.082 9.25977C271.303 9.12956 271.609 9.0026 272 8.87891C272.391 8.7487 272.837 8.68359 273.338 8.68359C274.008 8.68359 274.607 8.79427 275.135 9.01562C275.669 9.23047 276.121 9.54622 276.492 9.96289C276.863 10.373 277.146 10.8743 277.342 11.4668C277.537 12.0527 277.635 12.7135 277.635 13.4492C277.635 14.1068 277.537 14.722 277.342 15.2949C277.153 15.8678 276.867 16.3724 276.482 16.8086C276.098 17.2448 275.613 17.5866 275.027 17.834C274.448 18.0749 273.761 18.1953 272.967 18.1953C272.374 18.1953 271.805 18.1107 271.258 17.9414C270.717 17.7656 270.232 17.5085 269.803 17.1699C269.373 16.8249 269.028 16.4017 268.768 15.9004C268.507 15.3926 268.357 14.8099 268.318 14.1523H270.623C270.682 14.6146 270.809 15.0085 271.004 15.334C271.206 15.653 271.473 15.8971 271.805 16.0664C272.137 16.2357 272.521 16.3203 272.957 16.3203C273.354 16.3203 273.696 16.252 273.982 16.1152C274.269 15.972 274.507 15.7702 274.695 15.5098C274.891 15.2428 275.034 14.9303 275.125 14.5723C275.223 14.2142 275.271 13.8171 275.271 13.3809C275.271 12.9642 275.216 12.5833 275.105 12.2383C275.001 11.8932 274.842 11.5938 274.627 11.3398C274.419 11.0859 274.155 10.8906 273.836 10.7539C273.517 10.6107 273.149 10.5391 272.732 10.5391C272.173 10.5391 271.743 10.6204 271.443 10.7832C271.15 10.946 270.877 11.1478 270.623 11.3887ZM290.916 15.1484L294.061 7.43359H296.102L291.717 18H290.115L285.74 7.43359H287.781L290.916 15.1484ZM287.176 7.43359V18H284.822V7.43359H287.176ZM294.656 18V7.43359H297.02V18H294.656ZM306.756 7.43359V9.30859H301.6V7.43359H306.756ZM308.602 7.43359V18H306.248V7.43359H308.602ZM301.023 7.43359H303.348L303.064 12.6582C303.025 13.4329 302.947 14.1165 302.83 14.709C302.719 15.2949 302.57 15.7995 302.381 16.2227C302.192 16.6393 301.961 16.9779 301.688 17.2383C301.414 17.4987 301.095 17.6908 300.73 17.8145C300.366 17.9382 299.956 18 299.5 18H298.768L298.758 16.0664L299.129 16.0371C299.37 16.0176 299.578 15.9557 299.754 15.8516C299.93 15.7409 300.079 15.5846 300.203 15.3828C300.333 15.181 300.438 14.9206 300.516 14.6016C300.6 14.2826 300.665 13.9049 300.711 13.4688C300.763 13.0326 300.802 12.5247 300.828 11.9453L301.023 7.43359ZM318.318 11.8477V13.7031H312.85V11.8477H318.318ZM313.533 7.43359V18H311.18V7.43359H313.533ZM320.018 7.43359V18H317.664V7.43359H320.018ZM322.625 16.8281C322.625 16.4635 322.749 16.1576 322.996 15.9102C323.243 15.6562 323.579 15.5293 324.002 15.5293C324.432 15.5293 324.767 15.6562 325.008 15.9102C325.255 16.1576 325.379 16.4635 325.379 16.8281C325.379 17.1927 325.255 17.4987 325.008 17.7461C324.767 17.9935 324.432 18.1172 324.002 18.1172C323.579 18.1172 323.243 17.9935 322.996 17.7461C322.749 17.4987 322.625 17.1927 322.625 16.8281ZM337.977 7.43359V18H335.613V7.43359H337.977ZM341.443 7.43359V9.28906H332.205V7.43359H341.443ZM350.232 11.8477V13.7031H344.764V11.8477H350.232ZM345.447 7.43359V18H343.094V7.43359H345.447ZM351.932 7.43359V18H349.578V7.43359H351.932ZM361.473 7.43359V9.30859H356.863V18H354.51V7.43359H361.473Z" fill="#9BA2A7"/>
</svg>
