<svg width="301" height="80" viewBox="0 0 301 80" fill="none" xmlns="http://www.w3.org/2000/svg">
<path d="M20.192 33.1548C30.826 26.2281 40.9978 21.9026 47.316 21.2111C47.789 21.141 48.302 21.1081 48.8599 21.113C49.4177 21.1081 49.9312 21.141 50.404 21.2111C56.7222 21.9026 66.8941 26.2281 77.5274 33.1548C78.1324 33.5494 78.7293 33.9454 79.3193 34.3451V0H0V50.2416C4.36329 44.9885 11.5404 38.7907 20.192 33.1548Z" fill="#008B8A"/>
<path d="M48.8599 23.4832C42.6124 24.6969 32.7319 29.906 22.5638 37.7734C10.6098 47.0238 1.83624 57.1794 0 63.2994V80H79.3193V41.1398C77.9813 40.0103 76.5924 38.886 75.1562 37.7734C64.9875 29.906 55.1073 24.6969 48.8599 23.4832Z" fill="#008B8A"/>
<path d="M103.473 18.1764C103.473 19.848 103.678 21.3557 104.088 22.6994C104.498 24.0433 105.088 25.1986 105.858 26.1654C106.628 27.1323 107.57 27.878 108.685 28.4024C109.799 28.9268 111.077 29.189 112.519 29.189C113.929 29.189 115.199 28.9268 116.329 28.4024C117.46 27.878 118.411 27.1323 119.181 26.1654C119.951 25.1986 120.541 24.0433 120.951 22.6994C121.361 21.3557 121.565 19.848 121.565 18.1764C121.565 16.5049 121.361 14.989 120.951 13.6288C120.541 12.2687 119.951 11.1052 119.181 10.1382C118.411 9.1713 117.46 8.42578 116.329 7.90124C115.199 7.37685 113.929 7.11465 112.519 7.11465C111.077 7.11465 109.799 7.38504 108.685 7.92594C107.57 8.4667 106.628 9.22055 105.858 10.1873C105.088 11.1543 104.498 12.3178 104.088 13.678C103.678 15.0381 103.473 16.5376 103.473 18.1764ZM129.481 18.1764C129.481 21.0935 129.046 23.6582 128.178 25.8705C127.309 28.0828 126.121 29.9346 124.614 31.4258C123.106 32.9172 121.311 34.0398 119.23 34.7936C117.149 35.5473 114.912 35.9242 112.519 35.9242C110.192 35.9242 107.996 35.5473 105.932 34.7936C103.867 34.0398 102.064 32.9172 100.524 31.4258C98.9832 29.9346 97.7704 28.0828 96.8856 25.8705C96.0006 23.6582 95.5581 21.0935 95.5581 18.1764C95.5581 15.2594 96.017 12.6947 96.9347 10.4824C97.8524 8.26999 99.0897 6.41006 100.647 4.90235C102.203 3.39465 104.006 2.26388 106.054 1.51017C108.103 0.75632 110.258 0.379395 112.519 0.379395C114.846 0.379395 117.042 0.75632 119.107 1.51017C121.172 2.26388 122.975 3.39465 124.515 4.90235C126.056 6.41006 127.268 8.26999 128.153 10.4824C129.038 12.6947 129.481 15.2594 129.481 18.1764ZM160.011 1.16598V7.70467H149.736V35.236H142.067V7.70467H131.791V1.16598H160.011ZM172.253 7.65556V13.26H174.76C177.284 13.26 179.537 13.4568 181.52 13.8501C183.503 14.2434 185.174 14.8825 186.535 15.7674C187.895 16.6524 188.935 17.7995 189.656 19.2089C190.378 20.6182 190.738 22.3388 190.738 24.3709C190.738 28.1402 189.37 30.9507 186.633 32.8024C183.896 34.6542 179.988 35.5802 174.908 35.5802C173.531 35.5802 171.966 35.4982 170.212 35.3344C168.459 35.1704 166.697 34.8755 164.927 34.4494V1.16598H187.542V7.65556H172.253ZM175.301 29.0415C176.317 29.0415 177.284 28.9759 178.201 28.8448C179.119 28.7137 179.93 28.4761 180.635 28.132C181.34 27.7878 181.905 27.3207 182.331 26.7309C182.757 26.1408 182.97 25.3706 182.97 24.4202C182.97 23.4369 182.774 22.6339 182.38 22.0112C181.987 21.3884 181.43 20.8968 180.709 20.5362C179.988 20.1757 179.103 19.9298 178.054 19.7987C177.005 19.6676 175.825 19.6022 174.514 19.6022H172.253V28.9432C172.613 28.9759 173.047 29.0004 173.556 29.0168C174.064 29.0333 174.645 29.0415 175.301 29.0415ZM219.744 35.236C219.359 34.0479 218.958 32.8352 218.515 31.5898C218.081 30.3443 217.647 29.0988 217.213 27.8615H203.906C203.48 29.107 203.045 30.3525 202.611 31.598C202.185 32.8515 201.783 34.0561 201.407 35.236H193.442C194.729 31.5651 195.941 28.1729 197.088 25.0593C198.244 21.9456 199.366 19.0121 200.472 16.2591C201.57 13.5059 202.652 10.8921 203.725 8.4176C204.791 5.94296 205.905 3.52575 207.052 1.16598H214.32C215.443 3.52575 216.549 5.94296 217.63 8.4176C218.72 10.8921 219.81 13.5059 220.916 16.2591C222.022 19.0121 223.145 21.9456 224.3 25.0593C225.455 28.1729 226.668 31.5651 227.955 35.236H219.744ZM210.526 8.88455C210.354 9.37621 210.108 10.0563 209.772 10.9003C209.445 11.7525 209.068 12.7357 208.65 13.8582C208.232 14.9726 207.757 16.2016 207.241 17.5455C206.716 18.881 206.192 20.2904 205.651 21.7653H215.393C214.877 20.2904 214.369 18.8729 213.877 17.5291C213.394 16.1853 212.927 14.9563 212.485 13.8337C212.05 12.7193 211.665 11.736 211.329 10.8839C211.002 10.0317 210.731 9.36802 210.526 8.88455ZM246.932 35.9242C241.393 35.9242 237.173 34.3838 234.272 31.3029C231.372 28.222 229.921 23.8465 229.921 18.1764C229.921 15.3578 230.364 12.8422 231.249 10.6299C232.133 8.4176 233.346 6.54934 234.887 5.02527C236.427 3.5012 238.262 2.34587 240.393 1.55928C242.523 0.772689 244.834 0.379395 247.325 0.379395C248.767 0.379395 250.078 0.485939 251.258 0.698884C252.438 0.911972 253.47 1.1578 254.355 1.43636C255.24 1.71493 255.978 2.00168 256.568 2.29676C257.158 2.59169 257.584 2.82115 257.846 2.98499L255.633 9.17949C254.585 8.62236 253.364 8.14707 251.971 7.75378C250.578 7.36048 248.996 7.16391 247.227 7.16391C246.047 7.16391 244.891 7.36048 243.761 7.75378C242.63 8.14707 241.63 8.77801 240.762 9.64659C239.893 10.5152 239.197 11.6378 238.672 13.0142C238.148 14.3908 237.886 16.0624 237.886 18.029C237.886 19.6022 238.058 21.0688 238.402 22.429C238.746 23.7893 239.303 24.961 240.073 25.9441C240.844 26.9274 241.851 27.7058 243.097 28.2795C244.342 28.853 245.85 29.1397 247.62 29.1397C248.734 29.1397 249.734 29.0743 250.619 28.9432C251.504 28.8121 252.29 28.6564 252.979 28.4761C253.667 28.2958 254.273 28.0909 254.798 27.8615C255.322 27.6322 255.797 27.4191 256.223 27.2224L258.337 33.3678C257.256 34.0234 255.732 34.6133 253.765 35.1377C251.799 35.662 249.521 35.9242 246.932 35.9242ZM289.015 24.076C289.015 25.977 288.647 27.6485 287.909 29.0906C287.172 30.5327 286.123 31.7455 284.763 32.7286C283.402 33.7119 281.747 34.4494 279.797 34.9411C277.847 35.4327 275.676 35.6784 273.283 35.6784C271.906 35.6784 270.341 35.5802 268.588 35.3835C266.835 35.1869 265.056 34.8755 263.254 34.4494V1.16598H270.923V12.4735C271.284 12.4407 271.62 12.4243 271.931 12.4243C272.242 12.4243 272.578 12.4243 272.939 12.4243C278.281 12.4243 282.296 13.3748 284.984 15.2758C287.671 17.1768 289.015 20.1102 289.015 24.076ZM293.292 1.16598H300.962V35.236H293.292V1.16598ZM272.447 18.9139C272.283 18.9139 272.054 18.9139 271.759 18.9139C271.464 18.9139 271.186 18.9303 270.923 18.963V29.1397C271.284 29.1726 271.694 29.189 272.152 29.189C272.611 29.189 273.168 29.189 273.824 29.189C274.84 29.189 275.79 29.107 276.675 28.9432C277.56 28.7793 278.339 28.5006 279.011 28.1073C279.682 27.714 280.207 27.1896 280.584 26.5341C280.961 25.8786 281.149 25.0593 281.149 24.076C281.149 22.0766 280.404 20.7166 278.912 19.9954C277.421 19.2743 275.266 18.9139 272.447 18.9139ZM100.868 61.3317V76.3757C101.49 76.4412 102.236 76.515 103.105 76.597C103.973 76.6788 105.03 76.7199 106.276 76.7199C107.75 76.7199 109.16 76.6052 110.504 76.3757C111.847 76.1463 113.019 75.7366 114.019 75.1466C115.018 74.5567 115.821 73.7701 116.428 72.7868C117.034 71.8035 117.337 70.5581 117.337 69.0504C117.337 67.4771 117.05 66.1907 116.477 65.1912C115.903 64.1915 115.084 63.4049 114.019 62.8313C112.954 62.2578 111.667 61.8645 110.159 61.6514C108.652 61.4383 106.964 61.3317 105.096 61.3317H100.868ZM105.538 58.4803C107.963 58.4803 110.127 58.677 112.028 59.0703C113.929 59.4636 115.526 60.0782 116.821 60.9139C118.116 61.7497 119.107 62.8394 119.795 64.1833C120.484 65.527 120.828 67.1331 120.828 69.0012C120.828 72.5737 119.582 75.2368 117.091 76.9903C114.601 78.7437 110.946 79.6204 106.128 79.6204C104.751 79.6204 103.268 79.5468 101.679 79.3993C100.089 79.2517 98.7045 79.0142 97.5246 78.6864V45.2555H117.78V48.1561H100.868V58.4803H105.538ZM150.572 79.3255C149.924 77.654 149.326 76.0397 148.777 74.4993C148.228 72.9507 147.712 71.4511 147.212 69.9845H130.57C129.997 71.4595 129.44 72.967 128.899 74.5075C128.35 76.0561 127.776 77.6621 127.17 79.3255H123.679C124.974 75.7775 126.195 72.4754 127.35 69.411C128.497 66.3465 129.628 63.4458 130.734 60.7173C131.84 57.9805 132.938 55.3585 134.028 52.8348C135.118 50.3192 136.265 47.7874 137.47 45.2555H140.419C141.616 47.7792 142.755 50.3028 143.836 52.8266C144.918 55.3503 146.008 57.9805 147.122 60.7091C148.228 63.4458 149.359 66.3465 150.498 69.411C151.637 72.4754 152.89 75.7857 154.259 79.3255H150.572ZM138.846 49.0902C137.617 51.9171 136.413 54.793 135.241 57.7019C134.077 60.6189 132.865 63.7571 131.619 67.1331H146.155C144.901 63.7571 143.672 60.6108 142.484 57.6937C141.288 54.7767 140.075 51.9089 138.846 49.0902ZM180.954 45.2555H184.297V79.3255H180.954V62.9542H162.469V79.3255H159.126V45.2555H162.469V60.0535H180.954V45.2555ZM213.943 79.3255C212.828 77.6212 211.575 75.925 210.182 74.2534C208.789 72.5819 207.322 71.0087 205.782 69.5256C204.241 68.0508 202.676 66.7069 201.087 65.4943C199.497 64.2733 197.965 63.2573 196.49 62.438V79.3255H193.147V45.2555H196.49V61.1106C197.735 59.9962 199.12 58.7098 200.644 57.2595C202.176 55.8009 203.684 54.3343 205.175 52.8675C206.667 51.3927 208.068 49.9833 209.379 48.6395C210.69 47.3039 211.739 46.1732 212.533 45.2555H216.565C215.606 46.2715 214.459 47.476 213.115 48.8607C211.771 50.2537 210.346 51.6876 208.838 53.1626C207.33 54.6292 205.831 56.0795 204.331 57.5053C202.84 58.9229 201.505 60.1764 200.325 61.2581C201.275 61.8479 202.299 62.5772 203.397 63.4458C204.495 64.3144 205.61 65.273 206.74 66.3054C207.871 67.3378 208.986 68.4195 210.084 69.5503C211.181 70.6892 212.214 71.8281 213.181 72.9752C214.148 74.1224 215.016 75.2368 215.786 76.3266C216.557 77.4081 217.188 78.4078 217.679 79.3255H213.943Z" fill="#008B8A"/>
</svg>
