<svg width="42" height="42" viewBox="0 0 42 42" fill="none" xmlns="http://www.w3.org/2000/svg">
<circle cx="20.834" cy="20.8333" r="13" fill="#F3CC3F"/>
<path fill-rule="evenodd" clip-rule="evenodd" d="M0 20.8333C0 9.33333 9.33333 0 20.8333 0C32.3333 0 41.6667 9.33333 41.6667 20.8333V23.8125C41.6667 27.9167 38.4792 31.25 34.375 31.25C31.8958 31.25 29.5625 30.0417 28.2083 28.1875C26.3333 30.0833 23.7083 31.25 20.8333 31.25C15.0833 31.25 10.4167 26.5833 10.4167 20.8333C10.4167 15.0833 15.0833 10.4167 20.8333 10.4167C26.5833 10.4167 31.25 15.0833 31.25 20.8333V23.8125C31.25 25.4583 32.7292 27.0833 34.375 27.0833C36.0208 27.0833 37.5 25.4583 37.5 23.8125V20.8333C37.5 11.7917 29.875 4.16667 20.8333 4.16667C11.7917 4.16667 4.16667 11.7917 4.16667 20.8333C4.16667 29.875 11.7917 37.5 20.8333 37.5H31.25V41.6667H20.8333C9.33333 41.6667 0 32.3333 0 20.8333ZM14.584 20.8333C14.584 24.2916 17.3757 27.0833 20.834 27.0833C24.2923 27.0833 27.084 24.2916 27.084 20.8333C27.084 17.3749 24.2923 14.5833 20.834 14.5833C17.3757 14.5833 14.584 17.3749 14.584 20.8333Z" fill="#222445"/>
</svg>
