<svg width="50" height="50" viewBox="0 0 50 50" fill="none" xmlns="http://www.w3.org/2000/svg">
<path fill-rule="evenodd" clip-rule="evenodd" d="M8.33333 6.25H15.625C16.7708 6.25 17.7083 7.1875 17.7083 8.33333C17.7083 10.9375 18.125 13.4375 18.8958 15.7708C19.125 16.5 18.9583 17.3125 18.375 17.8958L13.7917 22.4792C16.7917 28.375 21.625 33.1875 27.5208 36.2083L32.1042 31.625C32.5208 31.2292 33.0417 31.0208 33.5833 31.0208C33.7917 31.0208 34.0208 31.0417 34.2292 31.125C36.5625 31.8958 39.0833 32.3125 41.6667 32.3125C42.8125 32.3125 43.75 33.25 43.75 34.3958V41.6667C43.75 42.8125 42.8125 43.75 41.6667 43.75C22.1042 43.75 6.25 27.8958 6.25 8.33333C6.25 7.1875 7.1875 6.25 8.33333 6.25ZM13.6256 10.4167C13.7506 12.2708 14.0631 14.0833 14.5631 15.8125L12.0631 18.3125C11.2089 15.8125 10.6672 13.1667 10.4797 10.4167H13.6256ZM34.1663 35.4583C35.9371 35.9583 37.7496 36.2708 39.5829 36.3958V39.5C36.8329 39.3125 34.1871 38.7708 31.6663 37.9375L34.1663 35.4583Z" fill="#F3CC3F"/>
<circle cx="31.875" cy="16.875" r="5.625" fill="#222445"/>
</svg>
