<svg width="39" height="38" viewBox="0 0 39 38" fill="none" xmlns="http://www.w3.org/2000/svg">
<path fill-rule="evenodd" clip-rule="evenodd" d="M34.6826 1C36.3395 1 37.6826 2.34314 37.6826 4V26.9214C37.6826 28.5782 36.3395 29.9214 34.6826 29.9214H8.7123L2.70705 35.9266C2.07708 36.5566 0.999939 36.1104 0.999939 35.2195V24.1371L1.04889 24.1563V4C1.04889 2.34315 2.39204 1 4.0489 1H34.6826Z" fill="white"/>
<path d="M8.7123 29.9214L8.00519 29.2143L8.29809 28.9214H8.7123V29.9214ZM0.999939 24.1371H-6.10352e-05V22.6696L1.36575 23.2064L0.999939 24.1371ZM1.04889 24.1563H2.04889V25.6238L0.683086 25.087L1.04889 24.1563ZM36.6826 4C36.6826 2.89543 35.7872 2 34.6826 2V0C36.8918 0 38.6826 1.79086 38.6826 4H36.6826ZM36.6826 26.9214V4H38.6826V26.9214H36.6826ZM34.6826 28.9214C35.7872 28.9214 36.6826 28.0259 36.6826 26.9214H38.6826C38.6826 29.1305 36.8917 30.9214 34.6826 30.9214V28.9214ZM8.7123 28.9214H34.6826V30.9214H8.7123V28.9214ZM1.99994 35.2195L8.00519 29.2143L9.41941 30.6285L3.41415 36.6337L1.99994 35.2195ZM1.99994 35.2195V35.2195L3.41415 36.6337C2.15422 37.8937 -6.10352e-05 37.0013 -6.10352e-05 35.2195H1.99994ZM1.99994 24.1371V35.2195H-6.10352e-05V24.1371H1.99994ZM0.683086 25.087L0.634132 25.0678L1.36575 23.2064L1.4147 23.2256L0.683086 25.087ZM2.04889 4V24.1563H0.048893V4H2.04889ZM4.0489 2C2.94433 2 2.04889 2.89543 2.04889 4H0.048893C0.048893 1.79086 1.83976 0 4.0489 0V2ZM34.6826 2H4.0489V0H34.6826V2Z" fill="#222445"/>
<path fill-rule="evenodd" clip-rule="evenodd" d="M29.0072 18.3529C30.6044 18.3529 31.8993 17.0581 31.8993 15.4608C31.8993 13.8635 30.6044 12.5687 29.0072 12.5687C27.4099 12.5687 26.115 13.8635 26.115 15.4608C26.115 17.0581 27.4099 18.3529 29.0072 18.3529ZM19.3659 18.3529C20.9632 18.3529 22.2581 17.058 22.2581 15.4607C22.2581 13.8635 20.9632 12.5686 19.3659 12.5686C17.7686 12.5686 16.4738 13.8635 16.4738 15.4607C16.4738 17.058 17.7686 18.3529 19.3659 18.3529ZM9.72697 18.3529C11.3243 18.3529 12.6191 17.058 12.6191 15.4607C12.6191 13.8635 11.3243 12.5686 9.72697 12.5686C8.12969 12.5686 6.83484 13.8635 6.83484 15.4607C6.83484 17.058 8.12969 18.3529 9.72697 18.3529Z" fill="#222445"/>
</svg>
