<svg width="394" height="68" viewBox="0 0 394 68" fill="none" xmlns="http://www.w3.org/2000/svg">
<path d="M73.9811 0.979858H62.7534V54.392H73.9811V0.979858Z" fill="#F3CC3F"/>
<path d="M27.6817 0C12.4183 0 0 12.4183 0 27.6816C0 42.945 12.4183 55.3644 27.6817 55.3644C42.9461 55.3644 55.3644 42.9451 55.3644 27.6816C55.3644 12.4182 42.9461 0 27.6817 0ZM44.1367 27.6816C44.1367 36.7549 36.7549 44.1357 27.6817 44.1357C18.6094 44.1357 11.2276 36.7549 11.2276 27.6816C11.2276 18.6084 18.6094 11.2277 27.6817 11.2277C36.7549 11.2277 44.1367 18.6084 44.1367 27.6816Z" fill="#F3CC3F"/>
<path d="M93.5515 0.979858L73.9834 27.6875L93.5515 54.392H107.025L87.4598 27.6875L107.028 0.979858H93.5515Z" fill="#F3CC3F"/>
<path d="M152.433 31.366C151.278 29.4087 149.356 27.7069 146.725 26.309C144.164 24.949 140.672 23.6948 136.343 22.5791C132.378 21.5804 129.348 20.7121 127.335 19.9988C124.948 19.1561 123.937 18.414 123.51 17.9388C122.925 17.2901 122.641 16.5121 122.641 15.5606C122.641 13.8784 123.433 12.5831 125.064 11.6019C126.782 10.5662 129.091 10.1023 131.921 10.2214C134.875 10.3404 137.296 11.0712 139.118 12.3932C140.421 13.3395 141.341 14.5548 141.856 16.0041L142.034 16.508H153.988L153.882 15.6561C153.486 12.4979 152.283 9.70202 150.305 7.34648C148.343 5.00732 145.747 3.17728 142.587 1.9066C139.453 0.647237 135.842 0.0078125 131.856 0.0078125C127.773 0.0078125 124.151 0.664684 121.091 1.95898C117.995 3.26965 115.557 5.1541 113.844 7.55894C112.121 9.97813 111.247 12.8459 111.247 16.081C111.247 18.7035 111.834 20.9769 112.991 22.8388C114.147 24.7017 116.093 26.3367 118.774 27.6997C121.376 29.0248 124.933 30.277 129.345 31.4204C133.308 32.4827 136.291 33.3808 138.212 34.0921C140.464 34.9296 141.366 35.6655 141.726 36.1346C142.235 36.8007 142.493 37.7039 142.493 38.8186C142.493 40.7841 141.737 42.2837 140.181 43.4035C138.573 44.5633 136.281 45.1524 133.37 45.1524C130.135 45.1524 127.406 44.4237 125.259 42.9878C123.557 41.8485 122.381 40.4239 121.661 38.6318L121.47 38.1566H109.446L109.603 39.0454C110.516 44.2041 113.038 48.2655 117.099 51.1157C121.117 53.9352 126.369 55.364 132.708 55.364C139.311 55.364 144.581 53.8634 148.372 50.9023C152.219 47.897 154.169 43.7042 154.169 38.4399C154.169 35.6953 153.585 33.3161 152.433 31.366Z" fill="#F3CC3F"/>
<path d="M225.236 26.2269L202.663 26.2906L202.685 34.5037L216.672 34.4791C215.98 36.771 214.816 38.8905 213.18 40.8355C209.457 45.0776 204.658 47.2043 198.784 47.2196C193.159 47.2351 188.575 45.4553 185.031 41.8804C181.486 38.3055 179.707 33.6323 179.691 27.8568C179.676 22.0824 181.43 17.398 184.957 13.8046C188.482 10.2112 193.056 8.40679 198.682 8.39244C204.257 8.37703 208.866 10.1825 212.511 13.8066C214.107 15.3965 215.356 17.1855 216.257 19.1726L224.845 19.15C223.79 15.569 222.14 12.4128 219.892 9.67953C214.798 3.32209 207.72 0.153623 198.66 0.178243C190.746 0.198791 184.107 2.82941 178.743 8.07117C173.381 13.313 170.711 19.9157 170.732 27.8815C170.753 35.8462 173.458 42.4336 178.848 47.6466C184.239 52.8597 190.892 55.4554 198.806 55.4338C207.667 55.4113 214.775 51.9092 220.135 44.9246C220.158 44.8939 220.18 44.8641 220.203 44.8333C223.576 40.2987 225.259 34.7265 225.244 29.0752L225.236 26.2269Z" fill="#F3CC3F"/>
<path d="M237.252 53.8393L237.151 15.7572L244.992 15.7367L245.006 21.3377L245.38 21.3366C245.925 20.2887 246.718 19.2921 247.762 18.3437C250.045 16.3463 252.73 15.3425 255.817 15.3343L260.297 15.322L260.317 22.79L255.465 22.8034C252.427 22.8116 249.929 23.7764 247.968 25.6978C246.005 27.6202 245.03 30.1472 245.038 33.2838L245.093 53.8187L237.252 53.8393Z" fill="#F3CC3F"/>
<path d="M270.208 48.7864C266.39 44.9888 264.473 40.3023 264.459 34.726C264.445 29.1527 266.335 24.4549 270.133 20.6357C273.933 16.8175 278.618 14.9013 284.193 14.8869C289.768 14.8725 294.466 16.7631 298.285 20.5608C302.102 24.3605 304.018 29.048 304.032 34.6213C304.048 40.1976 302.156 44.8944 298.359 48.7126C294.56 52.5297 289.872 54.448 284.298 54.4624C278.723 54.4778 274.027 52.5841 270.208 48.7864ZM275.859 25.4741C273.723 27.7937 272.661 30.8709 272.671 34.7044C272.682 38.538 273.76 41.6089 275.907 43.9183C278.054 46.2266 280.844 47.3772 284.28 47.368C287.715 47.3587 290.499 46.1938 292.633 43.8741C294.767 41.5535 295.831 38.4764 295.82 34.6439C295.81 30.8103 294.73 27.7383 292.584 25.4299C290.438 23.1216 287.648 21.971 284.213 21.9803C280.777 21.9885 277.993 23.1545 275.859 25.4741Z" fill="#F3CC3F"/>
<path d="M311.134 38.3367L311.074 15.5612L318.914 15.5406L318.973 37.5679C318.981 40.9047 319.723 43.3547 321.195 44.9179C322.667 46.4821 324.922 47.2601 327.958 47.2519C330.994 47.2437 333.494 46.2039 335.456 44.1337C337.416 42.0635 338.392 39.36 338.384 36.0242L338.329 15.4893L346.17 15.4688L346.271 53.5508L338.43 53.5714L338.417 48.344L338.042 48.345C337.448 49.3437 336.529 50.3413 335.287 51.339C332.604 53.3373 329.546 54.3422 326.111 54.3514C321.381 54.3648 317.707 53.0048 315.087 50.2726C312.466 47.5424 311.148 43.562 311.134 38.3367Z" fill="#F3CC3F"/>
<path d="M355.645 67.7138L355.507 15.445L363.347 15.4235L363.36 20.2772L363.734 20.2762C364.627 19.2303 365.643 18.3055 366.789 17.505C369.472 15.6072 372.43 14.6537 375.666 14.6455C380.793 14.6321 385.067 16.4498 388.486 20.0997C391.906 23.7495 393.624 28.513 393.639 34.3849C393.656 40.2589 391.962 45.0296 388.562 48.6979C385.161 52.3662 380.897 54.2076 375.77 54.2209C372.485 54.2301 369.521 53.3156 366.878 51.4815C365.681 50.6378 364.658 49.6956 363.809 48.6517L363.435 48.6528L363.485 67.6933L355.645 67.7138ZM366.323 25.0869C364.36 27.307 363.387 30.4323 363.398 34.465C363.408 38.4977 364.398 41.6189 366.372 43.8298C368.344 46.0396 370.972 47.1388 374.258 47.1306C377.743 47.1214 380.478 46.0201 382.464 43.8236C384.448 41.6292 385.436 38.4895 385.425 34.4065C385.415 30.3266 384.41 27.192 382.414 25.0058C380.416 22.8217 377.676 21.7327 374.191 21.7419C370.906 21.7511 368.283 22.8668 366.323 25.0869Z" fill="#F3CC3F"/>
</svg>
