<svg width="35" height="35" viewBox="0 0 35 35" fill="none" xmlns="http://www.w3.org/2000/svg">
<path fill-rule="evenodd" clip-rule="evenodd" d="M17.4892 34.6992H17.482C14.5793 34.6982 11.7272 33.97 9.194 32.5882L0 35L2.46047 26.0128C0.942731 23.3826 0.144106 20.399 0.145408 17.3423C0.149212 7.77984 7.92947 0 17.489 0C22.1286 0.00200239 26.4831 1.80817 29.7575 5.08644C33.032 8.36454 34.8343 12.7219 34.8325 17.356C34.8286 26.9163 27.0515 34.6953 17.4892 34.6992ZM9.61884 29.4484L10.1452 29.7608C12.3585 31.0742 14.8955 31.7692 17.4822 31.7702H17.488C25.4332 31.7702 31.8998 25.3034 31.903 17.355C31.9045 13.5032 30.4065 9.88149 27.6849 7.15672C24.9633 4.43195 21.344 2.93064 17.4937 2.92931C9.54235 2.92931 3.07567 9.3954 3.07252 17.3433C3.0714 20.0671 3.83351 22.7197 5.27649 25.0148L5.61924 25.5602L4.16299 30.8796L9.61884 29.4484ZM25.632 21.09C25.9342 21.2361 26.1383 21.3347 26.2255 21.4802C26.3338 21.6609 26.3338 22.5286 25.9728 23.541C25.6116 24.5532 23.8803 25.4771 23.0477 25.6015C22.3011 25.7131 21.3563 25.7596 20.3182 25.4297C19.6888 25.23 18.8817 24.9634 17.8478 24.5169C13.7852 22.7627 11.0397 18.8251 10.5208 18.081C10.4844 18.0288 10.459 17.9924 10.4448 17.9734L10.4413 17.9688C10.212 17.6628 8.67533 15.6125 8.67533 13.4905C8.67533 11.4944 9.65587 10.4481 10.1072 9.96653C10.1381 9.93353 10.1666 9.90319 10.192 9.87537C10.5892 9.44152 11.0588 9.33305 11.3476 9.33305C11.6365 9.33305 11.9257 9.33572 12.1782 9.3484C12.2094 9.34997 12.2418 9.34978 12.2753 9.34958C12.5278 9.3481 12.8426 9.34626 13.1532 10.0923C13.2727 10.3794 13.4475 10.805 13.6319 11.254C14.0048 12.1618 14.4168 13.1648 14.4893 13.31C14.5977 13.5269 14.6699 13.7799 14.5255 14.0692C14.5038 14.1126 14.4837 14.1536 14.4646 14.1927C14.3561 14.4142 14.2763 14.5771 14.0921 14.7921C14.0197 14.8766 13.9449 14.9678 13.87 15.0589C13.721 15.2405 13.5719 15.422 13.4421 15.5513C13.2251 15.7674 12.9993 16.0019 13.2521 16.4357C13.5049 16.8696 14.3746 18.2886 15.6629 19.4378C17.0477 20.673 18.2513 21.1951 18.8614 21.4597C18.9805 21.5114 19.077 21.5532 19.1478 21.5887C19.581 21.8057 19.8338 21.7693 20.0866 21.4802C20.3394 21.191 21.1699 20.2148 21.4588 19.781C21.7476 19.3473 22.0366 19.4196 22.4338 19.5641C22.8311 19.7089 24.9616 20.7571 25.395 20.974C25.4796 21.0164 25.5587 21.0546 25.632 21.09Z" fill="#9BA2A7"/>
</svg>
