<svg width="120" height="120" viewBox="0 0 120 120" fill="none" xmlns="http://www.w3.org/2000/svg">
<circle cx="61.0436" cy="58.4348" r="45.3913" fill="white"/>
<path fill-rule="evenodd" clip-rule="evenodd" d="M59.95 10C32.35 10 10 32.4 10 60C10 87.6 32.35 110 59.95 110C87.6 110 110 87.6 110 60C110 32.4 87.6 10 59.95 10ZM60 100C37.9 100 20 82.1 20 60C20 37.9 37.9 20 60 20C82.1 20 100 37.9 100 60C100 82.1 82.1 100 60 100ZM85 47.5C85 51.65 81.65 55 77.5 55C73.35 55 70 51.65 70 47.5C70 43.35 73.35 40 77.5 40C81.65 40 85 43.35 85 47.5ZM42.5 55C46.65 55 50 51.65 50 47.5C50 43.35 46.65 40 42.5 40C38.35 40 35 43.35 35 47.5C35 51.65 38.35 55 42.5 55ZM85.55 70C81.55 80.2 71.65 87.5 60 87.5C48.35 87.5 38.45 80.2 34.45 70H85.55Z" fill="#222445"/>
</svg>
