<svg width="100" height="100" viewBox="0 0 100 100" fill="none" xmlns="http://www.w3.org/2000/svg">
<path fill-rule="evenodd" clip-rule="evenodd" d="M49.9997 12.5V29.1667H91.6663V87.5H8.33301V12.5H49.9997ZM16.6663 79.1667H24.9997V70.8333H16.6663V79.1667ZM24.9997 62.5H16.6663V54.1667H24.9997V62.5ZM16.6663 45.8333H24.9997V37.5H16.6663V45.8333ZM24.9997 29.1667H16.6663V20.8333H24.9997V29.1667ZM33.333 79.1667H41.6663V70.8333H33.333V79.1667ZM41.6663 62.5H33.333V54.1667H41.6663V62.5ZM33.333 45.8333H41.6663V37.5H33.333V45.8333ZM41.6663 29.1667H33.333V20.8333H41.6663V29.1667ZM83.333 79.1667V37.5H49.9997V45.8333H58.333V54.1667H49.9997V62.5H58.333V70.8333H49.9997V79.1667H83.333ZM74.9997 45.8333H66.6663V54.1667H74.9997V45.8333ZM66.6663 62.5H74.9997V70.8333H66.6663V62.5Z" fill="#F3CC3F"/>
</svg>
