<svg width="394" height="58" viewBox="0 0 394 58" fill="none" xmlns="http://www.w3.org/2000/svg">
<g clip-path="url(#clip0_559_644)">
<path d="M21.2169 6.16333L1.81802 38.4948C-3.23378 46.8808 2.82837 57.4896 12.5278 57.4896H51.3256C61.0251 57.4896 67.0873 46.8808 62.0355 38.4948L42.6366 6.16333C37.7868 -2.02059 26.0667 -2.02059 21.2169 6.16333ZM40.3127 7.57783L59.8127 40.0104C62.5406 44.557 59.3075 50.4171 53.9526 50.4171H14.9527C9.59779 50.4171 6.2636 44.557 9.09261 40.0104L28.5926 7.57783C31.2195 3.13225 37.6858 3.13225 40.3127 7.57783Z" fill="#DAAB6B"/>
<path d="M32.6346 14.3472L19.702 35.8679C17.6813 39.2021 20.1062 43.4456 23.9456 43.4456H49.8108C53.6501 43.4456 56.075 39.2021 54.0543 35.8679L41.1217 14.3472C39.202 11.1141 34.5543 11.1141 32.6346 14.3472ZM41.0206 19.5001L49.5077 33.5441C50.3159 34.8575 49.3056 36.4741 47.8911 36.4741H30.917C29.4015 36.4741 28.4922 34.8575 29.3005 33.5441L37.7875 19.5001C38.4947 18.1866 40.3134 18.1866 41.0206 19.5001Z" fill="#DAAB6B"/>
<path d="M93.3578 43.0413C89.1143 43.0413 85.578 41.7278 82.85 38.9999C80.1221 36.2719 78.8086 32.8367 78.8086 28.5932C78.8086 24.3497 80.2231 20.9144 82.9511 18.1865C85.7801 15.4585 89.3163 14.145 93.6609 14.145C96.4899 14.145 99.1168 14.8523 101.34 16.1657C103.663 17.4792 105.381 19.3989 106.492 21.7227L101.138 24.6528C99.4199 21.7227 96.894 20.3082 93.7619 20.3082C91.3371 20.3082 89.4174 21.1165 87.8008 22.7331C86.2853 24.2486 85.477 26.2693 85.477 28.6942C85.477 31.1191 86.2853 33.0387 87.8008 34.6553C89.3163 36.2719 91.236 37.0802 93.5598 37.0802C95.0754 37.0802 96.4899 36.676 97.9044 35.8678C99.3189 35.0595 100.329 34.0491 100.935 32.7356L106.29 35.8678C105.078 38.0905 103.36 39.9092 101.037 41.2227C98.7127 42.4351 96.1868 43.0413 93.3578 43.0413Z" fill="#2FAD6F"/>
<path d="M137.309 28.0881C137.309 28.9974 137.208 29.9067 137.107 31.0181H116.092C116.496 32.9378 117.506 34.5544 118.921 35.6658C120.335 36.7772 122.255 37.3834 124.579 37.3834C127.913 37.3834 130.944 36.474 133.672 34.5544L136.299 39.3031C132.864 41.829 128.822 43.1424 124.276 43.1424C121.75 43.1424 119.527 42.7383 117.607 41.93C115.688 41.1217 114.071 40.0103 112.859 38.6968C111.646 37.2823 110.737 35.7668 110.232 34.1502C109.625 32.4326 109.322 30.715 109.322 28.7953C109.322 24.5518 110.636 21.1166 113.263 18.4896C115.991 15.7617 119.426 14.3472 123.669 14.3472C127.61 14.3472 130.944 15.5596 133.47 18.0855C135.996 20.4093 137.309 23.7435 137.309 28.0881ZM123.568 19.7021C121.649 19.7021 120.032 20.3083 118.618 21.4197C117.304 22.5311 116.395 24.0466 115.991 25.9663H130.742C130.439 24.0466 129.732 22.5311 128.418 21.4197C127.105 20.3083 125.488 19.7021 123.568 19.7021Z" fill="#2FAD6F"/>
<path d="M149.028 42.4351H142.461V14.8523H148.927V18.6916C149.634 17.2771 150.847 16.1657 152.362 15.3575C153.878 14.5492 155.697 14.145 157.616 14.145C160.647 14.145 163.173 15.1554 165.295 17.1761C167.417 19.1968 168.427 22.0258 168.427 25.6631V42.5361H161.759V27.4818C161.759 25.259 161.254 23.4403 160.142 22.1269C159.031 20.8134 157.616 20.2072 155.697 20.2072C153.777 20.2072 152.16 20.9144 150.847 22.2279C149.634 23.6424 148.927 25.36 148.927 27.5828L149.028 42.4351Z" fill="#2FAD6F"/>
<path d="M220.663 28.0881C220.663 28.9974 220.562 29.9067 220.461 31.0181H199.445C199.849 32.9378 200.86 34.5544 202.274 35.6658C203.689 36.7772 205.608 37.3834 207.932 37.3834C211.266 37.3834 214.297 36.474 217.025 34.5544L219.652 39.3031C216.217 41.829 212.176 43.1424 207.629 43.1424C205.103 43.1424 202.88 42.7383 200.961 41.93C199.041 41.1217 197.424 40.0103 196.212 38.6968C195 37.2823 194.09 35.7668 193.585 34.1502C192.979 32.4326 192.676 30.715 192.676 28.7953C192.676 24.5518 193.989 21.1166 196.616 18.4896C199.344 15.7617 202.779 14.3472 207.023 14.3472C210.963 14.3472 214.297 15.5596 216.823 18.0855C219.45 20.4093 220.663 23.7435 220.663 28.0881ZM207.023 19.7021C205.103 19.7021 203.487 20.3083 202.072 21.4197C200.759 22.5311 199.849 24.0466 199.445 25.9663H214.196C213.893 24.0466 213.186 22.5311 211.873 21.4197C210.559 20.3083 208.943 19.7021 207.023 19.7021Z" fill="#2FAD6F"/>
<path d="M232.485 42.4351H225.816V14.8523H232.182V18.6916C233.899 15.6606 236.425 14.145 239.86 14.145C240.972 14.145 242.083 14.3471 243.195 14.7512L242.588 21.1165C241.376 20.7124 240.366 20.5103 239.355 20.5103C237.233 20.5103 235.516 21.2175 234.303 22.632C233.091 24.0465 232.384 26.1683 232.384 28.9973V42.4351H232.485Z" fill="#2FAD6F"/>
<path d="M258.955 43.0413C254.712 43.0413 251.176 41.7278 248.448 38.9999C245.72 36.2719 244.406 32.8367 244.406 28.5932C244.406 24.3497 245.821 20.9144 248.549 18.1865C251.378 15.4585 254.914 14.145 259.259 14.145C262.088 14.145 264.715 14.8523 266.937 16.1657C269.261 17.4792 270.979 19.3989 272.09 21.7227L266.735 24.6528C265.018 21.7227 262.492 20.3082 259.36 20.3082C256.935 20.3082 255.015 21.1165 253.398 22.7331C251.883 24.2486 251.075 26.2693 251.075 28.6942C251.075 31.1191 251.883 33.0387 253.398 34.6553C254.914 36.2719 256.834 37.0802 259.158 37.0802C260.673 37.0802 262.088 36.676 263.502 35.8678C264.917 35.0595 265.927 34.0491 266.533 32.7356L271.888 35.8678C270.676 38.0905 268.958 39.9092 266.634 41.2227C264.31 42.4351 261.784 43.0413 258.955 43.0413Z" fill="#2FAD6F"/>
<path d="M283.102 42.4351H276.535V14.8523H282.9V18.6916C284.618 15.6606 287.144 14.145 290.579 14.145C291.691 14.145 292.802 14.3471 293.913 14.7512L293.307 21.1165C292.095 20.7124 291.084 20.5103 290.074 20.5103C287.952 20.5103 286.235 21.2175 285.022 22.632C283.81 24.0465 283.102 26.1683 283.102 28.9973V42.4351Z" fill="#2FAD6F"/>
<path d="M323.012 28.0881C323.012 28.9974 322.911 29.9067 322.81 31.0181H301.795C302.199 32.9378 303.209 34.5544 304.624 35.6658C306.038 36.7772 307.958 37.3834 310.282 37.3834C313.616 37.3834 316.647 36.474 319.375 34.5544L322.002 39.3031C318.567 41.829 314.525 43.1424 309.979 43.1424C307.453 43.1424 305.23 42.7383 303.31 41.93C301.391 41.1217 299.774 40.0103 298.562 38.6968C297.349 37.2823 296.44 35.7668 295.935 34.1502C295.328 32.4326 295.025 30.715 295.025 28.7953C295.025 24.5518 296.339 21.1166 298.966 18.4896C301.694 15.7617 305.129 14.3472 309.373 14.3472C313.313 14.3472 316.647 15.5596 319.173 18.0855C321.699 20.4093 323.012 23.7435 323.012 28.0881ZM309.373 19.7021C307.453 19.7021 305.836 20.3083 304.422 21.4197C303.108 22.5311 302.199 24.0466 301.795 25.9663H316.546C316.243 24.0466 315.536 22.5311 314.222 21.4197C312.808 20.3083 311.191 19.7021 309.373 19.7021Z" fill="#2FAD6F"/>
<path d="M349.08 18.3885V3.83936H355.648V42.5361H349.181V38.8988C346.858 41.7278 343.928 43.1424 340.391 43.1424C336.451 43.1424 333.117 41.7278 330.591 38.9999C327.964 36.1709 326.65 32.7356 326.65 28.5932C326.65 24.5517 327.964 21.1165 330.591 18.2875C333.218 15.4585 336.451 14.145 340.391 14.145C343.928 14.145 346.757 15.5595 349.08 18.3885ZM341.301 37.0802C343.725 37.0802 345.645 36.2719 347.161 34.6553C348.676 33.0388 349.383 31.018 349.383 28.6942C349.383 26.3704 348.575 24.3497 347.06 22.7331C345.645 21.1165 343.624 20.3082 341.301 20.3082C338.876 20.3082 336.956 21.1165 335.542 22.7331C334.026 24.3497 333.319 26.3704 333.319 28.6942C333.319 31.018 334.026 33.0388 335.542 34.6553C336.956 36.2719 338.977 37.0802 341.301 37.0802Z" fill="#2FAD6F"/>
<path d="M365.953 11.5181C364.74 11.5181 363.73 11.1139 362.921 10.3056C362.113 9.49735 361.709 8.48699 361.709 7.27456C361.709 6.06212 362.113 5.05176 362.921 4.34451C363.73 3.53622 364.74 3.13208 365.953 3.13208C367.165 3.13208 368.175 3.53622 368.883 4.34451C369.691 5.1528 370.095 6.16316 370.095 7.27456C370.095 8.48699 369.691 9.49735 368.883 10.3056C368.175 11.1139 367.165 11.5181 365.953 11.5181ZM369.186 14.8523V42.4351H362.517V14.8523H369.186Z" fill="#2FAD6F"/>
<path d="M391.516 35.6657L393.637 40.8185C391.516 42.334 388.788 43.1423 385.656 43.1423C379.391 43.1423 376.158 39.505 376.158 32.3315L376.259 5.05176H382.827V14.8522H392.122V20.4092H382.827V32.0284C382.827 35.3626 384.14 36.9791 386.868 36.9791C388.384 37.0802 389.899 36.575 391.516 35.6657Z" fill="#2FAD6F"/>
<path d="M188.938 35.6657L191.059 40.8185C188.938 42.334 186.21 43.1423 183.077 43.1423C176.813 43.1423 173.58 39.505 173.58 32.3315L173.681 5.05176H180.248V14.8522H189.544V20.4092H180.248V32.0284C180.248 35.3626 181.562 36.9791 184.29 36.9791C185.805 37.0802 187.422 36.575 188.938 35.6657Z" fill="#2FAD6F"/>
</g>
<defs>
<clipPath id="clip0_559_644">
<rect width="393.636" height="57.4895" fill="white"/>
</clipPath>
</defs>
</svg>
