<svg width="39" height="38" viewBox="0 0 39 38" fill="none" xmlns="http://www.w3.org/2000/svg">
<path fill-rule="evenodd" clip-rule="evenodd" d="M34.6836 1C36.3404 1 37.6836 2.34314 37.6836 4V26.9214C37.6836 28.5782 36.3404 29.9214 34.6836 29.9214H8.71248L2.70711 35.9267C2.07714 36.5567 1 36.1105 1 35.2196V24.1372L1.04987 24.1568V4C1.04987 2.34315 2.39302 1 4.04987 1H34.6836Z" fill="white"/>
<path d="M8.71248 29.9214L8.00537 29.2143L8.29827 28.9214H8.71248V29.9214ZM2.70711 35.9267L3.41422 36.6338H3.41421L2.70711 35.9267ZM1 24.1372H0V22.6697L1.36582 23.2065L1 24.1372ZM1.04987 24.1568H2.04987V25.6243L0.684052 25.0875L1.04987 24.1568ZM36.6836 4C36.6836 2.89543 35.7882 2 34.6836 2V0C36.8927 0 38.6836 1.79086 38.6836 4H36.6836ZM36.6836 26.9214V4H38.6836V26.9214H36.6836ZM34.6836 28.9214C35.7882 28.9214 36.6836 28.0259 36.6836 26.9214H38.6836C38.6836 29.1305 36.8927 30.9214 34.6836 30.9214V28.9214ZM8.71248 28.9214H34.6836V30.9214H8.71248V28.9214ZM2 35.2196L8.00537 29.2143L9.41959 30.6285L3.41422 36.6338L2 35.2196ZM2 35.2196L2 35.2196L3.41421 36.6338C2.15429 37.8938 0 37.0014 0 35.2196H2ZM2 24.1372V35.2196H0V24.1372H2ZM0.684052 25.0875L0.634182 25.0679L1.36582 23.2065L1.41569 23.2261L0.684052 25.0875ZM2.04987 4V24.1568H0.0498695V4H2.04987ZM4.04987 2C2.9453 2 2.04987 2.89543 2.04987 4H0.0498695C0.0498695 1.79086 1.84074 0 4.04987 0V2ZM34.6836 2H4.04987V0H34.6836V2Z" fill="#222445"/>
<path fill-rule="evenodd" clip-rule="evenodd" d="M29.0063 18.3529C30.6036 18.3529 31.8984 17.058 31.8984 15.4607C31.8984 13.8635 30.6036 12.5686 29.0063 12.5686C27.409 12.5686 26.1142 13.8635 26.1142 15.4607C26.1142 17.058 27.409 18.3529 29.0063 18.3529ZM19.3657 18.3529C20.963 18.3529 22.2578 17.058 22.2578 15.4607C22.2578 13.8635 20.963 12.5686 19.3657 12.5686C17.7684 12.5686 16.4735 13.8635 16.4735 15.4607C16.4735 17.058 17.7684 18.3529 19.3657 18.3529ZM9.72701 18.3529C11.3243 18.3529 12.6191 17.058 12.6191 15.4607C12.6191 13.8635 11.3243 12.5686 9.72701 12.5686C8.12972 12.5686 6.83487 13.8635 6.83487 15.4607C6.83487 17.058 8.12972 18.3529 9.72701 18.3529Z" fill="#222445"/>
</svg>
