<svg width="386" height="101" viewBox="0 0 386 101" fill="none" xmlns="http://www.w3.org/2000/svg">
<g clip-path="url(#clip0_559_665)">
<path fill-rule="evenodd" clip-rule="evenodd" d="M33.6445 29.1868V41.8816H79.616V67.3191H33.6445C33.6445 67.3191 33.7008 97.012 33.6975 97.0649C37.2879 98.7188 41.0024 100.009 44.7632 100.791C67.1131 96.147 88.1448 76.2019 88.8031 40.7884L89.0263 29.1868H33.6445Z" fill="#397B23"/>
<path d="M89.0505 29.1868L89.4805 1.75306C74.7217 0.59538 59.8041 0 44.7477 0C29.6846 0 14.7637 0.59538 0 1.75636L0.276189 23.2016L0.694606 40.7884C0.694606 40.7884 0.848416 57.1084 6.32424 68.7646C15.3624 90.0147 33.6951 97.0649 33.6951 97.0649L33.6455 67.3192H79.6187V41.8816H33.6455V29.1868H89.0505Z" fill="#76B82A"/>
<path d="M132.796 19.4785V26.0905H146.565V33.4683H132.796V45.8373H123.799V12.0991H147.73V19.4785H132.796Z" fill="black"/>
<path d="M172.606 36.8869H165.63V45.8358H156.635V12.0977H174.005C176.79 12.144 179.008 12.4417 180.648 12.994C182.291 13.5464 183.528 14.5503 184.356 16.009C185.183 17.466 185.597 19.568 185.597 22.3117C185.597 24.6337 185.494 26.3884 185.294 27.5775C185.092 28.7683 184.537 29.7986 183.625 30.6751C182.714 31.5517 181.242 32.2264 179.218 32.6994V33.0649C181.103 33.1294 182.588 33.6719 183.67 34.6939C184.748 35.7177 185.289 37.1664 185.289 39.0468V45.8358H176.282V41.1125C176.282 38.2943 175.057 36.8869 172.606 36.8869ZM165.63 29.056H172.606C173.782 29.056 174.633 28.9006 175.159 28.5897C175.68 28.2771 176.008 27.7826 176.14 27.1095C176.274 26.438 176.339 25.3333 176.339 23.7919C176.339 22.2786 176.087 21.2566 175.579 20.7257C175.073 20.1948 174.081 19.9285 172.606 19.9285H165.63V29.056Z" fill="black"/>
<path d="M204.219 19.4788V25.6409H218.614V31.8875H204.219V38.4565H219.878V45.8375H195.223V12.0994H219.56V19.4788H204.219Z" fill="black"/>
<path d="M238.913 19.4788V25.6409H253.309V31.8875H238.913V38.4565H254.571V45.8375H229.916V12.0994H254.254V19.4788H238.913Z" fill="black"/>
<path d="M264.326 45.8346V12.0981H281.414C284.605 12.0981 287.194 12.5265 289.177 13.3815C291.165 14.2415 292.627 15.6258 293.576 17.5459C294.525 19.4643 294.998 22.0129 294.998 25.1899V32.2501C294.998 35.4138 294.614 37.9856 293.844 39.9652C293.076 41.9465 291.79 43.4184 289.979 44.3859C288.171 45.3517 285.722 45.8346 282.632 45.8346H264.326ZM273.321 19.929V38.0037H281.187C284.217 38.0037 285.73 36.0886 285.73 32.2501V25.1899C285.73 23.7593 285.575 22.6694 285.264 21.912C284.951 21.1545 284.476 20.6352 283.831 20.3524C283.188 20.0696 282.307 19.929 281.187 19.929L273.321 19.929Z" fill="black"/>
<path d="M319.258 46.1105C316.76 46.1105 314.59 45.9385 312.745 45.5945C310.901 45.2505 309.297 44.6336 307.932 43.7439C306.576 42.8558 305.519 41.5922 304.773 39.9549C304.024 38.3177 303.65 36.2438 303.65 33.7349V24.1989C303.65 21.69 304.024 19.6128 304.78 17.9673C305.529 16.325 306.583 15.0632 307.939 14.1783C309.3 13.2985 310.901 12.6849 312.745 12.3393C314.59 11.9953 316.76 11.825 319.258 11.825C321.761 11.825 323.938 11.9953 325.787 12.3393C327.634 12.6849 329.237 13.2985 330.596 14.1783C331.954 15.0632 333.006 16.325 333.753 17.9673C334.499 19.6128 334.871 21.69 334.871 24.1989V33.7349C334.871 36.2438 334.503 38.3177 333.758 39.9549C333.016 41.5922 331.964 42.8558 330.6 43.7439C329.24 44.6336 327.634 45.2505 325.787 45.5945C323.938 45.9385 321.761 46.1105 319.258 46.1105ZM319.258 38.2796C320.976 38.2796 322.269 38.1605 323.128 37.9207C323.988 37.6842 324.618 37.1749 325.011 36.3893C325.405 35.607 325.605 34.3915 325.605 32.7443V25.1466C325.605 23.8781 325.493 22.8841 325.269 22.1663C325.046 21.442 324.694 20.8979 324.212 20.5373C323.726 20.1768 323.101 19.9386 322.337 19.8245C321.573 19.7104 320.544 19.6558 319.258 19.6558C317.551 19.6558 316.277 19.7716 315.434 20.0048C314.594 20.2413 313.977 20.7407 313.58 21.5098C313.183 22.2805 312.963 23.4911 312.922 25.1466V32.7443C312.963 34.4063 313.183 35.6269 313.573 36.4025C313.965 37.1782 314.582 37.6842 315.432 37.9207C316.274 38.1605 317.551 38.2796 319.258 38.2796Z" fill="black"/>
<path d="M352.348 19.9728L353.249 45.837H344.256V12.0989H358.51L364.945 33.2844H365.266L371.38 12.0989H386V45.837H377.005L377.905 19.9728H377.584L369.042 45.837H361.254L352.624 19.9728H352.348Z" fill="black"/>
<path d="M135.049 64.2823V67.1616H128.887V87.899H125.29V67.1616H121.691V64.2823H125.29V60.7745C125.29 58.1648 125.881 56.3423 127.065 55.3086C128.249 54.275 130.174 53.7573 132.845 53.7573L135.049 53.8929V56.8119C134.421 56.726 133.774 56.6813 133.116 56.6813H132.484C131.135 56.6813 130.2 56.9724 129.674 57.5578C129.149 58.1449 128.887 59.1257 128.887 60.505V64.2823H135.049Z" fill="black"/>
<path d="M144.663 58.0305H141.062V54.1638H144.663V58.0305ZM144.663 87.897H141.062V64.3266H144.663V87.897Z" fill="black"/>
<path d="M156.345 73.4591V87.897H152.748V64.3283H156.122V67.3416C156.96 66.0251 158.116 65.0924 159.583 64.5516C160.754 64.1348 162.284 63.9231 164.173 63.9231C167.383 63.9231 169.624 64.5168 170.897 65.701C172.172 66.8851 172.811 69.0814 172.811 72.2915V87.897H169.21V72.6504C169.21 70.2788 168.851 68.7225 168.132 67.9733C167.411 67.2225 165.851 66.8471 163.453 66.8471C161.085 66.8471 159.307 67.3564 158.123 68.3785C156.939 69.3973 156.345 71.0891 156.345 73.4591Z" fill="black"/>
<path d="M196.873 76.3835V73.0097C196.873 70.1635 196.467 68.3707 195.655 67.6348C194.848 66.9005 192.958 66.5333 189.988 66.5333C187.828 66.5333 186.359 66.7665 185.58 67.2296C184.801 67.6943 184.411 68.6601 184.411 70.1304V70.8052H180.814C180.814 67.868 181.695 65.9165 183.468 64.9589C184.729 64.2676 186.958 63.9236 190.17 63.9236C193.828 63.9236 196.362 64.3883 197.771 65.3178C199.57 66.487 200.47 68.7958 200.47 72.2457V87.8992H197.096L197.232 84.9305C196.42 86.4008 195.525 87.3335 194.533 87.7404C193.544 88.1472 191.8 88.349 189.315 88.349C186.103 88.349 183.826 87.8992 182.476 86.9995C180.829 85.8881 180.002 83.8192 180.002 80.791C180.002 77.9448 180.814 75.9949 182.433 74.9431C183.753 74.0748 185.941 73.6382 189 73.6382C191.698 73.6382 193.552 73.835 194.554 74.2236C195.56 74.6139 196.332 75.3334 196.873 76.3835ZM196.873 81.0176C196.873 78.9784 196.385 77.6967 195.416 77.1708C194.443 76.6465 192.311 76.3835 189.027 76.3835C187.082 76.3835 185.739 76.625 184.992 77.103C184.064 77.7049 183.599 78.813 183.599 80.4321C183.599 82.4134 184.004 83.7613 184.813 84.479C185.618 85.1985 187.041 85.5606 189.072 85.5606C191.88 85.5606 193.749 85.3638 194.675 84.9752C196.138 84.3748 196.873 83.0551 196.873 81.0176Z" fill="black"/>
<path d="M212.132 73.4591V87.897H208.535V64.3283H211.909V67.3416C212.746 66.0251 213.9 65.0924 215.37 64.5516C216.54 64.1348 218.071 63.9231 219.96 63.9231C223.168 63.9231 225.408 64.5168 226.683 65.701C227.959 66.8851 228.596 69.0814 228.596 72.2915V87.897H224.997V72.6504C224.997 70.2788 224.635 68.7225 223.917 67.9733C223.198 67.2225 221.638 66.8471 219.24 66.8471C216.872 66.8471 215.094 67.3564 213.91 68.3785C212.723 69.3973 212.132 71.0891 212.132 73.4591Z" fill="black"/>
<path d="M252.881 79.3508H256.343C256.343 82.8933 255.549 85.3045 253.96 86.5945C252.519 87.7638 249.924 88.3476 246.178 88.3476C242.249 88.3476 239.581 87.4942 238.174 85.7842C236.76 84.0725 236.059 80.8673 236.059 76.1589C236.059 71.4785 236.755 68.2701 238.147 66.5336C239.543 64.7937 242.188 63.9238 246.087 63.9238C249.359 63.9238 251.742 64.4034 253.24 65.361C255.038 66.5005 255.941 68.4669 255.941 71.2553V72.0193H252.519C252.519 70.0414 252.147 68.7051 251.395 68.0171C250.518 67.2365 248.743 66.8478 246.066 66.8478C243.42 66.8478 241.685 67.4184 240.875 68.5595C240.064 69.6957 239.654 72.1996 239.654 76.0696C239.654 79.8767 240.087 82.3905 240.942 83.6028C241.801 84.8167 243.537 85.4253 246.155 85.4253C248.922 85.4253 250.74 85.0284 251.595 84.2312C252.451 83.439 252.881 81.81 252.881 79.3508Z" fill="black"/>
<path d="M283.622 76.7873H266.708C266.708 80.3546 267.133 82.7031 267.984 83.8293C268.832 84.9523 270.64 85.5129 273.41 85.5129C276.178 85.5129 277.978 85.25 278.796 84.7274C279.613 84.2031 280.022 83.1149 280.022 81.466V80.7019H283.622C283.622 83.8492 282.752 85.9644 281.012 87.0427C279.631 87.9143 277.098 88.3476 273.41 88.3476C269.452 88.3476 266.743 87.4942 265.291 85.7858C263.837 84.0758 263.111 80.8376 263.111 76.0696C263.111 71.5116 263.89 68.3462 265.45 66.5766C267.008 64.8086 269.647 63.9238 273.363 63.9238C277.022 63.9238 279.648 64.7474 281.239 66.3947C282.825 68.0468 283.622 70.9113 283.622 74.9863V76.7873ZM280.022 74.0436C280.022 71.3148 279.542 69.4179 278.588 68.3528C277.634 67.291 275.882 66.7568 273.342 66.7568C270.802 66.7568 269.062 67.291 268.121 68.3528C267.178 69.4179 266.708 71.3148 266.708 74.0436H280.022Z" fill="black"/>
</g>
<defs>
<clipPath id="clip0_559_665">
<rect width="386" height="100.791" fill="white"/>
</clipPath>
</defs>
</svg>
