<svg width="534" height="251" viewBox="0 0 534 251" fill="none" xmlns="http://www.w3.org/2000/svg">
<g clip-path="url(#clip0_556_1576)">
<path d="M218.117 25.8361C221.273 26.5518 221.931 27.3554 221.931 30.55C221.933 53.8839 221.932 77.2178 221.932 100.552C221.932 105.25 221.441 105.84 216.835 106.696C216.557 106.748 216.286 106.833 216 106.906V110.062H244.639V106.823C244.128 106.752 243.757 106.716 243.391 106.648C239.22 105.878 238.607 105.14 238.607 100.912C238.606 88.2391 238.607 75.5657 238.607 62.8923V60.1633C242.935 61.9584 246.893 63.5993 250.891 65.2574V68.0601C250.891 85.1319 250.891 102.204 250.891 119.275C250.891 123.559 250.155 124.417 245.93 125.08C245.576 125.135 245.228 125.225 244.839 125.306V128.579H263.253V70.3908C266.778 71.8441 269.829 73.2128 272.965 74.3487C274.576 74.9321 275.039 75.7963 275.033 77.466C274.97 93.6429 274.995 109.82 274.995 125.997V128.594H293.469V125.314C287.673 124.281 287.356 123.899 287.356 118.174C287.356 100.655 287.355 83.1363 287.361 65.6175C287.361 64.8431 287.425 64.0688 287.47 63.0259C290.831 64.4127 293.882 65.7845 297.019 66.9197C298.678 67.5204 299.26 68.3448 299.241 70.1571C299.139 80.0712 299.193 89.9868 299.193 99.9019C299.193 105.616 299.08 105.748 293.41 106.81C293.293 106.832 293.204 107 292.995 107.205C293.038 108.109 293.087 109.108 293.135 110.103H321.819V106.95C317.851 106.036 315.867 103.568 315.867 99.5446C315.867 77.478 315.836 55.4113 315.888 33.3449C315.902 27.1051 314.659 27.2041 321.786 25.2666V22.3211H293.147V25.3665C293.771 25.508 294.276 25.6298 294.784 25.7364C298.589 26.5344 299.193 27.2673 299.193 31.1059C299.193 39.3809 299.193 47.6558 299.193 55.9308C299.193 56.718 299.193 57.5053 299.193 58.698C295.244 57.0548 291.674 55.6232 288.171 54.0445C287.722 53.8422 287.392 52.8751 287.39 52.261C287.347 38.395 287.345 24.5287 287.368 10.6626C287.373 7.86869 288.478 6.40419 291.099 5.47366C291.864 5.20192 292.658 5.00872 293.402 4.79039V0H244.812V4.73185C250.571 6.61378 250.891 7.0584 250.891 13.0219C250.891 26.4408 250.891 39.8596 250.891 53.2785V56.0626C247.185 54.5335 243.785 53.0608 240.327 51.7404C238.995 51.2317 238.555 50.5086 238.576 49.1043C238.654 43.887 238.607 38.6679 238.607 33.4495C238.607 29.2312 240.61 26.5028 244.617 25.2644V22.2557H216.109C215.77 24.2622 216.439 25.4557 218.117 25.8361ZM274.99 66.0648C271.117 64.4592 267.527 62.9835 263.956 61.4654C263.671 61.3445 263.329 60.933 263.324 60.6504C263.274 58.1776 263.295 55.7034 263.295 52.9936C267.076 54.5539 270.454 55.8983 273.775 57.3695C274.309 57.6058 274.901 58.3896 274.935 58.9523C275.068 61.1646 274.99 63.3896 274.99 66.0648ZM263.278 10.0372C263.289 7.49735 264.845 5.95465 267.739 5.23032C270.18 4.61936 273.581 5.64469 274.581 7.37688C274.86 7.86006 274.976 8.50204 274.976 9.0715C274.996 21.874 274.991 34.6767 274.981 47.4793C274.981 47.7556 274.878 48.0319 274.771 48.57C271.093 47.0431 267.532 45.6104 264.028 44.0492C263.61 43.863 263.289 42.9781 263.287 42.4156C263.244 31.623 263.229 20.8299 263.278 10.0372Z" fill="white"/>
<path d="M193.081 203.963C193.462 203.959 194.196 203.244 194.141 203.005C194.019 202.477 193.586 201.781 193.119 201.62C192.004 201.234 190.756 201.231 189.642 200.843C189.094 200.652 188.344 199.958 188.334 199.479C188.238 194.663 188.275 189.844 188.275 184.967H205.632C205.632 188.79 205.647 192.436 205.628 196.081C205.613 199.025 204.145 200.833 201.223 201.506C201.006 201.556 200.684 201.497 200.578 201.626C200.198 202.09 199.748 202.581 199.63 203.128C199.587 203.329 200.391 203.97 200.813 203.974C206.551 204.032 212.29 204.013 218.113 204.013C219.028 201.679 217.427 201.387 216.166 201.247C213.939 201.001 213.451 199.85 213.472 197.792C213.565 188.629 213.579 179.464 213.466 170.302C213.437 167.949 213.861 166.447 216.538 166.253C217.97 166.149 218.947 165.43 218.095 163.505C212.377 163.505 206.571 163.486 200.766 163.547C200.36 163.552 199.596 164.207 199.633 164.471C199.707 164.993 200.127 165.727 200.577 165.887C201.759 166.308 203.061 166.387 204.261 166.77C204.78 166.935 205.547 167.505 205.555 167.904C205.647 172.415 205.614 176.928 205.614 181.398H188.27C188.27 178.046 188.27 174.855 188.27 171.664C188.27 167.215 188.263 167.181 192.53 166.173C193.96 165.835 194.667 165.248 193.896 163.504C188.176 163.504 182.37 163.485 176.566 163.546C176.16 163.551 175.479 164.117 175.431 164.487C175.374 164.921 175.756 165.604 176.154 165.859C176.69 166.203 177.413 166.311 178.072 166.4C179.76 166.628 180.324 167.448 180.305 169.223C180.204 178.529 180.168 187.839 180.317 197.144C180.357 199.671 179.933 201.272 177.092 201.442C175.621 201.531 174.928 202.276 175.693 204.007C181.465 204.007 187.273 204.026 193.081 203.963Z" fill="white"/>
<path d="M157.68 203.873C158.039 202.406 157.749 201.698 156.328 201.442C155.355 201.267 154.086 200.887 153.598 200.164C150.243 195.184 147.058 190.09 143.744 184.918C144.851 184.472 145.693 184.179 146.494 183.802C149.624 182.326 151.893 180.102 152.509 176.558C153.588 170.352 150.061 164.877 143.285 164.152C135.463 163.315 127.513 163.656 119.618 163.552C119.231 163.547 118.553 164.155 118.519 164.525C118.478 164.958 118.889 165.61 119.295 165.864C119.837 166.204 120.552 166.328 121.21 166.414C122.985 166.645 123.609 167.475 123.585 169.371C123.471 178.607 123.534 187.846 123.534 197.083C123.534 200.468 123.542 200.499 120.328 201.358C119.057 201.697 117.988 202.044 118.724 203.995C124.581 203.995 130.529 204.01 136.475 203.956C136.816 203.953 137.486 203.282 137.429 203.105C137.254 202.557 136.898 201.817 136.437 201.659C135.251 201.252 133.944 201.203 132.741 200.832C132.231 200.675 131.49 200.077 131.482 199.666C131.392 195.153 131.425 190.636 131.425 186.221C134.75 185.383 136.85 186.187 138.396 189.304C140.473 193.492 143.079 197.424 145.565 201.399C146.164 202.358 147.128 203.681 148.02 203.76C151.237 204.046 154.496 203.873 157.68 203.873ZM137.828 182.248C135.795 182.5 133.704 182.292 131.4 182.292C131.4 177.498 131.345 173.038 131.465 168.583C131.481 167.984 132.346 166.942 132.874 166.906C134.783 166.775 136.775 166.714 138.627 167.123C142.505 167.98 144.843 171.175 144.667 174.872C144.487 178.642 141.727 181.763 137.828 182.248Z" fill="white"/>
<path d="M263.553 183.791C263.564 170.987 255.431 162.523 243.103 162.509C230.449 162.494 221.974 170.971 221.932 183.683C221.89 196.557 230.264 205.223 242.74 205.216C254.944 205.209 263.542 196.358 263.553 183.791ZM241.551 201.632C236.487 201.378 233.381 198.532 231.906 193.993C229.809 187.538 229.685 180.939 231.884 174.475C234.112 167.926 239.523 164.919 246.059 166.302C249.57 167.045 252.048 169.233 253.09 172.512C254.223 176.078 254.747 179.837 255.536 183.512C255.346 183.551 255.157 183.591 254.967 183.63C255.119 187.706 254.57 191.655 252.666 195.314C250.335 199.793 246.625 201.886 241.551 201.632Z" fill="white"/>
<path d="M488.249 163.607C487.647 165.206 488.198 165.895 489.613 166.108C490.643 166.264 491.717 166.378 492.659 166.774C493.251 167.022 494.047 167.754 494.054 168.278C494.167 176.322 494.356 184.372 494.122 192.409C493.965 197.775 489.638 201.248 484.138 201.07C478.163 200.877 474.995 197.766 474.964 191.858C474.929 184.932 474.968 178.004 475.074 171.079C475.135 167.124 475.216 167.085 479.199 166.211C480.769 165.866 481.398 165.208 480.57 163.504C474.835 163.504 469.098 163.484 463.363 163.546C462.955 163.55 462.276 164.108 462.221 164.482C462.156 164.917 462.526 165.586 462.915 165.874C463.36 166.204 464.025 166.306 464.61 166.368C466.529 166.573 467.125 167.549 467.095 169.49C466.979 176.864 467.029 184.241 467.054 191.617C467.077 198.236 470.581 202.952 476.953 204.46C479.447 205.05 482.14 205.247 484.697 205.043C493.166 204.367 499.155 199.498 498.753 189.485C498.491 182.943 498.883 176.377 498.749 169.826C498.704 167.622 499.346 166.543 501.511 166.259C502.986 166.066 503.818 165.336 503.064 163.607H488.249Z" fill="white"/>
<path d="M343.128 201.444C341.711 201.834 341.284 202.467 341.844 203.828H373.687V194.613C371.474 194.35 370.27 195.211 370.078 197.195C370.019 197.788 370.039 198.441 369.783 198.945C369.533 199.435 368.992 200.099 368.551 200.121C364.38 200.324 360.204 200.449 356.029 200.464C355.532 200.466 354.609 199.684 354.6 199.249C354.495 194.589 354.535 189.926 354.535 185.085H361.168C364.87 185.085 364.807 185.108 366.093 188.648C366.299 189.216 367.318 189.673 368.025 189.788C368.329 189.837 369.121 188.888 369.136 188.377C369.235 184.885 369.225 181.387 369.137 177.893C369.125 177.432 368.455 176.603 368.112 176.614C367.432 176.636 366.526 176.955 366.16 177.468C365.723 178.08 365.922 179.119 365.536 179.798C365.158 180.461 364.415 181.335 363.792 181.368C360.758 181.53 357.71 181.441 354.52 181.441C354.52 177.229 354.603 173.228 354.481 169.233C354.428 167.475 355.189 167.027 356.721 167.072C359.629 167.158 362.541 167.16 365.449 167.257C368.532 167.36 368.531 167.39 368.805 170.516C369.048 173.299 369.241 173.437 372.319 172.858V163.656C371.861 163.59 371.572 163.512 371.284 163.511C361.951 163.503 352.619 163.501 343.287 163.499C343.138 163.499 342.948 163.444 342.846 163.514C342.419 163.806 341.737 164.095 341.682 164.464C341.617 164.898 341.992 165.567 342.382 165.855C342.829 166.185 343.494 166.285 344.079 166.349C345.962 166.555 346.583 167.459 346.558 169.424C346.442 178.583 346.507 187.745 346.507 196.905C346.507 200.446 346.524 200.51 343.128 201.444Z" fill="white"/>
<path d="M302.539 190.77C302.554 183.841 302.68 176.91 302.532 169.985C302.483 167.714 303.043 166.51 305.387 166.248C306.911 166.078 307.634 165.249 306.786 163.503C302.266 163.503 297.724 163.473 293.184 163.551C292.736 163.559 291.934 164.248 291.948 164.594C291.968 165.066 292.529 165.748 293.009 165.921C294.12 166.321 295.385 166.318 296.461 166.776C297.082 167.04 297.871 167.876 297.879 168.464C297.986 176.434 298.079 184.408 297.946 192.378C297.858 197.607 293.531 201.231 288.009 201.071C282.137 200.9 278.826 197.726 278.801 192.108C278.769 185.18 278.797 178.251 278.848 171.322C278.878 167.152 278.91 167.108 282.993 166.211C284.57 165.864 285.193 165.213 284.435 163.609H266.282C265.589 165.649 266.713 166.16 268.096 166.298C270.41 166.528 271.065 167.698 271.018 169.99C270.868 177.363 270.929 184.741 270.973 192.117C271.009 198.157 274.41 202.635 280.195 204.359C284.001 205.494 287.859 205.507 291.692 204.577C298.889 202.829 302.523 198.15 302.539 190.77Z" fill="white"/>
<path d="M115.95 201.446C113.999 201.067 113.138 199.979 112.54 198.164C109.353 188.494 106.038 178.865 102.784 169.216C100.641 162.863 100.654 162.918 94.0112 162.916C92.2847 162.915 91.5186 163.562 90.966 165.121C87.0924 176.05 83.1164 186.943 79.2397 197.871C78.6022 199.667 77.8728 201.129 75.7397 201.39C74.2508 201.573 73.9862 202.498 74.5052 203.847H89.7185C88.9261 199.955 85.17 202.052 83.4331 200.15C84.4895 196.873 85.5534 193.404 86.771 189.99C86.9383 189.521 87.8629 189.055 88.4467 189.043C92.3239 188.959 96.2042 188.969 100.082 189.034C100.632 189.043 101.525 189.387 101.666 189.785C102.9 193.267 104 196.796 105.128 200.275C101.519 201.93 99.81 203.179 99.9996 204.021C105.163 204.021 110.374 204.055 115.584 203.982C116.318 203.972 117.044 203.437 117.773 203.145C117.17 202.554 116.642 201.58 115.95 201.446ZM88.1707 185.679C90.1294 179.834 92.0368 174.142 93.9442 168.449C94.2087 168.439 94.4733 168.43 94.7378 168.42C96.6412 174.111 98.5447 179.803 100.51 185.679H88.1707Z" fill="white"/>
<path d="M41.8721 201.432C39.6664 201.224 38.8311 199.816 38.1951 197.885C35.0332 188.281 31.7721 178.711 28.5251 169.136C26.3903 162.84 26.3747 162.888 19.6946 162.925C18.119 162.934 17.3498 163.422 16.8033 164.969C12.8643 176.116 8.7949 187.217 4.82558 198.353C4.25176 199.963 3.48464 201.099 1.65708 201.328C0.176653 201.514 -0.349898 202.368 0.231956 203.853H15.4453C14.749 199.943 10.9032 202.111 9.19881 200.109C10.2754 196.811 11.363 193.349 12.5748 189.93C12.7268 189.502 13.5302 189.051 14.0398 189.042C17.9929 188.968 21.9484 188.969 25.9016 189.037C26.4432 189.046 27.3144 189.431 27.46 189.843C28.6875 193.321 29.7817 196.846 30.9693 200.521C29.5674 200.86 28.4336 201.226 27.2711 201.393C25.6928 201.618 24.9907 202.24 25.7221 203.929H43.2936C43.8795 202.29 43.2481 201.563 41.8721 201.432ZM13.9746 185.556C15.8811 179.858 17.7876 174.159 19.6942 168.46C19.9769 168.474 20.2597 168.488 20.5424 168.502C22.4055 174.094 24.2686 179.687 26.2239 185.556H13.9746Z" fill="white"/>
<path d="M421.283 164.976C419.044 164.105 416.532 163.668 414.12 163.562C409.504 163.359 404.872 163.535 400.247 163.549C398.324 163.555 396.402 163.55 394.524 163.55C393.571 165.893 395.185 166.141 396.559 166.318C398.631 166.586 399.315 167.49 399.278 169.674C399.128 178.535 399.216 187.399 399.216 196.262C399.216 198.904 397.988 200.656 395.534 201.517C395.464 201.542 395.358 201.527 395.321 201.573C394.948 202.041 394.587 202.518 394.222 202.992C394.678 203.333 395.111 203.922 395.596 203.968C397.001 204.103 398.426 204.021 399.844 204.021C404.228 204.022 408.613 204.021 412.934 204.021C413.535 202.372 413.039 201.684 411.59 201.5C410.558 201.369 409.482 201.242 408.544 200.838C407.948 200.581 407.173 199.83 407.157 199.281C407.039 195.276 407.094 191.265 407.094 187.01C408.368 187.01 409.401 186.989 410.432 187.014C414.416 187.11 418.311 186.843 421.959 184.949C426.176 182.761 428.227 179.366 427.999 174.642C427.778 170.043 425.562 166.639 421.283 164.976ZM419.474 177.791C418.481 181.236 415.895 183.044 411.709 183.289C410.245 183.375 408.772 183.303 407.096 183.303C407.096 178.072 407.06 173.325 407.143 168.581C407.153 168.016 407.746 167.035 408.175 166.972C411.469 166.493 414.747 166.431 417.396 168.972C419.983 171.454 420.424 174.494 419.474 177.791Z" fill="white"/>
<path d="M69.8533 184.334C67.309 182.226 63.9323 181.084 60.8575 179.665C58.9765 178.797 56.9171 178.319 55.0115 177.497C52.9871 176.622 51.9942 174.983 51.9175 172.735C51.8371 170.38 52.891 168.726 54.8674 167.625C57.249 166.298 59.7863 166.05 62.4473 166.657C64.7321 167.178 66.3451 168.026 66.4828 170.833C66.6224 173.677 66.9557 173.721 70.1107 173.154C70.2533 170.861 70.4985 168.5 70.4778 166.141C70.4727 165.551 69.7303 164.657 69.1272 164.429C62.7149 162.01 56.3972 161.824 50.1503 165.182C43.3913 168.816 43.2151 180.322 50.3803 183.635C52.0667 184.415 53.7652 185.177 55.492 185.861C57.7726 186.765 60.168 187.418 62.3658 188.483C65.2163 189.865 66.4761 192.308 66.1246 194.981C65.7394 197.908 63.8094 200.207 60.5939 200.592C58.0768 200.893 55.4368 200.6 52.9048 200.218C50.65 199.878 49.2188 198.501 49.3159 195.926C49.3504 195.013 48.9706 194.085 48.7826 193.177H45.6395C45.4925 195.786 45.2874 198.158 45.2742 200.53C45.2708 201.142 45.7093 202.028 46.2177 202.329C52.7168 206.18 64.1309 206.545 70.4087 199.63C74.3146 195.328 74.3082 188.023 69.8533 184.334Z" fill="white"/>
<path d="M331.918 202.198C339.93 197.585 339.674 185.65 331.034 181.776C329.141 180.927 327.144 180.31 325.194 179.588C323.243 178.866 321.227 178.282 319.359 177.39C317.092 176.308 316.229 174.294 316.469 171.835C316.773 168.718 319.968 166.445 324.11 166.351C328.696 166.247 330.601 167.537 331.061 171.239C331.239 172.674 331.502 173.598 333.295 173.494C335.113 173.388 334.744 172.161 334.832 171.117C334.952 169.709 334.954 168.286 335.158 166.891C335.353 165.55 334.893 164.676 333.621 164.354C330.684 163.608 327.727 162.94 324.779 162.241C321.117 162.67 317.732 163.347 314.653 165.255C307.819 169.487 307.746 179.313 314.651 183.388C316.866 184.695 319.418 185.433 321.818 186.424C323.67 187.189 325.592 187.816 327.366 188.729C329.877 190.021 330.962 192.226 330.652 195.03C330.349 197.768 328.739 199.781 326.163 200.265C323.536 200.758 320.732 200.687 318.052 200.415C315.445 200.151 313.742 198.594 313.814 195.673C313.828 195.087 313.859 194.327 313.532 193.951C313.132 193.493 312.369 193.158 311.752 193.138C311.224 193.121 310.244 193.583 310.213 193.905C309.976 196.342 309.851 198.798 309.879 201.246C309.884 201.702 310.65 202.314 311.199 202.575C318.157 205.885 325.068 206.141 331.918 202.198Z" fill="white"/>
<path d="M527.952 182.218C525.976 181.084 523.702 180.463 521.552 179.64C519.471 178.842 517.252 178.31 515.31 177.263C512.334 175.658 511.587 171.629 513.751 169.177C516.283 166.307 519.604 166.072 523.201 166.618C526.433 167.108 527.237 169.218 527.356 171.947C527.415 173.287 528.173 173.441 529.287 173.483C530.63 173.533 530.948 172.867 530.978 171.726C531.019 170.164 531.009 168.583 531.251 167.046C531.518 165.345 530.704 164.572 529.276 164.092C524.495 162.485 519.657 162.064 514.763 163.5C509.089 165.165 506.117 168.567 505.827 173.616C505.511 179.132 507.711 182.397 513.492 184.839C514.997 185.474 516.594 185.889 518.125 186.469C519.863 187.127 521.629 187.745 523.282 188.581C525.857 189.884 527.143 192.058 526.826 194.974C526.496 198.018 524.567 199.97 521.74 200.497C519.389 200.935 516.829 200.908 514.469 200.487C510.882 199.847 510.504 199.139 510.002 195.482C509.901 194.751 509.706 194.032 509.54 193.239C507.431 193.049 506.326 193.86 506.224 195.673C506.137 197.158 505.841 198.66 505.992 200.118C506.081 200.983 506.655 202.201 507.358 202.537C514.625 206.002 521.911 206.365 528.787 201.653C536.093 196.646 535.633 186.628 527.952 182.218Z" fill="white"/>
<path d="M459.474 194.157C458.432 193.85 457.366 194.062 457.359 195.613C457.355 196.351 457.042 197.102 457.113 197.823C457.279 199.487 456.506 200.085 454.957 200.134C451.68 200.236 448.403 200.364 445.129 200.548C443.72 200.626 443.034 200.135 443.08 198.667C443.108 197.779 442.952 196.887 442.951 195.997C442.94 187.955 442.944 179.914 442.945 171.872C442.945 167.219 442.937 167.184 447.345 166.151C448.762 165.818 449.51 165.275 448.815 163.687H430.277C429.603 165.508 430.579 166.149 431.916 166.228C434.6 166.387 435.195 167.755 435.151 170.283C434.995 179.292 434.984 188.308 435.153 197.316C435.201 199.886 434.503 201.211 431.899 201.412C430.421 201.526 429.763 202.27 430.379 203.87H461.049C461.049 201.063 461.139 198.398 460.978 195.748C460.943 195.168 460.101 194.342 459.474 194.157Z" fill="white"/>
<path d="M345.588 233.954C345.377 234.059 345.165 234.164 344.953 234.269V248.847C342.954 248.847 341.245 248.771 339.546 248.871C338.086 248.956 337.578 248.439 337.612 246.963C337.696 243.314 337.682 239.661 337.595 236.011C337.581 235.388 337.01 234.777 336.697 234.16C336.444 234.764 335.985 235.364 335.973 235.973C335.904 239.697 335.988 243.425 335.883 247.148C335.867 247.722 335.18 248.722 334.736 248.762C332.754 248.939 330.748 248.839 328.529 248.839C328.529 247.868 328.529 247.143 328.529 246.418C328.529 242.842 328.548 239.265 328.519 235.688C328.506 234.111 328.461 234.112 326.824 234.481V250.32H346.772C346.772 245.142 346.8 240.167 346.72 235.193C346.714 234.774 345.983 234.367 345.588 233.954Z" fill="white"/>
<path d="M281.517 235.442C278.522 239.186 275.62 243.005 272.338 247.25C272.279 245.934 272.222 245.222 272.219 244.508C272.206 241.459 272.242 238.408 272.165 235.36C272.155 234.952 271.598 234.558 271.295 234.157C271.039 234.53 270.564 234.902 270.56 235.277C270.511 240.246 270.527 245.215 270.527 251C271.775 250.066 272.646 249.647 273.19 248.967C276.152 245.267 279.033 241.504 281.942 237.762C282.105 237.826 282.267 237.889 282.43 237.953C282.43 241.59 282.408 245.227 282.441 248.863C282.453 250.235 282.51 250.235 284.119 250.105V233.624C282.977 234.403 282.055 234.769 281.517 235.442Z" fill="white"/>
<path d="M215.488 239.92C213.6 239.853 211.709 239.908 209.653 239.908C209.653 238.088 209.727 236.678 209.607 235.284C209.572 234.879 208.982 234.521 208.646 234.142C208.391 234.508 207.917 234.871 207.913 235.239C207.864 240.199 207.88 245.16 207.88 250.564C211.11 250.378 214.006 250.367 216.856 249.997C219.079 249.708 220.327 248.157 220.591 245.891C221.019 242.206 219.21 240.051 215.488 239.92ZM216.215 248.55C214.195 248.916 212.107 248.906 209.849 249.075V241.478C211.929 241.478 213.935 241.327 215.905 241.524C217.637 241.697 218.699 242.823 218.785 244.675C218.873 246.599 218.227 248.184 216.215 248.55Z" fill="white"/>
<path d="M313.423 248.85V242.847C315.693 242.847 317.84 242.892 319.983 242.815C320.537 242.796 321.077 242.391 321.624 242.164C321.051 241.888 320.488 241.403 319.904 241.376C317.826 241.279 315.742 241.338 313.416 241.338V235.632C316.202 235.632 318.871 235.66 321.537 235.6C321.919 235.592 322.292 235.158 322.669 234.921C322.319 234.647 321.975 234.141 321.62 234.135C318.294 234.074 314.966 234.099 311.615 234.099V250.399C314.918 250.399 318.047 250.437 321.172 250.365C321.78 250.351 322.378 249.907 322.981 249.661C322.389 249.39 321.805 248.907 321.206 248.887C318.619 248.8 316.028 248.85 313.423 248.85Z" fill="white"/>
<path d="M308.264 234.485C308.076 234.279 307.889 234.073 307.701 233.867C307.048 234.292 306.258 234.599 305.769 235.165C304.601 236.516 303.423 237.901 302.53 239.436C301.312 241.527 299.664 241.659 297.495 241.06C297.495 239.66 297.603 238.315 297.461 236.996C297.347 235.943 298.302 234.155 295.834 234.136V250.343C296.321 250.321 296.985 250.342 296.992 250.283C297.29 247.85 297.529 245.409 297.77 243.03C299.998 242.416 301.547 243.05 302.73 244.978C303.661 246.494 304.806 247.901 306.008 249.219C306.598 249.866 307.534 250.2 308.313 250.675C308.46 250.488 308.608 250.3 308.755 250.112C306.72 247.403 304.685 244.694 302.612 241.932C304.559 239.367 306.411 236.926 308.264 234.485Z" fill="white"/>
<path d="M354.118 248.849V242.847C356.271 242.847 358.273 242.914 360.266 242.81C360.925 242.775 361.56 242.301 362.206 242.028C361.591 241.798 360.983 241.395 360.359 241.37C358.299 241.286 356.234 241.338 354.108 241.338V235.633C356.925 235.633 359.596 235.66 362.265 235.604C362.661 235.595 363.048 235.192 363.44 234.971C363.184 234.685 362.933 234.154 362.673 234.15C359.21 234.094 355.747 234.113 352.231 234.113V250.399C354.461 250.399 356.482 250.578 358.455 250.346C360.217 250.139 362.219 251.345 363.746 249.573C362.01 249.332 360.282 249.01 358.538 248.873C357.051 248.755 355.546 248.849 354.118 248.849Z" fill="white"/>
<path d="M242.894 234.008C242.701 234.173 242.507 234.338 242.314 234.503V241.243C240.756 241.243 239.421 241.285 238.089 241.233C236.253 241.162 233.987 241.614 232.735 240.704C231.873 240.077 232.416 237.521 232.331 235.828C232.328 235.754 232.357 235.662 232.324 235.607C232.033 235.119 231.731 234.637 231.433 234.153C231.167 234.671 230.678 235.185 230.671 235.706C230.609 240.101 230.608 244.497 230.673 248.892C230.681 249.389 231.208 249.877 231.494 250.37C231.773 249.87 232.267 249.38 232.292 248.868C232.386 246.899 232.33 244.923 232.33 243.003H242.433C242.433 245.159 242.353 247.166 242.49 249.158C242.524 249.653 243.261 250.101 243.675 250.571C243.876 250.431 244.077 250.291 244.278 250.152C244.278 245.174 244.31 240.196 244.218 235.22C244.21 234.808 243.355 234.412 242.894 234.008Z" fill="white"/>
<path d="M380.187 234.157C379.928 234.605 379.479 235.039 379.446 235.503C379.345 236.912 379.509 238.344 379.347 239.741C379.286 240.274 378.638 241.148 378.228 241.166C375.339 241.29 372.443 241.232 369.305 241.232C369.305 239.055 369.277 237.27 369.314 235.486C369.344 234.058 368.736 233.839 367.582 234.387V250.248C367.787 250.364 367.993 250.48 368.198 250.596C368.567 250.078 369.22 249.577 369.255 249.037C369.383 247.055 369.305 245.06 369.305 242.963H379.413C379.413 245.09 379.364 247.154 379.456 249.211C379.474 249.607 380.047 249.977 380.363 250.359C380.608 249.979 381.061 249.601 381.065 249.219C381.114 244.601 381.119 239.982 381.057 235.364C381.052 234.957 380.49 234.559 380.187 234.157Z" fill="white"/>
<path d="M185.403 234.259C182.832 234.019 180.219 234.209 177.307 234.209C177.307 238.709 177.238 242.952 177.356 247.19C177.385 248.244 176.466 249.744 178.256 250.361C178.507 249.313 178.966 248.265 178.959 247.219C178.947 245.706 179.365 245.043 180.984 245.149C182.466 245.245 183.984 245.223 185.451 245.012C188.357 244.595 190.073 242.489 190.062 239.606C190.05 236.744 188.302 234.53 185.403 234.259ZM184.998 243.406C183.123 243.653 181.189 243.459 179.144 243.459V235.778C181.144 235.778 183.13 235.58 185.057 235.832C187.154 236.105 188.255 237.719 188.207 239.764C188.157 241.876 186.949 243.149 184.998 243.406Z" fill="white"/>
<path d="M174.102 233.983C170.657 235.786 170.278 240.177 167.412 242.711C165.884 240.227 164.43 237.738 162.828 235.348C162.422 234.741 161.545 234.449 160.884 234.013C160.737 234.205 160.589 234.397 160.442 234.589C162.245 237.587 164.049 240.585 165.989 243.808C164.457 243.911 163.38 243.984 162.302 244.057C162.257 244.341 162.211 244.625 162.166 244.909C163.62 245.157 165.075 245.404 166.678 245.677V250.663C169.702 249.543 167.544 246.838 168.745 245.606C170.104 245.363 171.419 245.128 172.733 244.893C172.674 244.617 172.615 244.34 172.556 244.064C171.544 243.987 170.531 243.91 169.05 243.797C171.052 240.482 172.877 237.461 174.702 234.439C174.502 234.287 174.302 234.135 174.102 233.983Z" fill="white"/>
<path d="M260.468 242.763C258.918 240.233 257.46 237.728 255.856 235.32C255.438 234.691 254.569 234.362 253.906 233.895C253.737 234.082 253.568 234.269 253.398 234.456C254.579 236.406 255.692 238.4 256.956 240.294C258.677 242.873 260.117 245.475 259.63 248.764C259.558 249.245 260.217 249.834 260.537 250.374C260.845 249.829 261.474 249.24 261.406 248.747C260.976 245.63 262.236 243.138 263.932 240.685C265.308 238.695 266.453 236.547 267.7 234.469C267.488 234.312 267.276 234.155 267.064 233.997C263.749 235.921 263.211 240.163 260.468 242.763Z" fill="white"/>
<path d="M147.926 234.14C147.585 234.146 147.252 234.678 146.916 234.966C147.309 235.188 147.693 235.578 148.098 235.602C149.486 235.681 150.882 235.632 152.475 235.632C152.475 236.702 152.475 237.503 152.475 238.304C152.476 241.798 152.43 245.294 152.523 248.785C152.538 249.374 153.153 249.947 153.49 250.527C153.739 250.411 153.988 250.295 154.237 250.179V235.629C156.034 235.629 157.515 235.681 158.987 235.592C159.342 235.57 159.669 235.083 160.009 234.809C159.704 234.574 159.402 234.139 159.095 234.135C155.372 234.087 151.648 234.081 147.926 234.14Z" fill="white"/>
<path d="M194.216 234.107V241.829C193.206 242.121 192.471 242.334 191.735 242.546C191.764 242.728 191.794 242.91 191.823 243.091C192.63 243.299 193.436 243.507 194.343 243.74C194.343 245.634 194.287 247.417 194.385 249.192C194.407 249.597 194.962 249.973 195.271 250.362C195.523 249.99 195.955 249.635 195.991 249.243C196.093 248.137 196.159 246.999 196.009 245.904C195.716 243.756 196.665 243.167 198.648 243.361C200.083 243.502 201.544 243.389 202.993 243.389C202.991 242.971 202.99 242.554 202.988 242.136C201.227 242.136 199.457 242.236 197.71 242.08C197.125 242.028 196.175 241.373 196.121 240.909C195.927 239.24 196.045 237.536 196.045 235.629C198.742 235.629 201.182 235.662 203.619 235.594C203.976 235.583 204.319 235.093 204.669 234.825C204.355 234.586 204.045 234.144 203.728 234.139C200.639 234.087 197.549 234.107 194.216 234.107Z" fill="white"/>
<path d="M225.119 235.618C225.099 235.119 224.574 234.639 224.282 234.151C224.01 234.66 223.509 235.166 223.502 235.679C223.44 240.129 223.445 244.581 223.501 249.031C223.506 249.478 223.978 249.918 224.233 250.362C224.542 249.898 225.095 249.444 225.117 248.967C225.213 246.82 225.159 244.667 225.159 242.515C225.159 240.216 225.209 237.914 225.119 235.618Z" fill="white"/>
<path d="M388.235 235.51C388.219 235.052 387.762 234.609 387.508 234.159C387.199 234.627 386.627 235.091 386.62 235.563C386.553 240.088 386.558 244.613 386.619 249.138C386.624 249.551 387.161 249.958 387.451 250.368C387.724 249.94 388.218 249.52 388.233 249.083C388.311 246.786 388.27 244.485 388.27 242.186C388.27 239.96 388.312 237.733 388.235 235.51Z" fill="white"/>
<path d="M280.664 229.433C278.39 233.215 276.14 232.055 273.908 229.634C273.771 231.979 274.797 232.902 277.171 232.951C279.658 233.002 280.816 232.08 280.664 229.433Z" fill="white"/>
</g>
<defs>
<clipPath id="clip0_556_1576">
<rect width="534" height="251" fill="white"/>
</clipPath>
</defs>
</svg>
