<svg width="28" height="25" viewBox="0 0 28 25" fill="none" xmlns="http://www.w3.org/2000/svg">
<path d="M9.22667 2.68014L0.79082 16.7399C-1.40602 20.3866 1.23019 25 5.44811 25H22.3198C26.5377 25 29.1739 20.3866 26.9771 16.7399L18.5413 2.68014C16.4323 -0.878732 11.3356 -0.878732 9.22667 2.68014ZM17.5307 3.29526L26.0105 17.3989C27.1968 19.3761 25.7908 21.9244 23.4622 21.9244H6.5026C4.17395 21.9244 2.72404 19.3761 3.95426 17.3989L12.4341 3.29526C13.5764 1.36204 16.3884 1.36204 17.5307 3.29526Z" fill="#222445"/>
<path d="M14.1916 6.23905L8.56767 15.5976C7.68894 17.0475 8.74342 18.8928 10.413 18.8928H21.6608C23.3304 18.8928 24.3849 17.0475 23.5062 15.5976L17.8823 6.23905C17.0475 4.83308 15.0264 4.83308 14.1916 6.23905ZM17.8383 8.47982L21.529 14.587C21.8805 15.1582 21.4411 15.8612 20.826 15.8612H13.4446C12.7856 15.8612 12.3902 15.1582 12.7417 14.587L16.4323 8.47982C16.7399 7.90865 17.5308 7.90865 17.8383 8.47982Z" fill="#222445"/>
</svg>
