<svg width="35" height="50" viewBox="0 0 35 50" fill="none" xmlns="http://www.w3.org/2000/svg">
<path fill-rule="evenodd" clip-rule="evenodd" d="M17.5 0C7.825 0 0 7.825 0 17.5C0 30.625 17.5 50 17.5 50C17.5 50 35 30.625 35 17.5C35 7.825 27.175 0 17.5 0ZM5.00019 17.4999C5.00019 10.5999 10.6002 4.99991 17.5002 4.99991C24.4002 4.99991 30.0002 10.5999 30.0002 17.4999C30.0002 24.6999 22.8002 35.4749 17.5002 42.1999C12.3002 35.5249 5.00019 24.6249 5.00019 17.4999ZM11.2499 17.4999C11.2499 14.0481 14.0481 11.2499 17.4999 11.2499C19.7328 11.2499 21.7961 12.4411 22.9125 14.3749C24.029 16.3086 24.029 18.6911 22.9125 20.6249C21.7961 22.5586 19.7328 23.7499 17.4999 23.7499C14.0481 23.7499 11.2499 20.9516 11.2499 17.4999Z" fill="#F3CC3F"/>
<path d="M17.5003 11.1755C14.0074 11.1755 11.1758 14.0071 11.1758 17.5001C11.1758 20.9931 14.0074 23.8247 17.5003 23.8247C19.7599 23.8247 21.8478 22.6192 22.9776 20.6624C24.1073 18.7056 24.1073 16.2946 22.9776 14.3378C21.8478 12.381 19.7599 11.1755 17.5003 11.1755V11.1755Z" fill="#222445"/>
</svg>
