<svg width="90" height="90" viewBox="0 0 90 90" fill="none" xmlns="http://www.w3.org/2000/svg">
<g filter="url(#filter0_d_558_4075)">
<circle cx="43" cy="40" r="30" fill="#F3CC3F"/>
</g>
<path fill-rule="evenodd" clip-rule="evenodd" d="M44.875 38.125V38.1248H44.8754V38.125H44.875ZM48.6246 38.125H44.8754V41.8748H41.1254V38.1248H44.875V34.3752H48.6246V38.125ZM48.6246 41.875V38.125H51.4375C55.0619 38.125 58 35.1869 58 31.5625C58 27.9381 55.0619 25 51.4375 25C47.8131 25 44.875 27.9381 44.875 31.5625V34.3752H41.125V31.5625C41.125 27.9381 38.1869 25 34.5625 25C30.9381 25 28 27.9381 28 31.5625C28 35.1869 30.9381 38.125 34.5625 38.125H37.3746V41.875H34.5625C30.9381 41.875 28 44.8131 28 48.4375C28 52.0619 30.9381 55 34.5625 55C38.1869 55 41.125 52.0619 41.125 48.4375V45.6252H44.875V48.4375C44.875 52.0619 47.8131 55 51.4375 55C55.0619 55 58 52.0619 58 48.4375C58 44.8131 55.0619 41.875 51.4375 41.875H48.6246ZM48.6246 45.6252H44.875V41.875H48.6246V45.6252ZM48.6246 45.6252H51.4371C52.9904 45.6252 54.2496 46.8844 54.2496 48.4377C54.2496 49.991 52.9904 51.2502 51.4371 51.2502C49.8838 51.2502 48.6246 49.991 48.6246 48.4377V45.6252ZM37.3746 45.6252H41.125V41.875H37.3746V45.6252ZM37.3746 45.6252H34.5621C33.0088 45.6252 31.7496 46.8844 31.7496 48.4377C31.7496 49.991 33.0088 51.2502 34.5621 51.2502C36.1154 51.2502 37.3746 49.991 37.3746 48.4377V45.6252ZM37.3746 34.3752H41.125V38.125H37.3746V34.3752ZM37.3746 34.3752V31.5627C37.3746 30.0094 36.1154 28.7502 34.5621 28.7502C33.0088 28.7502 31.7496 30.0094 31.7496 31.5627C31.7496 33.116 33.0088 34.3752 34.5621 34.3752H37.3746ZM48.6246 34.3752H51.4371C52.9904 34.3752 54.2496 33.116 54.2496 31.5627C54.2496 30.0094 52.9904 28.7502 51.4371 28.7502C49.8838 28.7502 48.6246 30.0094 48.6246 31.5627V34.3752Z" fill="#222445"/>
<defs>
<filter id="filter0_d_558_4075" x="0" y="0" width="90" height="90" filterUnits="userSpaceOnUse" color-interpolation-filters="sRGB">
<feFlood flood-opacity="0" result="BackgroundImageFix"/>
<feColorMatrix in="SourceAlpha" type="matrix" values="0 0 0 0 0 0 0 0 0 0 0 0 0 0 0 0 0 0 127 0" result="hardAlpha"/>
<feOffset dx="2" dy="5"/>
<feGaussianBlur stdDeviation="7.5"/>
<feComposite in2="hardAlpha" operator="out"/>
<feColorMatrix type="matrix" values="0 0 0 0 0.298611 0 0 0 0 0.320834 0 0 0 0 0.333333 0 0 0 0.1 0"/>
<feBlend mode="normal" in2="BackgroundImageFix" result="effect1_dropShadow_558_4075"/>
<feBlend mode="normal" in="SourceGraphic" in2="effect1_dropShadow_558_4075" result="shape"/>
</filter>
</defs>
</svg>
