<svg width="1222" height="23" viewBox="0 0 1222 23" fill="none" xmlns="http://www.w3.org/2000/svg">
<path d="M1 11L840 11.0001" stroke="#C8D6DF" stroke-width="2" stroke-linecap="round"/>
<path d="M1047 11H1067" stroke="#C8D6DF" stroke-width="4" stroke-linecap="round"/>
<path d="M866.982 5.67578L862.734 18H860.166L865.518 3.78125H867.158L866.982 5.67578ZM870.537 18L866.279 5.67578L866.094 3.78125H867.744L873.115 18H870.537ZM870.332 12.7266V14.6699H862.598V12.7266H870.332ZM881.748 7.43359V9.30859H876.592V7.43359H881.748ZM883.594 7.43359V18H881.24V7.43359H883.594ZM876.016 7.43359H878.34L878.057 12.6582C878.018 13.4329 877.939 14.1165 877.822 14.709C877.712 15.2949 877.562 15.7995 877.373 16.2227C877.184 16.6393 876.953 16.9779 876.68 17.2383C876.406 17.4987 876.087 17.6908 875.723 17.8145C875.358 17.9382 874.948 18 874.492 18H873.76L873.75 16.0664L874.121 16.0371C874.362 16.0176 874.57 15.9557 874.746 15.8516C874.922 15.7409 875.072 15.5846 875.195 15.3828C875.326 15.181 875.43 14.9206 875.508 14.6016C875.592 14.2826 875.658 13.9049 875.703 13.4688C875.755 13.0326 875.794 12.5247 875.82 11.9453L876.016 7.43359ZM887.842 10.793H890.957C891.868 10.793 892.643 10.946 893.281 11.252C893.919 11.5579 894.404 11.9844 894.736 12.5312C895.075 13.0716 895.244 13.6901 895.244 14.3867C895.244 14.901 895.15 15.3796 894.961 15.8223C894.772 16.2585 894.492 16.6393 894.121 16.9648C893.757 17.2904 893.307 17.5443 892.773 17.7266C892.246 17.9089 891.641 18 890.957 18H886.279V7.43359H888.643V16.1348H890.957C891.426 16.1348 891.8 16.0534 892.08 15.8906C892.36 15.7279 892.562 15.5163 892.686 15.2559C892.816 14.9954 892.881 14.7188 892.881 14.4258C892.881 14.1263 892.816 13.8431 892.686 13.5762C892.562 13.3092 892.36 13.0911 892.08 12.9219C891.8 12.7526 891.426 12.668 890.957 12.668H887.842V10.793ZM901.865 10.9883V12.8633H896.699V10.9883H901.865ZM909.316 5.11914H912.109C912.949 5.11914 913.721 5.25911 914.424 5.53906C915.133 5.81901 915.752 6.21615 916.279 6.73047C916.807 7.23828 917.217 7.85026 917.51 8.56641C917.803 9.27604 917.949 10.0671 917.949 10.9395C917.949 11.7988 917.803 12.5833 917.51 13.293C917.217 14.0026 916.807 14.6146 916.279 15.1289C915.752 15.6367 915.133 16.0273 914.424 16.3008C913.721 16.5742 912.949 16.7109 912.109 16.7109H909.316C908.483 16.7109 907.712 16.5742 907.002 16.3008C906.292 16.0273 905.671 15.6367 905.137 15.1289C904.609 14.6211 904.199 14.0156 903.906 13.3125C903.62 12.6029 903.477 11.8184 903.477 10.959C903.477 10.0866 903.62 9.29557 903.906 8.58594C904.199 7.86979 904.609 7.25456 905.137 6.74023C905.671 6.2194 906.292 5.81901 907.002 5.53906C907.712 5.25911 908.483 5.11914 909.316 5.11914ZM909.316 7.07227C908.587 7.07227 907.959 7.22852 907.432 7.54102C906.904 7.84701 906.497 8.28971 906.211 8.86914C905.931 9.44857 905.791 10.1452 905.791 10.959C905.791 11.5579 905.872 12.0918 906.035 12.5605C906.198 13.0293 906.432 13.4264 906.738 13.752C907.044 14.0775 907.415 14.3281 907.852 14.5039C908.288 14.6797 908.776 14.7676 909.316 14.7676H912.129C912.852 14.7676 913.473 14.6146 913.994 14.3086C914.515 13.9961 914.915 13.5534 915.195 12.9805C915.482 12.4076 915.625 11.7272 915.625 10.9395C915.625 10.334 915.544 9.79362 915.381 9.31836C915.225 8.83659 914.993 8.42969 914.688 8.09766C914.388 7.76562 914.023 7.51172 913.594 7.33594C913.164 7.16016 912.676 7.07227 912.129 7.07227H909.316ZM911.895 3.19531V18.5859H909.541V3.19531H911.895ZM925.82 15.8809V10.8418C925.82 10.4642 925.752 10.1387 925.615 9.86523C925.479 9.5918 925.27 9.38021 924.99 9.23047C924.717 9.08073 924.372 9.00586 923.955 9.00586C923.571 9.00586 923.239 9.07096 922.959 9.20117C922.679 9.33138 922.461 9.50716 922.305 9.72852C922.148 9.94987 922.07 10.2005 922.07 10.4805H919.727C919.727 10.0638 919.827 9.66016 920.029 9.26953C920.231 8.87891 920.524 8.5306 920.908 8.22461C921.292 7.91862 921.751 7.67773 922.285 7.50195C922.819 7.32617 923.418 7.23828 924.082 7.23828C924.876 7.23828 925.579 7.37174 926.191 7.63867C926.81 7.9056 927.295 8.30924 927.646 8.84961C928.005 9.38346 928.184 10.054 928.184 10.8613V15.5586C928.184 16.0404 928.216 16.4733 928.281 16.8574C928.353 17.235 928.454 17.5638 928.584 17.8438V18H926.172C926.061 17.7461 925.973 17.4238 925.908 17.0332C925.85 16.6361 925.82 16.252 925.82 15.8809ZM926.162 11.5742L926.182 13.0293H924.492C924.056 13.0293 923.672 13.0716 923.34 13.1562C923.008 13.2344 922.731 13.3516 922.51 13.5078C922.288 13.6641 922.122 13.8529 922.012 14.0742C921.901 14.2956 921.846 14.5462 921.846 14.8262C921.846 15.1061 921.911 15.3633 922.041 15.5977C922.171 15.8255 922.36 16.0046 922.607 16.1348C922.861 16.265 923.167 16.3301 923.525 16.3301C924.007 16.3301 924.427 16.2324 924.785 16.0371C925.15 15.8353 925.436 15.5911 925.645 15.3047C925.853 15.0117 925.964 14.735 925.977 14.4746L926.738 15.5195C926.66 15.7865 926.527 16.0729 926.338 16.3789C926.149 16.6849 925.902 16.9779 925.596 17.2578C925.296 17.5312 924.935 17.7559 924.512 17.9316C924.095 18.1074 923.613 18.1953 923.066 18.1953C922.376 18.1953 921.761 18.0586 921.221 17.7852C920.68 17.5052 920.257 17.1309 919.951 16.6621C919.645 16.1868 919.492 15.6497 919.492 15.0508C919.492 14.4909 919.596 13.9961 919.805 13.5664C920.02 13.1302 920.332 12.7656 920.742 12.4727C921.159 12.1797 921.667 11.9583 922.266 11.8086C922.865 11.6523 923.548 11.5742 924.316 11.5742H926.162ZM933.008 9.46484V22.0625H930.654V7.43359H932.822L933.008 9.46484ZM939.893 12.6191V12.8242C939.893 13.5924 939.801 14.3053 939.619 14.9629C939.443 15.6139 939.18 16.1836 938.828 16.6719C938.483 17.1536 938.057 17.528 937.549 17.7949C937.041 18.0618 936.455 18.1953 935.791 18.1953C935.133 18.1953 934.557 18.0749 934.062 17.834C933.574 17.5866 933.161 17.2383 932.822 16.7891C932.484 16.3398 932.21 15.8125 932.002 15.207C931.8 14.5951 931.657 13.9245 931.572 13.1953V12.4043C931.657 11.6296 931.8 10.9264 932.002 10.2949C932.21 9.66341 932.484 9.11979 932.822 8.66406C933.161 8.20833 933.574 7.85677 934.062 7.60938C934.551 7.36198 935.12 7.23828 935.771 7.23828C936.436 7.23828 937.025 7.36849 937.539 7.62891C938.053 7.88281 938.486 8.2474 938.838 8.72266C939.189 9.19141 939.453 9.75781 939.629 10.4219C939.805 11.0794 939.893 11.8118 939.893 12.6191ZM937.539 12.8242V12.6191C937.539 12.1309 937.493 11.6784 937.402 11.2617C937.311 10.8385 937.168 10.4674 936.973 10.1484C936.777 9.82943 936.527 9.58203 936.221 9.40625C935.921 9.22396 935.56 9.13281 935.137 9.13281C934.72 9.13281 934.362 9.20443 934.062 9.34766C933.763 9.48438 933.512 9.67643 933.311 9.92383C933.109 10.1712 932.952 10.4609 932.842 10.793C932.731 11.1185 932.653 11.4733 932.607 11.8574V13.752C932.686 14.2207 932.819 14.6504 933.008 15.041C933.197 15.4316 933.464 15.7441 933.809 15.9785C934.16 16.2064 934.609 16.3203 935.156 16.3203C935.579 16.3203 935.941 16.2292 936.24 16.0469C936.54 15.8646 936.784 15.6139 936.973 15.2949C937.168 14.9694 937.311 14.5951 937.402 14.1719C937.493 13.7487 937.539 13.2995 937.539 12.8242ZM947.852 15.8809V10.8418C947.852 10.4642 947.783 10.1387 947.646 9.86523C947.51 9.5918 947.301 9.38021 947.021 9.23047C946.748 9.08073 946.403 9.00586 945.986 9.00586C945.602 9.00586 945.27 9.07096 944.99 9.20117C944.71 9.33138 944.492 9.50716 944.336 9.72852C944.18 9.94987 944.102 10.2005 944.102 10.4805H941.758C941.758 10.0638 941.859 9.66016 942.061 9.26953C942.262 8.87891 942.555 8.5306 942.939 8.22461C943.324 7.91862 943.783 7.67773 944.316 7.50195C944.85 7.32617 945.449 7.23828 946.113 7.23828C946.908 7.23828 947.611 7.37174 948.223 7.63867C948.841 7.9056 949.326 8.30924 949.678 8.84961C950.036 9.38346 950.215 10.054 950.215 10.8613V15.5586C950.215 16.0404 950.247 16.4733 950.312 16.8574C950.384 17.235 950.485 17.5638 950.615 17.8438V18H948.203C948.092 17.7461 948.005 17.4238 947.939 17.0332C947.881 16.6361 947.852 16.252 947.852 15.8809ZM948.193 11.5742L948.213 13.0293H946.523C946.087 13.0293 945.703 13.0716 945.371 13.1562C945.039 13.2344 944.762 13.3516 944.541 13.5078C944.32 13.6641 944.154 13.8529 944.043 14.0742C943.932 14.2956 943.877 14.5462 943.877 14.8262C943.877 15.1061 943.942 15.3633 944.072 15.5977C944.202 15.8255 944.391 16.0046 944.639 16.1348C944.893 16.265 945.199 16.3301 945.557 16.3301C946.038 16.3301 946.458 16.2324 946.816 16.0371C947.181 15.8353 947.467 15.5911 947.676 15.3047C947.884 15.0117 947.995 14.735 948.008 14.4746L948.77 15.5195C948.691 15.7865 948.558 16.0729 948.369 16.3789C948.18 16.6849 947.933 16.9779 947.627 17.2578C947.327 17.5312 946.966 17.7559 946.543 17.9316C946.126 18.1074 945.645 18.1953 945.098 18.1953C944.408 18.1953 943.792 18.0586 943.252 17.7852C942.712 17.5052 942.288 17.1309 941.982 16.6621C941.676 16.1868 941.523 15.6497 941.523 15.0508C941.523 14.4909 941.628 13.9961 941.836 13.5664C942.051 13.1302 942.363 12.7656 942.773 12.4727C943.19 12.1797 943.698 11.9583 944.297 11.8086C944.896 11.6523 945.579 11.5742 946.348 11.5742H948.193ZM959.307 2.80469H961.211C961.211 3.38411 961.13 3.86263 960.967 4.24023C960.811 4.61133 960.576 4.91732 960.264 5.1582C959.958 5.39258 959.577 5.58138 959.121 5.72461C958.672 5.86784 958.151 5.99805 957.559 6.11523C957.012 6.23242 956.517 6.41797 956.074 6.67188C955.638 6.91927 955.27 7.26758 954.971 7.7168C954.678 8.15951 954.466 8.72917 954.336 9.42578C954.206 10.1224 954.167 10.972 954.219 11.9746V12.6387L952.354 12.8047V12.1406C952.354 10.8971 952.467 9.81315 952.695 8.88867C952.923 7.96419 953.245 7.1862 953.662 6.55469C954.085 5.91667 954.587 5.40885 955.166 5.03125C955.752 4.65365 956.403 4.39323 957.119 4.25C957.607 4.14583 958.014 4.04167 958.34 3.9375C958.665 3.82682 958.906 3.68685 959.062 3.51758C959.225 3.3418 959.307 3.10417 959.307 2.80469ZM957.656 8.0293C958.359 8.0293 958.984 8.15299 959.531 8.40039C960.078 8.64128 960.54 8.97982 960.918 9.41602C961.296 9.85221 961.582 10.3665 961.777 10.959C961.979 11.5514 962.08 12.196 962.08 12.8926V13.1074C962.08 13.8366 961.973 14.5104 961.758 15.1289C961.543 15.7474 961.227 16.2878 960.811 16.75C960.394 17.2057 959.883 17.5638 959.277 17.8242C958.678 18.0781 957.992 18.2051 957.217 18.2051C956.449 18.2051 955.762 18.0716 955.156 17.8047C954.551 17.5378 954.04 17.1667 953.623 16.6914C953.206 16.2096 952.891 15.6465 952.676 15.002C952.461 14.3574 952.354 13.6543 952.354 12.8926V12.6777C952.347 12.541 952.383 12.4076 952.461 12.2773C952.546 12.1471 952.646 12.0072 952.764 11.8574C952.881 11.7077 952.985 11.5352 953.076 11.3398C953.402 10.6823 953.786 10.1061 954.229 9.61133C954.671 9.11654 955.176 8.72917 955.742 8.44922C956.315 8.16927 956.953 8.0293 957.656 8.0293ZM957.197 9.89453C956.611 9.89453 956.133 10.0345 955.762 10.3145C955.397 10.5879 955.127 10.9525 954.951 11.4082C954.782 11.8639 954.697 12.3587 954.697 12.8926V13.1074C954.697 13.5436 954.746 13.957 954.844 14.3477C954.941 14.7383 955.088 15.0833 955.283 15.3828C955.485 15.6758 955.745 15.9069 956.064 16.0762C956.39 16.2454 956.774 16.3301 957.217 16.3301C957.666 16.3301 958.047 16.2454 958.359 16.0762C958.678 15.9069 958.936 15.6758 959.131 15.3828C959.333 15.0833 959.479 14.7383 959.57 14.3477C959.668 13.957 959.717 13.5436 959.717 13.1074V12.8926C959.717 12.4889 959.668 12.1081 959.57 11.75C959.479 11.3919 959.333 11.0762 959.131 10.8027C958.929 10.5228 958.669 10.3014 958.35 10.1387C958.031 9.97591 957.646 9.89453 957.197 9.89453ZM966.182 14.5625L970.332 7.43359H972.686V18H970.332V10.8613L966.182 18H963.828V7.43359H966.182V14.5625ZM986.445 3.73242V18H984.092V6.52539L980.605 7.70703V5.76367L986.162 3.73242H986.445ZM1001.18 12.9316V14.8066H990.928L990.85 13.3906L996.982 3.78125H998.867L996.826 7.27734L993.301 12.9316H1001.18ZM999.404 3.78125V18H997.051V3.78125H999.404ZM1012.29 16.125V18H1002.75V16.3887L1007.38 11.3398C1007.89 10.7669 1008.29 10.2721 1008.58 9.85547C1008.88 9.4388 1009.08 9.06445 1009.2 8.73242C1009.32 8.39388 1009.38 8.0651 1009.38 7.74609C1009.38 7.29688 1009.3 6.90299 1009.13 6.56445C1008.97 6.2194 1008.73 5.94922 1008.41 5.75391C1008.09 5.55208 1007.7 5.45117 1007.25 5.45117C1006.72 5.45117 1006.28 5.5651 1005.92 5.79297C1005.56 6.02083 1005.29 6.33659 1005.11 6.74023C1004.93 7.13737 1004.83 7.5931 1004.83 8.10742H1002.48C1002.48 7.2806 1002.67 6.52539 1003.05 5.8418C1003.42 5.15169 1003.97 4.60482 1004.69 4.20117C1005.4 3.79102 1006.27 3.58594 1007.28 3.58594C1008.23 3.58594 1009.03 3.74544 1009.7 4.06445C1010.36 4.38346 1010.87 4.83594 1011.21 5.42188C1011.56 6.00781 1011.74 6.70117 1011.74 7.50195C1011.74 7.94466 1011.67 8.38411 1011.52 8.82031C1011.38 9.25651 1011.18 9.69271 1010.91 10.1289C1010.65 10.5586 1010.34 10.9915 1009.98 11.4277C1009.62 11.8574 1009.23 12.2936 1008.8 12.7363L1005.72 16.125H1012.29ZM1020.03 5.67578L1015.78 18H1013.21L1018.56 3.78125H1020.21L1020.03 5.67578ZM1023.58 18L1019.33 5.67578L1019.14 3.78125H1020.79L1026.16 18H1023.58ZM1023.38 12.7266V14.6699H1015.64V12.7266H1023.38Z" fill="#9BA2A7"/>
<path d="M1099.78 10.5V11.2812C1099.78 12.3555 1099.64 13.319 1099.36 14.1719C1099.08 15.0247 1098.68 15.7507 1098.16 16.3496C1097.65 16.9486 1097.03 17.4076 1096.31 17.7266C1095.58 18.0391 1094.78 18.1953 1093.9 18.1953C1093.03 18.1953 1092.23 18.0391 1091.51 17.7266C1090.8 17.4076 1090.17 16.9486 1089.65 16.3496C1089.12 15.7507 1088.71 15.0247 1088.42 14.1719C1088.13 13.319 1087.99 12.3555 1087.99 11.2812V10.5C1087.99 9.42578 1088.13 8.46549 1088.42 7.61914C1088.7 6.76628 1089.11 6.04036 1089.63 5.44141C1090.15 4.83594 1090.78 4.37695 1091.49 4.06445C1092.21 3.74544 1093.01 3.58594 1093.88 3.58594C1094.76 3.58594 1095.56 3.74544 1096.29 4.06445C1097.01 4.37695 1097.63 4.83594 1098.15 5.44141C1098.67 6.04036 1099.07 6.76628 1099.35 7.61914C1099.64 8.46549 1099.78 9.42578 1099.78 10.5ZM1097.33 11.2812V10.4805C1097.33 9.6862 1097.25 8.98633 1097.1 8.38086C1096.95 7.76888 1096.72 7.25781 1096.42 6.84766C1096.13 6.43099 1095.77 6.11849 1095.34 5.91016C1094.91 5.69531 1094.43 5.58789 1093.88 5.58789C1093.34 5.58789 1092.86 5.69531 1092.44 5.91016C1092.02 6.11849 1091.65 6.43099 1091.36 6.84766C1091.06 7.25781 1090.84 7.76888 1090.68 8.38086C1090.53 8.98633 1090.45 9.6862 1090.45 10.4805V11.2812C1090.45 12.0755 1090.53 12.7786 1090.68 13.3906C1090.84 14.0026 1091.07 14.5202 1091.37 14.9434C1091.67 15.36 1092.04 15.6758 1092.46 15.8906C1092.88 16.099 1093.36 16.2031 1093.9 16.2031C1094.45 16.2031 1094.94 16.099 1095.36 15.8906C1095.78 15.6758 1096.14 15.36 1096.43 14.9434C1096.73 14.5202 1096.95 14.0026 1097.1 13.3906C1097.25 12.7786 1097.33 12.0755 1097.33 11.2812ZM1106.9 7.43359V18H1104.54V7.43359H1106.9ZM1110.37 7.43359V9.28906H1101.13V7.43359H1110.37ZM1126.58 12.9316V14.8066H1116.33L1116.25 13.3906L1122.38 3.78125H1124.27L1122.22 7.27734L1118.7 12.9316H1126.58ZM1124.8 3.78125V18H1122.45V3.78125H1124.8ZM1130.62 11.3887L1128.75 10.9297L1129.52 3.78125H1137.19V5.77344H1131.47L1131.08 9.25977C1131.3 9.12956 1131.61 9.0026 1132 8.87891C1132.39 8.7487 1132.84 8.68359 1133.34 8.68359C1134.01 8.68359 1134.61 8.79427 1135.13 9.01562C1135.67 9.23047 1136.12 9.54622 1136.49 9.96289C1136.86 10.373 1137.15 10.8743 1137.34 11.4668C1137.54 12.0527 1137.63 12.7135 1137.63 13.4492C1137.63 14.1068 1137.54 14.722 1137.34 15.2949C1137.15 15.8678 1136.87 16.3724 1136.48 16.8086C1136.1 17.2448 1135.61 17.5866 1135.03 17.834C1134.45 18.0749 1133.76 18.1953 1132.97 18.1953C1132.37 18.1953 1131.8 18.1107 1131.26 17.9414C1130.72 17.7656 1130.23 17.5085 1129.8 17.1699C1129.37 16.8249 1129.03 16.4017 1128.77 15.9004C1128.51 15.3926 1128.36 14.8099 1128.32 14.1523H1130.62C1130.68 14.6146 1130.81 15.0085 1131 15.334C1131.21 15.653 1131.47 15.8971 1131.8 16.0664C1132.14 16.2357 1132.52 16.3203 1132.96 16.3203C1133.35 16.3203 1133.7 16.252 1133.98 16.1152C1134.27 15.972 1134.51 15.7702 1134.7 15.5098C1134.89 15.2428 1135.03 14.9303 1135.12 14.5723C1135.22 14.2142 1135.27 13.8171 1135.27 13.3809C1135.27 12.9642 1135.22 12.5833 1135.11 12.2383C1135 11.8932 1134.84 11.5938 1134.63 11.3398C1134.42 11.0859 1134.15 10.8906 1133.84 10.7539C1133.52 10.6107 1133.15 10.5391 1132.73 10.5391C1132.17 10.5391 1131.74 10.6204 1131.44 10.7832C1131.15 10.946 1130.88 11.1478 1130.62 11.3887ZM1150.92 15.1484L1154.06 7.43359H1156.1L1151.72 18H1150.12L1145.74 7.43359H1147.78L1150.92 15.1484ZM1147.18 7.43359V18H1144.82V7.43359H1147.18ZM1154.66 18V7.43359H1157.02V18H1154.66ZM1166.76 7.43359V9.30859H1161.6V7.43359H1166.76ZM1168.6 7.43359V18H1166.25V7.43359H1168.6ZM1161.02 7.43359H1163.35L1163.06 12.6582C1163.03 13.4329 1162.95 14.1165 1162.83 14.709C1162.72 15.2949 1162.57 15.7995 1162.38 16.2227C1162.19 16.6393 1161.96 16.9779 1161.69 17.2383C1161.41 17.4987 1161.1 17.6908 1160.73 17.8145C1160.37 17.9382 1159.96 18 1159.5 18H1158.77L1158.76 16.0664L1159.13 16.0371C1159.37 16.0176 1159.58 15.9557 1159.75 15.8516C1159.93 15.7409 1160.08 15.5846 1160.2 15.3828C1160.33 15.181 1160.44 14.9206 1160.52 14.6016C1160.6 14.2826 1160.67 13.9049 1160.71 13.4688C1160.76 13.0326 1160.8 12.5247 1160.83 11.9453L1161.02 7.43359ZM1178.32 11.8477V13.7031H1172.85V11.8477H1178.32ZM1173.53 7.43359V18H1171.18V7.43359H1173.53ZM1180.02 7.43359V18H1177.66V7.43359H1180.02ZM1182.62 16.8281C1182.62 16.4635 1182.75 16.1576 1183 15.9102C1183.24 15.6562 1183.58 15.5293 1184 15.5293C1184.43 15.5293 1184.77 15.6562 1185.01 15.9102C1185.26 16.1576 1185.38 16.4635 1185.38 16.8281C1185.38 17.1927 1185.26 17.4987 1185.01 17.7461C1184.77 17.9935 1184.43 18.1172 1184 18.1172C1183.58 18.1172 1183.24 17.9935 1183 17.7461C1182.75 17.4987 1182.62 17.1927 1182.62 16.8281ZM1197.98 7.43359V18H1195.61V7.43359H1197.98ZM1201.44 7.43359V9.28906H1192.21V7.43359H1201.44ZM1210.23 11.8477V13.7031H1204.76V11.8477H1210.23ZM1205.45 7.43359V18H1203.09V7.43359H1205.45ZM1211.93 7.43359V18H1209.58V7.43359H1211.93ZM1221.47 7.43359V9.30859H1216.86V18H1214.51V7.43359H1221.47Z" fill="#9BA2A7"/>
</svg>
