<svg width="48" height="50" viewBox="0 0 48 50" fill="none" xmlns="http://www.w3.org/2000/svg">
<g clip-path="url(#clip0_556_2860)">
<path d="M40.0999 0C37.896 0 35.9223 1.00235 34.6089 2.57448C33.2956 1.00235 31.3219 0 29.1179 0C26.914 0 24.9403 1.00235 23.6269 2.57448C22.3136 1.00235 20.3399 0 18.136 0C15.932 0 13.9583 1.00235 12.645 2.57448C11.3316 1.00235 9.3579 0 7.15398 0C3.20926 0 0 3.20926 0 7.15394V48.337C0 49.2555 0.74452 50 1.66297 50C2.58142 50 3.32594 49.2555 3.32594 48.337V41.4571C4.43379 42.1618 5.74651 42.5721 7.15398 42.5721C9.3579 42.5721 11.3316 41.5697 12.645 39.9976C13.9583 41.5697 15.932 42.5721 18.136 42.5721C20.3399 42.5721 22.3136 41.5697 23.6269 39.9976C24.9403 41.5697 26.914 42.5721 29.1179 42.5721C31.3219 42.5721 33.2956 41.5697 34.6089 39.9976C35.9223 41.5697 37.896 42.5721 40.0999 42.5721C41.5074 42.5721 42.8201 42.1618 43.9279 41.4571V48.337C43.9279 49.2555 44.6724 50 45.5909 50C46.5093 50 47.2539 49.2555 47.2539 48.337V7.15394C47.2539 3.20926 44.0446 0 40.0999 0ZM7.15398 39.2461C5.04319 39.2461 3.32594 37.5289 3.32594 35.4181V7.15394C3.32594 5.04315 5.04319 3.32594 7.15398 3.32594C9.26473 3.32594 10.982 5.04315 10.982 7.15394V35.4181C10.982 37.5289 9.26473 39.2461 7.15398 39.2461ZM18.136 39.2461C16.0252 39.2461 14.3079 37.5289 14.3079 35.4181V7.15394C14.3079 5.04315 16.0252 3.32594 18.136 3.32594C20.2467 3.32594 21.964 5.04315 21.964 7.15394V35.4181C21.964 37.5289 20.2467 39.2461 18.136 39.2461ZM29.1179 39.2461C27.0072 39.2461 25.2899 37.5289 25.2899 35.4181V7.15394C25.2899 5.04315 27.0072 3.32594 29.1179 3.32594C31.2287 3.32594 32.9459 5.04315 32.9459 7.15394V35.4181C32.9459 37.5289 31.2287 39.2461 29.1179 39.2461ZM40.0999 39.2461C37.9891 39.2461 36.2719 37.5289 36.2719 35.4181V7.15394C36.2719 5.04315 37.9891 3.32594 40.0999 3.32594C42.2107 3.32594 43.9279 5.04315 43.9279 7.15394V35.4181C43.9279 37.5289 42.2107 39.2461 40.0999 39.2461Z" fill="#222445"/>
</g>
<defs>
<clipPath id="clip0_556_2860">
<rect width="47.2539" height="50" fill="white"/>
</clipPath>
</defs>
</svg>
