<svg width="395" height="112" viewBox="0 0 395 112" fill="none" xmlns="http://www.w3.org/2000/svg">
<path d="M58.2811 0C59.7398 0.168911 61.1986 0.299434 62.6574 0.499056C72.9149 1.89641 82.0669 5.87351 90.021 12.4764C99.7565 20.5534 106.022 30.7879 108.678 43.1568C111.12 54.5507 110.06 65.6912 105.308 76.3326C98.6586 91.2121 87.4797 101.239 72.009 106.437C67.456 107.973 62.7495 108.794 57.9356 108.971C40.8755 109.6 26.5027 103.642 14.9169 91.2044C7.26216 82.9815 2.79369 73.154 1.18903 62.0442C0.95102 60.4088 0.759075 58.7658 0.759075 57.1074C0.759075 56.8387 0.674619 56.5699 0.63623 56.2935C0.63623 55.1265 0.63623 53.9672 0.63623 52.8001C0.759075 52.5084 0.766753 52.209 0.766753 51.9018C0.797464 49.445 1.10458 47.0111 1.5806 44.6156C4.72849 28.8454 13.1126 16.6454 26.71 8.06936C33.2284 3.96174 40.3688 1.47414 48.0235 0.491378C49.4132 0.314789 50.8106 0.161234 52.2079 0C54.2349 0 56.2618 0 58.2887 0H58.2811ZM5.40414 54.543C5.21987 81.1005 26.7254 104.38 55.2791 104.38C83.3874 104.38 105.177 81.6993 105.2 54.5507C105.223 26.9874 82.8346 4.599 55.233 4.66042C27.0478 4.71416 5.21219 27.6938 5.40414 54.543Z" fill="#E32129"/>
<path d="M290.219 52.4086C290.933 52.6236 291.455 52.7618 291.97 52.9307C296.615 54.4663 299.647 58.6583 299.793 63.5491C299.885 66.6663 299.079 69.4456 296.96 71.7566C295.171 73.7068 292.914 74.8892 290.38 75.6109C287.639 76.394 284.822 76.5476 282.004 76.6858C278.319 76.8624 274.649 76.5476 270.986 76.133C270.595 76.0869 270.195 76.0101 269.812 75.9027C268.453 75.5495 267.892 74.8738 267.892 73.4842C267.892 60.4242 267.892 47.3643 267.892 34.3121C267.892 32.9838 268.353 32.4003 269.689 32.0011C271.109 31.5711 272.583 31.4406 274.042 31.3177C278.549 30.9492 283.056 30.9338 287.532 31.6479C290.833 32.17 293.805 33.3984 295.924 36.1394C299.264 40.462 298.411 46.8576 294.073 50.2051C292.937 51.0804 291.739 51.8405 290.219 52.4163V52.4086ZM278.748 62.6278C278.748 64.6777 278.748 66.7277 278.748 68.7777C278.748 69.1999 278.695 69.6683 279.332 69.7144C281.013 69.8449 282.687 69.9677 284.346 69.5147C286.557 68.9082 287.939 67.5185 288.499 65.2996C288.776 64.2094 288.745 63.1115 288.661 62.0135C288.423 58.7812 286.71 56.7619 283.585 55.9327C282.357 55.6026 281.113 55.5028 279.854 55.5488C278.833 55.5872 278.741 55.664 278.741 56.6621C278.733 58.6507 278.741 60.6392 278.741 62.6278H278.748ZM278.748 43.8249C278.748 45.6598 278.764 47.4948 278.741 49.3298C278.741 49.9441 278.94 50.2435 279.593 50.2051C280.146 50.1744 280.699 50.2281 281.244 50.1897C283.885 49.9978 285.881 48.8231 286.833 46.2741C287.824 43.6099 287.632 41.0455 285.566 38.9418C283.823 37.1605 281.536 37.2757 279.271 37.4984C278.718 37.5521 278.741 38.0051 278.741 38.412C278.741 40.2163 278.741 42.0206 278.741 43.8249H278.748Z" fill="#D8B56C"/>
<path d="M374.138 61.6681C374.138 62.1057 374.138 62.4358 374.138 62.7737C374.138 66.5434 374.138 70.3132 374.138 74.083C374.138 75.7798 373.761 76.156 372.103 76.1637C370.015 76.1637 367.926 76.1714 365.846 76.1637C364.364 76.156 364.003 75.7875 364.003 74.3057C364.003 59.4338 364.003 44.5696 364.003 29.6977C364.003 28.2313 364.256 27.9856 365.715 27.9856C367.988 27.9856 370.26 27.9856 372.525 27.9856C373.646 27.9856 373.869 28.1775 374.022 29.2755C374.099 29.8206 374.122 30.3734 374.122 30.9262C374.122 38.8036 374.122 46.681 374.138 54.5584C374.138 54.9193 374.053 55.2878 374.245 55.6947C374.575 55.5412 374.76 55.2494 374.959 55.0037C377.577 51.7637 380.218 48.5314 382.79 45.2529C383.758 44.0245 384.863 43.3489 386.476 43.441C387.973 43.5254 389.486 43.4487 390.983 43.464C391.574 43.464 392.196 43.5101 392.48 44.1473C392.741 44.7462 392.365 45.2222 392.012 45.6445C389.754 48.3087 387.482 50.9652 385.217 53.6294C384.541 54.4202 383.888 55.2341 383.159 55.9865C382.683 56.4779 382.691 56.8694 383.059 57.4222C385.355 60.908 387.612 64.409 389.885 67.9024C391.106 69.7758 392.349 71.6415 393.57 73.5149C393.985 74.1521 394.545 74.8431 394.131 75.6263C393.739 76.3633 392.894 76.1637 392.203 76.1637C389.808 76.1791 387.413 76.1253 385.025 76.1868C383.812 76.2175 383.029 75.8029 382.391 74.751C379.896 70.5973 377.332 66.4897 374.79 62.3667C374.652 62.1441 374.575 61.86 374.138 61.6757V61.6681Z" fill="#D8B56C"/>
<path d="M149.378 76.1559C148.058 76.1559 146.737 76.1636 145.417 76.1559C144.165 76.1483 143.72 75.8411 143.32 74.6434C142.445 72.056 141.57 69.4762 140.748 66.8735C140.503 66.098 140.111 65.8293 139.305 65.8447C136.05 65.883 132.802 65.8907 129.547 65.8447C128.756 65.837 128.418 66.1211 128.195 66.8581C127.42 69.3764 126.583 71.8794 125.761 74.3824C125.239 75.9563 124.94 76.1636 123.32 76.1713C121.815 76.1713 120.31 76.1713 118.813 76.1713C117.147 76.1636 116.709 75.5571 117.27 73.9754C118.936 69.2689 120.617 64.5625 122.291 59.856C124.287 54.2282 126.283 48.5927 128.272 42.9572C129.324 39.9782 130.353 36.9992 131.397 34.0202C131.481 33.7899 131.589 33.5672 131.666 33.3369C132.088 32.1085 132.886 31.548 134.245 31.6478C135.681 31.7476 137.125 31.6631 138.568 31.6708C139.796 31.6708 140.111 31.9012 140.518 33.0759C143.09 40.4542 145.639 47.8402 148.219 55.2186C150.323 61.238 152.465 67.242 154.584 73.246C154.714 73.6223 154.853 73.9985 154.937 74.39C155.183 75.5954 154.76 76.1406 153.524 76.1636C152.142 76.1866 150.76 76.1636 149.386 76.1636L149.378 76.1559ZM134.337 46.4966C133.032 50.873 131.796 55.0036 130.568 59.1343C130.376 59.7869 130.714 59.9481 131.282 59.9404C133.209 59.9328 135.144 59.9404 137.071 59.9404C138.53 59.9404 138.537 59.9251 138.1 58.497C137.232 55.6255 136.364 52.754 135.474 49.8979C135.144 48.8307 134.913 47.7251 134.33 46.5043L134.337 46.4966Z" fill="#D8B56C"/>
<path d="M224.813 61.8906C224.813 58.1515 224.82 54.4124 224.813 50.6733C224.813 49.8134 224.882 48.9535 224.989 48.1089C225.181 46.6271 226.003 45.5676 227.323 44.9073C229.488 43.8247 231.822 43.295 234.195 42.9495C238.487 42.3276 242.755 42.2892 246.971 43.4408C249.873 44.2316 252.038 45.8747 252.959 48.8613C253.22 49.7136 253.305 50.6042 253.305 51.4948C253.305 59.0651 253.305 66.6431 253.305 74.2134C253.305 75.7874 252.929 76.1559 251.339 76.1636C249.374 76.1636 247.408 76.1636 245.443 76.1636C243.362 76.1636 243.17 75.9716 243.17 73.9217C243.17 66.7813 243.17 59.6333 243.178 52.4929C243.178 51.8787 243.162 51.2645 242.993 50.6733C242.909 50.3816 242.825 50.0821 242.686 49.8057C242.011 48.4621 240.322 47.7941 238.272 48.0398C236.598 48.2394 235.638 49.0226 235.254 50.5581C235.032 51.4488 234.924 52.3701 234.924 53.2914C234.924 59.8867 234.939 66.4742 234.932 73.0694C234.932 73.6836 235.108 74.2748 235.001 74.8967C234.863 75.6799 234.448 76.1405 233.657 76.1482C231.17 76.1712 228.682 76.1636 226.202 76.1482C225.496 76.1482 225.089 75.7259 224.92 75.0426C224.812 74.5896 224.813 74.129 224.813 73.6683C224.813 69.7449 224.813 65.8216 224.813 61.8982V61.8906Z" fill="#D8B56C"/>
<path d="M331.787 61.476C331.787 57.3684 331.841 53.2608 331.764 49.1532C331.718 46.8575 332.816 45.4602 334.797 44.6003C336.778 43.7403 338.866 43.2413 341 42.9419C345.07 42.3737 349.131 42.3583 353.162 43.2106C357.661 44.1549 360.149 47.2184 360.164 51.802C360.18 59.2495 360.164 66.6969 360.164 74.1444C360.164 75.7721 359.788 76.1483 358.16 76.156C356.072 76.1637 353.984 76.179 351.903 76.156C350.436 76.1406 350.03 75.726 350.03 74.2826C350.03 69.2229 349.991 64.1709 350.06 59.1113C350.091 56.7235 350.237 54.3434 350.045 51.9556C349.769 48.5466 347.611 47.4257 344.34 48.1935C342.69 48.585 342.121 49.9977 341.945 51.5563C341.899 51.9479 341.922 52.3548 341.922 52.7541C341.922 59.6487 341.922 66.5434 341.922 73.438C341.922 73.8066 341.929 74.1751 341.906 74.5436C341.814 75.6953 341.369 76.1329 340.21 76.1483C337.968 76.1637 335.734 76.1713 333.492 76.1483C332.156 76.1406 331.795 75.7644 331.795 74.4361C331.795 70.1136 331.795 65.791 331.795 61.476H331.787Z" fill="#D8B56C"/>
<path d="M209.058 63.9712C209.925 60.9999 210.716 58.2743 211.522 55.541C212.505 52.1858 213.488 48.8383 214.478 45.4908C214.593 45.1069 214.747 44.7383 214.908 44.3775C215.185 43.7556 215.676 43.4485 216.359 43.4485C218.11 43.4485 219.86 43.4254 221.603 43.4562C222.701 43.4792 223.077 43.9782 222.893 45.0685C222.701 46.1664 222.225 47.1645 221.864 48.2087C219.96 53.7751 218.072 59.3492 216.16 64.9156C214.14 70.7661 212.137 76.6242 210.048 82.4516C209.311 84.5016 208.298 86.4518 206.777 88.0564C203.975 91.0277 200.52 92.0719 196.566 91.1736C194.462 90.6976 193.08 89.3233 192.666 87.1121C192.174 84.5093 194.562 82.0678 197.173 82.5054C198.056 82.6513 198.9 82.9277 199.752 83.1734C201.18 83.5803 201.994 83.2885 202.846 82.0678C203.553 81.0543 203.998 79.9103 204.413 78.7509C204.635 78.1214 204.413 77.5379 204.205 76.962C202.724 72.77 201.203 68.6009 199.745 64.4012C197.595 58.2052 195.215 52.086 193.211 45.8439C192.528 43.7249 192.743 43.4408 194.984 43.4408C197.134 43.4408 199.284 43.4408 201.426 43.4408C202.908 43.4408 203.169 43.6558 203.568 45.0455C205.311 51.1723 207.062 57.3069 208.812 63.4338C208.843 63.5413 208.912 63.6411 209.065 63.9712H209.058Z" fill="#D8B56C"/>
<path d="M327.925 60.4319C327.925 63.7103 327.886 66.9964 327.94 70.2748C327.979 72.5244 326.957 74.06 325.038 75.1041C322.827 76.3019 320.416 76.7702 317.951 76.8624C315.295 76.9622 312.608 77.1541 309.974 76.5399C307.51 75.9641 305.275 74.989 303.571 73.0081C301.352 70.4284 301.16 64.7238 304.346 61.4914C305.989 59.8253 307.97 58.7888 310.128 58.0134C312.562 57.1458 315.072 56.5623 317.598 56.0325C318.305 55.8866 318.573 55.6026 318.543 54.8808C318.474 53.4144 318.619 51.9402 318.358 50.4738C318.136 49.1993 317.376 48.301 316.27 48.0553C314.919 47.7559 313.667 48.2088 312.922 49.253C312.362 50.0362 312.078 50.9498 311.679 51.8097C310.527 54.282 307.855 55.188 305.467 53.9058C303.371 52.7848 302.742 50.0745 304.139 47.825C305.329 45.9055 307.064 44.608 309.191 43.8786C313.468 42.4198 317.821 42.0359 322.228 43.1799C325.79 44.1012 327.925 46.9113 327.94 50.5813C327.948 53.8597 327.94 57.1458 327.94 60.4242L327.925 60.4319ZM318.52 64.4781C318.52 63.3494 318.512 62.2131 318.52 61.0845C318.52 60.4933 318.289 60.2937 317.729 60.501C316.953 60.7851 316.155 61.0307 315.402 61.3609C312.255 62.7582 311.395 65.0539 311.778 68.125C311.986 69.7681 312.922 70.9428 314.573 71.4342C316.677 72.0561 318.105 71.0503 318.374 68.8774C318.55 67.411 318.504 65.9445 318.52 64.4781Z" fill="#D8B56C"/>
<path d="M157.739 52.0016C157.739 44.6463 157.739 37.2909 157.739 29.9433C157.739 28.2388 158 27.9778 159.712 27.9778C161.923 27.9778 164.127 27.9778 166.338 27.9778C167.536 27.9778 167.927 28.354 168.012 29.5441C168.035 29.8819 168.027 30.2197 168.027 30.5575C168.027 44.7768 168.027 58.9884 168.027 73.2076C168.027 73.7604 167.973 74.3056 167.935 74.8584C167.889 75.6722 167.405 76.1175 166.637 76.1252C164.088 76.1559 161.547 76.1636 158.998 76.1252C158.207 76.1098 157.808 75.6031 157.747 74.8046C157.724 74.4975 157.739 74.1904 157.739 73.8833C157.739 66.5894 157.739 59.2955 157.739 52.0093V52.0016Z" fill="#D8B56C"/>
<path d="M174.707 58.8041C174.707 55.0036 174.707 51.8788 174.707 48.7539C174.707 47.7021 174.584 47.6099 173.517 47.7174C170.983 47.9861 170.576 47.6176 170.653 45.0839C170.691 43.7787 170.998 43.4716 172.304 43.4255C172.427 43.4255 172.549 43.4255 172.672 43.4255C174.953 43.4102 174.691 43.6943 174.707 41.3372C174.707 41.0915 174.715 40.8458 174.707 40.6001C174.653 39.2642 175.191 38.3735 176.465 37.7977C178.2 37.0223 179.859 36.0779 181.548 35.2103C182.093 34.9262 182.646 34.6575 183.252 34.5423C184.097 34.3888 184.534 34.6652 184.711 35.5097C184.788 35.8629 184.795 36.2391 184.795 36.6077C184.803 38.4734 184.795 40.3467 184.795 42.2124C184.795 43.4025 184.819 43.4255 186.055 43.4255C187.037 43.4255 188.02 43.4102 189.003 43.4409C190.062 43.4716 190.308 43.725 190.339 44.7538C190.354 45.3987 190.362 46.0437 190.316 46.6809C190.27 47.3182 189.932 47.6713 189.233 47.6637C188.066 47.6406 186.899 47.679 185.74 47.656C185.095 47.6406 184.795 47.8403 184.795 48.5389C184.819 54.6351 184.811 60.7313 184.826 66.8274C184.826 67.219 184.903 67.6182 184.98 68.0098C185.417 70.2057 186.508 71.1654 188.734 71.3573C189.164 71.3957 189.594 71.4264 190.009 71.5186C191.56 71.8487 192.112 73.3152 191.176 74.605C190.961 74.9121 190.684 75.1655 190.362 75.3344C186.508 77.3614 182.577 77.6608 178.669 75.5801C176.143 74.2365 175.121 71.8717 174.86 69.1308C174.523 65.4608 174.814 61.7831 174.707 58.7811V58.8041Z" fill="#D8B56C"/>
<path d="M124.064 103.366C124.064 104.195 124.057 105.024 124.064 105.846C124.08 106.491 124.133 107.051 124.54 107.696C125.055 108.518 124.855 109.669 124.625 110.645C124.51 111.136 123.88 110.898 123.473 110.913C123.097 110.929 122.959 110.698 122.905 110.337C122.698 108.925 122.682 108.932 121.277 108.932C120.97 108.932 120.663 108.932 120.356 108.932C119.035 108.932 119.005 108.932 118.889 110.276C118.828 110.975 118.383 110.921 117.914 110.929C117.454 110.929 117.039 110.898 117.039 110.276C117.039 109.539 117.039 108.802 117.039 108.072C117.039 107.927 117.054 107.719 117.147 107.643C118.559 106.506 118.329 104.856 118.475 103.343C118.582 102.253 118.521 101.139 118.498 100.034C118.482 99.4119 118.721 99.1432 119.358 99.1586C120.648 99.1816 121.937 99.1816 123.227 99.1586C123.88 99.1432 124.08 99.4503 124.072 100.057C124.049 101.162 124.072 102.26 124.072 103.366H124.064ZM119.603 107.305C120.325 107.481 120.87 107.405 121.415 107.428C121.945 107.451 122.199 107.236 122.191 106.675C122.176 104.963 122.176 103.259 122.191 101.546C122.199 100.848 121.792 100.763 121.239 100.763C120.709 100.763 120.356 100.878 120.356 101.516C120.371 103.435 120.463 105.362 119.596 107.289L119.603 107.305Z" fill="#D8B56C"/>
<path d="M270.188 103.781C271.278 104.503 271.478 105.493 271.37 106.591C271.209 108.234 270.441 108.933 268.798 108.94C267.938 108.94 267.078 108.925 266.218 108.94C265.681 108.948 265.443 108.71 265.443 108.165C265.451 105.409 265.443 102.652 265.443 99.8959C265.443 99.3968 265.673 99.1665 266.165 99.1665C267.055 99.1665 267.946 99.1435 268.836 99.1665C269.819 99.1972 270.679 99.5273 271.032 100.525C271.385 101.531 271.332 102.514 270.564 103.359C270.464 103.466 270.364 103.574 270.18 103.765L270.188 103.781ZM267.324 106.023C267.324 106.238 267.324 106.453 267.324 106.668C267.347 107.52 267.547 107.689 268.383 107.566C269.274 107.435 269.727 106.445 269.366 105.409C269.151 104.802 268.499 104.441 267.823 104.564C267.117 104.687 267.385 105.255 267.324 105.662C267.309 105.785 267.324 105.908 267.324 106.03V106.023ZM268.061 100.648C267.792 100.664 267.393 100.618 267.362 101.094C267.324 101.639 267.347 102.192 267.362 102.737C267.362 102.982 267.524 103.128 267.769 103.159C268.276 103.213 268.767 103.19 269.098 102.744C269.435 102.291 269.428 101.762 269.259 101.255C269.082 100.74 268.621 100.648 268.069 100.656L268.061 100.648Z" fill="#D8B56C"/>
<path d="M366.99 105.216C366.99 104.357 366.99 103.497 366.99 102.644C366.997 101.6 367.519 101.193 368.418 101.654C368.832 101.869 369.047 101.8 369.377 101.623C370.022 101.278 370.69 101.232 371.274 101.715C371.627 102.007 371.873 101.999 372.226 101.731C372.809 101.285 373.47 101.27 374.145 101.539C374.706 101.769 375.067 102.168 375.074 102.79C375.09 104.595 375.074 106.407 375.09 108.211C375.09 108.794 374.775 108.925 374.268 108.933C373.7 108.948 373.408 108.741 373.424 108.142C373.439 106.913 373.424 105.693 373.424 104.464C373.424 104.188 373.424 103.911 373.401 103.635C373.37 103.182 373.155 102.867 372.664 102.852C372.149 102.836 371.965 103.19 371.95 103.627C371.927 104.549 371.934 105.462 371.927 106.384C371.927 106.936 371.903 107.489 371.927 108.042C371.95 108.648 371.735 108.94 371.082 108.94C370.414 108.94 370.237 108.633 370.245 108.034C370.268 106.806 370.253 105.585 370.245 104.357C370.245 104.08 370.245 103.804 370.191 103.535C370.115 103.143 369.9 102.859 369.454 102.852C369.001 102.844 368.771 103.12 368.702 103.52C368.64 103.881 368.64 104.249 368.633 104.618C368.625 105.723 368.617 106.821 368.633 107.927C368.633 108.503 368.587 108.94 367.819 108.948C366.997 108.963 366.944 108.495 366.951 107.881C366.967 106.99 366.951 106.107 366.951 105.216H366.99Z" fill="#D8B56C"/>
<path d="M173.202 103.996C173.202 102.714 173.225 101.424 173.194 100.141C173.171 99.4505 173.394 99.128 174.131 99.1587C175.26 99.1971 176.396 99.1818 177.532 99.1587C178.07 99.1587 178.408 99.2969 178.392 99.9265C178.377 100.525 178.047 100.633 177.555 100.625C177.003 100.618 176.45 100.648 175.905 100.625C175.337 100.602 175.029 100.809 175.076 101.416C175.091 101.6 175.091 101.785 175.076 101.969C174.991 102.698 175.275 103.12 176.051 102.982C178.592 102.522 179.913 105.585 178.676 107.865C178.3 108.556 177.694 108.94 176.872 108.94C175.92 108.94 174.976 108.925 174.024 108.94C173.44 108.956 173.194 108.718 173.202 108.126C173.225 106.752 173.202 105.37 173.202 103.996ZM175.076 105.984C175.076 106.199 175.076 106.414 175.076 106.622C175.091 107.52 175.398 107.75 176.266 107.528C176.949 107.351 177.172 106.829 177.195 106.222C177.225 105.57 177.141 104.902 176.458 104.587C175.636 104.203 175.099 104.564 175.076 105.439C175.076 105.623 175.076 105.808 175.076 105.984Z" fill="#D8B56C"/>
<path d="M236.382 104.142C236.382 104.848 236.367 105.554 236.382 106.253C236.398 106.883 236.436 107.52 237.281 107.612C238.002 107.689 238.287 107.405 238.471 106.437C238.655 105.455 238.855 105.324 239.799 105.424C240.275 105.478 240.406 105.723 240.421 106.153C240.467 107.827 239.461 108.986 237.749 109.201C236.022 109.416 234.747 108.564 234.501 106.852C234.233 104.971 234.21 103.059 234.547 101.178C234.816 99.7038 236.029 98.89 237.611 99.0052C239.246 99.1203 240.244 100.026 240.39 101.531C240.429 101.93 240.482 102.406 239.899 102.422C239.369 102.437 238.678 102.721 238.502 101.831C238.44 101.508 238.417 101.155 238.164 100.894C237.849 100.564 237.442 100.579 237.05 100.671C236.59 100.779 236.421 101.163 236.405 101.577C236.375 102.437 236.398 103.289 236.398 104.149H236.375L236.382 104.142Z" fill="#D8B56C"/>
<path d="M203.967 104.095C203.967 104.802 203.951 105.508 203.967 106.207C203.99 107.213 204.243 107.573 204.919 107.612C205.633 107.658 205.917 107.359 206.101 106.391C206.278 105.447 206.439 105.339 207.353 105.416C207.806 105.454 207.998 105.646 208.021 106.099C208.105 107.75 207.092 108.955 205.395 109.186C203.652 109.416 202.362 108.556 202.116 106.882C201.84 104.994 201.817 103.09 202.147 101.209C202.4 99.7421 203.521 98.9436 205.088 98.982C206.708 99.0204 207.714 99.8189 207.959 101.293C208.028 101.715 208.236 102.237 207.552 102.414C206.746 102.621 206.27 102.383 206.086 101.677C205.986 101.293 205.94 100.886 205.518 100.687C204.788 100.349 204.12 100.748 203.997 101.6C203.99 101.662 203.982 101.723 203.982 101.784C203.982 102.552 203.982 103.32 203.982 104.08L203.967 104.095Z" fill="#D8B56C"/>
<path d="M313.805 108.764C313.644 109.401 313.736 110.038 313.721 110.668C313.713 111.259 313.421 111.466 312.853 111.474C312.27 111.474 311.917 111.313 311.917 110.652C311.924 107.865 311.909 105.078 311.932 102.284C311.932 101.593 312.608 101.278 313.444 101.623C313.79 101.762 313.982 101.808 314.327 101.623C315.456 101.032 316.738 101.608 316.938 102.867C317.183 104.441 317.199 106.053 316.938 107.627C316.692 109.101 315.51 109.485 313.813 108.756L313.805 108.764ZM315.203 105.355C315.203 105.355 315.195 105.355 315.187 105.355C315.187 104.74 315.218 104.126 315.18 103.52C315.157 103.097 314.865 102.867 314.435 102.859C313.982 102.859 313.752 103.136 313.752 103.558C313.736 104.725 313.736 105.884 313.759 107.051C313.767 107.458 314.013 107.758 314.45 107.766C314.942 107.773 315.18 107.466 315.195 107.013C315.218 106.46 315.195 105.908 315.195 105.362L315.203 105.355Z" fill="#D8B56C"/>
<path d="M254.994 104.118C254.994 103.228 254.924 102.337 255.009 101.454C255.162 99.8649 256.391 98.9282 258.111 98.9897C259.708 99.0511 260.813 100.049 260.882 101.493C260.905 101.976 260.905 102.46 260.222 102.437C259.708 102.422 259.063 102.637 259.001 101.754C258.955 101.086 258.702 100.548 257.873 100.617C257.067 100.686 256.867 101.255 256.852 101.907C256.821 103.374 256.821 104.848 256.852 106.314C256.867 106.959 257.044 107.558 257.85 107.612C258.533 107.658 258.894 107.259 259.009 106.36C259.109 105.516 259.738 105.155 260.529 105.462C260.813 105.57 260.852 105.785 260.882 106.038C261.074 107.719 259.953 109.048 258.18 109.216C256.422 109.385 255.101 108.364 254.978 106.683C254.917 105.831 254.971 104.971 254.971 104.111C254.971 104.111 254.978 104.111 254.986 104.111L254.994 104.118Z" fill="#D8B56C"/>
<path d="M294.227 104.111C294.227 103.22 294.158 102.33 294.242 101.447C294.396 99.8573 295.632 98.9206 297.352 98.9897C298.949 99.0511 300.055 100.057 300.124 101.5C300.147 101.992 300.131 102.46 299.456 102.437C298.934 102.422 298.296 102.629 298.243 101.738C298.196 101.063 297.935 100.541 297.114 100.61C296.315 100.679 296.116 101.255 296.1 101.907C296.07 103.374 296.07 104.848 296.1 106.314C296.116 106.959 296.3 107.55 297.106 107.604C297.79 107.65 298.143 107.251 298.258 106.345C298.358 105.516 299.003 105.147 299.778 105.462C300.062 105.577 300.101 105.792 300.124 106.046C300.308 107.735 299.187 109.048 297.413 109.216C295.655 109.378 294.342 108.364 294.219 106.675C294.158 105.823 294.212 104.963 294.212 104.103C294.212 104.103 294.219 104.103 294.227 104.103V104.111Z" fill="#D8B56C"/>
<path d="M392.472 101.746C392.649 101.101 392.564 100.494 392.564 99.8955C392.564 99.3274 392.848 99.1584 393.371 99.1584C393.9 99.1584 394.261 99.2659 394.253 99.9109C394.238 102.667 394.254 105.416 394.238 108.172C394.238 108.879 393.639 109.201 392.848 108.871C392.511 108.725 392.342 108.679 391.996 108.894C390.914 109.554 389.555 109.017 389.355 107.773C389.086 106.145 389.117 104.471 389.34 102.836C389.516 101.523 390.737 101.124 392.472 101.754V101.746ZM391.075 105.262C391.075 105.838 391.06 106.422 391.075 106.997C391.09 107.443 391.275 107.781 391.781 107.773C392.265 107.773 392.526 107.466 392.534 107.021C392.557 105.892 392.557 104.763 392.534 103.635C392.526 103.136 392.234 102.836 391.712 102.867C391.198 102.898 391.083 103.281 391.075 103.711C391.067 104.233 391.075 104.748 391.075 105.27V105.262Z" fill="#D8B56C"/>
<path d="M146.346 108.418C146.346 109.324 146.33 109.992 146.346 110.668C146.369 111.267 146.1 111.482 145.517 111.482C144.971 111.482 144.649 111.336 144.649 110.714C144.664 107.927 144.649 105.147 144.664 102.36C144.664 101.608 145.309 101.27 146.1 101.646C146.446 101.808 146.614 101.846 146.96 101.646C148.211 100.932 149.578 101.7 149.647 103.159C149.701 104.441 149.647 105.731 149.67 107.013C149.686 107.842 149.455 108.541 148.695 108.948C147.904 109.37 147.16 109.217 146.338 108.418H146.346ZM147.958 105.339C147.958 104.787 147.973 104.241 147.958 103.689C147.935 103.205 147.705 102.867 147.175 102.859C146.684 102.859 146.422 103.182 146.407 103.612C146.369 104.74 146.361 105.869 146.407 106.998C146.422 107.466 146.699 107.819 147.236 107.781C147.774 107.742 147.958 107.374 147.973 106.898C147.989 106.376 147.973 105.861 147.973 105.339H147.958Z" fill="#D8B56C"/>
<path d="M211.085 101.792C211.384 101.669 211.576 101.585 211.776 101.516C212.82 101.147 213.772 101.631 214.087 102.69C214.263 103.282 214.271 103.896 214.271 104.518C214.263 105.715 214.248 106.906 214.271 108.103C214.279 108.748 213.987 108.956 213.373 108.948C212.774 108.948 212.451 108.771 212.459 108.111C212.475 106.637 212.459 105.17 212.459 103.696C212.459 103.259 212.329 102.882 211.807 102.859C211.277 102.836 211.031 103.159 210.993 103.658C210.977 103.904 210.977 104.149 210.977 104.395C210.977 105.623 210.954 106.852 210.977 108.073C210.993 108.787 210.655 108.956 210.018 108.94C209.365 108.925 209.281 108.541 209.288 108.027C209.288 105.877 209.288 103.735 209.288 101.585C209.288 101.032 209.311 100.479 209.288 99.9264C209.265 99.3045 209.595 99.151 210.148 99.1433C210.732 99.1433 210.985 99.3583 210.977 99.9572C210.977 100.533 210.885 101.116 211.085 101.777V101.792Z" fill="#D8B56C"/>
<path d="M159.067 105.47C159.497 104.403 159.942 103.335 160.357 102.261C160.526 101.815 160.779 101.562 161.294 101.547C162.161 101.531 162.315 101.631 162.322 102.514C162.33 104.349 162.322 106.184 162.322 108.019C162.322 108.587 162.2 108.94 161.516 108.948C160.795 108.956 160.626 108.61 160.649 107.988C160.672 107.059 160.649 106.123 160.649 105.193C160.58 105.178 160.518 105.17 160.449 105.155C160.042 106.13 159.597 107.09 159.251 108.088C158.998 108.81 158.553 109.002 157.854 108.94C157.393 108.894 157.186 108.695 157.186 108.249C157.186 106.23 157.186 104.211 157.186 102.191C157.186 101.646 157.524 101.539 157.977 101.547C158.445 101.547 158.844 101.593 158.844 102.207C158.844 103.274 158.844 104.341 158.844 105.408C158.914 105.424 158.983 105.439 159.052 105.462L159.067 105.47Z" fill="#D8B56C"/>
<path d="M287.125 103.857C287.401 103.381 287.678 102.913 287.947 102.437C288.515 101.454 288.737 101.37 290.02 101.715C289.904 102.268 289.605 102.736 289.275 103.159C288.553 104.08 288.469 104.978 289.029 106.03C289.482 106.882 289.758 107.827 290.112 108.74C288.668 109.178 288.361 109.048 287.9 107.85C287.716 107.366 287.54 106.882 287.332 106.322C286.81 106.875 286.879 107.466 286.887 108.026C286.895 108.61 286.741 108.94 286.065 108.948C285.344 108.963 285.183 108.618 285.19 107.988C285.206 105.355 285.206 102.713 285.19 100.08C285.19 99.5041 285.321 99.1586 286.004 99.1509C286.71 99.1509 286.902 99.4657 286.887 100.103C286.864 101.347 286.879 102.591 286.879 103.834L287.117 103.857H287.125Z" fill="#D8B56C"/>
<path d="M165.501 105.27C165.916 104.249 166.369 103.251 166.738 102.214C166.991 101.516 167.498 101.523 168.066 101.562C168.718 101.608 168.619 102.107 168.619 102.522C168.626 104.326 168.619 106.13 168.626 107.934C168.626 108.518 168.573 108.94 167.805 108.948C167.075 108.948 166.93 108.587 166.945 107.973C166.968 107.105 166.945 106.23 166.945 105.355C166.876 105.339 166.807 105.332 166.738 105.316C166.338 106.291 165.916 107.259 165.547 108.249C165.356 108.756 165.041 108.933 164.511 108.948C163.835 108.963 163.59 108.702 163.597 108.027C163.62 106.161 163.62 104.295 163.597 102.429C163.597 101.823 163.782 101.539 164.442 101.539C165.102 101.539 165.294 101.831 165.279 102.437C165.256 103.381 165.279 104.318 165.279 105.263L165.494 105.278L165.501 105.27Z" fill="#D8B56C"/>
<path d="M229.949 105.861C229.949 106.537 229.949 107.205 229.949 107.881C229.956 108.925 229.48 109.27 228.49 108.833C228.206 108.71 228.083 108.648 227.799 108.825C226.855 109.393 225.749 109.263 225.196 108.587C224.559 107.804 224.62 106.268 225.311 105.516C225.672 105.124 226.148 104.902 226.617 104.679C226.947 104.518 227.277 104.364 227.599 104.172C227.906 103.988 228.106 103.727 228.06 103.343C228.029 103.059 227.845 102.905 227.576 102.867C227.185 102.813 226.839 102.867 226.647 103.274C226.532 103.52 226.463 103.819 226.14 103.873C225.749 103.934 225.311 104.049 225.004 103.742C224.689 103.435 224.912 103.044 225.05 102.714C225.473 101.7 226.77 101.17 228.114 101.431C229.404 101.685 229.933 102.322 229.941 103.658C229.941 104.395 229.941 105.124 229.941 105.861H229.949ZM228.022 105.431C226.924 105.869 226.486 106.345 226.555 107.021C226.601 107.443 226.755 107.796 227.261 107.812C227.73 107.827 228.022 107.589 228.068 107.128C228.121 106.591 228.167 106.046 228.014 105.439L228.022 105.431Z" fill="#D8B56C"/>
<path d="M185.556 105.869C185.556 106.668 185.518 107.466 185.571 108.257C185.602 108.81 185.379 109.009 184.888 108.925C184.089 108.787 183.352 108.817 182.554 109.109C181.763 109.401 180.926 108.94 180.581 108.295C180.151 107.489 180.343 106.099 180.965 105.454C181.387 105.025 181.932 104.817 182.454 104.556C182.73 104.418 183.007 104.28 183.253 104.103C183.537 103.904 183.752 103.635 183.652 103.243C183.598 103.005 183.414 102.89 183.191 102.852C182.8 102.79 182.393 102.836 182.254 103.243C182.032 103.896 181.571 103.95 181.011 103.896C180.535 103.85 180.366 103.581 180.481 103.136C180.657 102.445 181.057 101.923 181.725 101.631C182.692 101.209 183.644 101.293 184.573 101.723C185.264 102.046 185.518 102.667 185.533 103.381C185.556 104.211 185.533 105.04 185.533 105.861H185.548L185.556 105.869ZM183.613 105.355C182.838 105.685 182.224 106.023 182.139 106.836C182.093 107.297 182.239 107.712 182.777 107.781C183.283 107.85 183.621 107.589 183.675 107.082C183.736 106.545 183.775 105.992 183.613 105.355Z" fill="#D8B56C"/>
<path d="M333.998 105.869C333.998 106.514 333.998 107.159 333.998 107.796C334.006 108.948 333.492 109.301 332.455 108.771C332.179 108.633 332.079 108.641 331.841 108.786C330.881 109.378 329.745 109.255 329.177 108.541C328.601 107.811 328.685 106.261 329.338 105.539C329.676 105.163 330.113 104.948 330.551 104.725C330.935 104.533 331.326 104.349 331.68 104.118C331.971 103.926 332.179 103.658 332.087 103.266C332.017 102.99 331.802 102.882 331.541 102.859C331.181 102.829 330.82 102.89 330.689 103.258C330.49 103.834 330.098 103.965 329.545 103.926C328.954 103.888 328.816 103.596 328.962 103.067C329.138 102.437 329.499 101.976 330.083 101.685C332.117 100.679 333.975 101.8 333.983 104.042C333.983 104.656 333.983 105.27 333.983 105.877L333.998 105.869ZM332.056 105.37C331.303 105.677 330.697 105.999 330.589 106.806C330.528 107.266 330.658 107.696 331.196 107.773C331.741 107.857 332.087 107.566 332.133 107.021C332.179 106.506 332.225 105.992 332.056 105.362V105.37Z" fill="#D8B56C"/>
<path d="M323.487 105.27C323.487 105.792 323.51 106.314 323.487 106.829C323.395 108.372 322.404 109.247 320.8 109.224C319.218 109.201 318.258 108.364 318.189 106.867C318.135 105.831 318.135 104.787 318.189 103.75C318.266 102.191 319.226 101.362 320.861 101.37C322.443 101.378 323.372 102.199 323.479 103.712C323.518 104.226 323.479 104.748 323.479 105.27H323.487ZM321.66 105.278C321.66 104.702 321.667 104.119 321.66 103.543C321.644 103.028 321.368 102.744 320.853 102.76C320.37 102.775 320.032 103.005 320.024 103.543C320.017 104.671 320.009 105.792 320.024 106.921C320.024 107.458 320.308 107.773 320.869 107.789C321.468 107.804 321.675 107.458 321.675 106.921C321.675 106.376 321.675 105.823 321.675 105.278H321.66Z" fill="#D8B56C"/>
<path d="M277.658 105.8C277.658 106.476 277.658 107.143 277.658 107.819C277.658 108.94 277.213 109.27 276.177 108.825C275.946 108.725 275.839 108.625 275.562 108.787C274.441 109.431 273.397 109.255 272.806 108.387C272.177 107.466 272.422 105.93 273.344 105.239C273.704 104.971 274.142 104.794 274.549 104.579C274.848 104.418 275.148 104.272 275.432 104.095C275.716 103.919 275.839 103.642 275.777 103.305C275.724 103.028 275.539 102.89 275.271 102.852C274.917 102.806 274.587 102.859 274.403 103.212C274.28 103.45 274.257 103.773 273.935 103.842C273.543 103.927 273.106 104.034 272.798 103.719C272.514 103.427 272.645 103.028 272.798 102.683C273.228 101.685 274.541 101.147 275.87 101.424C277.121 101.685 277.643 102.306 277.658 103.581C277.666 104.318 277.658 105.047 277.658 105.785V105.8ZM275.739 105.439C274.61 105.892 274.273 106.307 274.326 107.059C274.357 107.474 274.511 107.773 274.971 107.804C275.44 107.827 275.754 107.627 275.793 107.144C275.839 106.598 275.885 106.053 275.739 105.439Z" fill="#D8B56C"/>
<path d="M347.066 105.301C347.066 105.854 347.104 106.407 347.066 106.952C346.958 108.364 346.045 109.171 344.555 109.209C343.027 109.255 342.029 108.564 341.845 107.182C341.676 105.884 341.645 104.556 341.876 103.259C342.114 101.915 343.127 101.27 344.678 101.37C346.075 101.462 346.966 102.253 347.066 103.558C347.112 104.134 347.066 104.717 347.066 105.301ZM345.238 105.355C345.238 105.355 345.231 105.355 345.223 105.355C345.223 104.717 345.238 104.072 345.223 103.435C345.208 103.005 344.924 102.767 344.509 102.76C344.079 102.752 343.649 102.89 343.634 103.374C343.588 104.618 343.588 105.869 343.634 107.113C343.649 107.627 344.071 107.804 344.555 107.781C345.062 107.758 345.238 107.443 345.246 106.99C345.254 106.445 345.246 105.892 345.246 105.347L345.238 105.355Z" fill="#D8B56C"/>
<path d="M138.253 105.293C138.222 104.618 138.283 103.95 138.368 103.282C138.483 102.307 139.036 101.731 139.957 101.493C140.986 101.232 142.007 101.27 142.798 102.046C143.635 102.875 143.412 103.98 143.351 105.009C143.328 105.416 142.951 105.424 142.644 105.424C142.03 105.431 141.416 105.447 140.809 105.424C140.257 105.408 140.019 105.662 140.049 106.199C140.057 106.383 140.049 106.568 140.049 106.752C140.057 107.19 140.049 107.65 140.617 107.758C141.132 107.85 141.539 107.689 141.685 107.151C141.784 106.79 142.015 106.683 142.36 106.66C143.282 106.583 143.596 107.013 143.228 107.881C142.836 108.802 141.731 109.332 140.525 109.186C139.243 109.032 138.606 108.503 138.391 107.397C138.253 106.706 138.23 106 138.253 105.293ZM140.894 104.142C141.316 104.142 141.715 104.103 141.7 103.535C141.685 102.998 141.347 102.767 140.871 102.76C140.364 102.752 140.08 103.028 140.08 103.55C140.08 104.126 140.487 104.142 140.901 104.142H140.894Z" fill="#D8B56C"/>
<path d="M388.119 104.026C388.134 105.37 388.073 105.431 386.937 105.439C386.568 105.439 386.2 105.416 385.831 105.439C385.455 105.47 384.933 105.262 384.756 105.715C384.549 106.253 384.533 106.875 384.802 107.412C385.094 107.996 386.038 107.927 386.253 107.274C386.53 106.43 387.136 106.698 387.674 106.691C387.935 106.691 388.034 106.89 388.019 107.136C387.996 107.443 387.95 107.742 387.804 108.019C387.328 108.948 386.115 109.378 384.741 109.094C383.65 108.871 383.021 108.172 382.983 107.051C382.952 105.923 382.952 104.786 382.983 103.658C383.013 102.237 383.766 101.477 385.201 101.37C386.745 101.247 387.75 101.915 388.019 103.243C388.088 103.573 388.111 103.911 388.119 104.011V104.026ZM385.485 104.149C385.9 104.149 386.307 104.126 386.299 103.55C386.299 103.028 386 102.752 385.501 102.767C385.025 102.783 384.687 103.005 384.679 103.55C384.672 104.126 385.071 104.149 385.485 104.157V104.149Z" fill="#D8B56C"/>
<path d="M301.383 105.27C301.383 104.656 301.344 104.042 301.383 103.435C301.475 102.122 302.427 101.378 303.947 101.37C305.398 101.37 306.473 102.176 306.542 103.428C306.604 104.648 306.596 105.877 306.542 107.098C306.496 108.203 305.828 108.871 304.73 109.109C304.178 109.232 303.64 109.209 303.095 109.086C302.058 108.856 301.437 108.157 301.383 107.098C301.352 106.483 301.383 105.877 301.383 105.263V105.27ZM303.095 105.247C303.095 105.247 303.103 105.247 303.11 105.247C303.11 105.861 303.08 106.476 303.118 107.082C303.149 107.543 303.463 107.773 303.932 107.796C304.392 107.819 304.746 107.62 304.792 107.159C304.93 105.938 304.915 104.717 304.792 103.497C304.746 103.013 304.4 102.729 303.893 102.767C303.387 102.798 303.11 103.105 303.087 103.604C303.064 104.157 303.087 104.702 303.087 105.255L303.095 105.247Z" fill="#D8B56C"/>
<path d="M130.875 105.339C130.875 105.953 130.905 106.568 130.875 107.174C130.813 108.134 130.199 108.833 129.27 109.063C128.671 109.216 128.065 109.24 127.45 109.094C126.414 108.856 125.769 108.188 125.715 107.113C125.661 105.923 125.654 104.725 125.715 103.535C125.777 102.153 126.844 101.324 128.387 101.362C129.946 101.401 130.829 102.176 130.89 103.589C130.913 104.172 130.89 104.748 130.89 105.332C130.89 105.332 130.89 105.332 130.882 105.332L130.875 105.339ZM129.178 105.293C129.178 104.771 129.178 104.257 129.178 103.735C129.178 103.174 128.94 102.767 128.326 102.752C127.711 102.744 127.435 103.151 127.427 103.696C127.404 104.763 127.404 105.838 127.443 106.905C127.466 107.458 127.75 107.827 128.379 107.781C128.963 107.735 129.155 107.366 129.17 106.852C129.185 106.33 129.17 105.815 129.17 105.293H129.178Z" fill="#D8B56C"/>
<path d="M348.34 105.239C348.34 104.38 348.34 103.527 348.34 102.667C348.34 101.608 348.578 101.354 349.584 101.585C350.091 101.7 350.498 101.654 350.974 101.477C351.933 101.124 352.862 101.692 353.154 102.729C353.4 103.596 353.308 104.495 353.323 105.378C353.331 106.268 353.3 107.159 353.323 108.042C353.346 108.733 353.039 108.948 352.379 108.94C351.741 108.94 351.503 108.679 351.511 108.065C351.526 106.683 351.511 105.309 351.511 103.927C351.511 103.65 351.526 103.366 351.365 103.128C351.189 102.867 350.928 102.806 350.636 102.875C350.206 102.974 350.045 103.297 350.045 103.696C350.029 104.802 350.029 105.9 350.029 107.005C350.029 107.374 350.014 107.742 350.029 108.111C350.06 108.687 349.822 108.94 349.223 108.948C348.609 108.948 348.317 108.74 348.34 108.096C348.371 107.143 348.34 106.199 348.34 105.247V105.239Z" fill="#D8B56C"/>
<path d="M191.806 105.316C191.806 106.176 191.79 107.028 191.806 107.888C191.821 108.502 191.752 108.955 190.938 108.948C190.093 108.94 190.101 108.426 190.117 107.842C190.117 107.504 190.117 107.166 190.117 106.829C190.132 106.237 190.132 105.731 189.28 105.746C188.489 105.761 188.489 106.237 188.504 106.79C188.512 107.251 188.489 107.712 188.504 108.165C188.535 108.794 188.189 108.94 187.644 108.932C187.138 108.932 186.823 108.794 186.823 108.211C186.83 106.222 186.83 104.234 186.823 102.237C186.823 101.646 187.161 101.531 187.652 101.531C188.128 101.531 188.52 101.6 188.504 102.214C188.497 102.644 188.527 103.074 188.504 103.496C188.473 104.088 188.735 104.31 189.318 104.318C189.925 104.318 190.14 104.042 190.117 103.473C190.101 103.136 190.14 102.798 190.117 102.46C190.07 101.807 190.308 101.516 191.007 101.516C191.698 101.516 191.821 101.876 191.813 102.452C191.798 103.404 191.813 104.349 191.813 105.301L191.806 105.316Z" fill="#D8B56C"/>
<path d="M155.912 105.232C155.912 106.184 155.889 107.128 155.912 108.08C155.927 108.71 155.681 108.948 155.052 108.955C154.384 108.955 154.192 108.648 154.223 108.049C154.246 107.527 154.207 107.005 154.223 106.491C154.238 105.907 153.916 105.777 153.409 105.769C152.879 105.769 152.603 105.961 152.618 106.514C152.633 107.067 152.603 107.619 152.618 108.165C152.633 108.779 152.311 108.948 151.758 108.948C151.251 108.948 150.937 108.802 150.937 108.226C150.937 106.237 150.937 104.249 150.937 102.26C150.937 101.669 151.274 101.554 151.773 101.554C152.257 101.554 152.633 101.654 152.618 102.245C152.618 102.644 152.641 103.043 152.618 103.435C152.587 104.034 152.787 104.341 153.455 104.333C154.077 104.326 154.261 104.034 154.23 103.473C154.215 103.136 154.246 102.798 154.23 102.46C154.2 101.884 154.345 101.539 155.029 101.531C155.727 101.523 155.942 101.815 155.919 102.468C155.889 103.381 155.912 104.303 155.912 105.224V105.232Z" fill="#D8B56C"/>
<path d="M278.941 105.239C278.941 104.38 278.987 103.52 278.926 102.667C278.841 101.554 279.248 101.339 280.438 101.685C280.776 101.784 280.945 101.784 281.229 101.639C282.465 100.994 283.77 101.639 283.863 103.028C283.978 104.802 283.909 106.583 283.901 108.357C283.901 109.002 283.394 108.925 282.972 108.94C282.481 108.956 282.235 108.741 282.243 108.234C282.243 106.913 282.243 105.6 282.243 104.28C282.243 103.973 282.227 103.666 282.158 103.374C282.074 103.044 281.82 102.875 281.475 102.867C281.122 102.852 280.899 103.028 280.776 103.358C280.646 103.712 280.638 104.08 280.638 104.449C280.638 105.677 280.615 106.898 280.638 108.126C280.653 108.787 280.331 108.963 279.732 108.963C279.11 108.963 278.933 108.664 278.941 108.103C278.956 107.151 278.941 106.207 278.941 105.255V105.239Z" fill="#D8B56C"/>
<path d="M218.517 105.193C218.517 104.333 218.517 103.481 218.517 102.621C218.524 101.608 219.039 101.216 219.968 101.646C220.336 101.815 220.513 101.792 220.835 101.615C221.972 101.017 223.262 101.6 223.415 102.882C223.63 104.71 223.5 106.552 223.469 108.387C223.461 108.971 222.985 108.917 222.586 108.925C222.125 108.94 221.81 108.794 221.81 108.257C221.81 106.967 221.81 105.685 221.803 104.395C221.803 104.088 221.803 103.781 221.734 103.481C221.649 103.09 221.404 102.829 220.958 102.844C220.551 102.859 220.344 103.113 220.267 103.466C220.206 103.765 220.198 104.072 220.198 104.379C220.19 105.608 220.175 106.829 220.198 108.057C220.213 108.679 219.983 108.94 219.338 108.94C218.678 108.94 218.486 108.641 218.501 108.042C218.524 107.09 218.501 106.145 218.501 105.193H218.517Z" fill="#D8B56C"/>
<path d="M197.986 108.802C196.297 109.101 196.243 109.063 195.713 107.712C195.552 107.305 195.498 106.829 195.115 106.437C194.654 106.905 194.792 107.451 194.792 107.942C194.792 108.525 194.723 108.948 193.963 108.948C193.249 108.948 193.08 108.618 193.088 107.988C193.111 106.153 193.111 104.31 193.088 102.475C193.08 101.823 193.28 101.531 193.978 101.539C194.662 101.546 194.815 101.884 194.784 102.468C194.761 102.921 194.784 103.366 194.784 104.011C195.307 103.512 195.483 103.02 195.721 102.583C196.343 101.462 196.55 101.37 197.917 101.708C197.71 102.36 197.318 102.913 196.957 103.45C196.443 104.21 196.374 104.925 196.781 105.769C197.241 106.729 197.571 107.742 197.994 108.809L197.986 108.802Z" fill="#D8B56C"/>
<path d="M246.702 104.886C246.702 103.965 246.702 103.051 246.702 102.13C246.702 101.265 246.269 100.814 245.404 100.778C244.567 100.748 244.406 100.564 244.467 99.8111C244.498 99.4042 244.667 99.1815 245.082 99.1738C246.832 99.1738 248.575 99.1738 250.325 99.1738C250.748 99.1738 250.932 99.4042 250.932 99.8111C250.932 100.21 250.986 100.64 250.433 100.74C250.341 100.755 250.249 100.763 250.157 100.771C249.107 100.873 248.583 101.446 248.583 102.491C248.583 104.326 248.56 106.168 248.59 108.003C248.606 108.74 248.291 108.948 247.6 108.948C246.909 108.948 246.686 108.656 246.702 108.003C246.732 106.967 246.709 105.923 246.702 104.878V104.886Z" fill="#D8B56C"/>
<path d="M357.776 104.019C357.776 102.737 357.768 101.447 357.776 100.164C357.776 99.2432 357.884 99.1894 358.767 99.151C359.55 99.1203 359.772 99.4735 359.765 100.195C359.742 102.276 359.78 104.357 359.749 106.437C359.734 107.197 360.01 107.497 360.763 107.443C361.277 107.405 361.807 107.451 362.321 107.443C362.867 107.428 363.089 107.666 363.089 108.211C363.089 108.779 362.805 108.956 362.283 108.948C361.062 108.933 359.834 108.925 358.605 108.948C357.953 108.963 357.745 108.664 357.753 108.057C357.776 106.714 357.753 105.37 357.753 104.019H357.776Z" fill="#D8B56C"/>
<path d="M137.101 105.232C137.101 106.214 137.093 107.19 137.101 108.172C137.101 108.717 136.863 108.94 136.318 108.94C135.796 108.94 135.404 108.848 135.412 108.203C135.42 107.65 135.404 107.097 135.412 106.552C135.412 106.069 135.305 105.854 134.713 105.907C132.771 106.099 132.134 105.493 132.118 103.558C132.118 103.22 132.134 102.882 132.118 102.545C132.088 101.953 132.18 101.554 132.94 101.539C133.754 101.523 133.838 101.969 133.807 102.591C133.792 102.959 133.8 103.328 133.823 103.696C133.861 104.249 134.184 104.518 134.736 104.502C135.274 104.487 135.381 104.111 135.397 103.681C135.412 103.22 135.427 102.759 135.412 102.299C135.389 101.654 135.773 101.554 136.303 101.554C136.832 101.554 137.109 101.738 137.101 102.299C137.086 103.282 137.101 104.257 137.101 105.239V105.232Z" fill="#D8B56C"/>
<path d="M379.666 105.608C379.666 105.024 379.666 104.448 379.666 103.865C379.666 103.435 379.658 103.066 379.197 102.775C378.79 102.521 378.783 101.907 379.167 101.677C379.727 101.339 379.689 100.894 379.666 100.418C379.635 99.7957 379.873 99.5347 380.518 99.5347C381.163 99.5347 381.393 99.7957 381.37 100.418C381.347 100.886 381.309 101.331 381.869 101.669C382.276 101.915 382.276 102.529 381.792 102.821C381.393 103.066 381.37 103.374 381.37 103.742C381.37 104.694 381.37 105.639 381.37 106.591C381.37 107.028 381.393 107.427 381.823 107.719C382.222 107.988 382.169 108.426 382.03 108.802C381.9 109.163 381.524 109.094 381.232 109.086C380.242 109.063 379.727 108.548 379.696 107.543C379.681 106.898 379.696 106.26 379.696 105.615L379.666 105.608Z" fill="#D8B56C"/>
<path d="M335.472 105.562C335.472 104.978 335.472 104.395 335.472 103.819C335.472 103.42 335.449 103.09 335.035 102.806C334.597 102.506 334.582 101.93 335.019 101.646C335.488 101.339 335.48 100.963 335.465 100.548C335.442 99.9571 335.534 99.5425 336.286 99.5425C337 99.5425 337.192 99.8726 337.161 100.502C337.138 100.955 337.146 101.347 337.653 101.677C338.067 101.946 338.06 102.537 337.599 102.836C337.185 103.113 337.161 103.458 337.161 103.857C337.161 104.687 337.161 105.508 337.161 106.337C337.161 106.89 337.138 107.428 337.691 107.804C337.998 108.011 337.937 108.418 337.845 108.74C337.737 109.124 337.384 109.086 337.077 109.086C336.094 109.086 335.534 108.579 335.48 107.581C335.449 106.905 335.48 106.238 335.48 105.562H335.472Z" fill="#D8B56C"/>
<path d="M253.696 104.126C253.696 105.439 253.673 106.752 253.704 108.065C253.719 108.771 253.389 108.94 252.752 108.948C252.099 108.948 251.815 108.733 251.815 108.042C251.838 105.354 251.838 102.667 251.815 99.98C251.815 99.2276 252.23 99.1585 252.821 99.1508C253.435 99.1432 253.719 99.3581 253.704 100.003C253.681 101.377 253.696 102.752 253.696 104.126Z" fill="#D8B56C"/>
<path d="M243.569 104.026C243.569 105.37 243.546 106.714 243.577 108.057C243.592 108.756 243.277 108.948 242.632 108.948C241.987 108.948 241.688 108.748 241.688 108.049C241.711 105.362 241.711 102.675 241.688 99.9878C241.688 99.243 242.087 99.1586 242.678 99.1509C243.285 99.1509 243.584 99.3428 243.569 99.9954C243.546 101.339 243.561 102.683 243.561 104.026H243.569Z" fill="#D8B56C"/>
<path d="M309.567 102.406C309.821 102.145 309.898 102.053 309.99 101.969C310.266 101.715 310.573 101.439 310.957 101.639C311.31 101.831 311.164 102.237 311.18 102.56C311.203 102.944 311.164 103.289 310.673 103.389C309.782 103.573 309.537 104.226 309.529 105.032C309.521 106.038 309.506 107.051 309.529 108.057C309.544 108.664 309.337 108.948 308.684 108.948C308.04 108.948 307.825 108.687 307.832 108.065C307.855 106.23 307.832 104.395 307.848 102.568C307.848 102.168 307.709 101.631 308.354 101.577C308.892 101.531 309.529 101.37 309.567 102.406Z" fill="#D8B56C"/>
<path d="M326.512 102.422C326.566 102.345 326.612 102.276 326.673 102.199C326.965 101.83 327.28 101.439 327.802 101.6C328.209 101.723 328.07 102.161 328.101 102.475C328.147 102.997 327.994 103.328 327.395 103.435C326.673 103.566 326.45 104.141 326.45 104.809C326.45 105.877 326.435 106.944 326.45 108.011C326.458 108.587 326.32 108.932 325.637 108.94C324.938 108.94 324.746 108.625 324.754 107.988C324.777 106.153 324.754 104.326 324.761 102.491C324.761 102.068 324.7 101.592 325.345 101.546C325.936 101.508 326.443 101.554 326.282 102.483C326.358 102.46 326.435 102.437 326.512 102.406V102.422Z" fill="#D8B56C"/>
<path d="M378.184 105.316C378.184 106.268 378.168 107.213 378.184 108.165C378.191 108.779 377.877 108.94 377.316 108.948C376.74 108.948 376.372 108.833 376.38 108.149C376.395 106.192 376.395 104.234 376.38 102.276C376.38 101.623 376.771 101.554 377.285 101.554C377.815 101.554 378.184 101.662 378.176 102.299C378.161 103.312 378.176 104.318 378.176 105.332L378.184 105.316Z" fill="#D8B56C"/>
<path d="M340.601 105.324C340.601 106.268 340.594 107.22 340.601 108.165C340.609 108.779 340.294 108.94 339.734 108.94C339.166 108.94 338.789 108.825 338.797 108.142C338.812 106.184 338.812 104.234 338.797 102.276C338.797 101.631 339.166 101.539 339.688 101.539C340.225 101.539 340.586 101.677 340.586 102.291C340.586 103.297 340.586 104.31 340.586 105.316L340.601 105.324Z" fill="#D8B56C"/>
<path d="M217.227 105.224C217.227 106.199 217.211 107.182 217.227 108.157C217.242 108.771 216.935 108.94 216.374 108.94C215.806 108.94 215.53 108.741 215.53 108.142C215.545 106.184 215.545 104.234 215.53 102.276C215.53 101.623 215.906 101.546 216.428 101.539C216.958 101.539 217.227 101.723 217.219 102.284C217.204 103.259 217.219 104.241 217.219 105.216L217.227 105.224Z" fill="#D8B56C"/>
<path d="M365.7 105.216C365.7 106.192 365.685 107.174 365.7 108.149C365.715 108.756 365.431 108.948 364.863 108.948C364.303 108.948 364.011 108.779 364.011 108.165C364.026 106.207 364.026 104.249 364.011 102.299C364.011 101.654 364.364 101.554 364.894 101.554C365.408 101.554 365.708 101.715 365.7 102.284C365.685 103.259 365.7 104.241 365.7 105.216Z" fill="#D8B56C"/>
<path d="M166.261 100.84C165.463 100.863 164.826 100.671 164.503 99.9034C164.411 99.673 164.319 99.412 164.595 99.2584C164.826 99.1279 165.041 99.2047 165.256 99.3889C166.031 100.057 166.238 100.057 166.983 99.4043C167.221 99.1893 167.459 99.1049 167.713 99.2968C167.951 99.4734 167.881 99.7421 167.782 99.9648C167.475 100.633 166.922 100.871 166.269 100.84H166.261Z" fill="#D8B56C"/>
<path d="M339.695 100.84C339.081 100.917 338.812 100.663 338.805 100.026C338.805 99.4041 339.035 99.1584 339.665 99.1584C340.302 99.1584 340.624 99.3658 340.617 100.049C340.617 100.709 340.294 100.909 339.695 100.84Z" fill="#D8B56C"/>
<path d="M377.239 100.84C376.617 100.917 376.379 100.625 376.379 100.003C376.379 99.3736 376.679 99.1663 377.278 99.1586C377.946 99.1509 378.199 99.4273 378.191 100.08C378.191 100.763 377.807 100.894 377.239 100.84Z" fill="#D8B56C"/>
<path d="M216.474 100.832C215.822 100.909 215.545 100.663 215.538 100.019C215.538 99.389 215.776 99.1509 216.398 99.1586C216.95 99.1663 217.25 99.3352 217.234 99.9418C217.219 100.502 217.135 100.932 216.474 100.832Z" fill="#D8B56C"/>
<path d="M364.87 100.832C364.233 100.917 364.003 100.61 364.01 99.9878C364.01 99.4196 364.202 99.1509 364.801 99.1509C365.377 99.1509 365.723 99.2891 365.715 99.957C365.707 100.548 365.538 100.909 364.878 100.825L364.87 100.832Z" fill="#D8B56C"/>
<path d="M48.4765 65.5836C48.4765 54.4585 48.4995 43.3257 48.4611 32.2006C48.4457 27.8012 46.8564 24.0084 43.6855 20.9142C41.9964 19.2635 39.9925 18.0888 37.8274 17.1674C37.1824 16.891 36.5221 16.6146 35.9156 16.2615C34.618 15.5167 34.3647 14.1808 35.2476 12.9754C35.8081 12.2076 36.6066 11.7546 37.4742 11.4014C42.1116 9.52037 46.9179 8.38405 51.9161 8.01552C59.3405 7.4704 66.4578 8.68349 73.3218 11.5012C74.197 11.8621 74.9495 12.3611 75.4562 13.175C76.1472 14.296 75.9015 15.5321 74.7498 16.1924C73.8208 16.7221 72.8074 17.106 71.84 17.5667C66.5884 20.0696 63.2178 24.0314 62.2734 29.8742C62.1045 30.9414 62.1352 32.0163 62.1352 33.0835C62.1352 54.9729 62.1352 76.8622 62.1352 98.7516C62.1352 99.0587 62.1045 99.3659 62.1352 99.673C62.212 100.402 61.8972 100.725 61.1755 100.809C57.2598 101.278 53.3442 101.285 49.4285 100.817C48.5456 100.709 48.4611 100.241 48.4611 99.5117C48.4765 88.2023 48.4688 76.8853 48.4688 65.5759L48.4765 65.5836Z" fill="#E32129"/>
<path d="M30.2417 15.2942C30.5105 15.6934 30.4414 16.0696 30.4414 16.4305C30.4414 27.7706 30.4414 39.1184 30.4414 50.4585C30.4414 51.779 30.3262 51.8942 29.0056 51.6946C25.8347 51.2186 23.4699 49.66 22.157 46.6503C21.8729 45.9977 21.658 45.1224 20.7443 45.1531C19.8383 45.1915 19.5696 46.0514 19.2778 46.7424C18.6329 48.2549 18.3795 49.8673 18.226 51.4796C17.8958 54.8502 17.988 58.213 18.7558 61.5298C18.9477 62.3667 19.2164 63.1882 19.6617 63.9253C20.3374 65.0309 21.1896 65.0232 21.8346 63.9253C22.0035 63.6335 22.1493 63.3264 22.2875 63.0193C23.7156 59.9252 26.28 58.5048 29.5431 58.1209C30.1803 58.0441 30.4644 58.3052 30.4414 58.9347C30.4414 59.119 30.4414 59.3033 30.4414 59.4875C30.4414 70.5205 30.4414 81.5612 30.4414 92.5942C30.4414 92.9781 30.5258 93.3927 30.2648 93.7458C19.6924 87.5652 8.7516 73.5302 8.57501 54.996C8.39074 35.9628 19.5312 21.5977 30.2494 15.2942H30.2417Z" fill="#E32129"/>
<path d="M80.2471 93.7381V15.394C80.6693 15.2481 80.915 15.5322 81.1761 15.7165C92.0709 23.21 98.8196 33.4061 101.254 46.4199C101.538 47.9248 101.73 49.445 101.822 50.9729C101.86 51.6178 101.637 51.8021 101.046 51.7253C98.1363 51.3491 95.8023 50.0822 94.3588 47.4411C94.0978 46.9574 93.8828 46.443 93.6218 45.9593C93.0152 44.8613 92.2244 44.8306 91.5334 45.8902C91.019 46.6656 90.7426 47.5486 90.543 48.4469C89.5909 52.8232 89.5833 57.1995 90.5737 61.5682C90.7733 62.4665 91.0497 63.3495 91.5948 64.1172C92.2167 64.9925 93.0076 64.9771 93.568 64.0635C93.8214 63.6489 94.0133 63.1882 94.2283 62.7506C95.6334 59.8944 98.0595 58.5585 101.108 58.1746C102.037 58.0595 101.806 58.7581 101.753 59.2188C101.468 61.906 101 64.5549 100.248 67.15C97.0845 78.0064 90.8347 86.6592 81.5216 93.0932C81.153 93.3466 80.8152 93.6767 80.2471 93.7381Z" fill="#E32129"/>
<path d="M75.6716 20.9833C75.9019 21.2674 75.8098 21.6129 75.8098 21.943C75.8098 46.3968 75.8098 70.8506 75.8328 95.312C75.8328 96.1335 75.6025 96.5865 74.827 96.9243C72.3778 97.9915 69.8902 98.9513 67.2951 99.6039C66.4429 99.8189 66.3891 99.7651 66.3584 98.9282C66.3584 98.7747 66.3584 98.6211 66.3584 98.4676C66.3584 76.9544 66.3584 55.4412 66.3584 33.9281C66.3584 30.7648 67.0878 27.8626 69.1531 25.3827C70.7962 23.4018 72.9229 22.0812 75.2262 21.014C75.3644 20.9449 75.518 20.9142 75.6869 20.9987L75.6716 20.9833Z" fill="#E32129"/>
<path d="M34.9867 20.8528C36.7909 21.6129 38.434 22.5419 39.8774 23.7934C42.5646 26.1274 44.0004 29.0603 44.177 32.6228C44.2307 33.7591 44.2691 34.8878 44.2691 36.0241C44.2691 56.685 44.2691 77.346 44.2691 98.0069C44.2691 100.111 44.2768 99.8803 42.5109 99.3889C40.2306 98.7516 38.0347 97.8994 35.8619 96.9627C35.0557 96.6172 34.8101 96.1565 34.8101 95.3043C34.8331 76.5705 34.8254 57.8444 34.8254 39.1106C34.8254 33.4367 34.8254 27.7705 34.8254 22.0966C34.8254 21.7357 34.7563 21.3595 34.979 20.8528H34.9867Z" fill="#E32129"/>
</svg>
