<svg width="40" height="28" viewBox="0 0 40 28" fill="none" xmlns="http://www.w3.org/2000/svg">
<rect x="30" y="4" width="4" height="24" rx="1" fill="#222445"/>
<path d="M27.4142 9.41421C26.6332 10.1953 25.3668 10.1953 24.5858 9.41421C23.8047 8.63316 23.8047 7.36683 24.5858 6.58579L30.5858 0.585787C31.3668 -0.195261 32.6332 -0.195261 33.4142 0.585787L39.4142 6.58579C40.1953 7.36684 40.1953 8.63317 39.4142 9.41421C38.6332 10.1953 37.3668 10.1953 36.5858 9.41421L32 4.82843L27.4142 9.41421Z" fill="#222445"/>
<rect width="4" height="24" rx="1" transform="matrix(1 4.37114e-08 4.37114e-08 -1 6 24.0002)" fill="#222445"/>
<path d="M3.41421 18.586C2.63317 17.805 1.36684 17.805 0.585788 18.586C-0.195261 19.3671 -0.195261 20.6334 0.585788 21.4145L6.58579 27.4145C7.36684 28.1955 8.63316 28.1955 9.41421 27.4145L15.4142 21.4145C16.1953 20.6334 16.1953 19.3671 15.4142 18.586C14.6332 17.805 13.3668 17.805 12.5858 18.586L8 23.1718L3.41421 18.586Z" fill="#222445"/>
</svg>
